%TF.GenerationSoftware,KiCad,Pcbnew,9.0.5*%
%TF.CreationDate,2025-11-13T15:13:34+01:00*%
%TF.ProjectId,Remote_estop_Robin De Vos,52656d6f-7465-45f6-9573-746f705f526f,rev?*%
%TF.SameCoordinates,Original*%
%TF.FileFunction,Copper,L1,Top*%
%TF.FilePolarity,Positive*%
%FSLAX46Y46*%
G04 Gerber Fmt 4.6, Leading zero omitted, Abs format (unit mm)*
G04 Created by KiCad (PCBNEW 9.0.5) date 2025-11-13 15:13:34*
%MOMM*%
%LPD*%
G01*
G04 APERTURE LIST*
G04 Aperture macros list*
%AMRoundRect*
0 Rectangle with rounded corners*
0 $1 Rounding radius*
0 $2 $3 $4 $5 $6 $7 $8 $9 X,Y pos of 4 corners*
0 Add a 4 corners polygon primitive as box body*
4,1,4,$2,$3,$4,$5,$6,$7,$8,$9,$2,$3,0*
0 Add four circle primitives for the rounded corners*
1,1,$1+$1,$2,$3*
1,1,$1+$1,$4,$5*
1,1,$1+$1,$6,$7*
1,1,$1+$1,$8,$9*
0 Add four rect primitives between the rounded corners*
20,1,$1+$1,$2,$3,$4,$5,0*
20,1,$1+$1,$4,$5,$6,$7,0*
20,1,$1+$1,$6,$7,$8,$9,0*
20,1,$1+$1,$8,$9,$2,$3,0*%
G04 Aperture macros list end*
%TA.AperFunction,SMDPad,CuDef*%
%ADD10RoundRect,0.250000X-0.337500X-0.475000X0.337500X-0.475000X0.337500X0.475000X-0.337500X0.475000X0*%
%TD*%
%TA.AperFunction,SMDPad,CuDef*%
%ADD11R,1.500000X2.300000*%
%TD*%
%TA.AperFunction,SMDPad,CuDef*%
%ADD12R,2.300000X1.500000*%
%TD*%
%TA.AperFunction,SMDPad,CuDef*%
%ADD13R,1.350000X0.400000*%
%TD*%
%TA.AperFunction,HeatsinkPad*%
%ADD14O,1.900000X1.200000*%
%TD*%
%TA.AperFunction,SMDPad,CuDef*%
%ADD15R,1.900000X1.200000*%
%TD*%
%TA.AperFunction,HeatsinkPad*%
%ADD16C,1.450000*%
%TD*%
%TA.AperFunction,SMDPad,CuDef*%
%ADD17R,1.900000X1.500000*%
%TD*%
%TA.AperFunction,SMDPad,CuDef*%
%ADD18RoundRect,0.250000X0.450000X-0.325000X0.450000X0.325000X-0.450000X0.325000X-0.450000X-0.325000X0*%
%TD*%
%TA.AperFunction,SMDPad,CuDef*%
%ADD19RoundRect,0.250000X0.475000X-0.337500X0.475000X0.337500X-0.475000X0.337500X-0.475000X-0.337500X0*%
%TD*%
%TA.AperFunction,ComponentPad*%
%ADD20R,1.700000X1.700000*%
%TD*%
%TA.AperFunction,ComponentPad*%
%ADD21C,1.700000*%
%TD*%
%TA.AperFunction,SMDPad,CuDef*%
%ADD22RoundRect,0.250000X0.350000X0.450000X-0.350000X0.450000X-0.350000X-0.450000X0.350000X-0.450000X0*%
%TD*%
%TA.AperFunction,SMDPad,CuDef*%
%ADD23RoundRect,0.250000X0.450000X-0.350000X0.450000X0.350000X-0.450000X0.350000X-0.450000X-0.350000X0*%
%TD*%
%TA.AperFunction,SMDPad,CuDef*%
%ADD24RoundRect,0.375000X-0.625000X-0.375000X0.625000X-0.375000X0.625000X0.375000X-0.625000X0.375000X0*%
%TD*%
%TA.AperFunction,SMDPad,CuDef*%
%ADD25RoundRect,0.500000X-0.500000X-1.400000X0.500000X-1.400000X0.500000X1.400000X-0.500000X1.400000X0*%
%TD*%
%TA.AperFunction,ComponentPad*%
%ADD26RoundRect,0.250001X-1.149999X1.149999X-1.149999X-1.149999X1.149999X-1.149999X1.149999X1.149999X0*%
%TD*%
%TA.AperFunction,ComponentPad*%
%ADD27C,2.800000*%
%TD*%
%TA.AperFunction,SMDPad,CuDef*%
%ADD28RoundRect,0.250000X-0.350000X-0.450000X0.350000X-0.450000X0.350000X0.450000X-0.350000X0.450000X0*%
%TD*%
%TA.AperFunction,SMDPad,CuDef*%
%ADD29R,1.500000X0.900000*%
%TD*%
%TA.AperFunction,SMDPad,CuDef*%
%ADD30R,0.900000X1.500000*%
%TD*%
%TA.AperFunction,SMDPad,CuDef*%
%ADD31R,0.900000X0.900000*%
%TD*%
%TA.AperFunction,HeatsinkPad*%
%ADD32C,0.600000*%
%TD*%
%TA.AperFunction,HeatsinkPad*%
%ADD33R,3.800000X3.800000*%
%TD*%
%TA.AperFunction,SMDPad,CuDef*%
%ADD34RoundRect,0.250000X0.337500X0.475000X-0.337500X0.475000X-0.337500X-0.475000X0.337500X-0.475000X0*%
%TD*%
%TA.AperFunction,SMDPad,CuDef*%
%ADD35RoundRect,0.250000X-0.450000X0.350000X-0.450000X-0.350000X0.450000X-0.350000X0.450000X0.350000X0*%
%TD*%
%TA.AperFunction,SMDPad,CuDef*%
%ADD36RoundRect,0.250000X-0.450000X0.325000X-0.450000X-0.325000X0.450000X-0.325000X0.450000X0.325000X0*%
%TD*%
%TA.AperFunction,ViaPad*%
%ADD37C,0.600000*%
%TD*%
%TA.AperFunction,ViaPad*%
%ADD38C,0.610000*%
%TD*%
%TA.AperFunction,Conductor*%
%ADD39C,0.400000*%
%TD*%
%TA.AperFunction,Conductor*%
%ADD40C,0.152400*%
%TD*%
%TA.AperFunction,Conductor*%
%ADD41C,0.304800*%
%TD*%
%TA.AperFunction,Conductor*%
%ADD42C,0.300000*%
%TD*%
G04 APERTURE END LIST*
D10*
%TO.P,C4,1*%
%TO.N,Net-(U1-EN)*%
X120365000Y-99425000D03*
%TO.P,C4,2*%
%TO.N,GND*%
X122440000Y-99425000D03*
%TD*%
D11*
%TO.P,SW3,1,1*%
%TO.N,Net-(J4-Pin_2)*%
X129500000Y-91300000D03*
%TO.P,SW3,2,2*%
%TO.N,GND*%
X129500000Y-84600000D03*
%TD*%
D12*
%TO.P,SW1,1,1*%
%TO.N,Net-(U1-IO0)*%
X155200000Y-86000000D03*
%TO.P,SW1,2,2*%
%TO.N,GND*%
X161900000Y-86000000D03*
%TD*%
D13*
%TO.P,J2,1,VBUS*%
%TO.N,VCC*%
X115390000Y-104525000D03*
%TO.P,J2,2,D-*%
%TO.N,unconnected-(J2-D--Pad2)*%
X115390000Y-105175000D03*
%TO.P,J2,3,D+*%
%TO.N,unconnected-(J2-D+-Pad3)*%
X115390000Y-105825000D03*
%TO.P,J2,4,ID*%
%TO.N,unconnected-(J2-ID-Pad4)*%
X115390000Y-106475000D03*
%TO.P,J2,5,GND*%
%TO.N,GND*%
X115390000Y-107125000D03*
D14*
%TO.P,J2,6,Shield*%
X112690000Y-102325000D03*
D15*
X112690000Y-102925000D03*
D16*
X115390000Y-103325000D03*
D17*
X112690000Y-104825000D03*
X112690000Y-106825000D03*
D16*
X115390000Y-108325000D03*
D15*
X112690000Y-108725000D03*
D14*
X112690000Y-109325000D03*
%TD*%
D18*
%TO.P,int_led1,1,K*%
%TO.N,Net-(internal_led1-K)*%
X165940000Y-107700000D03*
%TO.P,int_led1,2,A*%
%TO.N,Net-(U1-IO2)*%
X165940000Y-105650000D03*
%TD*%
D19*
%TO.P,C2,1*%
%TO.N,+3V3*%
X126444210Y-107898567D03*
%TO.P,C2,2*%
%TO.N,GND*%
X126444210Y-105823567D03*
%TD*%
D20*
%TO.P,J3,1,Pin_1*%
%TO.N,VCC*%
X124940000Y-114675000D03*
D21*
%TO.P,J3,2,Pin_2*%
%TO.N,GND*%
X122400000Y-114675000D03*
%TD*%
D20*
%TO.P,J1,1,Pin_1*%
%TO.N,GND*%
X166690000Y-85615000D03*
D21*
%TO.P,J1,2,Pin_2*%
%TO.N,Net-(J1-Pin_2)*%
X166690000Y-88155000D03*
%TO.P,J1,3,Pin_3*%
%TO.N,Net-(J1-Pin_3)*%
X166690000Y-90695000D03*
%TO.P,J1,4,Pin_4*%
%TO.N,+3V3*%
X166690000Y-93235000D03*
%TD*%
D22*
%TO.P,R2,1*%
%TO.N,Net-(U1-IO0)*%
X158940000Y-95175000D03*
%TO.P,R2,2*%
%TO.N,+3V3*%
X156940000Y-95175000D03*
%TD*%
D11*
%TO.P,SW2,1,1*%
%TO.N,GND*%
X123500000Y-84700000D03*
%TO.P,SW2,2,2*%
%TO.N,Net-(U1-EN)*%
X123500000Y-91400000D03*
%TD*%
D23*
%TO.P,R1,1*%
%TO.N,+3V3*%
X159440000Y-112650000D03*
%TO.P,R1,2*%
%TO.N,Net-(D1-A)*%
X159440000Y-110650000D03*
%TD*%
D19*
%TO.P,C1,1*%
%TO.N,VCC*%
X126440000Y-111712500D03*
%TO.P,C1,2*%
%TO.N,GND*%
X126440000Y-109637500D03*
%TD*%
D24*
%TO.P,U2,1,GND*%
%TO.N,GND*%
X129790000Y-106375000D03*
%TO.P,U2,2,VO*%
%TO.N,+3V3*%
X129790000Y-108675000D03*
D25*
X136090000Y-108675000D03*
D24*
%TO.P,U2,3,VI*%
%TO.N,VCC*%
X129790000Y-110975000D03*
%TD*%
D22*
%TO.P,R7,1*%
%TO.N,Net-(J4-Pin_2)*%
X127902500Y-95925000D03*
%TO.P,R7,2*%
%TO.N,+3V3*%
X125902500Y-95925000D03*
%TD*%
D26*
%TO.P,J4,1,Pin_1*%
%TO.N,GND*%
X116500000Y-86500000D03*
D27*
%TO.P,J4,2,Pin_2*%
%TO.N,Net-(J4-Pin_2)*%
X116500000Y-91500000D03*
%TD*%
D28*
%TO.P,R4,1*%
%TO.N,Net-(J1-Pin_3)*%
X164940000Y-98675000D03*
%TO.P,R4,2*%
%TO.N,+3V3*%
X166940000Y-98675000D03*
%TD*%
D29*
%TO.P,U1,1,GND*%
%TO.N,GND*%
X134190000Y-83340000D03*
%TO.P,U1,2,VDD*%
%TO.N,+3V3*%
X134190000Y-84610000D03*
%TO.P,U1,3,EN*%
%TO.N,Net-(U1-EN)*%
X134190000Y-85880000D03*
%TO.P,U1,4,SENSOR_VP*%
%TO.N,unconnected-(U1-SENSOR_VP-Pad4)*%
X134190000Y-87150000D03*
%TO.P,U1,5,SENSOR_VN*%
%TO.N,unconnected-(U1-SENSOR_VN-Pad5)*%
X134190000Y-88420000D03*
%TO.P,U1,6,IO34*%
%TO.N,unconnected-(U1-IO34-Pad6)*%
X134190000Y-89690000D03*
%TO.P,U1,7,IO35*%
%TO.N,unconnected-(U1-IO35-Pad7)*%
X134190000Y-90960000D03*
%TO.P,U1,8,IO32*%
%TO.N,unconnected-(U1-IO32-Pad8)*%
X134190000Y-92230000D03*
%TO.P,U1,9,IO33*%
%TO.N,unconnected-(U1-IO33-Pad9)*%
X134190000Y-93500000D03*
%TO.P,U1,10,IO25*%
%TO.N,unconnected-(U1-IO25-Pad10)*%
X134190000Y-94770000D03*
%TO.P,U1,11,IO26*%
%TO.N,Net-(J4-Pin_2)*%
X134190000Y-96040000D03*
%TO.P,U1,12,IO27*%
%TO.N,unconnected-(U1-IO27-Pad12)*%
X134190000Y-97310000D03*
%TO.P,U1,13,IO14*%
%TO.N,unconnected-(U1-IO14-Pad13)*%
X134190000Y-98580000D03*
%TO.P,U1,14,IO12*%
%TO.N,unconnected-(U1-IO12-Pad14)*%
X134190000Y-99850000D03*
D30*
%TO.P,U1,15,GND*%
%TO.N,GND*%
X137230000Y-101100000D03*
%TO.P,U1,16,IO13*%
%TO.N,unconnected-(U1-IO13-Pad16)*%
X138500000Y-101100000D03*
%TO.P,U1,17,NC*%
%TO.N,unconnected-(U1-NC-Pad17)*%
X139770000Y-101100000D03*
%TO.P,U1,18,NC*%
%TO.N,unconnected-(U1-NC-Pad18)*%
X141040000Y-101100000D03*
%TO.P,U1,19,NC*%
%TO.N,unconnected-(U1-NC-Pad19)*%
X142310000Y-101100000D03*
%TO.P,U1,20,NC*%
%TO.N,unconnected-(U1-NC-Pad20)*%
X143580000Y-101100000D03*
%TO.P,U1,21,NC*%
%TO.N,unconnected-(U1-NC-Pad21)*%
X144850000Y-101100000D03*
%TO.P,U1,22,NC*%
%TO.N,unconnected-(U1-NC-Pad22)*%
X146120000Y-101100000D03*
%TO.P,U1,23,IO15*%
%TO.N,unconnected-(U1-IO15-Pad23)*%
X147390000Y-101100000D03*
%TO.P,U1,24,IO2*%
%TO.N,Net-(U1-IO2)*%
X148660000Y-101100000D03*
D29*
%TO.P,U1,25,IO0*%
%TO.N,Net-(U1-IO0)*%
X151690000Y-99850000D03*
%TO.P,U1,26,IO4*%
%TO.N,unconnected-(U1-IO4-Pad26)*%
X151690000Y-98580000D03*
%TO.P,U1,27,IO16*%
%TO.N,unconnected-(U1-IO16-Pad27)*%
X151690000Y-97310000D03*
%TO.P,U1,28,IO17*%
%TO.N,unconnected-(U1-IO17-Pad28)*%
X151690000Y-96040000D03*
%TO.P,U1,29,IO5*%
%TO.N,Net-(U1-IO5)*%
X151690000Y-94770000D03*
%TO.P,U1,30,IO18*%
%TO.N,unconnected-(U1-IO18-Pad30)*%
X151690000Y-93500000D03*
%TO.P,U1,31,IO19*%
%TO.N,unconnected-(U1-IO19-Pad31)*%
X151690000Y-92230000D03*
%TO.P,U1,32,NC*%
%TO.N,unconnected-(U1-NC-Pad32)*%
X151690000Y-90960000D03*
%TO.P,U1,33,IO21*%
%TO.N,unconnected-(U1-IO21-Pad33)*%
X151690000Y-89690000D03*
%TO.P,U1,34,RXD0/IO3*%
%TO.N,Net-(J1-Pin_2)*%
X151690000Y-88420000D03*
%TO.P,U1,35,TXD0/IO1*%
%TO.N,Net-(J1-Pin_3)*%
X151690000Y-87150000D03*
%TO.P,U1,36,IO22*%
%TO.N,unconnected-(U1-IO22-Pad36)*%
X151690000Y-85880000D03*
%TO.P,U1,37,IO23*%
%TO.N,unconnected-(U1-IO23-Pad37)*%
X151690000Y-84610000D03*
%TO.P,U1,38,GND*%
%TO.N,GND*%
X151690000Y-83340000D03*
D31*
%TO.P,U1,39,GND*%
X140040000Y-89660000D03*
D32*
X140040000Y-90360000D03*
D31*
X140040000Y-91060000D03*
D32*
X140040000Y-91760000D03*
D31*
X140040000Y-92460000D03*
D32*
X140740000Y-89660000D03*
X140740000Y-91060000D03*
X140740000Y-92460000D03*
X141415000Y-90360000D03*
X141415000Y-91760000D03*
D31*
X141440000Y-89660000D03*
X141440000Y-91060000D03*
D33*
X141440000Y-91060000D03*
D31*
X141440000Y-92460000D03*
D32*
X142140000Y-89660000D03*
X142140000Y-91060000D03*
X142140000Y-92460000D03*
D31*
X142840000Y-89660000D03*
D32*
X142840000Y-90360000D03*
D31*
X142840000Y-91060000D03*
D32*
X142840000Y-91760000D03*
D31*
X142840000Y-92460000D03*
%TD*%
D34*
%TO.P,C3,1*%
%TO.N,Net-(J4-Pin_2)*%
X127940000Y-99425000D03*
%TO.P,C3,2*%
%TO.N,GND*%
X125865000Y-99425000D03*
%TD*%
D35*
%TO.P,R3,1*%
%TO.N,GND*%
X150940000Y-105675000D03*
%TO.P,R3,2*%
%TO.N,Net-(U1-IO2)*%
X150940000Y-107675000D03*
%TD*%
%TO.P,R5,1*%
%TO.N,Net-(U1-IO5)*%
X150940000Y-110675000D03*
%TO.P,R5,2*%
%TO.N,+3V3*%
X150940000Y-112675000D03*
%TD*%
D28*
%TO.P,R8,1*%
%TO.N,Net-(U1-EN)*%
X120402500Y-95925000D03*
%TO.P,R8,2*%
%TO.N,+3V3*%
X122402500Y-95925000D03*
%TD*%
D35*
%TO.P,R6,1*%
%TO.N,Net-(internal_led1-K)*%
X165940000Y-110675000D03*
%TO.P,R6,2*%
%TO.N,GND*%
X165940000Y-112675000D03*
%TD*%
D36*
%TO.P,D1,1,K*%
%TO.N,GND*%
X159440000Y-105625000D03*
%TO.P,D1,2,A*%
%TO.N,Net-(D1-A)*%
X159440000Y-107675000D03*
%TD*%
D34*
%TO.P,C5,1*%
%TO.N,Net-(U1-IO0)*%
X158977500Y-99175000D03*
%TO.P,C5,2*%
%TO.N,GND*%
X156902500Y-99175000D03*
%TD*%
D37*
%TO.N,GND*%
X174750000Y-82000000D03*
X168250000Y-82000000D03*
X126500000Y-88000000D03*
X161750000Y-102250000D03*
X127912285Y-103233755D03*
X173000000Y-87250000D03*
X167250000Y-116500000D03*
X171000000Y-101250000D03*
X113123061Y-98078857D03*
X154000000Y-92000000D03*
X142000000Y-106500000D03*
%TO.N,+3V3*%
X160940000Y-111675000D03*
X166940000Y-100675000D03*
X123940000Y-96425000D03*
X124940000Y-105722540D03*
X133000000Y-84610000D03*
X125940000Y-94425000D03*
%TO.N,Net-(J4-Pin_2)*%
X125675000Y-93175000D03*
X119794139Y-93175000D03*
%TO.N,Net-(U1-EN)*%
X132000000Y-86000000D03*
X126000000Y-91500000D03*
D38*
%TO.N,Net-(U1-IO0)*%
X154500000Y-88250000D03*
X158940000Y-94190000D03*
D37*
%TO.N,Net-(U1-IO2)*%
X154940000Y-107675000D03*
X162940000Y-106675000D03*
%TO.N,Net-(J1-Pin_3)*%
X153144176Y-87162690D03*
X164940000Y-95675000D03*
%TO.N,Net-(U1-IO5)*%
X153940000Y-110675000D03*
X153940000Y-94675000D03*
%TD*%
D39*
%TO.N,GND*%
X112690000Y-108725000D02*
X112690000Y-102925000D01*
D40*
X112990000Y-107125000D02*
X112690000Y-106825000D01*
D39*
X114990000Y-108725000D02*
X115390000Y-108325000D01*
D41*
X115390000Y-107665000D02*
X122400000Y-114675000D01*
X117312494Y-107125000D02*
X117332157Y-107144663D01*
D42*
X122440000Y-99425000D02*
X125865000Y-99425000D01*
X159390000Y-105675000D02*
X159440000Y-105625000D01*
D41*
X115390000Y-107125000D02*
X115390000Y-108325000D01*
D40*
X129500000Y-84600000D02*
X129500000Y-84125000D01*
D41*
X115390000Y-107125000D02*
X117312494Y-107125000D01*
X115390000Y-107125000D02*
X115390000Y-107665000D01*
D42*
X162250000Y-86125000D02*
X162375000Y-86000000D01*
D41*
X115390000Y-107125000D02*
X112990000Y-107125000D01*
D42*
X129238567Y-105823567D02*
X129790000Y-106375000D01*
X166380000Y-85925000D02*
X166690000Y-85615000D01*
D39*
X159440000Y-105625000D02*
X159440000Y-105940000D01*
X114990000Y-102925000D02*
X115390000Y-103325000D01*
D42*
X126440000Y-109637500D02*
X126727500Y-109637500D01*
D39*
%TO.N,VCC*%
X125862983Y-111000000D02*
X126440000Y-111577017D01*
X125000000Y-111000000D02*
X125862983Y-111000000D01*
X129052500Y-111712500D02*
X129790000Y-110975000D01*
X126440000Y-113175000D02*
X124940000Y-114675000D01*
X118525000Y-104525000D02*
X125000000Y-111000000D01*
X126440000Y-111577017D02*
X126440000Y-111712500D01*
X126440000Y-111712500D02*
X129052500Y-111712500D01*
X126440000Y-111712500D02*
X126440000Y-113175000D01*
X115390000Y-104525000D02*
X118525000Y-104525000D01*
D42*
%TO.N,+3V3*%
X159440000Y-112650000D02*
X159965000Y-112650000D01*
X125865000Y-95962500D02*
X125902500Y-95925000D01*
D39*
X124940000Y-106394357D02*
X124940000Y-105722540D01*
X126444210Y-107898567D02*
X129013567Y-107898567D01*
X125902500Y-95925000D02*
X125902500Y-94462500D01*
X156940000Y-95175000D02*
X158820000Y-93295000D01*
X136090000Y-108675000D02*
X140090000Y-112675000D01*
X123440000Y-95925000D02*
X123940000Y-96425000D01*
X129013567Y-107898567D02*
X129790000Y-108675000D01*
D42*
X125902500Y-94462500D02*
X125940000Y-94425000D01*
D39*
X158820000Y-93295000D02*
X165940000Y-93295000D01*
X125902500Y-95925000D02*
X122402500Y-95925000D01*
D42*
X122402500Y-95925000D02*
X123440000Y-95925000D01*
D39*
X166940000Y-94295000D02*
X165940000Y-93295000D01*
X140090000Y-112675000D02*
X150940000Y-112675000D01*
X133000000Y-84610000D02*
X134190000Y-84610000D01*
X159965000Y-112650000D02*
X160940000Y-111675000D01*
X136090000Y-108675000D02*
X129790000Y-108675000D01*
D42*
X134722000Y-84610000D02*
X134190000Y-84610000D01*
X150965000Y-112650000D02*
X150940000Y-112675000D01*
D39*
X126444210Y-107898567D02*
X124940000Y-106394357D01*
X166940000Y-100675000D02*
X166940000Y-98675000D01*
X166940000Y-98675000D02*
X166940000Y-94295000D01*
X159440000Y-112650000D02*
X150965000Y-112650000D01*
D42*
%TO.N,Net-(J4-Pin_2)*%
X127940000Y-96175000D02*
X127940000Y-99425000D01*
X125675000Y-93175000D02*
X127902500Y-95402500D01*
X127902500Y-95925000D02*
X127902500Y-96137500D01*
X134075000Y-95925000D02*
X134190000Y-96040000D01*
X126975000Y-91875000D02*
X129500000Y-91875000D01*
X125675000Y-93175000D02*
X126975000Y-91875000D01*
X118175000Y-93175000D02*
X116500000Y-91500000D01*
X127902500Y-95925000D02*
X134075000Y-95925000D01*
X127902500Y-95402500D02*
X127902500Y-95925000D01*
X127902500Y-96137500D02*
X127940000Y-96175000D01*
X119794139Y-93175000D02*
X118175000Y-93175000D01*
%TO.N,Net-(U1-EN)*%
X120402500Y-94972500D02*
X123500000Y-91875000D01*
X120365000Y-95962500D02*
X120402500Y-95925000D01*
X132000000Y-86000000D02*
X134070000Y-86000000D01*
X120402500Y-95925000D02*
X120402500Y-94972500D01*
X125625000Y-91875000D02*
X126000000Y-91500000D01*
X120365000Y-99425000D02*
X120365000Y-95962500D01*
X123500000Y-91875000D02*
X125625000Y-91875000D01*
X134070000Y-86000000D02*
X134190000Y-85880000D01*
%TO.N,Net-(U1-IO0)*%
X158977500Y-99175000D02*
X158977500Y-95212500D01*
X154500000Y-86125000D02*
X154625000Y-86000000D01*
X158977500Y-95212500D02*
X158940000Y-95175000D01*
X158977500Y-99175000D02*
X158977500Y-98826250D01*
X157949100Y-100203400D02*
X152043400Y-100203400D01*
X152043400Y-100203400D02*
X151690000Y-99850000D01*
X158940000Y-95175000D02*
X158940000Y-98736160D01*
X158977500Y-99175000D02*
X157949100Y-100203400D01*
X158940000Y-94190000D02*
X158940000Y-95175000D01*
X154500000Y-88250000D02*
X154500000Y-86125000D01*
%TO.N,Net-(D1-A)*%
X159440000Y-110650000D02*
X159440000Y-107675000D01*
%TO.N,Net-(U1-IO2)*%
X165940000Y-105650000D02*
X163965000Y-105650000D01*
X148660000Y-105395000D02*
X148660000Y-101100000D01*
X163965000Y-105650000D02*
X162940000Y-106675000D01*
X154940000Y-107675000D02*
X150940000Y-107675000D01*
X150940000Y-107675000D02*
X148660000Y-105395000D01*
%TO.N,Net-(internal_led1-K)*%
X165940000Y-107700000D02*
X165940000Y-110675000D01*
%TO.N,Net-(J1-Pin_2)*%
X151690000Y-88420000D02*
X151812500Y-88297500D01*
X151895000Y-88215000D02*
X151690000Y-88420000D01*
X165986600Y-88858400D02*
X166690000Y-88155000D01*
X152128400Y-88858400D02*
X165986600Y-88858400D01*
X151690000Y-88420000D02*
X152128400Y-88858400D01*
%TO.N,Net-(J1-Pin_3)*%
X164940000Y-98675000D02*
X164940000Y-95675000D01*
X152165000Y-87150000D02*
X151690000Y-87150000D01*
X153144176Y-87162690D02*
X152165000Y-87150000D01*
%TO.N,Net-(U1-IO5)*%
X151690000Y-94770000D02*
X151785000Y-94675000D01*
X150940000Y-110675000D02*
X153940000Y-110675000D01*
X151785000Y-94675000D02*
X153940000Y-94675000D01*
%TD*%
%TA.AperFunction,Conductor*%
%TO.N,GND*%
G36*
X165733881Y-89528585D02*
G01*
X165779636Y-89581389D01*
X165789580Y-89650547D01*
X165760555Y-89714103D01*
X165754523Y-89720581D01*
X165659894Y-89815209D01*
X165659890Y-89815213D01*
X165534951Y-89987179D01*
X165438444Y-90176585D01*
X165372753Y-90378760D01*
X165339500Y-90588713D01*
X165339500Y-90801286D01*
X165369343Y-90989711D01*
X165372754Y-91011243D01*
X165429114Y-91184701D01*
X165438444Y-91213414D01*
X165534951Y-91402820D01*
X165659890Y-91574786D01*
X165810213Y-91725109D01*
X165982182Y-91850050D01*
X165990946Y-91854516D01*
X166041742Y-91902491D01*
X166058536Y-91970312D01*
X166035998Y-92036447D01*
X165990946Y-92075484D01*
X165982182Y-92079949D01*
X165810213Y-92204890D01*
X165659890Y-92355213D01*
X165534956Y-92527173D01*
X165532408Y-92531332D01*
X165531428Y-92530731D01*
X165487176Y-92577589D01*
X165424663Y-92594500D01*
X158751003Y-92594500D01*
X158642590Y-92616065D01*
X158642589Y-92616065D01*
X158629131Y-92618742D01*
X158615673Y-92621419D01*
X158615671Y-92621420D01*
X158562866Y-92643292D01*
X158562864Y-92643293D01*
X158562863Y-92643292D01*
X158488191Y-92674223D01*
X158407913Y-92727864D01*
X158407900Y-92727873D01*
X158399346Y-92733588D01*
X158373454Y-92750888D01*
X157186161Y-93938181D01*
X157124838Y-93971666D01*
X157098480Y-93974500D01*
X156539998Y-93974500D01*
X156539980Y-93974501D01*
X156437203Y-93985000D01*
X156437200Y-93985001D01*
X156270668Y-94040185D01*
X156270663Y-94040187D01*
X156121342Y-94132289D01*
X155997289Y-94256342D01*
X155905187Y-94405663D01*
X155905185Y-94405668D01*
X155891352Y-94447414D01*
X155850001Y-94572203D01*
X155850001Y-94572204D01*
X155850000Y-94572204D01*
X155839500Y-94674983D01*
X155839500Y-95675001D01*
X155839501Y-95675019D01*
X155850000Y-95777796D01*
X155850001Y-95777799D01*
X155893308Y-95908489D01*
X155905186Y-95944334D01*
X155997288Y-96093656D01*
X156121344Y-96217712D01*
X156270666Y-96309814D01*
X156437203Y-96364999D01*
X156539991Y-96375500D01*
X157340008Y-96375499D01*
X157340016Y-96375498D01*
X157340019Y-96375498D01*
X157418245Y-96367507D01*
X157442797Y-96364999D01*
X157609334Y-96309814D01*
X157758656Y-96217712D01*
X157852319Y-96124049D01*
X157913642Y-96090564D01*
X157983334Y-96095548D01*
X158027681Y-96124049D01*
X158121344Y-96217712D01*
X158230597Y-96285099D01*
X158277321Y-96337047D01*
X158289500Y-96390638D01*
X158289500Y-97965201D01*
X158269815Y-98032240D01*
X158230598Y-98070739D01*
X158171344Y-98107287D01*
X158047288Y-98231343D01*
X158047283Y-98231349D01*
X158045241Y-98234661D01*
X158043247Y-98236453D01*
X158042807Y-98237011D01*
X158042711Y-98236935D01*
X157993291Y-98281383D01*
X157924328Y-98292602D01*
X157860247Y-98264755D01*
X157834168Y-98234656D01*
X157832319Y-98231659D01*
X157832316Y-98231655D01*
X157708345Y-98107684D01*
X157559124Y-98015643D01*
X157559119Y-98015641D01*
X157392697Y-97960494D01*
X157392690Y-97960493D01*
X157289986Y-97950000D01*
X157152500Y-97950000D01*
X157152500Y-99051000D01*
X157132815Y-99118039D01*
X157080011Y-99163794D01*
X157028500Y-99175000D01*
X156902500Y-99175000D01*
X156902500Y-99301000D01*
X156882815Y-99368039D01*
X156830011Y-99413794D01*
X156778500Y-99425000D01*
X155815001Y-99425000D01*
X155815001Y-99428900D01*
X155795316Y-99495939D01*
X155742512Y-99541694D01*
X155691001Y-99552900D01*
X153064499Y-99552900D01*
X153063425Y-99552584D01*
X153062348Y-99552881D01*
X153029977Y-99542763D01*
X152997460Y-99533215D01*
X152996728Y-99532371D01*
X152995660Y-99532037D01*
X152973880Y-99506003D01*
X152951705Y-99480411D01*
X152951310Y-99479024D01*
X152950828Y-99478447D01*
X152949950Y-99474239D01*
X152941474Y-99444415D01*
X152940499Y-99436683D01*
X152940499Y-99352128D01*
X152934091Y-99292517D01*
X152916302Y-99244823D01*
X152914498Y-99230515D01*
X152917862Y-99209687D01*
X152916357Y-99188642D01*
X152921340Y-99171669D01*
X152934091Y-99137483D01*
X152940500Y-99077873D01*
X152940499Y-98650013D01*
X155815000Y-98650013D01*
X155815000Y-98925000D01*
X156652500Y-98925000D01*
X156652500Y-97950000D01*
X156515027Y-97950000D01*
X156515012Y-97950001D01*
X156412302Y-97960494D01*
X156245880Y-98015641D01*
X156245875Y-98015643D01*
X156096654Y-98107684D01*
X155972684Y-98231654D01*
X155880643Y-98380875D01*
X155880641Y-98380880D01*
X155825494Y-98547302D01*
X155825493Y-98547309D01*
X155815000Y-98650013D01*
X152940499Y-98650013D01*
X152940499Y-98547309D01*
X152940499Y-98082129D01*
X152940498Y-98082123D01*
X152940497Y-98082116D01*
X152934091Y-98022517D01*
X152921340Y-97988332D01*
X152916357Y-97918642D01*
X152921340Y-97901669D01*
X152934091Y-97867483D01*
X152940500Y-97807873D01*
X152940499Y-96812128D01*
X152934091Y-96752517D01*
X152921340Y-96718332D01*
X152916357Y-96648642D01*
X152921340Y-96631669D01*
X152934091Y-96597483D01*
X152940500Y-96537873D01*
X152940499Y-95542128D01*
X152934091Y-95482517D01*
X152933028Y-95478019D01*
X152936766Y-95408250D01*
X152977631Y-95351577D01*
X153042649Y-95325994D01*
X153053704Y-95325500D01*
X153435065Y-95325500D01*
X153502104Y-95345185D01*
X153503909Y-95346366D01*
X153560821Y-95384394D01*
X153560823Y-95384395D01*
X153560827Y-95384397D01*
X153674210Y-95431361D01*
X153706503Y-95444737D01*
X153861153Y-95475499D01*
X153861156Y-95475500D01*
X153861158Y-95475500D01*
X154018844Y-95475500D01*
X154018845Y-95475499D01*
X154173497Y-95444737D01*
X154319179Y-95384394D01*
X154450289Y-95296789D01*
X154561789Y-95185289D01*
X154649394Y-95054179D01*
X154709737Y-94908497D01*
X154740500Y-94753842D01*
X154740500Y-94596158D01*
X154740500Y-94596155D01*
X154740499Y-94596153D01*
X154712357Y-94454677D01*
X154709737Y-94441503D01*
X154670242Y-94346153D01*
X154649397Y-94295827D01*
X154649390Y-94295814D01*
X154561789Y-94164711D01*
X154561786Y-94164707D01*
X154450292Y-94053213D01*
X154450288Y-94053210D01*
X154319185Y-93965609D01*
X154319172Y-93965602D01*
X154173501Y-93905264D01*
X154173489Y-93905261D01*
X154018845Y-93874500D01*
X154018842Y-93874500D01*
X153861158Y-93874500D01*
X153861155Y-93874500D01*
X153706510Y-93905261D01*
X153706498Y-93905264D01*
X153560827Y-93965602D01*
X153560820Y-93965606D01*
X153531928Y-93984911D01*
X153503955Y-94003602D01*
X153437279Y-94024480D01*
X153435065Y-94024500D01*
X153064500Y-94024500D01*
X152997461Y-94004815D01*
X152951706Y-93952011D01*
X152940500Y-93900500D01*
X152940499Y-93002129D01*
X152940498Y-93002123D01*
X152940497Y-93002116D01*
X152934091Y-92942517D01*
X152921340Y-92908332D01*
X152916357Y-92838642D01*
X152921340Y-92821669D01*
X152934091Y-92787483D01*
X152940500Y-92727873D01*
X152940499Y-91732128D01*
X152934091Y-91672517D01*
X152921340Y-91638332D01*
X152916357Y-91568642D01*
X152921340Y-91551669D01*
X152934091Y-91517483D01*
X152940500Y-91457873D01*
X152940499Y-90462128D01*
X152934091Y-90402517D01*
X152921340Y-90368332D01*
X152916357Y-90298642D01*
X152921340Y-90281669D01*
X152934091Y-90247483D01*
X152940500Y-90187873D01*
X152940499Y-89632899D01*
X152960183Y-89565861D01*
X153012987Y-89520106D01*
X153064499Y-89508900D01*
X165666842Y-89508900D01*
X165733881Y-89528585D01*
G37*
%TD.AperFunction*%
%TA.AperFunction,Conductor*%
G36*
X118383039Y-75195185D02*
G01*
X118428794Y-75247989D01*
X118440000Y-75299500D01*
X118440000Y-82675000D01*
X132819927Y-82675000D01*
X132886966Y-82694685D01*
X132932721Y-82747489D01*
X132943216Y-82812257D01*
X132940000Y-82842158D01*
X132940000Y-83090000D01*
X135440000Y-83090000D01*
X135440000Y-82842172D01*
X135439999Y-82842158D01*
X135436784Y-82812257D01*
X135449188Y-82743497D01*
X135496798Y-82692359D01*
X135560073Y-82675000D01*
X150319927Y-82675000D01*
X150386966Y-82694685D01*
X150432721Y-82747489D01*
X150443216Y-82812257D01*
X150440000Y-82842158D01*
X150440000Y-83090000D01*
X152940000Y-83090000D01*
X152940000Y-82842172D01*
X152939999Y-82842158D01*
X152936784Y-82812257D01*
X152949188Y-82743497D01*
X152996798Y-82692359D01*
X153060073Y-82675000D01*
X166940000Y-82675000D01*
X166940000Y-79053456D01*
X169585500Y-79053456D01*
X169585500Y-79296543D01*
X169585501Y-79296559D01*
X169617230Y-79537569D01*
X169680149Y-79772386D01*
X169773175Y-79996972D01*
X169773182Y-79996987D01*
X169894730Y-80207516D01*
X170042722Y-80400380D01*
X170042730Y-80400389D01*
X170214611Y-80572270D01*
X170214619Y-80572277D01*
X170407483Y-80720269D01*
X170618012Y-80841817D01*
X170618027Y-80841824D01*
X170734171Y-80889932D01*
X170842612Y-80934850D01*
X171077429Y-80997769D01*
X171318450Y-81029500D01*
X171318457Y-81029500D01*
X171561543Y-81029500D01*
X171561550Y-81029500D01*
X171802571Y-80997769D01*
X172037388Y-80934850D01*
X172261984Y-80841819D01*
X172472516Y-80720269D01*
X172665380Y-80572278D01*
X172665384Y-80572273D01*
X172665389Y-80572270D01*
X172837270Y-80400389D01*
X172837273Y-80400384D01*
X172837278Y-80400380D01*
X172985269Y-80207516D01*
X173106819Y-79996984D01*
X173199850Y-79772388D01*
X173262769Y-79537571D01*
X173294500Y-79296550D01*
X173294500Y-79053450D01*
X173262769Y-78812429D01*
X173199850Y-78577612D01*
X173106819Y-78353016D01*
X173106817Y-78353012D01*
X172985269Y-78142483D01*
X172837277Y-77949619D01*
X172837270Y-77949611D01*
X172665389Y-77777730D01*
X172665380Y-77777722D01*
X172472516Y-77629730D01*
X172261987Y-77508182D01*
X172261972Y-77508175D01*
X172037386Y-77415149D01*
X171802569Y-77352230D01*
X171561559Y-77320501D01*
X171561556Y-77320500D01*
X171561550Y-77320500D01*
X171318450Y-77320500D01*
X171318444Y-77320500D01*
X171318440Y-77320501D01*
X171077430Y-77352230D01*
X170842613Y-77415149D01*
X170618027Y-77508175D01*
X170618012Y-77508182D01*
X170407483Y-77629730D01*
X170214619Y-77777722D01*
X170042722Y-77949619D01*
X169894730Y-78142483D01*
X169773182Y-78353012D01*
X169773175Y-78353027D01*
X169680149Y-78577613D01*
X169617230Y-78812430D01*
X169585501Y-79053440D01*
X169585500Y-79053456D01*
X166940000Y-79053456D01*
X166940000Y-75299500D01*
X166959685Y-75232461D01*
X167012489Y-75186706D01*
X167064000Y-75175500D01*
X175815500Y-75175500D01*
X175882539Y-75195185D01*
X175928294Y-75247989D01*
X175939500Y-75299500D01*
X175939500Y-118550500D01*
X175919815Y-118617539D01*
X175867011Y-118663294D01*
X175815500Y-118674500D01*
X111314500Y-118674500D01*
X111247461Y-118654815D01*
X111201706Y-118602011D01*
X111190500Y-118550500D01*
X111190500Y-114553456D01*
X113335500Y-114553456D01*
X113335500Y-114796543D01*
X113335501Y-114796559D01*
X113367230Y-115037569D01*
X113430149Y-115272386D01*
X113523175Y-115496972D01*
X113523182Y-115496987D01*
X113644730Y-115707516D01*
X113792722Y-115900380D01*
X113792730Y-115900389D01*
X113964611Y-116072270D01*
X113964619Y-116072277D01*
X114157483Y-116220269D01*
X114368012Y-116341817D01*
X114368027Y-116341824D01*
X114484171Y-116389932D01*
X114592612Y-116434850D01*
X114827429Y-116497769D01*
X115068450Y-116529500D01*
X115068457Y-116529500D01*
X115311543Y-116529500D01*
X115311550Y-116529500D01*
X115552571Y-116497769D01*
X115787388Y-116434850D01*
X116011984Y-116341819D01*
X116222516Y-116220269D01*
X116415380Y-116072278D01*
X116415384Y-116072273D01*
X116415389Y-116072270D01*
X116587270Y-115900389D01*
X116587273Y-115900384D01*
X116587278Y-115900380D01*
X116735269Y-115707516D01*
X116856819Y-115496984D01*
X116949850Y-115272388D01*
X117012769Y-115037571D01*
X117044500Y-114796550D01*
X117044500Y-114553450D01*
X117012769Y-114312429D01*
X116949850Y-114077612D01*
X116856819Y-113853016D01*
X116856817Y-113853012D01*
X116750571Y-113668987D01*
X116735269Y-113642483D01*
X116600963Y-113467455D01*
X116587278Y-113449620D01*
X116587277Y-113449619D01*
X116587270Y-113449611D01*
X116415389Y-113277730D01*
X116415380Y-113277722D01*
X116222516Y-113129730D01*
X116011987Y-113008182D01*
X116011972Y-113008175D01*
X115787386Y-112915149D01*
X115552569Y-112852230D01*
X115311559Y-112820501D01*
X115311556Y-112820500D01*
X115311550Y-112820500D01*
X115068450Y-112820500D01*
X115068444Y-112820500D01*
X115068440Y-112820501D01*
X114827430Y-112852230D01*
X114592613Y-112915149D01*
X114368027Y-113008175D01*
X114368012Y-113008182D01*
X114157483Y-113129730D01*
X113964619Y-113277722D01*
X113792722Y-113449619D01*
X113644730Y-113642483D01*
X113523182Y-113853012D01*
X113523175Y-113853027D01*
X113430149Y-114077613D01*
X113367230Y-114312430D01*
X113335501Y-114553440D01*
X113335500Y-114553456D01*
X111190500Y-114553456D01*
X111190500Y-109995913D01*
X111210185Y-109928874D01*
X111262989Y-109883119D01*
X111332147Y-109873175D01*
X111395703Y-109902200D01*
X111414819Y-109923028D01*
X111500967Y-110041602D01*
X111623397Y-110164032D01*
X111763475Y-110265804D01*
X111917742Y-110344408D01*
X112082415Y-110397914D01*
X112253429Y-110425000D01*
X112440000Y-110425000D01*
X112440000Y-109625000D01*
X112940000Y-109625000D01*
X112940000Y-110425000D01*
X113126571Y-110425000D01*
X113297584Y-110397914D01*
X113462257Y-110344408D01*
X113616524Y-110265804D01*
X113756602Y-110164032D01*
X113879032Y-110041602D01*
X113980804Y-109901524D01*
X114059408Y-109747255D01*
X114112914Y-109582584D01*
X114114115Y-109575000D01*
X113206988Y-109575000D01*
X113224205Y-109565060D01*
X113280060Y-109509205D01*
X113319556Y-109440796D01*
X113340000Y-109364496D01*
X113340000Y-109285504D01*
X113319556Y-109209204D01*
X113280060Y-109140795D01*
X113224205Y-109084940D01*
X113206988Y-109075000D01*
X114140000Y-109075000D01*
X114140000Y-109070250D01*
X114159685Y-109003211D01*
X114212489Y-108957456D01*
X114281647Y-108947512D01*
X114345203Y-108976537D01*
X114364189Y-108997225D01*
X114364218Y-108997227D01*
X114968274Y-108393171D01*
X114993963Y-108489044D01*
X115049916Y-108585956D01*
X115129044Y-108665084D01*
X115225956Y-108721037D01*
X115321827Y-108746725D01*
X114717771Y-109350780D01*
X114717771Y-109350781D01*
X114747957Y-109372712D01*
X114919762Y-109460252D01*
X114919765Y-109460253D01*
X115103143Y-109519835D01*
X115293591Y-109550000D01*
X115486409Y-109550000D01*
X115676856Y-109519835D01*
X115860234Y-109460253D01*
X115860237Y-109460252D01*
X116032040Y-109372713D01*
X116062227Y-109350780D01*
X116062228Y-109350780D01*
X115458173Y-108746725D01*
X115554044Y-108721037D01*
X115650956Y-108665084D01*
X115730084Y-108585956D01*
X115786037Y-108489044D01*
X115811725Y-108393172D01*
X116415780Y-108997228D01*
X116415780Y-108997227D01*
X116437713Y-108967040D01*
X116525252Y-108795237D01*
X116525253Y-108795234D01*
X116584835Y-108611856D01*
X116615000Y-108421409D01*
X116615000Y-108228590D01*
X116584835Y-108038143D01*
X116525253Y-107854765D01*
X116525252Y-107854762D01*
X116466245Y-107738956D01*
X116453349Y-107670287D01*
X116477464Y-107608349D01*
X116508351Y-107567089D01*
X116508352Y-107567088D01*
X116558597Y-107432376D01*
X116558598Y-107432372D01*
X116564999Y-107372844D01*
X116565000Y-107372827D01*
X116565000Y-107325000D01*
X116404435Y-107325000D01*
X116381587Y-107318291D01*
X116357891Y-107315933D01*
X116348677Y-107308627D01*
X116337396Y-107305315D01*
X116321803Y-107287319D01*
X116303142Y-107272524D01*
X116299340Y-107261396D01*
X116291641Y-107252511D01*
X116288252Y-107228941D01*
X116280553Y-107206407D01*
X116283370Y-107194991D01*
X116281697Y-107183353D01*
X116291590Y-107161689D01*
X116297296Y-107138573D01*
X116307247Y-107127406D01*
X116310722Y-107119797D01*
X116319223Y-107110917D01*
X116324409Y-107106011D01*
X116422546Y-107032546D01*
X116472212Y-106966200D01*
X116479912Y-106958917D01*
X116501967Y-106947657D01*
X116521791Y-106932818D01*
X116536088Y-106930238D01*
X116542142Y-106927148D01*
X116549280Y-106927858D01*
X116564972Y-106925027D01*
X116565000Y-106925000D01*
X116565000Y-106877172D01*
X116564999Y-106877160D01*
X116558380Y-106815604D01*
X116558380Y-106789090D01*
X116559090Y-106782485D01*
X116559091Y-106782483D01*
X116565500Y-106722873D01*
X116565499Y-106227128D01*
X116559091Y-106167517D01*
X116559089Y-106167513D01*
X116558632Y-106163255D01*
X116558632Y-106136745D01*
X116559089Y-106132486D01*
X116559091Y-106132483D01*
X116565500Y-106072873D01*
X116565499Y-105577128D01*
X116559091Y-105517517D01*
X116559089Y-105517513D01*
X116558632Y-105513255D01*
X116558079Y-105493764D01*
X116558577Y-105483859D01*
X116559091Y-105482483D01*
X116565500Y-105422873D01*
X116565500Y-105346382D01*
X116565657Y-105343264D01*
X116576187Y-105313102D01*
X116585185Y-105282461D01*
X116587623Y-105280348D01*
X116588688Y-105277299D01*
X116613860Y-105257613D01*
X116637989Y-105236706D01*
X116641600Y-105235920D01*
X116643726Y-105234258D01*
X116653341Y-105233366D01*
X116689500Y-105225500D01*
X118183481Y-105225500D01*
X118250520Y-105245185D01*
X118271162Y-105261819D01*
X124553453Y-111544111D01*
X124553454Y-111544112D01*
X124668192Y-111620777D01*
X124795667Y-111673578D01*
X124795672Y-111673580D01*
X124795676Y-111673580D01*
X124795677Y-111673581D01*
X124931003Y-111700500D01*
X124931006Y-111700500D01*
X124931007Y-111700500D01*
X125090500Y-111700500D01*
X125157539Y-111720185D01*
X125203294Y-111772989D01*
X125214500Y-111824500D01*
X125214500Y-112100000D01*
X125214501Y-112100019D01*
X125225000Y-112202796D01*
X125225001Y-112202799D01*
X125280185Y-112369331D01*
X125280187Y-112369336D01*
X125307119Y-112413000D01*
X125372288Y-112518656D01*
X125496344Y-112642712D01*
X125645666Y-112734814D01*
X125645667Y-112734814D01*
X125645673Y-112734818D01*
X125651484Y-112737528D01*
X125703921Y-112783703D01*
X125723069Y-112850898D01*
X125702850Y-112917778D01*
X125686754Y-112937588D01*
X125336161Y-113288181D01*
X125274838Y-113321666D01*
X125248480Y-113324500D01*
X124042129Y-113324500D01*
X124042123Y-113324501D01*
X123982516Y-113330908D01*
X123847671Y-113381202D01*
X123847664Y-113381206D01*
X123732455Y-113467452D01*
X123732452Y-113467455D01*
X123646206Y-113582664D01*
X123646202Y-113582671D01*
X123595908Y-113717517D01*
X123589501Y-113777116D01*
X123589500Y-113777135D01*
X123589500Y-113787690D01*
X123569815Y-113854729D01*
X123553181Y-113875371D01*
X122882962Y-114545590D01*
X122865925Y-114482007D01*
X122800099Y-114367993D01*
X122707007Y-114274901D01*
X122592993Y-114209075D01*
X122529409Y-114192037D01*
X123161716Y-113559728D01*
X123107550Y-113520375D01*
X122918217Y-113423904D01*
X122716129Y-113358242D01*
X122506246Y-113325000D01*
X122293754Y-113325000D01*
X122083872Y-113358242D01*
X122083869Y-113358242D01*
X121881782Y-113423904D01*
X121692439Y-113520380D01*
X121638282Y-113559727D01*
X121638282Y-113559728D01*
X122270591Y-114192037D01*
X122207007Y-114209075D01*
X122092993Y-114274901D01*
X121999901Y-114367993D01*
X121934075Y-114482007D01*
X121917037Y-114545591D01*
X121284728Y-113913282D01*
X121284727Y-113913282D01*
X121245380Y-113967439D01*
X121148904Y-114156782D01*
X121083242Y-114358869D01*
X121083242Y-114358872D01*
X121050000Y-114568753D01*
X121050000Y-114781246D01*
X121083242Y-114991127D01*
X121083242Y-114991130D01*
X121148904Y-115193217D01*
X121245375Y-115382550D01*
X121284728Y-115436716D01*
X121917037Y-114804408D01*
X121934075Y-114867993D01*
X121999901Y-114982007D01*
X122092993Y-115075099D01*
X122207007Y-115140925D01*
X122270590Y-115157962D01*
X121638282Y-115790269D01*
X121638282Y-115790270D01*
X121692449Y-115829624D01*
X121881782Y-115926095D01*
X122083870Y-115991757D01*
X122293754Y-116025000D01*
X122506246Y-116025000D01*
X122716127Y-115991757D01*
X122716130Y-115991757D01*
X122918217Y-115926095D01*
X123107554Y-115829622D01*
X123161716Y-115790270D01*
X123161717Y-115790270D01*
X122529408Y-115157962D01*
X122592993Y-115140925D01*
X122707007Y-115075099D01*
X122800099Y-114982007D01*
X122865925Y-114867993D01*
X122882962Y-114804409D01*
X123553181Y-115474628D01*
X123586666Y-115535951D01*
X123589500Y-115562300D01*
X123589500Y-115572865D01*
X123589501Y-115572876D01*
X123595908Y-115632483D01*
X123646202Y-115767328D01*
X123646206Y-115767335D01*
X123732452Y-115882544D01*
X123732455Y-115882547D01*
X123847664Y-115968793D01*
X123847671Y-115968797D01*
X123982517Y-116019091D01*
X123982516Y-116019091D01*
X123989444Y-116019835D01*
X124042127Y-116025500D01*
X125837872Y-116025499D01*
X125897483Y-116019091D01*
X126032331Y-115968796D01*
X126147546Y-115882546D01*
X126233796Y-115767331D01*
X126284091Y-115632483D01*
X126290500Y-115572873D01*
X126290499Y-114553456D01*
X169585500Y-114553456D01*
X169585500Y-114796543D01*
X169585501Y-114796559D01*
X169617230Y-115037569D01*
X169680149Y-115272386D01*
X169773175Y-115496972D01*
X169773182Y-115496987D01*
X169894730Y-115707516D01*
X170042722Y-115900380D01*
X170042730Y-115900389D01*
X170214611Y-116072270D01*
X170214619Y-116072277D01*
X170407483Y-116220269D01*
X170618012Y-116341817D01*
X170618027Y-116341824D01*
X170734171Y-116389932D01*
X170842612Y-116434850D01*
X171077429Y-116497769D01*
X171318450Y-116529500D01*
X171318457Y-116529500D01*
X171561543Y-116529500D01*
X171561550Y-116529500D01*
X171802571Y-116497769D01*
X172037388Y-116434850D01*
X172261984Y-116341819D01*
X172472516Y-116220269D01*
X172665380Y-116072278D01*
X172665384Y-116072273D01*
X172665389Y-116072270D01*
X172837270Y-115900389D01*
X172837273Y-115900384D01*
X172837278Y-115900380D01*
X172985269Y-115707516D01*
X173106819Y-115496984D01*
X173199850Y-115272388D01*
X173262769Y-115037571D01*
X173294500Y-114796550D01*
X173294500Y-114553450D01*
X173262769Y-114312429D01*
X173199850Y-114077612D01*
X173106819Y-113853016D01*
X173106817Y-113853012D01*
X172985269Y-113642483D01*
X172850963Y-113467455D01*
X172837278Y-113449620D01*
X172837277Y-113449619D01*
X172837270Y-113449611D01*
X172665389Y-113277730D01*
X172665380Y-113277722D01*
X172472516Y-113129730D01*
X172261987Y-113008182D01*
X172261972Y-113008175D01*
X172037386Y-112915149D01*
X171802569Y-112852230D01*
X171561559Y-112820501D01*
X171561556Y-112820500D01*
X171561550Y-112820500D01*
X171318450Y-112820500D01*
X171318444Y-112820500D01*
X171318440Y-112820501D01*
X171077430Y-112852230D01*
X170842613Y-112915149D01*
X170618027Y-113008175D01*
X170618012Y-113008182D01*
X170407483Y-113129730D01*
X170214619Y-113277722D01*
X170042722Y-113449619D01*
X169894730Y-113642483D01*
X169773182Y-113853012D01*
X169773175Y-113853027D01*
X169680149Y-114077613D01*
X169617230Y-114312430D01*
X169585501Y-114553440D01*
X169585500Y-114553456D01*
X126290499Y-114553456D01*
X126290499Y-114366517D01*
X126310184Y-114299479D01*
X126326813Y-114278842D01*
X126984113Y-113621543D01*
X126993814Y-113607024D01*
X127003380Y-113592710D01*
X127025418Y-113559727D01*
X127060775Y-113506811D01*
X127113580Y-113379328D01*
X127114342Y-113375500D01*
X127124669Y-113323580D01*
X127140500Y-113243993D01*
X127140500Y-112855448D01*
X127160185Y-112788409D01*
X127212989Y-112742654D01*
X127225488Y-112737744D01*
X127234334Y-112734814D01*
X127383656Y-112642712D01*
X127507712Y-112518656D01*
X127536549Y-112471902D01*
X127588497Y-112425179D01*
X127642088Y-112413000D01*
X129121496Y-112413000D01*
X129212540Y-112394889D01*
X129256828Y-112386080D01*
X129320569Y-112359677D01*
X129384307Y-112333277D01*
X129384308Y-112333276D01*
X129384311Y-112333275D01*
X129499043Y-112256614D01*
X129499045Y-112256612D01*
X129502660Y-112253646D01*
X129566970Y-112226333D01*
X129581325Y-112225499D01*
X130491123Y-112225499D01*
X130491123Y-112225498D01*
X130533889Y-112222600D01*
X130718693Y-112176641D01*
X130889296Y-112092030D01*
X131037722Y-111972722D01*
X131157030Y-111824296D01*
X131241641Y-111653693D01*
X131287600Y-111468889D01*
X131290500Y-111426123D01*
X131290499Y-110523878D01*
X131287600Y-110481111D01*
X131241641Y-110296307D01*
X131218671Y-110249992D01*
X131157032Y-110125707D01*
X131157030Y-110125704D01*
X131037722Y-109977278D01*
X131037721Y-109977277D01*
X130968514Y-109921647D01*
X130928595Y-109864304D01*
X130926015Y-109794482D01*
X130961594Y-109734349D01*
X130968514Y-109728353D01*
X130977909Y-109720800D01*
X131037722Y-109672722D01*
X131157030Y-109524296D01*
X131175891Y-109486267D01*
X131196652Y-109444406D01*
X131244073Y-109393093D01*
X131307740Y-109375500D01*
X134465501Y-109375500D01*
X134532540Y-109395185D01*
X134578295Y-109447989D01*
X134589501Y-109499500D01*
X134589501Y-110133036D01*
X134590761Y-110147204D01*
X134600113Y-110252415D01*
X134656089Y-110448045D01*
X134656090Y-110448048D01*
X134656091Y-110448049D01*
X134750302Y-110628407D01*
X134750304Y-110628409D01*
X134878890Y-110786109D01*
X134944767Y-110839824D01*
X135036593Y-110914698D01*
X135216951Y-111008909D01*
X135216953Y-111008909D01*
X135216954Y-111008910D01*
X135236355Y-111014461D01*
X135412582Y-111064886D01*
X135531963Y-111075500D01*
X136648036Y-111075499D01*
X136767418Y-111064886D01*
X136963049Y-111008909D01*
X137143407Y-110914698D01*
X137156878Y-110903713D01*
X137164346Y-110897625D01*
X137228742Y-110870515D01*
X137297571Y-110882524D01*
X137330388Y-110906045D01*
X139643453Y-113219111D01*
X139643454Y-113219112D01*
X139643457Y-113219114D01*
X139758189Y-113295775D01*
X139885671Y-113348580D01*
X139895324Y-113350500D01*
X139934246Y-113358242D01*
X140021004Y-113375500D01*
X140021007Y-113375500D01*
X149755202Y-113375500D01*
X149822241Y-113395185D01*
X149860739Y-113434401D01*
X149897288Y-113493656D01*
X150021344Y-113617712D01*
X150170666Y-113709814D01*
X150337203Y-113764999D01*
X150439991Y-113775500D01*
X151440008Y-113775499D01*
X151440016Y-113775498D01*
X151440019Y-113775498D01*
X151496302Y-113769748D01*
X151542797Y-113764999D01*
X151709334Y-113709814D01*
X151858656Y-113617712D01*
X151982712Y-113493656D01*
X152034680Y-113409402D01*
X152086627Y-113362679D01*
X152140218Y-113350500D01*
X158255202Y-113350500D01*
X158322241Y-113370185D01*
X158360739Y-113409401D01*
X158397288Y-113468656D01*
X158521344Y-113592712D01*
X158670666Y-113684814D01*
X158837203Y-113739999D01*
X158939991Y-113750500D01*
X159940008Y-113750499D01*
X159940016Y-113750498D01*
X159940019Y-113750498D01*
X159996302Y-113744748D01*
X160042797Y-113739999D01*
X160209334Y-113684814D01*
X160358656Y-113592712D01*
X160482712Y-113468656D01*
X160574814Y-113319334D01*
X160629999Y-113152797D01*
X160637948Y-113074986D01*
X164740001Y-113074986D01*
X164750494Y-113177697D01*
X164805641Y-113344119D01*
X164805643Y-113344124D01*
X164897684Y-113493345D01*
X165021654Y-113617315D01*
X165170875Y-113709356D01*
X165170880Y-113709358D01*
X165337302Y-113764505D01*
X165337309Y-113764506D01*
X165440019Y-113774999D01*
X165689999Y-113774999D01*
X166190000Y-113774999D01*
X166439972Y-113774999D01*
X166439986Y-113774998D01*
X166542697Y-113764505D01*
X166709119Y-113709358D01*
X166709124Y-113709356D01*
X166858345Y-113617315D01*
X166982315Y-113493345D01*
X167074356Y-113344124D01*
X167074358Y-113344119D01*
X167129505Y-113177697D01*
X167129506Y-113177690D01*
X167139999Y-113074986D01*
X167140000Y-113074973D01*
X167140000Y-112925000D01*
X166190000Y-112925000D01*
X166190000Y-113774999D01*
X165689999Y-113774999D01*
X165690000Y-113774998D01*
X165690000Y-112925000D01*
X164740001Y-112925000D01*
X164740001Y-113074986D01*
X160637948Y-113074986D01*
X160640500Y-113050009D01*
X160640499Y-113016518D01*
X160649144Y-112987075D01*
X160655667Y-112957091D01*
X160659419Y-112952078D01*
X160660182Y-112949481D01*
X160676813Y-112928842D01*
X161134586Y-112471069D01*
X161174810Y-112444192D01*
X161229435Y-112421566D01*
X161319173Y-112384397D01*
X161319176Y-112384395D01*
X161319179Y-112384394D01*
X161450289Y-112296789D01*
X161561789Y-112185289D01*
X161649394Y-112054179D01*
X161709737Y-111908497D01*
X161740500Y-111753842D01*
X161740500Y-111596158D01*
X161740500Y-111596155D01*
X161740499Y-111596153D01*
X161720111Y-111493656D01*
X161709737Y-111441503D01*
X161709735Y-111441498D01*
X161649397Y-111295827D01*
X161649390Y-111295814D01*
X161561789Y-111164711D01*
X161561786Y-111164707D01*
X161450292Y-111053213D01*
X161450288Y-111053210D01*
X161319185Y-110965609D01*
X161319172Y-110965602D01*
X161173501Y-110905264D01*
X161173489Y-110905261D01*
X161018845Y-110874500D01*
X161018842Y-110874500D01*
X160861158Y-110874500D01*
X160861153Y-110874500D01*
X160788690Y-110888914D01*
X160719098Y-110882687D01*
X160663921Y-110839824D01*
X160640677Y-110773934D01*
X160640499Y-110767297D01*
X160640499Y-110249998D01*
X160640498Y-110249981D01*
X160629999Y-110147203D01*
X160629998Y-110147200D01*
X160574814Y-109980666D01*
X160482712Y-109831344D01*
X160358656Y-109707288D01*
X160249864Y-109640185D01*
X160209336Y-109615187D01*
X160209335Y-109615186D01*
X160209334Y-109615186D01*
X160209328Y-109615184D01*
X160175494Y-109603972D01*
X160118050Y-109564199D01*
X160091228Y-109499683D01*
X160090500Y-109486267D01*
X160090500Y-108813732D01*
X160110185Y-108746693D01*
X160162989Y-108700938D01*
X160175495Y-108696026D01*
X160209334Y-108684814D01*
X160358656Y-108592712D01*
X160482712Y-108468656D01*
X160574814Y-108319334D01*
X160629999Y-108152797D01*
X160640500Y-108050009D01*
X160640499Y-107299992D01*
X160639204Y-107287319D01*
X160629999Y-107197203D01*
X160629998Y-107197200D01*
X160626051Y-107185288D01*
X160574814Y-107030666D01*
X160482712Y-106881344D01*
X160358656Y-106757288D01*
X160355342Y-106755243D01*
X160353546Y-106753248D01*
X160352989Y-106752807D01*
X160353064Y-106752711D01*
X160308618Y-106703297D01*
X160297397Y-106634334D01*
X160313986Y-106596153D01*
X162139500Y-106596153D01*
X162139500Y-106753846D01*
X162170261Y-106908489D01*
X162170264Y-106908501D01*
X162230602Y-107054172D01*
X162230609Y-107054185D01*
X162318210Y-107185288D01*
X162318213Y-107185292D01*
X162429707Y-107296786D01*
X162429711Y-107296789D01*
X162560814Y-107384390D01*
X162560827Y-107384397D01*
X162698683Y-107441498D01*
X162706503Y-107444737D01*
X162850395Y-107473359D01*
X162861153Y-107475499D01*
X162861156Y-107475500D01*
X162861158Y-107475500D01*
X163018844Y-107475500D01*
X163018845Y-107475499D01*
X163173497Y-107444737D01*
X163319179Y-107384394D01*
X163450289Y-107296789D01*
X163561789Y-107185289D01*
X163649394Y-107054179D01*
X163709737Y-106908497D01*
X163723079Y-106841416D01*
X163755463Y-106779509D01*
X163756956Y-106777988D01*
X164198127Y-106336819D01*
X164259450Y-106303334D01*
X164285808Y-106300500D01*
X164739782Y-106300500D01*
X164806821Y-106320185D01*
X164845319Y-106359401D01*
X164897288Y-106443656D01*
X164897289Y-106443657D01*
X165021346Y-106567714D01*
X165024182Y-106569463D01*
X165025717Y-106571170D01*
X165027011Y-106572193D01*
X165026836Y-106572414D01*
X165070905Y-106621411D01*
X165082126Y-106690374D01*
X165054282Y-106754456D01*
X165024182Y-106780537D01*
X165021346Y-106782285D01*
X164897289Y-106906342D01*
X164805187Y-107055663D01*
X164805185Y-107055668D01*
X164785873Y-107113949D01*
X164750001Y-107222203D01*
X164750001Y-107222204D01*
X164750000Y-107222204D01*
X164739500Y-107324983D01*
X164739500Y-108075001D01*
X164739501Y-108075019D01*
X164750000Y-108177796D01*
X164750001Y-108177799D01*
X164805185Y-108344331D01*
X164805187Y-108344336D01*
X164832652Y-108388864D01*
X164897288Y-108493656D01*
X165021344Y-108617712D01*
X165170666Y-108709814D01*
X165204500Y-108721025D01*
X165261947Y-108760796D01*
X165288772Y-108825311D01*
X165289500Y-108838732D01*
X165289500Y-109511267D01*
X165269815Y-109578306D01*
X165217011Y-109624061D01*
X165204506Y-109628972D01*
X165170671Y-109640184D01*
X165170663Y-109640187D01*
X165021342Y-109732289D01*
X164897289Y-109856342D01*
X164805187Y-110005663D01*
X164805185Y-110005668D01*
X164798945Y-110024500D01*
X164750001Y-110172203D01*
X164750001Y-110172204D01*
X164750000Y-110172204D01*
X164739500Y-110274983D01*
X164739500Y-111075001D01*
X164739501Y-111075019D01*
X164750000Y-111177796D01*
X164750001Y-111177799D01*
X164789108Y-111295814D01*
X164805186Y-111344334D01*
X164886089Y-111475500D01*
X164897289Y-111493657D01*
X164991304Y-111587672D01*
X165024789Y-111648995D01*
X165019805Y-111718687D01*
X164991305Y-111763034D01*
X164897682Y-111856657D01*
X164805643Y-112005875D01*
X164805641Y-112005880D01*
X164750494Y-112172302D01*
X164750493Y-112172309D01*
X164740000Y-112275013D01*
X164740000Y-112425000D01*
X167139999Y-112425000D01*
X167139999Y-112275028D01*
X167139998Y-112275013D01*
X167129505Y-112172302D01*
X167074358Y-112005880D01*
X167074356Y-112005875D01*
X166982315Y-111856654D01*
X166888695Y-111763034D01*
X166855210Y-111701711D01*
X166860194Y-111632019D01*
X166888691Y-111587676D01*
X166982712Y-111493656D01*
X167074814Y-111344334D01*
X167129999Y-111177797D01*
X167140500Y-111075009D01*
X167140499Y-110274992D01*
X167139560Y-110265804D01*
X167129999Y-110172203D01*
X167129998Y-110172200D01*
X167117020Y-110133036D01*
X167074814Y-110005666D01*
X166982712Y-109856344D01*
X166858656Y-109732288D01*
X166709334Y-109640186D01*
X166709328Y-109640184D01*
X166675494Y-109628972D01*
X166618050Y-109589199D01*
X166591228Y-109524683D01*
X166590500Y-109511267D01*
X166590500Y-108838732D01*
X166610185Y-108771693D01*
X166662989Y-108725938D01*
X166675495Y-108721026D01*
X166709334Y-108709814D01*
X166858656Y-108617712D01*
X166982712Y-108493656D01*
X167074814Y-108344334D01*
X167129999Y-108177797D01*
X167140500Y-108075009D01*
X167140499Y-107324992D01*
X167139814Y-107318291D01*
X167129999Y-107222203D01*
X167129998Y-107222200D01*
X167117767Y-107185289D01*
X167074814Y-107055666D01*
X166982712Y-106906344D01*
X166858656Y-106782288D01*
X166855819Y-106780538D01*
X166854283Y-106778830D01*
X166852989Y-106777807D01*
X166853163Y-106777585D01*
X166809096Y-106728594D01*
X166797872Y-106659632D01*
X166825713Y-106595549D01*
X166855817Y-106569462D01*
X166858656Y-106567712D01*
X166982712Y-106443656D01*
X167074814Y-106294334D01*
X167129999Y-106127797D01*
X167140500Y-106025009D01*
X167140499Y-105274992D01*
X167139153Y-105261819D01*
X167129999Y-105172203D01*
X167129998Y-105172200D01*
X167114357Y-105125000D01*
X167074814Y-105005666D01*
X166982712Y-104856344D01*
X166858656Y-104732288D01*
X166709334Y-104640186D01*
X166542797Y-104585001D01*
X166542795Y-104585000D01*
X166440010Y-104574500D01*
X165439998Y-104574500D01*
X165439980Y-104574501D01*
X165337203Y-104585000D01*
X165337200Y-104585001D01*
X165170668Y-104640185D01*
X165170663Y-104640187D01*
X165021342Y-104732289D01*
X164897289Y-104856342D01*
X164845321Y-104940597D01*
X164793373Y-104987321D01*
X164739782Y-104999500D01*
X163900929Y-104999500D01*
X163809330Y-105017721D01*
X163787618Y-105022040D01*
X163778324Y-105023888D01*
X163775255Y-105024499D01*
X163656874Y-105073534D01*
X163550326Y-105144726D01*
X162837068Y-105857984D01*
X162775745Y-105891469D01*
X162773579Y-105891920D01*
X162706508Y-105905261D01*
X162706498Y-105905264D01*
X162560827Y-105965602D01*
X162560814Y-105965609D01*
X162429711Y-106053210D01*
X162429707Y-106053213D01*
X162318213Y-106164707D01*
X162318210Y-106164711D01*
X162230609Y-106295814D01*
X162230602Y-106295827D01*
X162170264Y-106441498D01*
X162170261Y-106441510D01*
X162139500Y-106596153D01*
X160313986Y-106596153D01*
X160325240Y-106570252D01*
X160336968Y-106558009D01*
X160400333Y-106500327D01*
X160482315Y-106418345D01*
X160574356Y-106269124D01*
X160574358Y-106269119D01*
X160629505Y-106102697D01*
X160629506Y-106102690D01*
X160639999Y-105999986D01*
X160640000Y-105999973D01*
X160640000Y-105875000D01*
X158240001Y-105875000D01*
X158240001Y-105999986D01*
X158250494Y-106102697D01*
X158305641Y-106269119D01*
X158305643Y-106269124D01*
X158397684Y-106418345D01*
X158521655Y-106542316D01*
X158521659Y-106542319D01*
X158524656Y-106544168D01*
X158526279Y-106545972D01*
X158527323Y-106546798D01*
X158527181Y-106546976D01*
X158571381Y-106596116D01*
X158582602Y-106665079D01*
X158554759Y-106729161D01*
X158524661Y-106755241D01*
X158521349Y-106757283D01*
X158521343Y-106757288D01*
X158397289Y-106881342D01*
X158305187Y-107030663D01*
X158305185Y-107030668D01*
X158283011Y-107097586D01*
X158250001Y-107197203D01*
X158250001Y-107197204D01*
X158250000Y-107197204D01*
X158239500Y-107299983D01*
X158239500Y-108050001D01*
X158239501Y-108050019D01*
X158250000Y-108152796D01*
X158250001Y-108152799D01*
X158275116Y-108228590D01*
X158305186Y-108319334D01*
X158397288Y-108468656D01*
X158521344Y-108592712D01*
X158670666Y-108684814D01*
X158704500Y-108696025D01*
X158761947Y-108735796D01*
X158788772Y-108800311D01*
X158789500Y-108813732D01*
X158789500Y-109486267D01*
X158769815Y-109553306D01*
X158717011Y-109599061D01*
X158704506Y-109603972D01*
X158670671Y-109615184D01*
X158670663Y-109615187D01*
X158521342Y-109707289D01*
X158397289Y-109831342D01*
X158305187Y-109980663D01*
X158305185Y-109980668D01*
X158292585Y-110018694D01*
X158250001Y-110147203D01*
X158250001Y-110147204D01*
X158250000Y-110147204D01*
X158239500Y-110249983D01*
X158239500Y-111050001D01*
X158239501Y-111050019D01*
X158250000Y-111152796D01*
X158250001Y-111152799D01*
X158297714Y-111296786D01*
X158305186Y-111319334D01*
X158382535Y-111444738D01*
X158397289Y-111468657D01*
X158490951Y-111562319D01*
X158492738Y-111565592D01*
X158495905Y-111567569D01*
X158509359Y-111596031D01*
X158524436Y-111623642D01*
X158524169Y-111627362D01*
X158525765Y-111630737D01*
X158521696Y-111661943D01*
X158519452Y-111693334D01*
X158517074Y-111697402D01*
X158516733Y-111700021D01*
X158508602Y-111711897D01*
X158498045Y-111729961D01*
X158494666Y-111733965D01*
X158397288Y-111831344D01*
X158355909Y-111898429D01*
X158349977Y-111905461D01*
X158328202Y-111919863D01*
X158308793Y-111937321D01*
X158298153Y-111939738D01*
X158291702Y-111944006D01*
X158278618Y-111944178D01*
X158255202Y-111949500D01*
X152109378Y-111949500D01*
X152042339Y-111929815D01*
X152003839Y-111890597D01*
X151982712Y-111856344D01*
X151889049Y-111762681D01*
X151855564Y-111701358D01*
X151860548Y-111631666D01*
X151889049Y-111587319D01*
X151932257Y-111544111D01*
X151982712Y-111493656D01*
X152050099Y-111384402D01*
X152102047Y-111337679D01*
X152155638Y-111325500D01*
X153435065Y-111325500D01*
X153502104Y-111345185D01*
X153503909Y-111346366D01*
X153560821Y-111384394D01*
X153560823Y-111384395D01*
X153560827Y-111384397D01*
X153661557Y-111426120D01*
X153706503Y-111444737D01*
X153827938Y-111468892D01*
X153861153Y-111475499D01*
X153861156Y-111475500D01*
X153861158Y-111475500D01*
X154018844Y-111475500D01*
X154018845Y-111475499D01*
X154173497Y-111444737D01*
X154286166Y-111398067D01*
X154319172Y-111384397D01*
X154319172Y-111384396D01*
X154319179Y-111384394D01*
X154450289Y-111296789D01*
X154561789Y-111185289D01*
X154649394Y-111054179D01*
X154709737Y-110908497D01*
X154740500Y-110753842D01*
X154740500Y-110596158D01*
X154740500Y-110596155D01*
X154740499Y-110596153D01*
X154726123Y-110523879D01*
X154709737Y-110441503D01*
X154683941Y-110379225D01*
X154649397Y-110295827D01*
X154649390Y-110295814D01*
X154561789Y-110164711D01*
X154561786Y-110164707D01*
X154450292Y-110053213D01*
X154450288Y-110053210D01*
X154319185Y-109965609D01*
X154319172Y-109965602D01*
X154173501Y-109905264D01*
X154173489Y-109905261D01*
X154018845Y-109874500D01*
X154018842Y-109874500D01*
X153861158Y-109874500D01*
X153861155Y-109874500D01*
X153706510Y-109905261D01*
X153706498Y-109905264D01*
X153560827Y-109965602D01*
X153560820Y-109965606D01*
X153538282Y-109980666D01*
X153503955Y-110003602D01*
X153437279Y-110024480D01*
X153435065Y-110024500D01*
X152155638Y-110024500D01*
X152088599Y-110004815D01*
X152050099Y-109965597D01*
X151982712Y-109856344D01*
X151858656Y-109732288D01*
X151709334Y-109640186D01*
X151542797Y-109585001D01*
X151542795Y-109585000D01*
X151440010Y-109574500D01*
X150439998Y-109574500D01*
X150439980Y-109574501D01*
X150337203Y-109585000D01*
X150337200Y-109585001D01*
X150170668Y-109640185D01*
X150170663Y-109640187D01*
X150021342Y-109732289D01*
X149897289Y-109856342D01*
X149805187Y-110005663D01*
X149805185Y-110005668D01*
X149798945Y-110024500D01*
X149750001Y-110172203D01*
X149750001Y-110172204D01*
X149750000Y-110172204D01*
X149739500Y-110274983D01*
X149739500Y-111075001D01*
X149739501Y-111075019D01*
X149750000Y-111177796D01*
X149750001Y-111177799D01*
X149789108Y-111295814D01*
X149805186Y-111344334D01*
X149886089Y-111475500D01*
X149897289Y-111493657D01*
X149990951Y-111587319D01*
X149992738Y-111590592D01*
X149995905Y-111592569D01*
X150009359Y-111621031D01*
X150024436Y-111648642D01*
X150024169Y-111652362D01*
X150025765Y-111655737D01*
X150021696Y-111686943D01*
X150019452Y-111718334D01*
X150017074Y-111722402D01*
X150016733Y-111725021D01*
X150008602Y-111736897D01*
X149998045Y-111754961D01*
X149994666Y-111758965D01*
X149897288Y-111856344D01*
X149855909Y-111923429D01*
X149849977Y-111930461D01*
X149828202Y-111944863D01*
X149808793Y-111962321D01*
X149798153Y-111964738D01*
X149791702Y-111969006D01*
X149778618Y-111969178D01*
X149755202Y-111974500D01*
X140431519Y-111974500D01*
X140364480Y-111954815D01*
X140343838Y-111938181D01*
X137626818Y-109221161D01*
X137593333Y-109159838D01*
X137590499Y-109133480D01*
X137590499Y-107216971D01*
X137590499Y-107216964D01*
X137579886Y-107097582D01*
X137525166Y-106906344D01*
X137523910Y-106901954D01*
X137523909Y-106901953D01*
X137523909Y-106901951D01*
X137429698Y-106721593D01*
X137377684Y-106657803D01*
X137301109Y-106563890D01*
X137177806Y-106463351D01*
X137143407Y-106435302D01*
X136963049Y-106341091D01*
X136963048Y-106341090D01*
X136963045Y-106341089D01*
X136831094Y-106303334D01*
X136767418Y-106285114D01*
X136767415Y-106285113D01*
X136767413Y-106285113D01*
X136701102Y-106279217D01*
X136648037Y-106274500D01*
X136648032Y-106274500D01*
X135531971Y-106274500D01*
X135531965Y-106274500D01*
X135531964Y-106274501D01*
X135520316Y-106275536D01*
X135412584Y-106285113D01*
X135216954Y-106341089D01*
X135181894Y-106359403D01*
X135036593Y-106435302D01*
X135036591Y-106435303D01*
X135036590Y-106435304D01*
X134878890Y-106563890D01*
X134765220Y-106703297D01*
X134750302Y-106721593D01*
X134721054Y-106777585D01*
X134656089Y-106901954D01*
X134600114Y-107097583D01*
X134600113Y-107097586D01*
X134589500Y-107216966D01*
X134589500Y-107850500D01*
X134569815Y-107917539D01*
X134517011Y-107963294D01*
X134465500Y-107974500D01*
X131307740Y-107974500D01*
X131240701Y-107954815D01*
X131196652Y-107905594D01*
X131157032Y-107825707D01*
X131157030Y-107825704D01*
X131037724Y-107677280D01*
X131037722Y-107677278D01*
X130968112Y-107621324D01*
X130928196Y-107563985D01*
X130925616Y-107494163D01*
X130961194Y-107434030D01*
X130968115Y-107428033D01*
X131037366Y-107372367D01*
X131037367Y-107372366D01*
X131156607Y-107224025D01*
X131156609Y-107224022D01*
X131241168Y-107053523D01*
X131287102Y-106868824D01*
X131290000Y-106826096D01*
X131290000Y-106625000D01*
X128290000Y-106625000D01*
X128290000Y-106826096D01*
X128292898Y-106868830D01*
X128336497Y-107044140D01*
X128333574Y-107113949D01*
X128293374Y-107171095D01*
X128228660Y-107197436D01*
X128216163Y-107198067D01*
X127646298Y-107198067D01*
X127579259Y-107178382D01*
X127540759Y-107139164D01*
X127511922Y-107092411D01*
X127387866Y-106968355D01*
X127384552Y-106966310D01*
X127382756Y-106964315D01*
X127382199Y-106963874D01*
X127382274Y-106963778D01*
X127337828Y-106914364D01*
X127326607Y-106845401D01*
X127354450Y-106781319D01*
X127384558Y-106755232D01*
X127387552Y-106753385D01*
X127511525Y-106629412D01*
X127603566Y-106480191D01*
X127603568Y-106480186D01*
X127658715Y-106313764D01*
X127658716Y-106313757D01*
X127669209Y-106211053D01*
X127669210Y-106211040D01*
X127669210Y-106073567D01*
X126568210Y-106073567D01*
X126559524Y-106071016D01*
X126550563Y-106072305D01*
X126526522Y-106061326D01*
X126501171Y-106053882D01*
X126495243Y-106047041D01*
X126487007Y-106043280D01*
X126472717Y-106021045D01*
X126455416Y-106001078D01*
X126453128Y-105990563D01*
X126449233Y-105984502D01*
X126444210Y-105949567D01*
X126444210Y-105923903D01*
X128290000Y-105923903D01*
X128290000Y-106125000D01*
X129540000Y-106125000D01*
X130040000Y-106125000D01*
X131290000Y-106125000D01*
X131290000Y-105923903D01*
X131287102Y-105881175D01*
X131241168Y-105696476D01*
X131156609Y-105525977D01*
X131156607Y-105525974D01*
X131037367Y-105377633D01*
X131037366Y-105377632D01*
X130889025Y-105258392D01*
X130889022Y-105258390D01*
X130718523Y-105173831D01*
X130533824Y-105127897D01*
X130491097Y-105125000D01*
X130040000Y-105125000D01*
X130040000Y-106125000D01*
X129540000Y-106125000D01*
X129540000Y-105125000D01*
X129088903Y-105125000D01*
X129046175Y-105127897D01*
X128861476Y-105173831D01*
X128690977Y-105258390D01*
X128690974Y-105258392D01*
X128542633Y-105377632D01*
X128542632Y-105377633D01*
X128423392Y-105525974D01*
X128423390Y-105525977D01*
X128338831Y-105696476D01*
X128292897Y-105881175D01*
X128290000Y-105923903D01*
X126444210Y-105923903D01*
X126444210Y-105823567D01*
X126318210Y-105823567D01*
X126251171Y-105803882D01*
X126205416Y-105751078D01*
X126194210Y-105699567D01*
X126194210Y-105573567D01*
X126694210Y-105573567D01*
X127669209Y-105573567D01*
X127669209Y-105436095D01*
X127669208Y-105436080D01*
X127658715Y-105333369D01*
X127603568Y-105166947D01*
X127603566Y-105166942D01*
X127511525Y-105017721D01*
X127387555Y-104893751D01*
X127238334Y-104801710D01*
X127238329Y-104801708D01*
X127071907Y-104746561D01*
X127071900Y-104746560D01*
X126969196Y-104736067D01*
X126694210Y-104736067D01*
X126694210Y-105573567D01*
X126194210Y-105573567D01*
X126194210Y-104736067D01*
X125919239Y-104736067D01*
X125919222Y-104736068D01*
X125816512Y-104746561D01*
X125650090Y-104801708D01*
X125650085Y-104801710D01*
X125500864Y-104893751D01*
X125421810Y-104972804D01*
X125360487Y-105006289D01*
X125290795Y-105001303D01*
X125286678Y-104999683D01*
X125173501Y-104952804D01*
X125173489Y-104952801D01*
X125018845Y-104922040D01*
X125018842Y-104922040D01*
X124861158Y-104922040D01*
X124861155Y-104922040D01*
X124706510Y-104952801D01*
X124706498Y-104952804D01*
X124560827Y-105013142D01*
X124560814Y-105013149D01*
X124429711Y-105100750D01*
X124429707Y-105100753D01*
X124318213Y-105212247D01*
X124318210Y-105212251D01*
X124230609Y-105343354D01*
X124230602Y-105343367D01*
X124170264Y-105489038D01*
X124170261Y-105489050D01*
X124139500Y-105643693D01*
X124139500Y-105801386D01*
X124170261Y-105956029D01*
X124170264Y-105956041D01*
X124230061Y-106100404D01*
X124239500Y-106147856D01*
X124239500Y-106325363D01*
X124239500Y-106463351D01*
X124239500Y-106463353D01*
X124239499Y-106463353D01*
X124266418Y-106598679D01*
X124266421Y-106598689D01*
X124319222Y-106726164D01*
X124395887Y-106840902D01*
X124395888Y-106840903D01*
X125182391Y-107627405D01*
X125215876Y-107688728D01*
X125218710Y-107715086D01*
X125218710Y-108286068D01*
X125218711Y-108286086D01*
X125229210Y-108388863D01*
X125229211Y-108388866D01*
X125263936Y-108493657D01*
X125284396Y-108555401D01*
X125373585Y-108700001D01*
X125392025Y-108767392D01*
X125373585Y-108830192D01*
X125280645Y-108980871D01*
X125280641Y-108980880D01*
X125225494Y-109147302D01*
X125225493Y-109147309D01*
X125215000Y-109250013D01*
X125215000Y-109387500D01*
X127664999Y-109387500D01*
X127664999Y-109250028D01*
X127664998Y-109250013D01*
X127654505Y-109147302D01*
X127599358Y-108980880D01*
X127599353Y-108980869D01*
X127510625Y-108837019D01*
X127506514Y-108821998D01*
X127497852Y-108809052D01*
X127497480Y-108788984D01*
X127492184Y-108769627D01*
X127496830Y-108753803D01*
X127496560Y-108739194D01*
X127510625Y-108706824D01*
X127511919Y-108704725D01*
X127511922Y-108704723D01*
X127540760Y-108657968D01*
X127592709Y-108611245D01*
X127646298Y-108599067D01*
X128165500Y-108599067D01*
X128232539Y-108618752D01*
X128278294Y-108671556D01*
X128289500Y-108723067D01*
X128289500Y-109126121D01*
X128289501Y-109126125D01*
X128292399Y-109168886D01*
X128292399Y-109168887D01*
X128338360Y-109353696D01*
X128422967Y-109524292D01*
X128422969Y-109524295D01*
X128542277Y-109672721D01*
X128542278Y-109672722D01*
X128611486Y-109728353D01*
X128651405Y-109785696D01*
X128653985Y-109855518D01*
X128618406Y-109915651D01*
X128611486Y-109921647D01*
X128542278Y-109977277D01*
X128542277Y-109977278D01*
X128422969Y-110125704D01*
X128422967Y-110125707D01*
X128338360Y-110296302D01*
X128292400Y-110481107D01*
X128292400Y-110481111D01*
X128289500Y-110523877D01*
X128289500Y-110767297D01*
X128289501Y-110888000D01*
X128269817Y-110955039D01*
X128217013Y-111000794D01*
X128165501Y-111012000D01*
X127642088Y-111012000D01*
X127575049Y-110992315D01*
X127536549Y-110953097D01*
X127507712Y-110906344D01*
X127383656Y-110782288D01*
X127380342Y-110780243D01*
X127378546Y-110778248D01*
X127377989Y-110777807D01*
X127378064Y-110777711D01*
X127333618Y-110728297D01*
X127322397Y-110659334D01*
X127350240Y-110595252D01*
X127380348Y-110569165D01*
X127383342Y-110567318D01*
X127507315Y-110443345D01*
X127599356Y-110294124D01*
X127599358Y-110294119D01*
X127654505Y-110127697D01*
X127654506Y-110127690D01*
X127664999Y-110024986D01*
X127665000Y-110024973D01*
X127665000Y-109887500D01*
X125215001Y-109887500D01*
X125215001Y-109924981D01*
X125195316Y-109992020D01*
X125142512Y-110037775D01*
X125073354Y-110047719D01*
X125009798Y-110018694D01*
X125003320Y-110012662D01*
X118971545Y-103980887D01*
X118856807Y-103904222D01*
X118729332Y-103851421D01*
X118729322Y-103851418D01*
X118593996Y-103824500D01*
X118593994Y-103824500D01*
X118593993Y-103824500D01*
X116686415Y-103824500D01*
X116619376Y-103804815D01*
X116573621Y-103752011D01*
X116563677Y-103682853D01*
X116568484Y-103662182D01*
X116584835Y-103611855D01*
X116615000Y-103421409D01*
X116615000Y-103228590D01*
X116584835Y-103038143D01*
X116525253Y-102854765D01*
X116525252Y-102854762D01*
X116437712Y-102682957D01*
X116415780Y-102652771D01*
X115811725Y-103256826D01*
X115786037Y-103160956D01*
X115730084Y-103064044D01*
X115650956Y-102984916D01*
X115554044Y-102928963D01*
X115458172Y-102903274D01*
X116062227Y-102299218D01*
X116062227Y-102299217D01*
X116032043Y-102277288D01*
X115860237Y-102189747D01*
X115860234Y-102189746D01*
X115676856Y-102130164D01*
X115486409Y-102100000D01*
X115293591Y-102100000D01*
X115103143Y-102130164D01*
X114919765Y-102189746D01*
X114919762Y-102189747D01*
X114747955Y-102277288D01*
X114747950Y-102277292D01*
X114717771Y-102299216D01*
X114717771Y-102299219D01*
X115321828Y-102903274D01*
X115225956Y-102928963D01*
X115129044Y-102984916D01*
X115049916Y-103064044D01*
X114993963Y-103160956D01*
X114968274Y-103256827D01*
X114364219Y-102652771D01*
X114364127Y-102652778D01*
X114308991Y-102695297D01*
X114239378Y-102701278D01*
X114177582Y-102668673D01*
X114143223Y-102607836D01*
X114140000Y-102579747D01*
X114140000Y-102575000D01*
X113206988Y-102575000D01*
X113224205Y-102565060D01*
X113280060Y-102509205D01*
X113319556Y-102440796D01*
X113340000Y-102364496D01*
X113340000Y-102285504D01*
X113319556Y-102209204D01*
X113280060Y-102140795D01*
X113224205Y-102084940D01*
X113206988Y-102075000D01*
X114114115Y-102075000D01*
X114114115Y-102074999D01*
X114112914Y-102067415D01*
X114059408Y-101902744D01*
X114056911Y-101897844D01*
X136280000Y-101897844D01*
X136286401Y-101957372D01*
X136286403Y-101957379D01*
X136336645Y-102092086D01*
X136336649Y-102092093D01*
X136422809Y-102207187D01*
X136422812Y-102207190D01*
X136537906Y-102293350D01*
X136537913Y-102293354D01*
X136672620Y-102343596D01*
X136672627Y-102343598D01*
X136732155Y-102349999D01*
X136732172Y-102350000D01*
X136980000Y-102350000D01*
X136980000Y-101350000D01*
X136280000Y-101350000D01*
X136280000Y-101897844D01*
X114056911Y-101897844D01*
X113980804Y-101748475D01*
X113879032Y-101608397D01*
X113756600Y-101485965D01*
X113756595Y-101485961D01*
X113636842Y-101398956D01*
X113616527Y-101384197D01*
X113462257Y-101305591D01*
X113297584Y-101252085D01*
X113126571Y-101225000D01*
X112940000Y-101225000D01*
X112940000Y-102025000D01*
X112440000Y-102025000D01*
X112440000Y-101225000D01*
X112253429Y-101225000D01*
X112082415Y-101252085D01*
X111917742Y-101305591D01*
X111763475Y-101384195D01*
X111623397Y-101485967D01*
X111500965Y-101608399D01*
X111500961Y-101608404D01*
X111414818Y-101726971D01*
X111359488Y-101769637D01*
X111289875Y-101775616D01*
X111228080Y-101743011D01*
X111193723Y-101682172D01*
X111190500Y-101654086D01*
X111190500Y-98899983D01*
X119277000Y-98899983D01*
X119277000Y-99950001D01*
X119277001Y-99950019D01*
X119287500Y-100052796D01*
X119287501Y-100052799D01*
X119342685Y-100219331D01*
X119342687Y-100219336D01*
X119361406Y-100249684D01*
X119434788Y-100368656D01*
X119558844Y-100492712D01*
X119708166Y-100584814D01*
X119874703Y-100639999D01*
X119977491Y-100650500D01*
X120752508Y-100650499D01*
X120752516Y-100650498D01*
X120752519Y-100650498D01*
X120808802Y-100644748D01*
X120855297Y-100639999D01*
X121021834Y-100584814D01*
X121171156Y-100492712D01*
X121295212Y-100368656D01*
X121297252Y-100365347D01*
X121299245Y-100363555D01*
X121299693Y-100362989D01*
X121299789Y-100363065D01*
X121349194Y-100318623D01*
X121418156Y-100307395D01*
X121482240Y-100335234D01*
X121508329Y-100365339D01*
X121510181Y-100368341D01*
X121510183Y-100368344D01*
X121634154Y-100492315D01*
X121783375Y-100584356D01*
X121783380Y-100584358D01*
X121949802Y-100639505D01*
X121949809Y-100639506D01*
X122052519Y-100649999D01*
X122189999Y-100649999D01*
X122690000Y-100649999D01*
X122827472Y-100649999D01*
X122827486Y-100649998D01*
X122930197Y-100639505D01*
X123096619Y-100584358D01*
X123096624Y-100584356D01*
X123245845Y-100492315D01*
X123369815Y-100368345D01*
X123461856Y-100219124D01*
X123461858Y-100219119D01*
X123517005Y-100052697D01*
X123517006Y-100052690D01*
X123527499Y-99949986D01*
X124777501Y-99949986D01*
X124787994Y-100052697D01*
X124843141Y-100219119D01*
X124843143Y-100219124D01*
X124935184Y-100368345D01*
X125059154Y-100492315D01*
X125208375Y-100584356D01*
X125208380Y-100584358D01*
X125374802Y-100639505D01*
X125374809Y-100639506D01*
X125477519Y-100649999D01*
X125614999Y-100649999D01*
X125615000Y-100649998D01*
X125615000Y-99675000D01*
X124777501Y-99675000D01*
X124777501Y-99949986D01*
X123527499Y-99949986D01*
X123527500Y-99949973D01*
X123527500Y-99675000D01*
X122690000Y-99675000D01*
X122690000Y-100649999D01*
X122189999Y-100649999D01*
X122190000Y-100649998D01*
X122190000Y-99175000D01*
X122690000Y-99175000D01*
X123527499Y-99175000D01*
X123527499Y-98900029D01*
X123527498Y-98900013D01*
X124777500Y-98900013D01*
X124777500Y-99175000D01*
X125615000Y-99175000D01*
X125615000Y-98200000D01*
X125477527Y-98200000D01*
X125477512Y-98200001D01*
X125374802Y-98210494D01*
X125208380Y-98265641D01*
X125208375Y-98265643D01*
X125059154Y-98357684D01*
X124935184Y-98481654D01*
X124843143Y-98630875D01*
X124843141Y-98630880D01*
X124787994Y-98797302D01*
X124787993Y-98797309D01*
X124777500Y-98900013D01*
X123527498Y-98900013D01*
X123527498Y-98900012D01*
X123517005Y-98797302D01*
X123461858Y-98630880D01*
X123461856Y-98630875D01*
X123369815Y-98481654D01*
X123245845Y-98357684D01*
X123096624Y-98265643D01*
X123096619Y-98265641D01*
X122930197Y-98210494D01*
X122930190Y-98210493D01*
X122827486Y-98200000D01*
X122690000Y-98200000D01*
X122690000Y-99175000D01*
X122190000Y-99175000D01*
X122190000Y-98200000D01*
X122052527Y-98200000D01*
X122052512Y-98200001D01*
X121949802Y-98210494D01*
X121783380Y-98265641D01*
X121783375Y-98265643D01*
X121634154Y-98357684D01*
X121510183Y-98481655D01*
X121510179Y-98481660D01*
X121508326Y-98484665D01*
X121506518Y-98486290D01*
X121505702Y-98487323D01*
X121505525Y-98487183D01*
X121456374Y-98531385D01*
X121387411Y-98542601D01*
X121323331Y-98514752D01*
X121297253Y-98484653D01*
X121297237Y-98484628D01*
X121295212Y-98481344D01*
X121171156Y-98357288D01*
X121074402Y-98297610D01*
X121027679Y-98245663D01*
X121015500Y-98192072D01*
X121015500Y-97163767D01*
X121035185Y-97096728D01*
X121074401Y-97058230D01*
X121221156Y-96967712D01*
X121314819Y-96874049D01*
X121376142Y-96840564D01*
X121445834Y-96845548D01*
X121490181Y-96874049D01*
X121583844Y-96967712D01*
X121733166Y-97059814D01*
X121899703Y-97114999D01*
X122002491Y-97125500D01*
X122802508Y-97125499D01*
X122802516Y-97125498D01*
X122802519Y-97125498D01*
X122880745Y-97117507D01*
X122905297Y-97114999D01*
X123071834Y-97059814D01*
X123217791Y-96969787D01*
X123285182Y-96951348D01*
X123351845Y-96972271D01*
X123370567Y-96987646D01*
X123429707Y-97046786D01*
X123429711Y-97046789D01*
X123560814Y-97134390D01*
X123560827Y-97134397D01*
X123631734Y-97163767D01*
X123706503Y-97194737D01*
X123861153Y-97225499D01*
X123861156Y-97225500D01*
X123861158Y-97225500D01*
X124018844Y-97225500D01*
X124018845Y-97225499D01*
X124173497Y-97194737D01*
X124319179Y-97134394D01*
X124450289Y-97046789D01*
X124561789Y-96935289D01*
X124649394Y-96804179D01*
X124671515Y-96750771D01*
X124715355Y-96696371D01*
X124781649Y-96674305D01*
X124849348Y-96691584D01*
X124891614Y-96733128D01*
X124959788Y-96843656D01*
X125083844Y-96967712D01*
X125233166Y-97059814D01*
X125399703Y-97114999D01*
X125502491Y-97125500D01*
X126302508Y-97125499D01*
X126302516Y-97125498D01*
X126302519Y-97125498D01*
X126380745Y-97117507D01*
X126405297Y-97114999D01*
X126571834Y-97059814D01*
X126721156Y-96967712D01*
X126814819Y-96874049D01*
X126876142Y-96840564D01*
X126945834Y-96845548D01*
X126990181Y-96874049D01*
X127083844Y-96967712D01*
X127230597Y-97058229D01*
X127277321Y-97110175D01*
X127289500Y-97163767D01*
X127289500Y-98192072D01*
X127269815Y-98259111D01*
X127230598Y-98297609D01*
X127171055Y-98334336D01*
X127133842Y-98357289D01*
X127009788Y-98481343D01*
X127009783Y-98481349D01*
X127007741Y-98484661D01*
X127005747Y-98486453D01*
X127005307Y-98487011D01*
X127005211Y-98486935D01*
X126955791Y-98531383D01*
X126886828Y-98542602D01*
X126822747Y-98514755D01*
X126796668Y-98484656D01*
X126794819Y-98481659D01*
X126794816Y-98481655D01*
X126670845Y-98357684D01*
X126521624Y-98265643D01*
X126521619Y-98265641D01*
X126355197Y-98210494D01*
X126355190Y-98210493D01*
X126252486Y-98200000D01*
X126115000Y-98200000D01*
X126115000Y-100649999D01*
X126252472Y-100649999D01*
X126252486Y-100649998D01*
X126355197Y-100639505D01*
X126521619Y-100584358D01*
X126521624Y-100584356D01*
X126670845Y-100492315D01*
X126794818Y-100368342D01*
X126796665Y-100365348D01*
X126798469Y-100363724D01*
X126799298Y-100362677D01*
X126799476Y-100362818D01*
X126848610Y-100318621D01*
X126917573Y-100307396D01*
X126981656Y-100335236D01*
X127007742Y-100365339D01*
X127009788Y-100368656D01*
X127133844Y-100492712D01*
X127283166Y-100584814D01*
X127449703Y-100639999D01*
X127552491Y-100650500D01*
X128327508Y-100650499D01*
X128327516Y-100650498D01*
X128327519Y-100650498D01*
X128383802Y-100644748D01*
X128430297Y-100639999D01*
X128596834Y-100584814D01*
X128746156Y-100492712D01*
X128870212Y-100368656D01*
X128962314Y-100219334D01*
X129017499Y-100052797D01*
X129028000Y-99950009D01*
X129027999Y-98899992D01*
X129017499Y-98797203D01*
X128962314Y-98630666D01*
X128870212Y-98481344D01*
X128746156Y-98357288D01*
X128649402Y-98297610D01*
X128602679Y-98245663D01*
X128590500Y-98192072D01*
X128590500Y-97117507D01*
X128610185Y-97050468D01*
X128649403Y-97011968D01*
X128721156Y-96967712D01*
X128845212Y-96843656D01*
X128937314Y-96694334D01*
X128948528Y-96660494D01*
X128988301Y-96603050D01*
X129052817Y-96576228D01*
X129066233Y-96575500D01*
X132833339Y-96575500D01*
X132900378Y-96595185D01*
X132946133Y-96647989D01*
X132956077Y-96717147D01*
X132949521Y-96742833D01*
X132945908Y-96752518D01*
X132940354Y-96804181D01*
X132939501Y-96812123D01*
X132939500Y-96812135D01*
X132939500Y-97807870D01*
X132939501Y-97807876D01*
X132945908Y-97867481D01*
X132958659Y-97901669D01*
X132963642Y-97971361D01*
X132958659Y-97988331D01*
X132945908Y-98022518D01*
X132940724Y-98070739D01*
X132939501Y-98082123D01*
X132939500Y-98082135D01*
X132939500Y-99077870D01*
X132939501Y-99077876D01*
X132945908Y-99137481D01*
X132958659Y-99171669D01*
X132963642Y-99241361D01*
X132958659Y-99258331D01*
X132945908Y-99292518D01*
X132939501Y-99352116D01*
X132939501Y-99352123D01*
X132939500Y-99352135D01*
X132939500Y-100347870D01*
X132939501Y-100347876D01*
X132945908Y-100407483D01*
X132996202Y-100542328D01*
X132996206Y-100542335D01*
X133082452Y-100657544D01*
X133082455Y-100657547D01*
X133197664Y-100743793D01*
X133197671Y-100743797D01*
X133332517Y-100794091D01*
X133332516Y-100794091D01*
X133339444Y-100794835D01*
X133392127Y-100800500D01*
X134987872Y-100800499D01*
X135047483Y-100794091D01*
X135182331Y-100743796D01*
X135297546Y-100657546D01*
X135383796Y-100542331D01*
X135434091Y-100407483D01*
X135440500Y-100347873D01*
X135440500Y-100302155D01*
X136280000Y-100302155D01*
X136280000Y-100850000D01*
X136980000Y-100850000D01*
X136980000Y-99850000D01*
X137480000Y-99850000D01*
X137480000Y-102350000D01*
X137727828Y-102350000D01*
X137727844Y-102349999D01*
X137787372Y-102343598D01*
X137787375Y-102343597D01*
X137820949Y-102331075D01*
X137890640Y-102326089D01*
X137907619Y-102331075D01*
X137942511Y-102344089D01*
X137942512Y-102344089D01*
X137942517Y-102344091D01*
X138002127Y-102350500D01*
X138997872Y-102350499D01*
X139057483Y-102344091D01*
X139091667Y-102331340D01*
X139161358Y-102326357D01*
X139178327Y-102331338D01*
X139212517Y-102344091D01*
X139272127Y-102350500D01*
X140267872Y-102350499D01*
X140327483Y-102344091D01*
X140361667Y-102331340D01*
X140431358Y-102326357D01*
X140448327Y-102331338D01*
X140482517Y-102344091D01*
X140542127Y-102350500D01*
X141537872Y-102350499D01*
X141597483Y-102344091D01*
X141631667Y-102331340D01*
X141701358Y-102326357D01*
X141718327Y-102331338D01*
X141752517Y-102344091D01*
X141812127Y-102350500D01*
X142807872Y-102350499D01*
X142867483Y-102344091D01*
X142901667Y-102331340D01*
X142971358Y-102326357D01*
X142988327Y-102331338D01*
X143022517Y-102344091D01*
X143082127Y-102350500D01*
X144077872Y-102350499D01*
X144137483Y-102344091D01*
X144171667Y-102331340D01*
X144241358Y-102326357D01*
X144258327Y-102331338D01*
X144292517Y-102344091D01*
X144352127Y-102350500D01*
X145347872Y-102350499D01*
X145407483Y-102344091D01*
X145441667Y-102331340D01*
X145511358Y-102326357D01*
X145528327Y-102331338D01*
X145562517Y-102344091D01*
X145622127Y-102350500D01*
X146617872Y-102350499D01*
X146677483Y-102344091D01*
X146711667Y-102331340D01*
X146781358Y-102326357D01*
X146798327Y-102331338D01*
X146832517Y-102344091D01*
X146892127Y-102350500D01*
X147885500Y-102350499D01*
X147952539Y-102370183D01*
X147998294Y-102422987D01*
X148009500Y-102474499D01*
X148009500Y-105459070D01*
X148021265Y-105518212D01*
X148021265Y-105518214D01*
X148034497Y-105584736D01*
X148034499Y-105584744D01*
X148063730Y-105655315D01*
X148083535Y-105703127D01*
X148154723Y-105809669D01*
X148154726Y-105809673D01*
X148154727Y-105809674D01*
X149703181Y-107358127D01*
X149736666Y-107419450D01*
X149739500Y-107445808D01*
X149739500Y-108075001D01*
X149739501Y-108075019D01*
X149750000Y-108177796D01*
X149750001Y-108177799D01*
X149805185Y-108344331D01*
X149805187Y-108344336D01*
X149832652Y-108388864D01*
X149897288Y-108493656D01*
X150021344Y-108617712D01*
X150170666Y-108709814D01*
X150337203Y-108764999D01*
X150439991Y-108775500D01*
X151440008Y-108775499D01*
X151440016Y-108775498D01*
X151440019Y-108775498D01*
X151496302Y-108769748D01*
X151542797Y-108764999D01*
X151709334Y-108709814D01*
X151858656Y-108617712D01*
X151982712Y-108493656D01*
X152050099Y-108384402D01*
X152102047Y-108337679D01*
X152155638Y-108325500D01*
X154435065Y-108325500D01*
X154502104Y-108345185D01*
X154503909Y-108346366D01*
X154560821Y-108384394D01*
X154560823Y-108384395D01*
X154560827Y-108384397D01*
X154706498Y-108444735D01*
X154706503Y-108444737D01*
X154861153Y-108475499D01*
X154861156Y-108475500D01*
X154861158Y-108475500D01*
X155018844Y-108475500D01*
X155018845Y-108475499D01*
X155173497Y-108444737D01*
X155308383Y-108388866D01*
X155319172Y-108384397D01*
X155319172Y-108384396D01*
X155319179Y-108384394D01*
X155450289Y-108296789D01*
X155561789Y-108185289D01*
X155649394Y-108054179D01*
X155709737Y-107908497D01*
X155740500Y-107753842D01*
X155740500Y-107596158D01*
X155740500Y-107596155D01*
X155740499Y-107596153D01*
X155716499Y-107475499D01*
X155709737Y-107441503D01*
X155704158Y-107428033D01*
X155649397Y-107295827D01*
X155649390Y-107295814D01*
X155561789Y-107164711D01*
X155561786Y-107164707D01*
X155450292Y-107053213D01*
X155450288Y-107053210D01*
X155319185Y-106965609D01*
X155319172Y-106965602D01*
X155173501Y-106905264D01*
X155173489Y-106905261D01*
X155018845Y-106874500D01*
X155018842Y-106874500D01*
X154861158Y-106874500D01*
X154861155Y-106874500D01*
X154706510Y-106905261D01*
X154706498Y-106905264D01*
X154560827Y-106965602D01*
X154560820Y-106965606D01*
X154531928Y-106984911D01*
X154503955Y-107003602D01*
X154437279Y-107024480D01*
X154435065Y-107024500D01*
X152155638Y-107024500D01*
X152088599Y-107004815D01*
X152050099Y-106965597D01*
X151982712Y-106856344D01*
X151888695Y-106762327D01*
X151855210Y-106701004D01*
X151860194Y-106631312D01*
X151888695Y-106586964D01*
X151982317Y-106493342D01*
X152074356Y-106344124D01*
X152074358Y-106344119D01*
X152129505Y-106177697D01*
X152129506Y-106177690D01*
X152139999Y-106074986D01*
X152140000Y-106074973D01*
X152140000Y-105925000D01*
X151064000Y-105925000D01*
X150996961Y-105905315D01*
X150951206Y-105852511D01*
X150940000Y-105801000D01*
X150940000Y-105675000D01*
X150814000Y-105675000D01*
X150746961Y-105655315D01*
X150701206Y-105602511D01*
X150690000Y-105551000D01*
X150690000Y-105425000D01*
X151190000Y-105425000D01*
X152139999Y-105425000D01*
X152139999Y-105275028D01*
X152139998Y-105275013D01*
X152138410Y-105259466D01*
X152137444Y-105250013D01*
X158240000Y-105250013D01*
X158240000Y-105375000D01*
X159190000Y-105375000D01*
X159690000Y-105375000D01*
X160639999Y-105375000D01*
X160639999Y-105250028D01*
X160639998Y-105250013D01*
X160629505Y-105147302D01*
X160574358Y-104980880D01*
X160574356Y-104980875D01*
X160482315Y-104831654D01*
X160358345Y-104707684D01*
X160209124Y-104615643D01*
X160209119Y-104615641D01*
X160042697Y-104560494D01*
X160042690Y-104560493D01*
X159939986Y-104550000D01*
X159690000Y-104550000D01*
X159690000Y-105375000D01*
X159190000Y-105375000D01*
X159190000Y-104550000D01*
X158940029Y-104550000D01*
X158940012Y-104550001D01*
X158837302Y-104560494D01*
X158670880Y-104615641D01*
X158670875Y-104615643D01*
X158521654Y-104707684D01*
X158397684Y-104831654D01*
X158305643Y-104980875D01*
X158305641Y-104980880D01*
X158250494Y-105147302D01*
X158250493Y-105147309D01*
X158240000Y-105250013D01*
X152137444Y-105250013D01*
X152129505Y-105172302D01*
X152074358Y-105005880D01*
X152074356Y-105005875D01*
X151982315Y-104856654D01*
X151858345Y-104732684D01*
X151709124Y-104640643D01*
X151709119Y-104640641D01*
X151542697Y-104585494D01*
X151542690Y-104585493D01*
X151439986Y-104575000D01*
X151190000Y-104575000D01*
X151190000Y-105425000D01*
X150690000Y-105425000D01*
X150690000Y-104575000D01*
X150440029Y-104575000D01*
X150440012Y-104575001D01*
X150337302Y-104585494D01*
X150170880Y-104640641D01*
X150170875Y-104640643D01*
X150021654Y-104732684D01*
X149897684Y-104856654D01*
X149805643Y-105005875D01*
X149805641Y-105005880D01*
X149750494Y-105172302D01*
X149750493Y-105172309D01*
X149740563Y-105269501D01*
X149714166Y-105334192D01*
X149656985Y-105374343D01*
X149587174Y-105377205D01*
X149529524Y-105344578D01*
X149346819Y-105161873D01*
X149313334Y-105100550D01*
X149310500Y-105074192D01*
X149310500Y-102387180D01*
X149330185Y-102320141D01*
X149360187Y-102287914D01*
X149467546Y-102207546D01*
X149553796Y-102092331D01*
X149604091Y-101957483D01*
X149610500Y-101897873D01*
X149610499Y-100302128D01*
X149604091Y-100242517D01*
X149595444Y-100219334D01*
X149553797Y-100107671D01*
X149553793Y-100107664D01*
X149467547Y-99992455D01*
X149467544Y-99992452D01*
X149352335Y-99906206D01*
X149352328Y-99906202D01*
X149217482Y-99855908D01*
X149217483Y-99855908D01*
X149157883Y-99849501D01*
X149157881Y-99849500D01*
X149157873Y-99849500D01*
X149157864Y-99849500D01*
X148162129Y-99849500D01*
X148162123Y-99849501D01*
X148102518Y-99855908D01*
X148068331Y-99868659D01*
X147998639Y-99873642D01*
X147981669Y-99868659D01*
X147964140Y-99862121D01*
X147947483Y-99855909D01*
X147947482Y-99855908D01*
X147887883Y-99849501D01*
X147887881Y-99849500D01*
X147887873Y-99849500D01*
X147887864Y-99849500D01*
X146892129Y-99849500D01*
X146892123Y-99849501D01*
X146832518Y-99855908D01*
X146798331Y-99868659D01*
X146728639Y-99873642D01*
X146711669Y-99868659D01*
X146694140Y-99862121D01*
X146677483Y-99855909D01*
X146677482Y-99855908D01*
X146617883Y-99849501D01*
X146617881Y-99849500D01*
X146617873Y-99849500D01*
X146617864Y-99849500D01*
X145622129Y-99849500D01*
X145622123Y-99849501D01*
X145562518Y-99855908D01*
X145528331Y-99868659D01*
X145458639Y-99873642D01*
X145441669Y-99868659D01*
X145424140Y-99862121D01*
X145407483Y-99855909D01*
X145407482Y-99855908D01*
X145347883Y-99849501D01*
X145347881Y-99849500D01*
X145347873Y-99849500D01*
X145347864Y-99849500D01*
X144352129Y-99849500D01*
X144352123Y-99849501D01*
X144292518Y-99855908D01*
X144258331Y-99868659D01*
X144188639Y-99873642D01*
X144171669Y-99868659D01*
X144154140Y-99862121D01*
X144137483Y-99855909D01*
X144137482Y-99855908D01*
X144077883Y-99849501D01*
X144077881Y-99849500D01*
X144077873Y-99849500D01*
X144077864Y-99849500D01*
X143082129Y-99849500D01*
X143082123Y-99849501D01*
X143022518Y-99855908D01*
X142988331Y-99868659D01*
X142918639Y-99873642D01*
X142901669Y-99868659D01*
X142884140Y-99862121D01*
X142867483Y-99855909D01*
X142867482Y-99855908D01*
X142807883Y-99849501D01*
X142807881Y-99849500D01*
X142807873Y-99849500D01*
X142807864Y-99849500D01*
X141812129Y-99849500D01*
X141812123Y-99849501D01*
X141752518Y-99855908D01*
X141718331Y-99868659D01*
X141648639Y-99873642D01*
X141631669Y-99868659D01*
X141614140Y-99862121D01*
X141597483Y-99855909D01*
X141597482Y-99855908D01*
X141537883Y-99849501D01*
X141537881Y-99849500D01*
X141537873Y-99849500D01*
X141537864Y-99849500D01*
X140542129Y-99849500D01*
X140542123Y-99849501D01*
X140482518Y-99855908D01*
X140448331Y-99868659D01*
X140378639Y-99873642D01*
X140361669Y-99868659D01*
X140344140Y-99862121D01*
X140327483Y-99855909D01*
X140327482Y-99855908D01*
X140267883Y-99849501D01*
X140267881Y-99849500D01*
X140267873Y-99849500D01*
X140267864Y-99849500D01*
X139272129Y-99849500D01*
X139272123Y-99849501D01*
X139212518Y-99855908D01*
X139178331Y-99868659D01*
X139108639Y-99873642D01*
X139091669Y-99868659D01*
X139074140Y-99862121D01*
X139057483Y-99855909D01*
X139057482Y-99855908D01*
X138997883Y-99849501D01*
X138997881Y-99849500D01*
X138997873Y-99849500D01*
X138997864Y-99849500D01*
X138002129Y-99849500D01*
X138002123Y-99849501D01*
X137942520Y-99855908D01*
X137942517Y-99855908D01*
X137942517Y-99855909D01*
X137907620Y-99868925D01*
X137907617Y-99868926D01*
X137837925Y-99873909D01*
X137820952Y-99868925D01*
X137787379Y-99856403D01*
X137787372Y-99856401D01*
X137727844Y-99850000D01*
X137480000Y-99850000D01*
X136980000Y-99850000D01*
X136732155Y-99850000D01*
X136672627Y-99856401D01*
X136672620Y-99856403D01*
X136537913Y-99906645D01*
X136537906Y-99906649D01*
X136422812Y-99992809D01*
X136422809Y-99992812D01*
X136336649Y-100107906D01*
X136336645Y-100107913D01*
X136286403Y-100242620D01*
X136286401Y-100242627D01*
X136280000Y-100302155D01*
X135440500Y-100302155D01*
X135440499Y-99850000D01*
X135440499Y-99352129D01*
X135440498Y-99352123D01*
X135440497Y-99352116D01*
X135434091Y-99292517D01*
X135421340Y-99258332D01*
X135416357Y-99188642D01*
X135421340Y-99171669D01*
X135434091Y-99137483D01*
X135440500Y-99077873D01*
X135440499Y-98082128D01*
X135434091Y-98022517D01*
X135421340Y-97988332D01*
X135416357Y-97918642D01*
X135421340Y-97901669D01*
X135434091Y-97867483D01*
X135440500Y-97807873D01*
X135440499Y-96812128D01*
X135434091Y-96752517D01*
X135421340Y-96718332D01*
X135416357Y-96648642D01*
X135421340Y-96631669D01*
X135434091Y-96597483D01*
X135440500Y-96537873D01*
X135440499Y-95542128D01*
X135434091Y-95482517D01*
X135421340Y-95448332D01*
X135416357Y-95378642D01*
X135421340Y-95361669D01*
X135434091Y-95327483D01*
X135440500Y-95267873D01*
X135440499Y-94272128D01*
X135434091Y-94212517D01*
X135421340Y-94178332D01*
X135416357Y-94108642D01*
X135421340Y-94091669D01*
X135434091Y-94057483D01*
X135440500Y-93997873D01*
X135440499Y-93002128D01*
X135435739Y-92957844D01*
X139090000Y-92957844D01*
X139096401Y-93017372D01*
X139096403Y-93017379D01*
X139146645Y-93152086D01*
X139146649Y-93152093D01*
X139232809Y-93267187D01*
X139232812Y-93267190D01*
X139347906Y-93353350D01*
X139347913Y-93353354D01*
X139482620Y-93403596D01*
X139482627Y-93403598D01*
X139542155Y-93409999D01*
X139542172Y-93410000D01*
X139790000Y-93410000D01*
X140290000Y-93410000D01*
X140537828Y-93410000D01*
X140537844Y-93409999D01*
X140597372Y-93403598D01*
X140597376Y-93403597D01*
X140696666Y-93366564D01*
X140766358Y-93361580D01*
X140783334Y-93366564D01*
X140882623Y-93403597D01*
X140882627Y-93403598D01*
X140942155Y-93409999D01*
X140942172Y-93410000D01*
X141190000Y-93410000D01*
X141690000Y-93410000D01*
X141937828Y-93410000D01*
X141937844Y-93409999D01*
X141997372Y-93403598D01*
X141997376Y-93403597D01*
X142096666Y-93366564D01*
X142166358Y-93361580D01*
X142183334Y-93366564D01*
X142282623Y-93403597D01*
X142282627Y-93403598D01*
X142342155Y-93409999D01*
X142342172Y-93410000D01*
X142590000Y-93410000D01*
X143090000Y-93410000D01*
X143337828Y-93410000D01*
X143337844Y-93409999D01*
X143397372Y-93403598D01*
X143397379Y-93403596D01*
X143532086Y-93353354D01*
X143532093Y-93353350D01*
X143647187Y-93267190D01*
X143647190Y-93267187D01*
X143733350Y-93152093D01*
X143733354Y-93152086D01*
X143783596Y-93017379D01*
X143783598Y-93017372D01*
X143789999Y-92957844D01*
X143790000Y-92957827D01*
X143790000Y-92710000D01*
X143090000Y-92710000D01*
X143090000Y-93410000D01*
X142590000Y-93410000D01*
X142590000Y-92710000D01*
X141690000Y-92710000D01*
X141690000Y-93410000D01*
X141190000Y-93410000D01*
X141190000Y-92710000D01*
X140290000Y-92710000D01*
X140290000Y-93410000D01*
X139790000Y-93410000D01*
X139790000Y-92710000D01*
X139090000Y-92710000D01*
X139090000Y-92957844D01*
X135435739Y-92957844D01*
X135434091Y-92942517D01*
X135421340Y-92908331D01*
X135414569Y-92848927D01*
X135416401Y-92834912D01*
X135434091Y-92787483D01*
X135440500Y-92727873D01*
X135440499Y-91732128D01*
X135434091Y-91672517D01*
X135421340Y-91638332D01*
X135416357Y-91568642D01*
X135419527Y-91557844D01*
X139090000Y-91557844D01*
X139096401Y-91617372D01*
X139096403Y-91617383D01*
X139133434Y-91716668D01*
X139138418Y-91786360D01*
X139133434Y-91803332D01*
X139096403Y-91902616D01*
X139096401Y-91902627D01*
X139090000Y-91962155D01*
X139090000Y-92210000D01*
X139790000Y-92210000D01*
X140290000Y-92210000D01*
X141190000Y-92210000D01*
X141690000Y-92210000D01*
X142590000Y-92210000D01*
X143090000Y-92210000D01*
X143790000Y-92210000D01*
X143790000Y-91962172D01*
X143789999Y-91962155D01*
X143783598Y-91902627D01*
X143783597Y-91902623D01*
X143746564Y-91803334D01*
X143741580Y-91733642D01*
X143746564Y-91716666D01*
X143783597Y-91617376D01*
X143783598Y-91617372D01*
X143789999Y-91557844D01*
X143790000Y-91557827D01*
X143790000Y-91310000D01*
X143090000Y-91310000D01*
X143090000Y-92210000D01*
X142590000Y-92210000D01*
X142590000Y-91310000D01*
X141690000Y-91310000D01*
X141690000Y-92210000D01*
X141190000Y-92210000D01*
X141190000Y-91310000D01*
X140290000Y-91310000D01*
X140290000Y-92210000D01*
X139790000Y-92210000D01*
X139790000Y-91310000D01*
X139090000Y-91310000D01*
X139090000Y-91557844D01*
X135419527Y-91557844D01*
X135421340Y-91551669D01*
X135434091Y-91517483D01*
X135440500Y-91457873D01*
X135440499Y-90887793D01*
X135440499Y-90462129D01*
X135440498Y-90462123D01*
X135440497Y-90462116D01*
X135434091Y-90402517D01*
X135421340Y-90368332D01*
X135416357Y-90298642D01*
X135421340Y-90281669D01*
X135434091Y-90247483D01*
X135440500Y-90187873D01*
X135440500Y-90157844D01*
X139090000Y-90157844D01*
X139096401Y-90217372D01*
X139096403Y-90217383D01*
X139133434Y-90316668D01*
X139138418Y-90386360D01*
X139133434Y-90403332D01*
X139096403Y-90502616D01*
X139096401Y-90502627D01*
X139090000Y-90562155D01*
X139090000Y-90810000D01*
X139790000Y-90810000D01*
X140290000Y-90810000D01*
X141190000Y-90810000D01*
X141690000Y-90810000D01*
X142590000Y-90810000D01*
X143090000Y-90810000D01*
X143790000Y-90810000D01*
X143790000Y-90562172D01*
X143789999Y-90562155D01*
X143783598Y-90502627D01*
X143783597Y-90502623D01*
X143746564Y-90403334D01*
X143741580Y-90333642D01*
X143746564Y-90316666D01*
X143783597Y-90217376D01*
X143783598Y-90217372D01*
X143789999Y-90157844D01*
X143790000Y-90157827D01*
X143790000Y-89910000D01*
X143090000Y-89910000D01*
X143090000Y-90810000D01*
X142590000Y-90810000D01*
X142590000Y-89910000D01*
X141690000Y-89910000D01*
X141690000Y-90810000D01*
X141190000Y-90810000D01*
X141190000Y-89910000D01*
X140290000Y-89910000D01*
X140290000Y-90810000D01*
X139790000Y-90810000D01*
X139790000Y-89910000D01*
X139090000Y-89910000D01*
X139090000Y-90157844D01*
X135440500Y-90157844D01*
X135440499Y-89664896D01*
X135440499Y-89192129D01*
X135440498Y-89192118D01*
X135439150Y-89179577D01*
X135439149Y-89179575D01*
X135437277Y-89162155D01*
X139090000Y-89162155D01*
X139090000Y-89410000D01*
X139790000Y-89410000D01*
X140290000Y-89410000D01*
X141190000Y-89410000D01*
X141690000Y-89410000D01*
X142590000Y-89410000D01*
X143090000Y-89410000D01*
X143790000Y-89410000D01*
X143790000Y-89162172D01*
X143789999Y-89162155D01*
X143783598Y-89102627D01*
X143783596Y-89102620D01*
X143733354Y-88967913D01*
X143733350Y-88967906D01*
X143647190Y-88852812D01*
X143647187Y-88852809D01*
X143532093Y-88766649D01*
X143532086Y-88766645D01*
X143397379Y-88716403D01*
X143397372Y-88716401D01*
X143337844Y-88710000D01*
X143090000Y-88710000D01*
X143090000Y-89410000D01*
X142590000Y-89410000D01*
X142590000Y-88710000D01*
X142342155Y-88710000D01*
X142282627Y-88716401D01*
X142282616Y-88716403D01*
X142183332Y-88753434D01*
X142113640Y-88758418D01*
X142096668Y-88753434D01*
X141997383Y-88716403D01*
X141997372Y-88716401D01*
X141937844Y-88710000D01*
X141690000Y-88710000D01*
X141690000Y-89410000D01*
X141190000Y-89410000D01*
X141190000Y-88710000D01*
X140942155Y-88710000D01*
X140882627Y-88716401D01*
X140882616Y-88716403D01*
X140783332Y-88753434D01*
X140713640Y-88758418D01*
X140696668Y-88753434D01*
X140597383Y-88716403D01*
X140597372Y-88716401D01*
X140537844Y-88710000D01*
X140290000Y-88710000D01*
X140290000Y-89410000D01*
X139790000Y-89410000D01*
X139790000Y-88710000D01*
X139542155Y-88710000D01*
X139482627Y-88716401D01*
X139482620Y-88716403D01*
X139347913Y-88766645D01*
X139347906Y-88766649D01*
X139232812Y-88852809D01*
X139232809Y-88852812D01*
X139146649Y-88967906D01*
X139146645Y-88967913D01*
X139096403Y-89102620D01*
X139096401Y-89102627D01*
X139090000Y-89162155D01*
X135437277Y-89162155D01*
X135434091Y-89132517D01*
X135418544Y-89090834D01*
X135416736Y-89083046D01*
X135418301Y-89055830D01*
X135416357Y-89028642D01*
X135420719Y-89013781D01*
X135420748Y-89013292D01*
X135420941Y-89013025D01*
X135421340Y-89011669D01*
X135434091Y-88977483D01*
X135440500Y-88917873D01*
X135440499Y-87922128D01*
X135434091Y-87862517D01*
X135421340Y-87828332D01*
X135416357Y-87758642D01*
X135421340Y-87741669D01*
X135434091Y-87707483D01*
X135440500Y-87647873D01*
X135440499Y-86652128D01*
X135434091Y-86592517D01*
X135421340Y-86558332D01*
X135416357Y-86488642D01*
X135421340Y-86471669D01*
X135434091Y-86437483D01*
X135440500Y-86377873D01*
X135440499Y-85382128D01*
X135434091Y-85322517D01*
X135421340Y-85288332D01*
X135416357Y-85218642D01*
X135421340Y-85201669D01*
X135434091Y-85167483D01*
X135440500Y-85107873D01*
X135440499Y-84112135D01*
X150439500Y-84112135D01*
X150439500Y-85107870D01*
X150439501Y-85107876D01*
X150445908Y-85167481D01*
X150458659Y-85201669D01*
X150463642Y-85271361D01*
X150458659Y-85288331D01*
X150445908Y-85322518D01*
X150441341Y-85365000D01*
X150439501Y-85382123D01*
X150439500Y-85382135D01*
X150439500Y-86377870D01*
X150439501Y-86377876D01*
X150445908Y-86437481D01*
X150458659Y-86471669D01*
X150463642Y-86541361D01*
X150458659Y-86558331D01*
X150445908Y-86592518D01*
X150439675Y-86650500D01*
X150439501Y-86652123D01*
X150439500Y-86652135D01*
X150439500Y-87647870D01*
X150439501Y-87647876D01*
X150445908Y-87707481D01*
X150458659Y-87741669D01*
X150463642Y-87811361D01*
X150458659Y-87828331D01*
X150445908Y-87862518D01*
X150441089Y-87907345D01*
X150439501Y-87922123D01*
X150439500Y-87922135D01*
X150439500Y-88917870D01*
X150439501Y-88917876D01*
X150445908Y-88977481D01*
X150458659Y-89011669D01*
X150463642Y-89081361D01*
X150458659Y-89098331D01*
X150445908Y-89132518D01*
X150439501Y-89192116D01*
X150439500Y-89192135D01*
X150439500Y-90187870D01*
X150439501Y-90187876D01*
X150445908Y-90247481D01*
X150458659Y-90281669D01*
X150463642Y-90351361D01*
X150458659Y-90368331D01*
X150445908Y-90402518D01*
X150439501Y-90462116D01*
X150439501Y-90462123D01*
X150439500Y-90462135D01*
X150439500Y-91457870D01*
X150439501Y-91457876D01*
X150445908Y-91517481D01*
X150458659Y-91551669D01*
X150463642Y-91621361D01*
X150458659Y-91638331D01*
X150445908Y-91672518D01*
X150439501Y-91732116D01*
X150439501Y-91732123D01*
X150439500Y-91732135D01*
X150439500Y-92727870D01*
X150439501Y-92727873D01*
X150445908Y-92787481D01*
X150458659Y-92821669D01*
X150463642Y-92891361D01*
X150458659Y-92908331D01*
X150445908Y-92942518D01*
X150439501Y-93002116D01*
X150439501Y-93002123D01*
X150439500Y-93002135D01*
X150439500Y-93997870D01*
X150439501Y-93997876D01*
X150445908Y-94057481D01*
X150458659Y-94091669D01*
X150463642Y-94161361D01*
X150458659Y-94178331D01*
X150445908Y-94212518D01*
X150439501Y-94272116D01*
X150439501Y-94272123D01*
X150439500Y-94272135D01*
X150439500Y-95267870D01*
X150439501Y-95267876D01*
X150445908Y-95327481D01*
X150458659Y-95361669D01*
X150463642Y-95431361D01*
X150458659Y-95448331D01*
X150445908Y-95482518D01*
X150439501Y-95542116D01*
X150439501Y-95542123D01*
X150439500Y-95542135D01*
X150439500Y-96537870D01*
X150439501Y-96537876D01*
X150445908Y-96597481D01*
X150458659Y-96631669D01*
X150463642Y-96701361D01*
X150458659Y-96718331D01*
X150445908Y-96752518D01*
X150440354Y-96804181D01*
X150439501Y-96812123D01*
X150439500Y-96812135D01*
X150439500Y-97807870D01*
X150439501Y-97807876D01*
X150445908Y-97867481D01*
X150458659Y-97901669D01*
X150463642Y-97971361D01*
X150458659Y-97988331D01*
X150445908Y-98022518D01*
X150440724Y-98070739D01*
X150439501Y-98082123D01*
X150439500Y-98082135D01*
X150439500Y-99077870D01*
X150439501Y-99077876D01*
X150445908Y-99137481D01*
X150458659Y-99171669D01*
X150463642Y-99241361D01*
X150458659Y-99258331D01*
X150445908Y-99292518D01*
X150439501Y-99352116D01*
X150439501Y-99352123D01*
X150439500Y-99352135D01*
X150439500Y-100347870D01*
X150439501Y-100347876D01*
X150445908Y-100407483D01*
X150496202Y-100542328D01*
X150496206Y-100542335D01*
X150582452Y-100657544D01*
X150582455Y-100657547D01*
X150697664Y-100743793D01*
X150697671Y-100743797D01*
X150832517Y-100794091D01*
X150832516Y-100794091D01*
X150839444Y-100794835D01*
X150892127Y-100800500D01*
X151760422Y-100800499D01*
X151807874Y-100809938D01*
X151853651Y-100828899D01*
X151853656Y-100828901D01*
X151853660Y-100828901D01*
X151853661Y-100828902D01*
X151979328Y-100853900D01*
X151979331Y-100853900D01*
X158013171Y-100853900D01*
X158097715Y-100837082D01*
X158138844Y-100828901D01*
X158257227Y-100779865D01*
X158363769Y-100708677D01*
X158635626Y-100436817D01*
X158696949Y-100403333D01*
X158723308Y-100400499D01*
X159365002Y-100400499D01*
X159365008Y-100400499D01*
X159467797Y-100389999D01*
X159634334Y-100334814D01*
X159783656Y-100242712D01*
X159907712Y-100118656D01*
X159999814Y-99969334D01*
X160054999Y-99802797D01*
X160065500Y-99700009D01*
X160065499Y-98649992D01*
X160065179Y-98646864D01*
X160054999Y-98547203D01*
X160054998Y-98547200D01*
X160044246Y-98514752D01*
X159999814Y-98380666D01*
X159907712Y-98231344D01*
X159783656Y-98107288D01*
X159686902Y-98047610D01*
X159640179Y-97995663D01*
X159628000Y-97942072D01*
X159628000Y-96367507D01*
X159647685Y-96300468D01*
X159686903Y-96261968D01*
X159758656Y-96217712D01*
X159882712Y-96093656D01*
X159974814Y-95944334D01*
X160029999Y-95777797D01*
X160040500Y-95675009D01*
X160040499Y-94674992D01*
X160033876Y-94610161D01*
X160029999Y-94572203D01*
X160029998Y-94572200D01*
X160025236Y-94557830D01*
X159974814Y-94405666D01*
X159882712Y-94256344D01*
X159833549Y-94207181D01*
X159800064Y-94145858D01*
X159805048Y-94076166D01*
X159846920Y-94020233D01*
X159912384Y-93995816D01*
X159921230Y-93995500D01*
X165510044Y-93995500D01*
X165577083Y-94015185D01*
X165610362Y-94046615D01*
X165659890Y-94114786D01*
X165810213Y-94265109D01*
X165982179Y-94390048D01*
X165982181Y-94390049D01*
X165982184Y-94390051D01*
X166091523Y-94445762D01*
X166093430Y-94447147D01*
X166094654Y-94447414D01*
X166122908Y-94468565D01*
X166203181Y-94548838D01*
X166236666Y-94610161D01*
X166239500Y-94636519D01*
X166239500Y-97490201D01*
X166219815Y-97557240D01*
X166180598Y-97595739D01*
X166121344Y-97632287D01*
X166121343Y-97632288D01*
X166027681Y-97725951D01*
X165966358Y-97759436D01*
X165896666Y-97754452D01*
X165852319Y-97725951D01*
X165758657Y-97632289D01*
X165758656Y-97632288D01*
X165649402Y-97564900D01*
X165602679Y-97512953D01*
X165590500Y-97459362D01*
X165590500Y-96179935D01*
X165610185Y-96112896D01*
X165611366Y-96111090D01*
X165649394Y-96054179D01*
X165709737Y-95908497D01*
X165740500Y-95753842D01*
X165740500Y-95596158D01*
X165740500Y-95596155D01*
X165740499Y-95596153D01*
X165717895Y-95482517D01*
X165709737Y-95441503D01*
X165686082Y-95384394D01*
X165649397Y-95295827D01*
X165649390Y-95295814D01*
X165561789Y-95164711D01*
X165561786Y-95164707D01*
X165450292Y-95053213D01*
X165450288Y-95053210D01*
X165319185Y-94965609D01*
X165319172Y-94965602D01*
X165173501Y-94905264D01*
X165173489Y-94905261D01*
X165018845Y-94874500D01*
X165018842Y-94874500D01*
X164861158Y-94874500D01*
X164861155Y-94874500D01*
X164706510Y-94905261D01*
X164706498Y-94905264D01*
X164560827Y-94965602D01*
X164560814Y-94965609D01*
X164429711Y-95053210D01*
X164429707Y-95053213D01*
X164318213Y-95164707D01*
X164318210Y-95164711D01*
X164230609Y-95295814D01*
X164230602Y-95295827D01*
X164170264Y-95441498D01*
X164170261Y-95441510D01*
X164139500Y-95596153D01*
X164139500Y-95753846D01*
X164170261Y-95908489D01*
X164170264Y-95908501D01*
X164230602Y-96054172D01*
X164230606Y-96054179D01*
X164268602Y-96111044D01*
X164289480Y-96177721D01*
X164289500Y-96179935D01*
X164289500Y-97459362D01*
X164269815Y-97526401D01*
X164230598Y-97564899D01*
X164180600Y-97595739D01*
X164121342Y-97632289D01*
X163997289Y-97756342D01*
X163905187Y-97905663D01*
X163905186Y-97905666D01*
X163850001Y-98072203D01*
X163850001Y-98072204D01*
X163850000Y-98072204D01*
X163839500Y-98174983D01*
X163839500Y-98174996D01*
X163839501Y-99175000D01*
X163839501Y-99175019D01*
X163850000Y-99277796D01*
X163850001Y-99277799D01*
X163874632Y-99352128D01*
X163905186Y-99444334D01*
X163997288Y-99593656D01*
X164121344Y-99717712D01*
X164270666Y-99809814D01*
X164437203Y-99864999D01*
X164539991Y-99875500D01*
X165340008Y-99875499D01*
X165340016Y-99875498D01*
X165340019Y-99875498D01*
X165404364Y-99868925D01*
X165442797Y-99864999D01*
X165609334Y-99809814D01*
X165758656Y-99717712D01*
X165852319Y-99624049D01*
X165855592Y-99622261D01*
X165857569Y-99619095D01*
X165886031Y-99605640D01*
X165913642Y-99590564D01*
X165917362Y-99590830D01*
X165920737Y-99589235D01*
X165951949Y-99593303D01*
X165983334Y-99595548D01*
X165987400Y-99597924D01*
X165990020Y-99598266D01*
X166001902Y-99606400D01*
X166019960Y-99616955D01*
X166023971Y-99620339D01*
X166121344Y-99717712D01*
X166188427Y-99759088D01*
X166195460Y-99765022D01*
X166209859Y-99786790D01*
X166227321Y-99806204D01*
X166229739Y-99816846D01*
X166234006Y-99823297D01*
X166234178Y-99836379D01*
X166239500Y-99859797D01*
X166239500Y-100249684D01*
X166230061Y-100297136D01*
X166170264Y-100441498D01*
X166170261Y-100441510D01*
X166139500Y-100596153D01*
X166139500Y-100753846D01*
X166170261Y-100908489D01*
X166170264Y-100908501D01*
X166230602Y-101054172D01*
X166230609Y-101054185D01*
X166318210Y-101185288D01*
X166318213Y-101185292D01*
X166429707Y-101296786D01*
X166429711Y-101296789D01*
X166560814Y-101384390D01*
X166560827Y-101384397D01*
X166706498Y-101444735D01*
X166706503Y-101444737D01*
X166861153Y-101475499D01*
X166861156Y-101475500D01*
X166861158Y-101475500D01*
X167018844Y-101475500D01*
X167018845Y-101475499D01*
X167173497Y-101444737D01*
X167319179Y-101384394D01*
X167450289Y-101296789D01*
X167561789Y-101185289D01*
X167649394Y-101054179D01*
X167709737Y-100908497D01*
X167740500Y-100753842D01*
X167740500Y-100596158D01*
X167740500Y-100596155D01*
X167740499Y-100596153D01*
X167709737Y-100441503D01*
X167709735Y-100441498D01*
X167649939Y-100297136D01*
X167640500Y-100249684D01*
X167640500Y-99859797D01*
X167660185Y-99792758D01*
X167699403Y-99754258D01*
X167758656Y-99717712D01*
X167882712Y-99593656D01*
X167974814Y-99444334D01*
X168029999Y-99277797D01*
X168040500Y-99175009D01*
X168040499Y-98174992D01*
X168029999Y-98072203D01*
X167974814Y-97905666D01*
X167882712Y-97756344D01*
X167758656Y-97632288D01*
X167758655Y-97632287D01*
X167699402Y-97595739D01*
X167652678Y-97543791D01*
X167640500Y-97490201D01*
X167640500Y-94245758D01*
X167660185Y-94178719D01*
X167676820Y-94158076D01*
X167720107Y-94114789D01*
X167845048Y-93942820D01*
X167845047Y-93942820D01*
X167845051Y-93942816D01*
X167941557Y-93753412D01*
X168007246Y-93551243D01*
X168040500Y-93341287D01*
X168040500Y-93128713D01*
X168007246Y-92918757D01*
X167941557Y-92716588D01*
X167845051Y-92527184D01*
X167845049Y-92527181D01*
X167845048Y-92527179D01*
X167720109Y-92355213D01*
X167569786Y-92204890D01*
X167397820Y-92079951D01*
X167397115Y-92079591D01*
X167389054Y-92075485D01*
X167338259Y-92027512D01*
X167321463Y-91959692D01*
X167343999Y-91893556D01*
X167389054Y-91854515D01*
X167397816Y-91850051D01*
X167485480Y-91786360D01*
X167569786Y-91725109D01*
X167569788Y-91725106D01*
X167569792Y-91725104D01*
X167720104Y-91574792D01*
X167720106Y-91574788D01*
X167720109Y-91574786D01*
X167845048Y-91402820D01*
X167845047Y-91402820D01*
X167845051Y-91402816D01*
X167941557Y-91213412D01*
X168007246Y-91011243D01*
X168040500Y-90801287D01*
X168040500Y-90588713D01*
X168007246Y-90378757D01*
X167941557Y-90176588D01*
X167845051Y-89987184D01*
X167845049Y-89987181D01*
X167845048Y-89987179D01*
X167720109Y-89815213D01*
X167569786Y-89664890D01*
X167397820Y-89539951D01*
X167397115Y-89539591D01*
X167389054Y-89535485D01*
X167338259Y-89487512D01*
X167321463Y-89419692D01*
X167343999Y-89353556D01*
X167389054Y-89314515D01*
X167397816Y-89310051D01*
X167560115Y-89192135D01*
X167569786Y-89185109D01*
X167569788Y-89185106D01*
X167569792Y-89185104D01*
X167720104Y-89034792D01*
X167720106Y-89034788D01*
X167720109Y-89034786D01*
X167845048Y-88862820D01*
X167845047Y-88862820D01*
X167845051Y-88862816D01*
X167941557Y-88673412D01*
X168007246Y-88471243D01*
X168040500Y-88261287D01*
X168040500Y-88048713D01*
X168007246Y-87838757D01*
X167941557Y-87636588D01*
X167845051Y-87447184D01*
X167845049Y-87447181D01*
X167845048Y-87447179D01*
X167720109Y-87275213D01*
X167606181Y-87161285D01*
X167572696Y-87099962D01*
X167577680Y-87030270D01*
X167619552Y-86974337D01*
X167650529Y-86957422D01*
X167782086Y-86908354D01*
X167782093Y-86908350D01*
X167897187Y-86822190D01*
X167897190Y-86822187D01*
X167983350Y-86707093D01*
X167983354Y-86707086D01*
X168033596Y-86572379D01*
X168033598Y-86572372D01*
X168039999Y-86512844D01*
X168040000Y-86512827D01*
X168040000Y-85865000D01*
X167123012Y-85865000D01*
X167155925Y-85807993D01*
X167190000Y-85680826D01*
X167190000Y-85549174D01*
X167155925Y-85422007D01*
X167123012Y-85365000D01*
X168040000Y-85365000D01*
X168040000Y-84717172D01*
X168039999Y-84717155D01*
X168033598Y-84657627D01*
X168033596Y-84657620D01*
X167983354Y-84522913D01*
X167983350Y-84522906D01*
X167897190Y-84407812D01*
X167897187Y-84407809D01*
X167782093Y-84321649D01*
X167782086Y-84321645D01*
X167647379Y-84271403D01*
X167647372Y-84271401D01*
X167587844Y-84265000D01*
X166940000Y-84265000D01*
X166940000Y-85181988D01*
X166882993Y-85149075D01*
X166755826Y-85115000D01*
X166624174Y-85115000D01*
X166497007Y-85149075D01*
X166440000Y-85181988D01*
X166440000Y-84265000D01*
X165792155Y-84265000D01*
X165732627Y-84271401D01*
X165732620Y-84271403D01*
X165597913Y-84321645D01*
X165597906Y-84321649D01*
X165482812Y-84407809D01*
X165482809Y-84407812D01*
X165396649Y-84522906D01*
X165396645Y-84522913D01*
X165346403Y-84657620D01*
X165346401Y-84657627D01*
X165340000Y-84717155D01*
X165340000Y-85365000D01*
X166256988Y-85365000D01*
X166224075Y-85422007D01*
X166190000Y-85549174D01*
X166190000Y-85680826D01*
X166224075Y-85807993D01*
X166256988Y-85865000D01*
X165340000Y-85865000D01*
X165340000Y-86512844D01*
X165346401Y-86572372D01*
X165346403Y-86572379D01*
X165396645Y-86707086D01*
X165396649Y-86707093D01*
X165482809Y-86822187D01*
X165482812Y-86822190D01*
X165597906Y-86908350D01*
X165597913Y-86908354D01*
X165729470Y-86957422D01*
X165785404Y-86999293D01*
X165809821Y-87064758D01*
X165794969Y-87133031D01*
X165773819Y-87161285D01*
X165659889Y-87275215D01*
X165534951Y-87447179D01*
X165438444Y-87636585D01*
X165372753Y-87838760D01*
X165339500Y-88048713D01*
X165339500Y-88083900D01*
X165319815Y-88150939D01*
X165267011Y-88196694D01*
X165215500Y-88207900D01*
X155414671Y-88207900D01*
X155347632Y-88188215D01*
X155301877Y-88135411D01*
X155293054Y-88108092D01*
X155274546Y-88015049D01*
X155274545Y-88015048D01*
X155274545Y-88015044D01*
X155229934Y-87907345D01*
X155213825Y-87868454D01*
X155171397Y-87804956D01*
X155150520Y-87738278D01*
X155150500Y-87736066D01*
X155150500Y-87374499D01*
X155170185Y-87307460D01*
X155222989Y-87261705D01*
X155274500Y-87250499D01*
X156397871Y-87250499D01*
X156397872Y-87250499D01*
X156457483Y-87244091D01*
X156592331Y-87193796D01*
X156707546Y-87107546D01*
X156793796Y-86992331D01*
X156844091Y-86857483D01*
X156850500Y-86797873D01*
X156850500Y-86797844D01*
X160250000Y-86797844D01*
X160256401Y-86857372D01*
X160256403Y-86857379D01*
X160306645Y-86992086D01*
X160306649Y-86992093D01*
X160392809Y-87107187D01*
X160392812Y-87107190D01*
X160507906Y-87193350D01*
X160507913Y-87193354D01*
X160642620Y-87243596D01*
X160642627Y-87243598D01*
X160702155Y-87249999D01*
X160702172Y-87250000D01*
X161650000Y-87250000D01*
X162150000Y-87250000D01*
X163097828Y-87250000D01*
X163097844Y-87249999D01*
X163157372Y-87243598D01*
X163157379Y-87243596D01*
X163292086Y-87193354D01*
X163292093Y-87193350D01*
X163407187Y-87107190D01*
X163407190Y-87107187D01*
X163493350Y-86992093D01*
X163493354Y-86992086D01*
X163543596Y-86857379D01*
X163543598Y-86857372D01*
X163549999Y-86797844D01*
X163550000Y-86797827D01*
X163550000Y-86250000D01*
X162150000Y-86250000D01*
X162150000Y-87250000D01*
X161650000Y-87250000D01*
X161650000Y-86250000D01*
X160250000Y-86250000D01*
X160250000Y-86797844D01*
X156850500Y-86797844D01*
X156850499Y-85995112D01*
X156850499Y-85202155D01*
X160250000Y-85202155D01*
X160250000Y-85750000D01*
X161650000Y-85750000D01*
X162150000Y-85750000D01*
X163550000Y-85750000D01*
X163550000Y-85202172D01*
X163549999Y-85202155D01*
X163543598Y-85142627D01*
X163543596Y-85142620D01*
X163493354Y-85007913D01*
X163493350Y-85007906D01*
X163407190Y-84892812D01*
X163407187Y-84892809D01*
X163300751Y-84813130D01*
X163300733Y-84813118D01*
X163292088Y-84806646D01*
X163292086Y-84806645D01*
X163157379Y-84756403D01*
X163157372Y-84756401D01*
X163097844Y-84750000D01*
X162150000Y-84750000D01*
X162150000Y-85750000D01*
X161650000Y-85750000D01*
X161650000Y-84750000D01*
X160702155Y-84750000D01*
X160642627Y-84756401D01*
X160642620Y-84756403D01*
X160507913Y-84806645D01*
X160507906Y-84806649D01*
X160392812Y-84892809D01*
X160392809Y-84892812D01*
X160306649Y-85007906D01*
X160306645Y-85007913D01*
X160256403Y-85142620D01*
X160256401Y-85142627D01*
X160250000Y-85202155D01*
X156850499Y-85202155D01*
X156850499Y-85202129D01*
X156850498Y-85202123D01*
X156850497Y-85202116D01*
X156844091Y-85142517D01*
X156831173Y-85107883D01*
X156793797Y-85007671D01*
X156793793Y-85007664D01*
X156707547Y-84892455D01*
X156707544Y-84892452D01*
X156592335Y-84806206D01*
X156592328Y-84806202D01*
X156457482Y-84755908D01*
X156457483Y-84755908D01*
X156397883Y-84749501D01*
X156397881Y-84749500D01*
X156397873Y-84749500D01*
X156397864Y-84749500D01*
X154002129Y-84749500D01*
X154002123Y-84749501D01*
X153942516Y-84755908D01*
X153807671Y-84806202D01*
X153807664Y-84806206D01*
X153692455Y-84892452D01*
X153692452Y-84892455D01*
X153606206Y-85007664D01*
X153606202Y-85007671D01*
X153555908Y-85142517D01*
X153549549Y-85201669D01*
X153549501Y-85202123D01*
X153549500Y-85202135D01*
X153549500Y-86278547D01*
X153529815Y-86345586D01*
X153477011Y-86391341D01*
X153407853Y-86401285D01*
X153383532Y-86394613D01*
X153383500Y-86394721D01*
X153379483Y-86393502D01*
X153378050Y-86393109D01*
X153377673Y-86392953D01*
X153377669Y-86392952D01*
X153377665Y-86392951D01*
X153223021Y-86362190D01*
X153223018Y-86362190D01*
X153065334Y-86362190D01*
X153064500Y-86362190D01*
X152997461Y-86342505D01*
X152951706Y-86289701D01*
X152940500Y-86238190D01*
X152940499Y-85382129D01*
X152940498Y-85382123D01*
X152940497Y-85382116D01*
X152934091Y-85322517D01*
X152921340Y-85288332D01*
X152916357Y-85218642D01*
X152921340Y-85201669D01*
X152934091Y-85167483D01*
X152940500Y-85107873D01*
X152940499Y-84112128D01*
X152934091Y-84052517D01*
X152921073Y-84017616D01*
X152916090Y-83947926D01*
X152921075Y-83930949D01*
X152933597Y-83897375D01*
X152933598Y-83897372D01*
X152939999Y-83837844D01*
X152940000Y-83837827D01*
X152940000Y-83590000D01*
X150440000Y-83590000D01*
X150440000Y-83837844D01*
X150446401Y-83897372D01*
X150446403Y-83897379D01*
X150458925Y-83930952D01*
X150463909Y-84000643D01*
X150458925Y-84017617D01*
X150445909Y-84052514D01*
X150445908Y-84052516D01*
X150440835Y-84099707D01*
X150439501Y-84112123D01*
X150439500Y-84112135D01*
X135440499Y-84112135D01*
X135440499Y-84112128D01*
X135434091Y-84052517D01*
X135421073Y-84017616D01*
X135416090Y-83947926D01*
X135421075Y-83930949D01*
X135433597Y-83897375D01*
X135433598Y-83897372D01*
X135439999Y-83837844D01*
X135440000Y-83837827D01*
X135440000Y-83590000D01*
X132940000Y-83590000D01*
X132940000Y-83703987D01*
X132920315Y-83771026D01*
X132867511Y-83816781D01*
X132840193Y-83825604D01*
X132766507Y-83840261D01*
X132766498Y-83840264D01*
X132620827Y-83900602D01*
X132620814Y-83900609D01*
X132489711Y-83988210D01*
X132489707Y-83988213D01*
X132378213Y-84099707D01*
X132378210Y-84099711D01*
X132290609Y-84230814D01*
X132290602Y-84230827D01*
X132230264Y-84376498D01*
X132230261Y-84376510D01*
X132199500Y-84531153D01*
X132199500Y-84688846D01*
X132230261Y-84843489D01*
X132230264Y-84843501D01*
X132290602Y-84989172D01*
X132290608Y-84989183D01*
X132318821Y-85031407D01*
X132339698Y-85098085D01*
X132321213Y-85165465D01*
X132269234Y-85212154D01*
X132200264Y-85223330D01*
X132191527Y-85221914D01*
X132078845Y-85199500D01*
X132078842Y-85199500D01*
X131921158Y-85199500D01*
X131921155Y-85199500D01*
X131766510Y-85230261D01*
X131766498Y-85230264D01*
X131620827Y-85290602D01*
X131620814Y-85290609D01*
X131489711Y-85378210D01*
X131489707Y-85378213D01*
X131378213Y-85489707D01*
X131378210Y-85489711D01*
X131290609Y-85620814D01*
X131290602Y-85620827D01*
X131230264Y-85766498D01*
X131230261Y-85766510D01*
X131199500Y-85921153D01*
X131199500Y-86078846D01*
X131230261Y-86233489D01*
X131230264Y-86233501D01*
X131290602Y-86379172D01*
X131290609Y-86379185D01*
X131378210Y-86510288D01*
X131378213Y-86510292D01*
X131489707Y-86621786D01*
X131489711Y-86621789D01*
X131620814Y-86709390D01*
X131620827Y-86709397D01*
X131718853Y-86750000D01*
X131766503Y-86769737D01*
X131907906Y-86797864D01*
X131921153Y-86800499D01*
X131921156Y-86800500D01*
X131921158Y-86800500D01*
X132078844Y-86800500D01*
X132078845Y-86800499D01*
X132233497Y-86769737D01*
X132379179Y-86709394D01*
X132436044Y-86671397D01*
X132502721Y-86650520D01*
X132504935Y-86650500D01*
X132815500Y-86650500D01*
X132882539Y-86670185D01*
X132928294Y-86722989D01*
X132939500Y-86774500D01*
X132939500Y-87647870D01*
X132939501Y-87647876D01*
X132945908Y-87707481D01*
X132958659Y-87741669D01*
X132963642Y-87811361D01*
X132958659Y-87828331D01*
X132945908Y-87862518D01*
X132941089Y-87907345D01*
X132939501Y-87922123D01*
X132939500Y-87922135D01*
X132939500Y-88917870D01*
X132939501Y-88917876D01*
X132945908Y-88977481D01*
X132958659Y-89011669D01*
X132963642Y-89081361D01*
X132958659Y-89098331D01*
X132945908Y-89132518D01*
X132939501Y-89192116D01*
X132939500Y-89192135D01*
X132939500Y-90187870D01*
X132939501Y-90187876D01*
X132945908Y-90247481D01*
X132958659Y-90281669D01*
X132963642Y-90351361D01*
X132958659Y-90368331D01*
X132945908Y-90402518D01*
X132939501Y-90462116D01*
X132939501Y-90462123D01*
X132939500Y-90462135D01*
X132939500Y-91457870D01*
X132939501Y-91457876D01*
X132945908Y-91517481D01*
X132958659Y-91551669D01*
X132963642Y-91621361D01*
X132958659Y-91638331D01*
X132945908Y-91672518D01*
X132939501Y-91732116D01*
X132939501Y-91732123D01*
X132939500Y-91732135D01*
X132939500Y-92727870D01*
X132939501Y-92727873D01*
X132945908Y-92787481D01*
X132958659Y-92821669D01*
X132963642Y-92891361D01*
X132958659Y-92908331D01*
X132945908Y-92942518D01*
X132939501Y-93002116D01*
X132939501Y-93002123D01*
X132939500Y-93002135D01*
X132939500Y-93997870D01*
X132939501Y-93997876D01*
X132945908Y-94057481D01*
X132958659Y-94091669D01*
X132963642Y-94161361D01*
X132958659Y-94178331D01*
X132945908Y-94212518D01*
X132939501Y-94272116D01*
X132939500Y-94272127D01*
X132939500Y-94766203D01*
X132939501Y-95150500D01*
X132919817Y-95217539D01*
X132867013Y-95263294D01*
X132815501Y-95274500D01*
X129066233Y-95274500D01*
X128999194Y-95254815D01*
X128953439Y-95202011D01*
X128948528Y-95189506D01*
X128940310Y-95164707D01*
X128937314Y-95155666D01*
X128845212Y-95006344D01*
X128721156Y-94882288D01*
X128571834Y-94790186D01*
X128405297Y-94735001D01*
X128405295Y-94735000D01*
X128302516Y-94724500D01*
X128302509Y-94724500D01*
X128195808Y-94724500D01*
X128128769Y-94704815D01*
X128108127Y-94688181D01*
X126682627Y-93262681D01*
X126649142Y-93201358D01*
X126654126Y-93131666D01*
X126682627Y-93087319D01*
X127208127Y-92561819D01*
X127269450Y-92528334D01*
X127295808Y-92525500D01*
X128157885Y-92525500D01*
X128224924Y-92545185D01*
X128270679Y-92597989D01*
X128274067Y-92606167D01*
X128306202Y-92692328D01*
X128306206Y-92692335D01*
X128392452Y-92807544D01*
X128392455Y-92807547D01*
X128507664Y-92893793D01*
X128507671Y-92893797D01*
X128642517Y-92944091D01*
X128642516Y-92944091D01*
X128649444Y-92944835D01*
X128702127Y-92950500D01*
X130297872Y-92950499D01*
X130357483Y-92944091D01*
X130492331Y-92893796D01*
X130607546Y-92807546D01*
X130693796Y-92692331D01*
X130744091Y-92557483D01*
X130750500Y-92497873D01*
X130750499Y-90102128D01*
X130744091Y-90042517D01*
X130731094Y-90007671D01*
X130693797Y-89907671D01*
X130693793Y-89907664D01*
X130607547Y-89792455D01*
X130607544Y-89792452D01*
X130492335Y-89706206D01*
X130492328Y-89706202D01*
X130357482Y-89655908D01*
X130357483Y-89655908D01*
X130297883Y-89649501D01*
X130297881Y-89649500D01*
X130297873Y-89649500D01*
X130297864Y-89649500D01*
X128702129Y-89649500D01*
X128702123Y-89649501D01*
X128642516Y-89655908D01*
X128507671Y-89706202D01*
X128507664Y-89706206D01*
X128392455Y-89792452D01*
X128392452Y-89792455D01*
X128306206Y-89907664D01*
X128306202Y-89907671D01*
X128255908Y-90042517D01*
X128249501Y-90102116D01*
X128249501Y-90102123D01*
X128249500Y-90102135D01*
X128249500Y-91100500D01*
X128229815Y-91167539D01*
X128177011Y-91213294D01*
X128125500Y-91224500D01*
X126910928Y-91224500D01*
X126864219Y-91233791D01*
X126794628Y-91227564D01*
X126739450Y-91184701D01*
X126725469Y-91159631D01*
X126709394Y-91120821D01*
X126709389Y-91120814D01*
X126621789Y-90989711D01*
X126621786Y-90989707D01*
X126510292Y-90878213D01*
X126510288Y-90878210D01*
X126379185Y-90790609D01*
X126379172Y-90790602D01*
X126233501Y-90730264D01*
X126233489Y-90730261D01*
X126078845Y-90699500D01*
X126078842Y-90699500D01*
X125921158Y-90699500D01*
X125921155Y-90699500D01*
X125766510Y-90730261D01*
X125766498Y-90730264D01*
X125620827Y-90790602D01*
X125620814Y-90790609D01*
X125489711Y-90878210D01*
X125489707Y-90878213D01*
X125378213Y-90989707D01*
X125378210Y-90989711D01*
X125290609Y-91120814D01*
X125290606Y-91120821D01*
X125279367Y-91147954D01*
X125235525Y-91202357D01*
X125169231Y-91224421D01*
X125164806Y-91224500D01*
X124874499Y-91224500D01*
X124807460Y-91204815D01*
X124761705Y-91152011D01*
X124750499Y-91100500D01*
X124750499Y-90202129D01*
X124750498Y-90202123D01*
X124750497Y-90202116D01*
X124744091Y-90142517D01*
X124729027Y-90102129D01*
X124693797Y-90007671D01*
X124693793Y-90007664D01*
X124607547Y-89892455D01*
X124607544Y-89892452D01*
X124492335Y-89806206D01*
X124492328Y-89806202D01*
X124357482Y-89755908D01*
X124357483Y-89755908D01*
X124297883Y-89749501D01*
X124297881Y-89749500D01*
X124297873Y-89749500D01*
X124297864Y-89749500D01*
X122702129Y-89749500D01*
X122702123Y-89749501D01*
X122642516Y-89755908D01*
X122507671Y-89806202D01*
X122507664Y-89806206D01*
X122392455Y-89892452D01*
X122392452Y-89892455D01*
X122306206Y-90007664D01*
X122306202Y-90007671D01*
X122255908Y-90142517D01*
X122251032Y-90187876D01*
X122249501Y-90202123D01*
X122249500Y-90202135D01*
X122249500Y-92154191D01*
X122229815Y-92221230D01*
X122213181Y-92241872D01*
X119897223Y-94557830D01*
X119871616Y-94596155D01*
X119859196Y-94614744D01*
X119826035Y-94664373D01*
X119799831Y-94727633D01*
X119797020Y-94732917D01*
X119776595Y-94753788D01*
X119758271Y-94776527D01*
X119750566Y-94780385D01*
X119748152Y-94782853D01*
X119743526Y-94783911D01*
X119739215Y-94786070D01*
X119739711Y-94787134D01*
X119733169Y-94790184D01*
X119583842Y-94882289D01*
X119459789Y-95006342D01*
X119367687Y-95155663D01*
X119367685Y-95155668D01*
X119347183Y-95217539D01*
X119312501Y-95322203D01*
X119312501Y-95322204D01*
X119312500Y-95322204D01*
X119302000Y-95424983D01*
X119302000Y-96425001D01*
X119302001Y-96425019D01*
X119312500Y-96527796D01*
X119312501Y-96527799D01*
X119361049Y-96674305D01*
X119367686Y-96694334D01*
X119459788Y-96843656D01*
X119583844Y-96967712D01*
X119655596Y-97011968D01*
X119702321Y-97063915D01*
X119714500Y-97117507D01*
X119714500Y-98192072D01*
X119694815Y-98259111D01*
X119655598Y-98297609D01*
X119596055Y-98334336D01*
X119558842Y-98357289D01*
X119434789Y-98481342D01*
X119342687Y-98630663D01*
X119342685Y-98630668D01*
X119336286Y-98649980D01*
X119287501Y-98797203D01*
X119287501Y-98797204D01*
X119287500Y-98797204D01*
X119277000Y-98899983D01*
X111190500Y-98899983D01*
X111190500Y-91375441D01*
X114599500Y-91375441D01*
X114599500Y-91624558D01*
X114599501Y-91624575D01*
X114629185Y-91850051D01*
X114632018Y-91871565D01*
X114640305Y-91902491D01*
X114696498Y-92112207D01*
X114791830Y-92342361D01*
X114791837Y-92342376D01*
X114916400Y-92558126D01*
X115068060Y-92755774D01*
X115068066Y-92755781D01*
X115244218Y-92931933D01*
X115244225Y-92931939D01*
X115441873Y-93083599D01*
X115657623Y-93208162D01*
X115657638Y-93208169D01*
X115754434Y-93248263D01*
X115887793Y-93303502D01*
X116128435Y-93367982D01*
X116375435Y-93400500D01*
X116375442Y-93400500D01*
X116624558Y-93400500D01*
X116624565Y-93400500D01*
X116871565Y-93367982D01*
X117112207Y-93303502D01*
X117227533Y-93255731D01*
X117297000Y-93248263D01*
X117359479Y-93279538D01*
X117362665Y-93282612D01*
X117760328Y-93680275D01*
X117760331Y-93680277D01*
X117866006Y-93750886D01*
X117866873Y-93751465D01*
X117866874Y-93751465D01*
X117866875Y-93751466D01*
X117976294Y-93796789D01*
X117985256Y-93800501D01*
X117985260Y-93800501D01*
X117985261Y-93800502D01*
X118110928Y-93825500D01*
X118110931Y-93825500D01*
X119289204Y-93825500D01*
X119356243Y-93845185D01*
X119358048Y-93846366D01*
X119414960Y-93884394D01*
X119414962Y-93884395D01*
X119414966Y-93884397D01*
X119488152Y-93914711D01*
X119560642Y-93944737D01*
X119710270Y-93974500D01*
X119715292Y-93975499D01*
X119715295Y-93975500D01*
X119715297Y-93975500D01*
X119872983Y-93975500D01*
X119872984Y-93975499D01*
X120027636Y-93944737D01*
X120173318Y-93884394D01*
X120304428Y-93796789D01*
X120415928Y-93685289D01*
X120503533Y-93554179D01*
X120563876Y-93408497D01*
X120594639Y-93253842D01*
X120594639Y-93096158D01*
X120594639Y-93096155D01*
X120594638Y-93096153D01*
X120592141Y-93083599D01*
X120563876Y-92941503D01*
X120563874Y-92941498D01*
X120503536Y-92795827D01*
X120503529Y-92795814D01*
X120415928Y-92664711D01*
X120415925Y-92664707D01*
X120304431Y-92553213D01*
X120304427Y-92553210D01*
X120173324Y-92465609D01*
X120173311Y-92465602D01*
X120027640Y-92405264D01*
X120027628Y-92405261D01*
X119872984Y-92374500D01*
X119872981Y-92374500D01*
X119715297Y-92374500D01*
X119715294Y-92374500D01*
X119560649Y-92405261D01*
X119560637Y-92405264D01*
X119414966Y-92465602D01*
X119414959Y-92465606D01*
X119386067Y-92484911D01*
X119358094Y-92503602D01*
X119291418Y-92524480D01*
X119289204Y-92524500D01*
X118495808Y-92524500D01*
X118466367Y-92515855D01*
X118436381Y-92509332D01*
X118431365Y-92505577D01*
X118428769Y-92504815D01*
X118408127Y-92488181D01*
X118282612Y-92362666D01*
X118249127Y-92301343D01*
X118254111Y-92231651D01*
X118255732Y-92227532D01*
X118303502Y-92112207D01*
X118367982Y-91871565D01*
X118400500Y-91624565D01*
X118400500Y-91375435D01*
X118367982Y-91128435D01*
X118303502Y-90887793D01*
X118238250Y-90730261D01*
X118208169Y-90657638D01*
X118208162Y-90657623D01*
X118083599Y-90441873D01*
X117931939Y-90244225D01*
X117931933Y-90244218D01*
X117755781Y-90068066D01*
X117755774Y-90068060D01*
X117558126Y-89916400D01*
X117342376Y-89791837D01*
X117342361Y-89791830D01*
X117112207Y-89696498D01*
X116936812Y-89649501D01*
X116871565Y-89632018D01*
X116871564Y-89632017D01*
X116871561Y-89632017D01*
X116624575Y-89599501D01*
X116624570Y-89599500D01*
X116624565Y-89599500D01*
X116375435Y-89599500D01*
X116375429Y-89599500D01*
X116375424Y-89599501D01*
X116128438Y-89632017D01*
X115887792Y-89696498D01*
X115657638Y-89791830D01*
X115657623Y-89791837D01*
X115441873Y-89916400D01*
X115244225Y-90068060D01*
X115244218Y-90068066D01*
X115068066Y-90244218D01*
X115068060Y-90244225D01*
X114916400Y-90441873D01*
X114791837Y-90657623D01*
X114791830Y-90657638D01*
X114696498Y-90887792D01*
X114632017Y-91128438D01*
X114599501Y-91375424D01*
X114599500Y-91375441D01*
X111190500Y-91375441D01*
X111190500Y-85300014D01*
X114600000Y-85300014D01*
X114600000Y-86250000D01*
X115899999Y-86250000D01*
X115874979Y-86310402D01*
X115850000Y-86435981D01*
X115850000Y-86564019D01*
X115874979Y-86689598D01*
X115899999Y-86750000D01*
X114600000Y-86750000D01*
X114600000Y-87699985D01*
X114610493Y-87802689D01*
X114610494Y-87802696D01*
X114665641Y-87969118D01*
X114665643Y-87969123D01*
X114757684Y-88118344D01*
X114881655Y-88242315D01*
X115030876Y-88334356D01*
X115030881Y-88334358D01*
X115197303Y-88389505D01*
X115197310Y-88389506D01*
X115300014Y-88399999D01*
X115300027Y-88400000D01*
X116250000Y-88400000D01*
X116250000Y-87100001D01*
X116310402Y-87125021D01*
X116435981Y-87150000D01*
X116564019Y-87150000D01*
X116689598Y-87125021D01*
X116750000Y-87100001D01*
X116750000Y-88400000D01*
X117699973Y-88400000D01*
X117699985Y-88399999D01*
X117802689Y-88389506D01*
X117802696Y-88389505D01*
X117969118Y-88334358D01*
X117969123Y-88334356D01*
X118118344Y-88242315D01*
X118242315Y-88118344D01*
X118334356Y-87969123D01*
X118334358Y-87969118D01*
X118389505Y-87802696D01*
X118389506Y-87802689D01*
X118399999Y-87699985D01*
X118400000Y-87699972D01*
X118400000Y-86750000D01*
X117100001Y-86750000D01*
X117125021Y-86689598D01*
X117150000Y-86564019D01*
X117150000Y-86435981D01*
X117125021Y-86310402D01*
X117100001Y-86250000D01*
X118400000Y-86250000D01*
X118400000Y-85897844D01*
X122250000Y-85897844D01*
X122256401Y-85957372D01*
X122256403Y-85957379D01*
X122306645Y-86092086D01*
X122306649Y-86092093D01*
X122392809Y-86207187D01*
X122392812Y-86207190D01*
X122507906Y-86293350D01*
X122507913Y-86293354D01*
X122642620Y-86343596D01*
X122642627Y-86343598D01*
X122702155Y-86349999D01*
X122702172Y-86350000D01*
X123250000Y-86350000D01*
X123750000Y-86350000D01*
X124297828Y-86350000D01*
X124297844Y-86349999D01*
X124357372Y-86343598D01*
X124357379Y-86343596D01*
X124492086Y-86293354D01*
X124492093Y-86293350D01*
X124607187Y-86207190D01*
X124607190Y-86207187D01*
X124693350Y-86092093D01*
X124693354Y-86092086D01*
X124743596Y-85957379D01*
X124743598Y-85957372D01*
X124749999Y-85897844D01*
X124750000Y-85897827D01*
X124750000Y-85797844D01*
X128250000Y-85797844D01*
X128256401Y-85857372D01*
X128256403Y-85857379D01*
X128306645Y-85992086D01*
X128306649Y-85992093D01*
X128392809Y-86107187D01*
X128392812Y-86107190D01*
X128507906Y-86193350D01*
X128507913Y-86193354D01*
X128642620Y-86243596D01*
X128642627Y-86243598D01*
X128702155Y-86249999D01*
X128702172Y-86250000D01*
X129250000Y-86250000D01*
X129750000Y-86250000D01*
X130297828Y-86250000D01*
X130297844Y-86249999D01*
X130357372Y-86243598D01*
X130357379Y-86243596D01*
X130492086Y-86193354D01*
X130492093Y-86193350D01*
X130607187Y-86107190D01*
X130607190Y-86107187D01*
X130693350Y-85992093D01*
X130693354Y-85992086D01*
X130743596Y-85857379D01*
X130743598Y-85857372D01*
X130749999Y-85797844D01*
X130750000Y-85797827D01*
X130750000Y-84850000D01*
X129750000Y-84850000D01*
X129750000Y-86250000D01*
X129250000Y-86250000D01*
X129250000Y-84850000D01*
X128250000Y-84850000D01*
X128250000Y-85797844D01*
X124750000Y-85797844D01*
X124750000Y-84950000D01*
X123750000Y-84950000D01*
X123750000Y-86350000D01*
X123250000Y-86350000D01*
X123250000Y-84950000D01*
X122250000Y-84950000D01*
X122250000Y-85897844D01*
X118400000Y-85897844D01*
X118400000Y-85300027D01*
X118399999Y-85300014D01*
X118389506Y-85197310D01*
X118389505Y-85197303D01*
X118334358Y-85030881D01*
X118334356Y-85030876D01*
X118293435Y-84964532D01*
X118237410Y-84876750D01*
X118118344Y-84757684D01*
X117969123Y-84665643D01*
X117969118Y-84665641D01*
X117802696Y-84610494D01*
X117802689Y-84610493D01*
X117699985Y-84600000D01*
X116750000Y-84600000D01*
X116750000Y-85899998D01*
X116689598Y-85874979D01*
X116564019Y-85850000D01*
X116435981Y-85850000D01*
X116310402Y-85874979D01*
X116250000Y-85899998D01*
X116250000Y-84600000D01*
X115300014Y-84600000D01*
X115197310Y-84610493D01*
X115197303Y-84610494D01*
X115030881Y-84665641D01*
X115030876Y-84665643D01*
X114881655Y-84757684D01*
X114757684Y-84881655D01*
X114665643Y-85030876D01*
X114665641Y-85030881D01*
X114610494Y-85197303D01*
X114610493Y-85197310D01*
X114600000Y-85300014D01*
X111190500Y-85300014D01*
X111190500Y-83502155D01*
X122250000Y-83502155D01*
X122250000Y-84450000D01*
X123250000Y-84450000D01*
X123750000Y-84450000D01*
X124750000Y-84450000D01*
X124750000Y-83502172D01*
X124749999Y-83502155D01*
X124743598Y-83442627D01*
X124743595Y-83442616D01*
X124743440Y-83442199D01*
X124743434Y-83442184D01*
X124728504Y-83402155D01*
X128250000Y-83402155D01*
X128250000Y-84350000D01*
X129250000Y-84350000D01*
X129750000Y-84350000D01*
X130750000Y-84350000D01*
X130750000Y-83402172D01*
X130749999Y-83402155D01*
X130743598Y-83342627D01*
X130743596Y-83342620D01*
X130693354Y-83207913D01*
X130693350Y-83207906D01*
X130607190Y-83092812D01*
X130607187Y-83092809D01*
X130492093Y-83006649D01*
X130492086Y-83006645D01*
X130357379Y-82956403D01*
X130357372Y-82956401D01*
X130297844Y-82950000D01*
X129750000Y-82950000D01*
X129750000Y-84350000D01*
X129250000Y-84350000D01*
X129250000Y-82950000D01*
X128702155Y-82950000D01*
X128642627Y-82956401D01*
X128642620Y-82956403D01*
X128507913Y-83006645D01*
X128507906Y-83006649D01*
X128392812Y-83092809D01*
X128392809Y-83092812D01*
X128306649Y-83207906D01*
X128306645Y-83207913D01*
X128256403Y-83342620D01*
X128256401Y-83342627D01*
X128250000Y-83402155D01*
X124728504Y-83402155D01*
X124693354Y-83307913D01*
X124693350Y-83307906D01*
X124607190Y-83192812D01*
X124607187Y-83192809D01*
X124492093Y-83106649D01*
X124492086Y-83106645D01*
X124357379Y-83056403D01*
X124357372Y-83056401D01*
X124297844Y-83050000D01*
X123750000Y-83050000D01*
X123750000Y-84450000D01*
X123250000Y-84450000D01*
X123250000Y-83050000D01*
X122702155Y-83050000D01*
X122642627Y-83056401D01*
X122642620Y-83056403D01*
X122507913Y-83106645D01*
X122507906Y-83106649D01*
X122392812Y-83192809D01*
X122392809Y-83192812D01*
X122306649Y-83307906D01*
X122306645Y-83307913D01*
X122256403Y-83442620D01*
X122256401Y-83442627D01*
X122250000Y-83502155D01*
X111190500Y-83502155D01*
X111190500Y-79053456D01*
X113335500Y-79053456D01*
X113335500Y-79296543D01*
X113335501Y-79296559D01*
X113367230Y-79537569D01*
X113430149Y-79772386D01*
X113523175Y-79996972D01*
X113523182Y-79996987D01*
X113644730Y-80207516D01*
X113792722Y-80400380D01*
X113792730Y-80400389D01*
X113964611Y-80572270D01*
X113964619Y-80572277D01*
X114157483Y-80720269D01*
X114368012Y-80841817D01*
X114368027Y-80841824D01*
X114484171Y-80889932D01*
X114592612Y-80934850D01*
X114827429Y-80997769D01*
X115068450Y-81029500D01*
X115068457Y-81029500D01*
X115311543Y-81029500D01*
X115311550Y-81029500D01*
X115552571Y-80997769D01*
X115787388Y-80934850D01*
X116011984Y-80841819D01*
X116222516Y-80720269D01*
X116415380Y-80572278D01*
X116415384Y-80572273D01*
X116415389Y-80572270D01*
X116587270Y-80400389D01*
X116587273Y-80400384D01*
X116587278Y-80400380D01*
X116735269Y-80207516D01*
X116856819Y-79996984D01*
X116949850Y-79772388D01*
X117012769Y-79537571D01*
X117044500Y-79296550D01*
X117044500Y-79053450D01*
X117012769Y-78812429D01*
X116949850Y-78577612D01*
X116856819Y-78353016D01*
X116856817Y-78353012D01*
X116735269Y-78142483D01*
X116587277Y-77949619D01*
X116587270Y-77949611D01*
X116415389Y-77777730D01*
X116415380Y-77777722D01*
X116222516Y-77629730D01*
X116011987Y-77508182D01*
X116011972Y-77508175D01*
X115787386Y-77415149D01*
X115552569Y-77352230D01*
X115311559Y-77320501D01*
X115311556Y-77320500D01*
X115311550Y-77320500D01*
X115068450Y-77320500D01*
X115068444Y-77320500D01*
X115068440Y-77320501D01*
X114827430Y-77352230D01*
X114592613Y-77415149D01*
X114368027Y-77508175D01*
X114368012Y-77508182D01*
X114157483Y-77629730D01*
X113964619Y-77777722D01*
X113792722Y-77949619D01*
X113644730Y-78142483D01*
X113523182Y-78353012D01*
X113523175Y-78353027D01*
X113430149Y-78577613D01*
X113367230Y-78812430D01*
X113335501Y-79053440D01*
X113335500Y-79053456D01*
X111190500Y-79053456D01*
X111190500Y-75299500D01*
X111210185Y-75232461D01*
X111262989Y-75186706D01*
X111314500Y-75175500D01*
X118316000Y-75175500D01*
X118383039Y-75195185D01*
G37*
%TD.AperFunction*%
%TA.AperFunction,Conductor*%
G36*
X112940000Y-109025000D02*
G01*
X112440000Y-109025000D01*
X112440000Y-102625000D01*
X112940000Y-102625000D01*
X112940000Y-109025000D01*
G37*
%TD.AperFunction*%
%TD*%
M02*
