M48
; DRILL file {KiCad 9.0.5} date 2025-11-13T15:13:31+0100
; FORMAT={-:-/ absolute / metric / decimal}
; #@! TF.CreationDate,2025-11-13T15:13:31+01:00
; #@! TF.GenerationSoftware,Kicad,Pcbnew,9.0.5
; #@! TF.FileFunction,MixedPlating,1,2
FMAT,2
METRIC
; #@! TA.AperFunction,Plated,PTH,ViaDrill
T1C0.300
; #@! TA.AperFunction,Plated,PTH,ComponentDrill
T2C0.300
; #@! TA.AperFunction,Plated,PTH,ComponentDrill
T3C0.600
; #@! TA.AperFunction,Plated,PTH,ComponentDrill
T4C0.850
; #@! TA.AperFunction,Plated,PTH,ComponentDrill
T5C1.000
; #@! TA.AperFunction,Plated,PTH,ComponentDrill
T6C1.300
; #@! TA.AperFunction,NonPlated,NPTH,ComponentDrill
T7C3.200
%
G90
G05
T1
X113.123Y-98.079
X119.794Y-93.175
X123.94Y-96.425
X124.94Y-105.723
X125.675Y-93.175
X125.94Y-94.425
X126.0Y-91.5
X126.5Y-88.0
X127.912Y-103.234
X132.0Y-86.0
X133.0Y-84.61
X142.0Y-106.5
X153.144Y-87.163
X153.94Y-94.675
X153.94Y-110.675
X154.0Y-92.0
X154.5Y-88.25
X154.94Y-107.675
X158.94Y-94.19
X160.94Y-111.675
X161.75Y-102.25
X162.94Y-106.675
X164.94Y-95.675
X166.94Y-100.675
X167.25Y-116.5
X168.25Y-82.0
X171.0Y-101.25
X173.0Y-87.25
X174.75Y-82.0
T2
X140.04Y-90.36
X140.04Y-91.76
X140.74Y-89.66
X140.74Y-91.06
X140.74Y-92.46
X141.415Y-90.36
X141.415Y-91.76
X142.14Y-89.66
X142.14Y-91.06
X142.14Y-92.46
X142.84Y-90.36
X142.84Y-91.76
T4
X115.39Y-103.325
X115.39Y-108.325
T5
X122.4Y-114.675
X124.94Y-114.675
X166.69Y-85.615
X166.69Y-88.155
X166.69Y-90.695
X166.69Y-93.235
T6
X116.5Y-86.5
X116.5Y-91.5
T7
X115.19Y-79.175
X115.19Y-114.675
X171.44Y-79.175
X171.44Y-114.675
T3
G00X112.34Y-102.325
M15
G01X113.04Y-102.325
M16
G05
G00X113.04Y-109.325
M15
G01X112.34Y-109.325
M16
G05
M30
