%TF.GenerationSoftware,KiCad,Pcbnew,9.0.5*%
%TF.CreationDate,2025-11-13T15:13:34+01:00*%
%TF.ProjectId,Remote_estop_Robin De Vos,52656d6f-7465-45f6-9573-746f705f526f,rev?*%
%TF.SameCoordinates,Original*%
%TF.FileFunction,Legend,Bot*%
%TF.FilePolarity,Positive*%
%FSLAX46Y46*%
G04 Gerber Fmt 4.6, Leading zero omitted, Abs format (unit mm)*
G04 Created by KiCad (PCBNEW 9.0.5) date 2025-11-13 15:13:34*
%MOMM*%
%LPD*%
G01*
G04 APERTURE LIST*
%ADD10C,0.150000*%
G04 APERTURE END LIST*
D10*
X112678207Y-86072390D02*
X112602017Y-86034295D01*
X112602017Y-86034295D02*
X112487731Y-86034295D01*
X112487731Y-86034295D02*
X112373445Y-86072390D01*
X112373445Y-86072390D02*
X112297255Y-86148580D01*
X112297255Y-86148580D02*
X112259160Y-86224771D01*
X112259160Y-86224771D02*
X112221064Y-86377152D01*
X112221064Y-86377152D02*
X112221064Y-86491438D01*
X112221064Y-86491438D02*
X112259160Y-86643819D01*
X112259160Y-86643819D02*
X112297255Y-86720009D01*
X112297255Y-86720009D02*
X112373445Y-86796200D01*
X112373445Y-86796200D02*
X112487731Y-86834295D01*
X112487731Y-86834295D02*
X112563922Y-86834295D01*
X112563922Y-86834295D02*
X112678207Y-86796200D01*
X112678207Y-86796200D02*
X112716303Y-86758104D01*
X112716303Y-86758104D02*
X112716303Y-86491438D01*
X112716303Y-86491438D02*
X112563922Y-86491438D01*
X113059160Y-86834295D02*
X113059160Y-86034295D01*
X113059160Y-86034295D02*
X113516303Y-86834295D01*
X113516303Y-86834295D02*
X113516303Y-86034295D01*
X113897255Y-86834295D02*
X113897255Y-86034295D01*
X113897255Y-86034295D02*
X114087731Y-86034295D01*
X114087731Y-86034295D02*
X114202017Y-86072390D01*
X114202017Y-86072390D02*
X114278207Y-86148580D01*
X114278207Y-86148580D02*
X114316302Y-86224771D01*
X114316302Y-86224771D02*
X114354398Y-86377152D01*
X114354398Y-86377152D02*
X114354398Y-86491438D01*
X114354398Y-86491438D02*
X114316302Y-86643819D01*
X114316302Y-86643819D02*
X114278207Y-86720009D01*
X114278207Y-86720009D02*
X114202017Y-86796200D01*
X114202017Y-86796200D02*
X114087731Y-86834295D01*
X114087731Y-86834295D02*
X113897255Y-86834295D01*
X113039160Y-90573006D02*
X113039160Y-91373006D01*
X113039160Y-90611102D02*
X113115350Y-90573006D01*
X113115350Y-90573006D02*
X113267731Y-90573006D01*
X113267731Y-90573006D02*
X113343922Y-90611102D01*
X113343922Y-90611102D02*
X113382017Y-90649197D01*
X113382017Y-90649197D02*
X113420112Y-90725387D01*
X113420112Y-90725387D02*
X113420112Y-90953959D01*
X113420112Y-90953959D02*
X113382017Y-91030149D01*
X113382017Y-91030149D02*
X113343922Y-91068245D01*
X113343922Y-91068245D02*
X113267731Y-91106340D01*
X113267731Y-91106340D02*
X113115350Y-91106340D01*
X113115350Y-91106340D02*
X113039160Y-91068245D01*
X113762970Y-91106340D02*
X113762970Y-90573006D01*
X113762970Y-90306340D02*
X113724874Y-90344435D01*
X113724874Y-90344435D02*
X113762970Y-90382530D01*
X113762970Y-90382530D02*
X113801065Y-90344435D01*
X113801065Y-90344435D02*
X113762970Y-90306340D01*
X113762970Y-90306340D02*
X113762970Y-90382530D01*
X114143922Y-90573006D02*
X114143922Y-91106340D01*
X114143922Y-90649197D02*
X114182017Y-90611102D01*
X114182017Y-90611102D02*
X114258207Y-90573006D01*
X114258207Y-90573006D02*
X114372493Y-90573006D01*
X114372493Y-90573006D02*
X114448684Y-90611102D01*
X114448684Y-90611102D02*
X114486779Y-90687292D01*
X114486779Y-90687292D02*
X114486779Y-91106340D01*
X113458207Y-92394295D02*
X113001064Y-92394295D01*
X113229636Y-92394295D02*
X113229636Y-91594295D01*
X113229636Y-91594295D02*
X113153445Y-91708580D01*
X113153445Y-91708580D02*
X113077255Y-91784771D01*
X113077255Y-91784771D02*
X113001064Y-91822866D01*
X114220112Y-92394295D02*
X113762969Y-92394295D01*
X113991541Y-92394295D02*
X113991541Y-91594295D01*
X113991541Y-91594295D02*
X113915350Y-91708580D01*
X113915350Y-91708580D02*
X113839160Y-91784771D01*
X113839160Y-91784771D02*
X113762969Y-91822866D01*
M02*
