%TF.GenerationSoftware,KiCad,Pcbnew,9.0.5*%
%TF.CreationDate,2025-11-13T15:13:34+01:00*%
%TF.ProjectId,Remote_estop_Robin De Vos,52656d6f-7465-45f6-9573-746f705f526f,rev?*%
%TF.SameCoordinates,Original*%
%TF.FileFunction,Copper,L2,Bot*%
%TF.FilePolarity,Positive*%
%FSLAX46Y46*%
G04 Gerber Fmt 4.6, Leading zero omitted, Abs format (unit mm)*
G04 Created by KiCad (PCBNEW 9.0.5) date 2025-11-13 15:13:34*
%MOMM*%
%LPD*%
G01*
G04 APERTURE LIST*
G04 Aperture macros list*
%AMRoundRect*
0 Rectangle with rounded corners*
0 $1 Rounding radius*
0 $2 $3 $4 $5 $6 $7 $8 $9 X,Y pos of 4 corners*
0 Add a 4 corners polygon primitive as box body*
4,1,4,$2,$3,$4,$5,$6,$7,$8,$9,$2,$3,0*
0 Add four circle primitives for the rounded corners*
1,1,$1+$1,$2,$3*
1,1,$1+$1,$4,$5*
1,1,$1+$1,$6,$7*
1,1,$1+$1,$8,$9*
0 Add four rect primitives between the rounded corners*
20,1,$1+$1,$2,$3,$4,$5,0*
20,1,$1+$1,$4,$5,$6,$7,0*
20,1,$1+$1,$6,$7,$8,$9,0*
20,1,$1+$1,$8,$9,$2,$3,0*%
G04 Aperture macros list end*
%TA.AperFunction,HeatsinkPad*%
%ADD10O,1.900000X1.200000*%
%TD*%
%TA.AperFunction,HeatsinkPad*%
%ADD11C,1.450000*%
%TD*%
%TA.AperFunction,ComponentPad*%
%ADD12R,1.700000X1.700000*%
%TD*%
%TA.AperFunction,ComponentPad*%
%ADD13C,1.700000*%
%TD*%
%TA.AperFunction,ComponentPad*%
%ADD14RoundRect,0.250001X-1.149999X1.149999X-1.149999X-1.149999X1.149999X-1.149999X1.149999X1.149999X0*%
%TD*%
%TA.AperFunction,ComponentPad*%
%ADD15C,2.800000*%
%TD*%
%TA.AperFunction,HeatsinkPad*%
%ADD16C,0.600000*%
%TD*%
%TA.AperFunction,ViaPad*%
%ADD17C,0.600000*%
%TD*%
%TA.AperFunction,ViaPad*%
%ADD18C,0.610000*%
%TD*%
%TA.AperFunction,Conductor*%
%ADD19C,0.300000*%
%TD*%
%TA.AperFunction,Conductor*%
%ADD20C,0.400000*%
%TD*%
G04 APERTURE END LIST*
D10*
%TO.P,J2,6,Shield*%
%TO.N,GND*%
X112690000Y-102325000D03*
D11*
X115390000Y-103325000D03*
X115390000Y-108325000D03*
D10*
X112690000Y-109325000D03*
%TD*%
D12*
%TO.P,J3,1,Pin_1*%
%TO.N,VCC*%
X124940000Y-114675000D03*
D13*
%TO.P,J3,2,Pin_2*%
%TO.N,GND*%
X122400000Y-114675000D03*
%TD*%
D12*
%TO.P,J1,1,Pin_1*%
%TO.N,GND*%
X166690000Y-85615000D03*
D13*
%TO.P,J1,2,Pin_2*%
%TO.N,Net-(J1-Pin_2)*%
X166690000Y-88155000D03*
%TO.P,J1,3,Pin_3*%
%TO.N,Net-(J1-Pin_3)*%
X166690000Y-90695000D03*
%TO.P,J1,4,Pin_4*%
%TO.N,+3V3*%
X166690000Y-93235000D03*
%TD*%
D14*
%TO.P,J4,1,Pin_1*%
%TO.N,GND*%
X116500000Y-86500000D03*
D15*
%TO.P,J4,2,Pin_2*%
%TO.N,Net-(J4-Pin_2)*%
X116500000Y-91500000D03*
%TD*%
D16*
%TO.P,U1,39,GND*%
%TO.N,GND*%
X140040000Y-90360000D03*
X140040000Y-91760000D03*
X140740000Y-89660000D03*
X140740000Y-91060000D03*
X140740000Y-92460000D03*
X141415000Y-90360000D03*
X141415000Y-91760000D03*
X142140000Y-89660000D03*
X142140000Y-91060000D03*
X142140000Y-92460000D03*
X142840000Y-90360000D03*
X142840000Y-91760000D03*
%TD*%
D17*
%TO.N,GND*%
X174750000Y-82000000D03*
X168250000Y-82000000D03*
X126500000Y-88000000D03*
X161750000Y-102250000D03*
X127912285Y-103233755D03*
X173000000Y-87250000D03*
X167250000Y-116500000D03*
X171000000Y-101250000D03*
X113123061Y-98078857D03*
X154000000Y-92000000D03*
X142000000Y-106500000D03*
%TO.N,+3V3*%
X160940000Y-111675000D03*
X166940000Y-100675000D03*
X123940000Y-96425000D03*
X124940000Y-105722540D03*
X133000000Y-84610000D03*
X125940000Y-94425000D03*
%TO.N,Net-(J4-Pin_2)*%
X125675000Y-93175000D03*
X119794139Y-93175000D03*
%TO.N,Net-(U1-EN)*%
X132000000Y-86000000D03*
X126000000Y-91500000D03*
D18*
%TO.N,Net-(U1-IO0)*%
X154500000Y-88250000D03*
X158940000Y-94190000D03*
D17*
%TO.N,Net-(U1-IO2)*%
X154940000Y-107675000D03*
X162940000Y-106675000D03*
%TO.N,Net-(J1-Pin_3)*%
X153144176Y-87162690D03*
X164940000Y-95675000D03*
%TO.N,Net-(U1-IO5)*%
X153940000Y-110675000D03*
X153940000Y-94675000D03*
%TD*%
D19*
%TO.N,+3V3*%
X125931639Y-94416639D02*
X125940000Y-94425000D01*
D20*
X123940000Y-96425000D02*
X124440000Y-96925000D01*
X124440000Y-96925000D02*
X124440000Y-105222540D01*
X160940000Y-111675000D02*
X166940000Y-105675000D01*
X166940000Y-105675000D02*
X166940000Y-100675000D01*
X133000000Y-87365000D02*
X125940000Y-94425000D01*
X124440000Y-105222540D02*
X124940000Y-105722540D01*
X133000000Y-84610000D02*
X133000000Y-87365000D01*
D19*
%TO.N,Net-(J4-Pin_2)*%
X125675000Y-93175000D02*
X119794139Y-93175000D01*
%TO.N,Net-(U1-EN)*%
X126000000Y-91500000D02*
X131500000Y-86000000D01*
X131500000Y-86000000D02*
X132000000Y-86000000D01*
%TO.N,Net-(U1-IO0)*%
X158940000Y-94190000D02*
X154500000Y-89750000D01*
X154500000Y-89750000D02*
X154500000Y-88250000D01*
%TO.N,Net-(U1-IO2)*%
X162940000Y-106675000D02*
X161940000Y-107675000D01*
X161940000Y-107675000D02*
X154940000Y-107675000D01*
%TO.N,Net-(J1-Pin_3)*%
X164789000Y-95524000D02*
X164940000Y-95675000D01*
X163157690Y-87162690D02*
X166690000Y-90695000D01*
X165940000Y-90755000D02*
X164789000Y-91906000D01*
X153144176Y-87162690D02*
X163157690Y-87162690D01*
X164789000Y-91906000D02*
X164789000Y-95524000D01*
%TO.N,Net-(U1-IO5)*%
X153940000Y-94675000D02*
X153940000Y-110675000D01*
%TD*%
%TA.AperFunction,Conductor*%
%TO.N,GND*%
G36*
X118383039Y-75195185D02*
G01*
X118428794Y-75247989D01*
X118440000Y-75299500D01*
X118440000Y-82675000D01*
X166940000Y-82675000D01*
X166940000Y-79053456D01*
X169585500Y-79053456D01*
X169585500Y-79296543D01*
X169585501Y-79296559D01*
X169617230Y-79537569D01*
X169680149Y-79772386D01*
X169773175Y-79996972D01*
X169773182Y-79996987D01*
X169894730Y-80207516D01*
X170042722Y-80400380D01*
X170042730Y-80400389D01*
X170214611Y-80572270D01*
X170214619Y-80572277D01*
X170407483Y-80720269D01*
X170618012Y-80841817D01*
X170618027Y-80841824D01*
X170734171Y-80889932D01*
X170842612Y-80934850D01*
X171077429Y-80997769D01*
X171318450Y-81029500D01*
X171318457Y-81029500D01*
X171561543Y-81029500D01*
X171561550Y-81029500D01*
X171802571Y-80997769D01*
X172037388Y-80934850D01*
X172261984Y-80841819D01*
X172472516Y-80720269D01*
X172665380Y-80572278D01*
X172665384Y-80572273D01*
X172665389Y-80572270D01*
X172837270Y-80400389D01*
X172837273Y-80400384D01*
X172837278Y-80400380D01*
X172985269Y-80207516D01*
X173106819Y-79996984D01*
X173199850Y-79772388D01*
X173262769Y-79537571D01*
X173294500Y-79296550D01*
X173294500Y-79053450D01*
X173262769Y-78812429D01*
X173199850Y-78577612D01*
X173106819Y-78353016D01*
X173106817Y-78353012D01*
X172985269Y-78142483D01*
X172837277Y-77949619D01*
X172837270Y-77949611D01*
X172665389Y-77777730D01*
X172665380Y-77777722D01*
X172472516Y-77629730D01*
X172261987Y-77508182D01*
X172261972Y-77508175D01*
X172037386Y-77415149D01*
X171802569Y-77352230D01*
X171561559Y-77320501D01*
X171561556Y-77320500D01*
X171561550Y-77320500D01*
X171318450Y-77320500D01*
X171318444Y-77320500D01*
X171318440Y-77320501D01*
X171077430Y-77352230D01*
X170842613Y-77415149D01*
X170618027Y-77508175D01*
X170618012Y-77508182D01*
X170407483Y-77629730D01*
X170214619Y-77777722D01*
X170042722Y-77949619D01*
X169894730Y-78142483D01*
X169773182Y-78353012D01*
X169773175Y-78353027D01*
X169680149Y-78577613D01*
X169617230Y-78812430D01*
X169585501Y-79053440D01*
X169585500Y-79053456D01*
X166940000Y-79053456D01*
X166940000Y-75299500D01*
X166959685Y-75232461D01*
X167012489Y-75186706D01*
X167064000Y-75175500D01*
X175815500Y-75175500D01*
X175882539Y-75195185D01*
X175928294Y-75247989D01*
X175939500Y-75299500D01*
X175939500Y-118550500D01*
X175919815Y-118617539D01*
X175867011Y-118663294D01*
X175815500Y-118674500D01*
X111314500Y-118674500D01*
X111247461Y-118654815D01*
X111201706Y-118602011D01*
X111190500Y-118550500D01*
X111190500Y-114553456D01*
X113335500Y-114553456D01*
X113335500Y-114796543D01*
X113335501Y-114796559D01*
X113367230Y-115037569D01*
X113430149Y-115272386D01*
X113523175Y-115496972D01*
X113523182Y-115496987D01*
X113644730Y-115707516D01*
X113792722Y-115900380D01*
X113792730Y-115900389D01*
X113964611Y-116072270D01*
X113964619Y-116072277D01*
X114157483Y-116220269D01*
X114368012Y-116341817D01*
X114368027Y-116341824D01*
X114484171Y-116389932D01*
X114592612Y-116434850D01*
X114827429Y-116497769D01*
X115068450Y-116529500D01*
X115068457Y-116529500D01*
X115311543Y-116529500D01*
X115311550Y-116529500D01*
X115552571Y-116497769D01*
X115787388Y-116434850D01*
X116011984Y-116341819D01*
X116222516Y-116220269D01*
X116415380Y-116072278D01*
X116415384Y-116072273D01*
X116415389Y-116072270D01*
X116587270Y-115900389D01*
X116587273Y-115900384D01*
X116587278Y-115900380D01*
X116735269Y-115707516D01*
X116856819Y-115496984D01*
X116949850Y-115272388D01*
X117012769Y-115037571D01*
X117044500Y-114796550D01*
X117044500Y-114568753D01*
X121050000Y-114568753D01*
X121050000Y-114781246D01*
X121083242Y-114991127D01*
X121083242Y-114991130D01*
X121148904Y-115193217D01*
X121245375Y-115382550D01*
X121284728Y-115436716D01*
X121917037Y-114804408D01*
X121934075Y-114867993D01*
X121999901Y-114982007D01*
X122092993Y-115075099D01*
X122207007Y-115140925D01*
X122270590Y-115157962D01*
X121638282Y-115790269D01*
X121638282Y-115790270D01*
X121692449Y-115829624D01*
X121881782Y-115926095D01*
X122083870Y-115991757D01*
X122293754Y-116025000D01*
X122506246Y-116025000D01*
X122716127Y-115991757D01*
X122716130Y-115991757D01*
X122918217Y-115926095D01*
X123107554Y-115829622D01*
X123161716Y-115790270D01*
X123161717Y-115790270D01*
X122529408Y-115157962D01*
X122592993Y-115140925D01*
X122707007Y-115075099D01*
X122800099Y-114982007D01*
X122865925Y-114867993D01*
X122882962Y-114804409D01*
X123553181Y-115474628D01*
X123586666Y-115535951D01*
X123589500Y-115562300D01*
X123589500Y-115572865D01*
X123589501Y-115572876D01*
X123595908Y-115632483D01*
X123646202Y-115767328D01*
X123646206Y-115767335D01*
X123732452Y-115882544D01*
X123732455Y-115882547D01*
X123847664Y-115968793D01*
X123847671Y-115968797D01*
X123982517Y-116019091D01*
X123982516Y-116019091D01*
X123989444Y-116019835D01*
X124042127Y-116025500D01*
X125837872Y-116025499D01*
X125897483Y-116019091D01*
X126032331Y-115968796D01*
X126147546Y-115882546D01*
X126233796Y-115767331D01*
X126284091Y-115632483D01*
X126290500Y-115572873D01*
X126290499Y-114553456D01*
X169585500Y-114553456D01*
X169585500Y-114796543D01*
X169585501Y-114796559D01*
X169617230Y-115037569D01*
X169680149Y-115272386D01*
X169773175Y-115496972D01*
X169773182Y-115496987D01*
X169894730Y-115707516D01*
X170042722Y-115900380D01*
X170042730Y-115900389D01*
X170214611Y-116072270D01*
X170214619Y-116072277D01*
X170407483Y-116220269D01*
X170618012Y-116341817D01*
X170618027Y-116341824D01*
X170734171Y-116389932D01*
X170842612Y-116434850D01*
X171077429Y-116497769D01*
X171318450Y-116529500D01*
X171318457Y-116529500D01*
X171561543Y-116529500D01*
X171561550Y-116529500D01*
X171802571Y-116497769D01*
X172037388Y-116434850D01*
X172261984Y-116341819D01*
X172472516Y-116220269D01*
X172665380Y-116072278D01*
X172665384Y-116072273D01*
X172665389Y-116072270D01*
X172837270Y-115900389D01*
X172837273Y-115900384D01*
X172837278Y-115900380D01*
X172985269Y-115707516D01*
X173106819Y-115496984D01*
X173199850Y-115272388D01*
X173262769Y-115037571D01*
X173294500Y-114796550D01*
X173294500Y-114553450D01*
X173262769Y-114312429D01*
X173199850Y-114077612D01*
X173106819Y-113853016D01*
X173106817Y-113853012D01*
X172985269Y-113642483D01*
X172850963Y-113467455D01*
X172837278Y-113449620D01*
X172837277Y-113449619D01*
X172837270Y-113449611D01*
X172665389Y-113277730D01*
X172665380Y-113277722D01*
X172472516Y-113129730D01*
X172261987Y-113008182D01*
X172261972Y-113008175D01*
X172037386Y-112915149D01*
X171802569Y-112852230D01*
X171561559Y-112820501D01*
X171561556Y-112820500D01*
X171561550Y-112820500D01*
X171318450Y-112820500D01*
X171318444Y-112820500D01*
X171318440Y-112820501D01*
X171077430Y-112852230D01*
X170842613Y-112915149D01*
X170618027Y-113008175D01*
X170618012Y-113008182D01*
X170407483Y-113129730D01*
X170214619Y-113277722D01*
X170042722Y-113449619D01*
X169894730Y-113642483D01*
X169773182Y-113853012D01*
X169773175Y-113853027D01*
X169680149Y-114077613D01*
X169617230Y-114312430D01*
X169585501Y-114553440D01*
X169585500Y-114553456D01*
X126290499Y-114553456D01*
X126290499Y-113777128D01*
X126284091Y-113717517D01*
X126265990Y-113668987D01*
X126233797Y-113582671D01*
X126233793Y-113582664D01*
X126147547Y-113467455D01*
X126147544Y-113467452D01*
X126032335Y-113381206D01*
X126032328Y-113381202D01*
X125897482Y-113330908D01*
X125897483Y-113330908D01*
X125837883Y-113324501D01*
X125837881Y-113324500D01*
X125837873Y-113324500D01*
X125837864Y-113324500D01*
X124042129Y-113324500D01*
X124042123Y-113324501D01*
X123982516Y-113330908D01*
X123847671Y-113381202D01*
X123847664Y-113381206D01*
X123732455Y-113467452D01*
X123732452Y-113467455D01*
X123646206Y-113582664D01*
X123646202Y-113582671D01*
X123595908Y-113717517D01*
X123589501Y-113777116D01*
X123589501Y-113777123D01*
X123589500Y-113777135D01*
X123589500Y-113787690D01*
X123569815Y-113854729D01*
X123553181Y-113875371D01*
X122882962Y-114545590D01*
X122865925Y-114482007D01*
X122800099Y-114367993D01*
X122707007Y-114274901D01*
X122592993Y-114209075D01*
X122529409Y-114192037D01*
X123161716Y-113559728D01*
X123107550Y-113520375D01*
X122918217Y-113423904D01*
X122716129Y-113358242D01*
X122506246Y-113325000D01*
X122293754Y-113325000D01*
X122083872Y-113358242D01*
X122083869Y-113358242D01*
X121881782Y-113423904D01*
X121692439Y-113520380D01*
X121638282Y-113559727D01*
X121638282Y-113559728D01*
X122270591Y-114192037D01*
X122207007Y-114209075D01*
X122092993Y-114274901D01*
X121999901Y-114367993D01*
X121934075Y-114482007D01*
X121917037Y-114545591D01*
X121284728Y-113913282D01*
X121284727Y-113913282D01*
X121245380Y-113967439D01*
X121148904Y-114156782D01*
X121083242Y-114358869D01*
X121083242Y-114358872D01*
X121050000Y-114568753D01*
X117044500Y-114568753D01*
X117044500Y-114553450D01*
X117012769Y-114312429D01*
X116949850Y-114077612D01*
X116856819Y-113853016D01*
X116856817Y-113853012D01*
X116750571Y-113668987D01*
X116735269Y-113642483D01*
X116600963Y-113467455D01*
X116587278Y-113449620D01*
X116587277Y-113449619D01*
X116587270Y-113449611D01*
X116415389Y-113277730D01*
X116415380Y-113277722D01*
X116222516Y-113129730D01*
X116011987Y-113008182D01*
X116011972Y-113008175D01*
X115787386Y-112915149D01*
X115552569Y-112852230D01*
X115311559Y-112820501D01*
X115311556Y-112820500D01*
X115311550Y-112820500D01*
X115068450Y-112820500D01*
X115068444Y-112820500D01*
X115068440Y-112820501D01*
X114827430Y-112852230D01*
X114592613Y-112915149D01*
X114368027Y-113008175D01*
X114368012Y-113008182D01*
X114157483Y-113129730D01*
X113964619Y-113277722D01*
X113792722Y-113449619D01*
X113644730Y-113642483D01*
X113523182Y-113853012D01*
X113523175Y-113853027D01*
X113430149Y-114077613D01*
X113367230Y-114312430D01*
X113335501Y-114553440D01*
X113335500Y-114553456D01*
X111190500Y-114553456D01*
X111190500Y-111596153D01*
X160139500Y-111596153D01*
X160139500Y-111753846D01*
X160170261Y-111908489D01*
X160170264Y-111908501D01*
X160230602Y-112054172D01*
X160230609Y-112054185D01*
X160318210Y-112185288D01*
X160318213Y-112185292D01*
X160429707Y-112296786D01*
X160429711Y-112296789D01*
X160560814Y-112384390D01*
X160560827Y-112384397D01*
X160706498Y-112444735D01*
X160706503Y-112444737D01*
X160861153Y-112475499D01*
X160861156Y-112475500D01*
X160861158Y-112475500D01*
X161018844Y-112475500D01*
X161018845Y-112475499D01*
X161173497Y-112444737D01*
X161319179Y-112384394D01*
X161450289Y-112296789D01*
X161561789Y-112185289D01*
X161649394Y-112054179D01*
X161649395Y-112054176D01*
X161649397Y-112054173D01*
X161709192Y-111909812D01*
X161736069Y-111869586D01*
X167484113Y-106121543D01*
X167491855Y-106109956D01*
X167499489Y-106098533D01*
X167560773Y-106006814D01*
X167560773Y-106006813D01*
X167560775Y-106006811D01*
X167599929Y-105912284D01*
X167613580Y-105879329D01*
X167620743Y-105843315D01*
X167640500Y-105743993D01*
X167640500Y-101100316D01*
X167649939Y-101052864D01*
X167709735Y-100908501D01*
X167709737Y-100908497D01*
X167740500Y-100753842D01*
X167740500Y-100596158D01*
X167740500Y-100596155D01*
X167740499Y-100596153D01*
X167709738Y-100441510D01*
X167709737Y-100441503D01*
X167709735Y-100441498D01*
X167649397Y-100295827D01*
X167649390Y-100295814D01*
X167561789Y-100164711D01*
X167561786Y-100164707D01*
X167450292Y-100053213D01*
X167450288Y-100053210D01*
X167319185Y-99965609D01*
X167319172Y-99965602D01*
X167173501Y-99905264D01*
X167173489Y-99905261D01*
X167018845Y-99874500D01*
X167018842Y-99874500D01*
X166861158Y-99874500D01*
X166861155Y-99874500D01*
X166706510Y-99905261D01*
X166706498Y-99905264D01*
X166560827Y-99965602D01*
X166560814Y-99965609D01*
X166429711Y-100053210D01*
X166429707Y-100053213D01*
X166318213Y-100164707D01*
X166318210Y-100164711D01*
X166230609Y-100295814D01*
X166230602Y-100295827D01*
X166170264Y-100441498D01*
X166170261Y-100441510D01*
X166139500Y-100596153D01*
X166139500Y-100753846D01*
X166170261Y-100908489D01*
X166170264Y-100908501D01*
X166230061Y-101052864D01*
X166239500Y-101100316D01*
X166239500Y-105333480D01*
X166219815Y-105400519D01*
X166203181Y-105421161D01*
X160745412Y-110878929D01*
X160705184Y-110905809D01*
X160560823Y-110965604D01*
X160560814Y-110965609D01*
X160429711Y-111053210D01*
X160429707Y-111053213D01*
X160318213Y-111164707D01*
X160318210Y-111164711D01*
X160230609Y-111295814D01*
X160230602Y-111295827D01*
X160170264Y-111441498D01*
X160170261Y-111441510D01*
X160139500Y-111596153D01*
X111190500Y-111596153D01*
X111190500Y-109995913D01*
X111210185Y-109928874D01*
X111262989Y-109883119D01*
X111332147Y-109873175D01*
X111395703Y-109902200D01*
X111414819Y-109923028D01*
X111500967Y-110041602D01*
X111623397Y-110164032D01*
X111763475Y-110265804D01*
X111917742Y-110344408D01*
X112082415Y-110397914D01*
X112253429Y-110425000D01*
X112440000Y-110425000D01*
X112440000Y-109625000D01*
X112940000Y-109625000D01*
X112940000Y-110425000D01*
X113126571Y-110425000D01*
X113297584Y-110397914D01*
X113462257Y-110344408D01*
X113616524Y-110265804D01*
X113756602Y-110164032D01*
X113879032Y-110041602D01*
X113980804Y-109901524D01*
X114059408Y-109747255D01*
X114112914Y-109582584D01*
X114114115Y-109575000D01*
X113206988Y-109575000D01*
X113224205Y-109565060D01*
X113280060Y-109509205D01*
X113319556Y-109440796D01*
X113340000Y-109364496D01*
X113340000Y-109285504D01*
X113319556Y-109209204D01*
X113280060Y-109140795D01*
X113224205Y-109084940D01*
X113206988Y-109075000D01*
X114114115Y-109075000D01*
X114114115Y-109074999D01*
X114112914Y-109067415D01*
X114106063Y-109046332D01*
X114104066Y-108976491D01*
X114140145Y-108916657D01*
X114202845Y-108885828D01*
X114272260Y-108893790D01*
X114326350Y-108938017D01*
X114334476Y-108951713D01*
X114342286Y-108967040D01*
X114364217Y-108997227D01*
X114364218Y-108997227D01*
X114968274Y-108393171D01*
X114993963Y-108489044D01*
X115049916Y-108585956D01*
X115129044Y-108665084D01*
X115225956Y-108721037D01*
X115321827Y-108746725D01*
X114717771Y-109350780D01*
X114717771Y-109350781D01*
X114747957Y-109372712D01*
X114919762Y-109460252D01*
X114919765Y-109460253D01*
X115103143Y-109519835D01*
X115293591Y-109550000D01*
X115486409Y-109550000D01*
X115676856Y-109519835D01*
X115860234Y-109460253D01*
X115860237Y-109460252D01*
X116032040Y-109372713D01*
X116062227Y-109350780D01*
X116062228Y-109350780D01*
X115458173Y-108746725D01*
X115554044Y-108721037D01*
X115650956Y-108665084D01*
X115730084Y-108585956D01*
X115786037Y-108489044D01*
X115811725Y-108393173D01*
X116415780Y-108997228D01*
X116415780Y-108997227D01*
X116437713Y-108967040D01*
X116525252Y-108795237D01*
X116525253Y-108795234D01*
X116584835Y-108611856D01*
X116615000Y-108421409D01*
X116615000Y-108228590D01*
X116584835Y-108038143D01*
X116525253Y-107854765D01*
X116525252Y-107854762D01*
X116437712Y-107682957D01*
X116415781Y-107652771D01*
X116415780Y-107652771D01*
X115811725Y-108256826D01*
X115786037Y-108160956D01*
X115730084Y-108064044D01*
X115650956Y-107984916D01*
X115554044Y-107928963D01*
X115458172Y-107903274D01*
X116062227Y-107299218D01*
X116062227Y-107299217D01*
X116032043Y-107277288D01*
X115860237Y-107189747D01*
X115860234Y-107189746D01*
X115676856Y-107130164D01*
X115486409Y-107100000D01*
X115293591Y-107100000D01*
X115103143Y-107130164D01*
X114919765Y-107189746D01*
X114919762Y-107189747D01*
X114747955Y-107277288D01*
X114747950Y-107277292D01*
X114717771Y-107299216D01*
X114717771Y-107299219D01*
X115321828Y-107903274D01*
X115225956Y-107928963D01*
X115129044Y-107984916D01*
X115049916Y-108064044D01*
X114993963Y-108160956D01*
X114968274Y-108256827D01*
X114364219Y-107652771D01*
X114364216Y-107652771D01*
X114342292Y-107682950D01*
X114342288Y-107682955D01*
X114254747Y-107854762D01*
X114254746Y-107854765D01*
X114195164Y-108038143D01*
X114165000Y-108228590D01*
X114165000Y-108421409D01*
X114195164Y-108611858D01*
X114208095Y-108651656D01*
X114210090Y-108721497D01*
X114174009Y-108781330D01*
X114111308Y-108812157D01*
X114041893Y-108804192D01*
X113987805Y-108759963D01*
X113983425Y-108752580D01*
X113983349Y-108752627D01*
X113980810Y-108748483D01*
X113879032Y-108608397D01*
X113756602Y-108485967D01*
X113616524Y-108384195D01*
X113462257Y-108305591D01*
X113297584Y-108252085D01*
X113126571Y-108225000D01*
X112940000Y-108225000D01*
X112940000Y-109025000D01*
X112440000Y-109025000D01*
X112440000Y-108225000D01*
X112253429Y-108225000D01*
X112082415Y-108252085D01*
X111917742Y-108305591D01*
X111763475Y-108384195D01*
X111623397Y-108485967D01*
X111500965Y-108608399D01*
X111500961Y-108608404D01*
X111414818Y-108726971D01*
X111359488Y-108769637D01*
X111289875Y-108775616D01*
X111228080Y-108743011D01*
X111193723Y-108682172D01*
X111190500Y-108654086D01*
X111190500Y-102995913D01*
X111210185Y-102928874D01*
X111262989Y-102883119D01*
X111332147Y-102873175D01*
X111395703Y-102902200D01*
X111414819Y-102923028D01*
X111500967Y-103041602D01*
X111623397Y-103164032D01*
X111763475Y-103265804D01*
X111917742Y-103344408D01*
X112082415Y-103397914D01*
X112253429Y-103425000D01*
X112440000Y-103425000D01*
X112440000Y-102625000D01*
X112940000Y-102625000D01*
X112940000Y-103425000D01*
X113126571Y-103425000D01*
X113297584Y-103397914D01*
X113462257Y-103344408D01*
X113616524Y-103265804D01*
X113756602Y-103164032D01*
X113879032Y-103041602D01*
X113980810Y-102901516D01*
X113983349Y-102897373D01*
X113984835Y-102898284D01*
X114027620Y-102852955D01*
X114095436Y-102836138D01*
X114161578Y-102858655D01*
X114205046Y-102913357D01*
X114212041Y-102982875D01*
X114208096Y-102998342D01*
X114195163Y-103038145D01*
X114165000Y-103228590D01*
X114165000Y-103421409D01*
X114195164Y-103611856D01*
X114254746Y-103795234D01*
X114254747Y-103795237D01*
X114342288Y-103967043D01*
X114364217Y-103997227D01*
X114364218Y-103997227D01*
X114968274Y-103393171D01*
X114993963Y-103489044D01*
X115049916Y-103585956D01*
X115129044Y-103665084D01*
X115225956Y-103721037D01*
X115321827Y-103746725D01*
X114717771Y-104350780D01*
X114717771Y-104350781D01*
X114747957Y-104372712D01*
X114919762Y-104460252D01*
X114919765Y-104460253D01*
X115103143Y-104519835D01*
X115293591Y-104550000D01*
X115486409Y-104550000D01*
X115676856Y-104519835D01*
X115860234Y-104460253D01*
X115860237Y-104460252D01*
X116032040Y-104372713D01*
X116062227Y-104350780D01*
X116062228Y-104350780D01*
X115458173Y-103746725D01*
X115554044Y-103721037D01*
X115650956Y-103665084D01*
X115730084Y-103585956D01*
X115786037Y-103489044D01*
X115811725Y-103393173D01*
X116415780Y-103997228D01*
X116415780Y-103997227D01*
X116437713Y-103967040D01*
X116525252Y-103795237D01*
X116525253Y-103795234D01*
X116584835Y-103611856D01*
X116615000Y-103421409D01*
X116615000Y-103228590D01*
X116584835Y-103038143D01*
X116525253Y-102854765D01*
X116525252Y-102854762D01*
X116437712Y-102682957D01*
X116415781Y-102652771D01*
X115811725Y-103256826D01*
X115786037Y-103160956D01*
X115730084Y-103064044D01*
X115650956Y-102984916D01*
X115554044Y-102928963D01*
X115458172Y-102903274D01*
X116062227Y-102299218D01*
X116062227Y-102299217D01*
X116032043Y-102277288D01*
X115860237Y-102189747D01*
X115860234Y-102189746D01*
X115676856Y-102130164D01*
X115486409Y-102100000D01*
X115293591Y-102100000D01*
X115103143Y-102130164D01*
X114919765Y-102189746D01*
X114919762Y-102189747D01*
X114747955Y-102277288D01*
X114747950Y-102277292D01*
X114717771Y-102299216D01*
X114717771Y-102299219D01*
X115321828Y-102903274D01*
X115225956Y-102928963D01*
X115129044Y-102984916D01*
X115049916Y-103064044D01*
X114993963Y-103160956D01*
X114968274Y-103256827D01*
X114364219Y-102652771D01*
X114364216Y-102652771D01*
X114342292Y-102682950D01*
X114342284Y-102682962D01*
X114334475Y-102698288D01*
X114286498Y-102749082D01*
X114218676Y-102765874D01*
X114152543Y-102743333D01*
X114109094Y-102688616D01*
X114102125Y-102619095D01*
X114106063Y-102603665D01*
X114112914Y-102582579D01*
X114114115Y-102575000D01*
X113206988Y-102575000D01*
X113224205Y-102565060D01*
X113280060Y-102509205D01*
X113319556Y-102440796D01*
X113340000Y-102364496D01*
X113340000Y-102285504D01*
X113319556Y-102209204D01*
X113280060Y-102140795D01*
X113224205Y-102084940D01*
X113206988Y-102075000D01*
X114114115Y-102075000D01*
X114114115Y-102074999D01*
X114112914Y-102067415D01*
X114059408Y-101902744D01*
X113980804Y-101748475D01*
X113879032Y-101608397D01*
X113756602Y-101485967D01*
X113616524Y-101384195D01*
X113462257Y-101305591D01*
X113297584Y-101252085D01*
X113126571Y-101225000D01*
X112940000Y-101225000D01*
X112940000Y-102025000D01*
X112440000Y-102025000D01*
X112440000Y-101225000D01*
X112253429Y-101225000D01*
X112082415Y-101252085D01*
X111917742Y-101305591D01*
X111763475Y-101384195D01*
X111623397Y-101485967D01*
X111500965Y-101608399D01*
X111500961Y-101608404D01*
X111414818Y-101726971D01*
X111359488Y-101769637D01*
X111289875Y-101775616D01*
X111228080Y-101743011D01*
X111193723Y-101682172D01*
X111190500Y-101654086D01*
X111190500Y-96346153D01*
X123139500Y-96346153D01*
X123139500Y-96503846D01*
X123170261Y-96658489D01*
X123170264Y-96658501D01*
X123230602Y-96804172D01*
X123230609Y-96804185D01*
X123318210Y-96935288D01*
X123318213Y-96935292D01*
X123429707Y-97046786D01*
X123429711Y-97046789D01*
X123560814Y-97134390D01*
X123560827Y-97134397D01*
X123662952Y-97176698D01*
X123717356Y-97220538D01*
X123739421Y-97286833D01*
X123739500Y-97291259D01*
X123739500Y-105153546D01*
X123739500Y-105291534D01*
X123739500Y-105291536D01*
X123739499Y-105291536D01*
X123766418Y-105426862D01*
X123766421Y-105426872D01*
X123819222Y-105554347D01*
X123895887Y-105669085D01*
X123895888Y-105669086D01*
X124143928Y-105917125D01*
X124170808Y-105957354D01*
X124230602Y-106101712D01*
X124230609Y-106101725D01*
X124318210Y-106232828D01*
X124318213Y-106232832D01*
X124429707Y-106344326D01*
X124429711Y-106344329D01*
X124560814Y-106431930D01*
X124560827Y-106431937D01*
X124706498Y-106492275D01*
X124706503Y-106492277D01*
X124861153Y-106523039D01*
X124861156Y-106523040D01*
X124861158Y-106523040D01*
X125018844Y-106523040D01*
X125018845Y-106523039D01*
X125173497Y-106492277D01*
X125319179Y-106431934D01*
X125450289Y-106344329D01*
X125561789Y-106232829D01*
X125649394Y-106101719D01*
X125709737Y-105956037D01*
X125740500Y-105801382D01*
X125740500Y-105643698D01*
X125740500Y-105643695D01*
X125740499Y-105643693D01*
X125709737Y-105489043D01*
X125683985Y-105426872D01*
X125649397Y-105343367D01*
X125649390Y-105343354D01*
X125561789Y-105212251D01*
X125561786Y-105212247D01*
X125450292Y-105100753D01*
X125450288Y-105100750D01*
X125319185Y-105013149D01*
X125319175Y-105013144D01*
X125217047Y-104970841D01*
X125162644Y-104927000D01*
X125140579Y-104860706D01*
X125140500Y-104856280D01*
X125140500Y-96856004D01*
X125113581Y-96720677D01*
X125113580Y-96720676D01*
X125113580Y-96720672D01*
X125087828Y-96658501D01*
X125060777Y-96593192D01*
X124984112Y-96478454D01*
X124984111Y-96478453D01*
X124736071Y-96230414D01*
X124709191Y-96190185D01*
X124649397Y-96045827D01*
X124649390Y-96045814D01*
X124561789Y-95914711D01*
X124561786Y-95914707D01*
X124450292Y-95803213D01*
X124450288Y-95803210D01*
X124319185Y-95715609D01*
X124319172Y-95715602D01*
X124173501Y-95655264D01*
X124173489Y-95655261D01*
X124018845Y-95624500D01*
X124018842Y-95624500D01*
X123861158Y-95624500D01*
X123861155Y-95624500D01*
X123706510Y-95655261D01*
X123706498Y-95655264D01*
X123560827Y-95715602D01*
X123560814Y-95715609D01*
X123429711Y-95803210D01*
X123429707Y-95803213D01*
X123318213Y-95914707D01*
X123318210Y-95914711D01*
X123230609Y-96045814D01*
X123230602Y-96045827D01*
X123170264Y-96191498D01*
X123170261Y-96191510D01*
X123139500Y-96346153D01*
X111190500Y-96346153D01*
X111190500Y-91375441D01*
X114599500Y-91375441D01*
X114599500Y-91624558D01*
X114599501Y-91624575D01*
X114630748Y-91861924D01*
X114632018Y-91871565D01*
X114640305Y-91902491D01*
X114696498Y-92112207D01*
X114791830Y-92342361D01*
X114791837Y-92342376D01*
X114916400Y-92558126D01*
X115068060Y-92755774D01*
X115068066Y-92755781D01*
X115244218Y-92931933D01*
X115244225Y-92931939D01*
X115441873Y-93083599D01*
X115657623Y-93208162D01*
X115657638Y-93208169D01*
X115756825Y-93249253D01*
X115887793Y-93303502D01*
X116128435Y-93367982D01*
X116375435Y-93400500D01*
X116375442Y-93400500D01*
X116624558Y-93400500D01*
X116624565Y-93400500D01*
X116871565Y-93367982D01*
X117112207Y-93303502D01*
X117342373Y-93208164D01*
X117536383Y-93096153D01*
X118993639Y-93096153D01*
X118993639Y-93253846D01*
X119024400Y-93408489D01*
X119024403Y-93408501D01*
X119084741Y-93554172D01*
X119084748Y-93554185D01*
X119172349Y-93685288D01*
X119172352Y-93685292D01*
X119283846Y-93796786D01*
X119283850Y-93796789D01*
X119414953Y-93884390D01*
X119414966Y-93884397D01*
X119488152Y-93914711D01*
X119560642Y-93944737D01*
X119673304Y-93967147D01*
X119715292Y-93975499D01*
X119715295Y-93975500D01*
X119715297Y-93975500D01*
X119872983Y-93975500D01*
X119872984Y-93975499D01*
X120027636Y-93944737D01*
X120173318Y-93884394D01*
X120230183Y-93846397D01*
X120296860Y-93825520D01*
X120299074Y-93825500D01*
X125145832Y-93825500D01*
X125212871Y-93845185D01*
X125258626Y-93897989D01*
X125268570Y-93967147D01*
X125248933Y-94018392D01*
X125230610Y-94045812D01*
X125230602Y-94045827D01*
X125170264Y-94191498D01*
X125170261Y-94191510D01*
X125139500Y-94346153D01*
X125139500Y-94503846D01*
X125170261Y-94658489D01*
X125170264Y-94658501D01*
X125230602Y-94804172D01*
X125230609Y-94804185D01*
X125318210Y-94935288D01*
X125318213Y-94935292D01*
X125429707Y-95046786D01*
X125429711Y-95046789D01*
X125560814Y-95134390D01*
X125560827Y-95134397D01*
X125706498Y-95194735D01*
X125706503Y-95194737D01*
X125861153Y-95225499D01*
X125861156Y-95225500D01*
X125861158Y-95225500D01*
X126018844Y-95225500D01*
X126018845Y-95225499D01*
X126173497Y-95194737D01*
X126319179Y-95134394D01*
X126450289Y-95046789D01*
X126561789Y-94935289D01*
X126649394Y-94804179D01*
X126649395Y-94804176D01*
X126649397Y-94804173D01*
X126709192Y-94659812D01*
X126713824Y-94652879D01*
X126714921Y-94647837D01*
X126736069Y-94619586D01*
X126759502Y-94596153D01*
X153139500Y-94596153D01*
X153139500Y-94753846D01*
X153170261Y-94908489D01*
X153170264Y-94908501D01*
X153230602Y-95054172D01*
X153230606Y-95054179D01*
X153268602Y-95111044D01*
X153289480Y-95177721D01*
X153289500Y-95179935D01*
X153289500Y-110170064D01*
X153269815Y-110237103D01*
X153268603Y-110238954D01*
X153230608Y-110295817D01*
X153230602Y-110295828D01*
X153170264Y-110441498D01*
X153170261Y-110441510D01*
X153139500Y-110596153D01*
X153139500Y-110753846D01*
X153170261Y-110908489D01*
X153170264Y-110908501D01*
X153230602Y-111054172D01*
X153230609Y-111054185D01*
X153318210Y-111185288D01*
X153318213Y-111185292D01*
X153429707Y-111296786D01*
X153429711Y-111296789D01*
X153560814Y-111384390D01*
X153560827Y-111384397D01*
X153698683Y-111441498D01*
X153706503Y-111444737D01*
X153861153Y-111475499D01*
X153861156Y-111475500D01*
X153861158Y-111475500D01*
X154018844Y-111475500D01*
X154018845Y-111475499D01*
X154029179Y-111473443D01*
X154054287Y-111468450D01*
X154054292Y-111468449D01*
X154139800Y-111451439D01*
X154173497Y-111444737D01*
X154319179Y-111384394D01*
X154450289Y-111296789D01*
X154561789Y-111185289D01*
X154649394Y-111054179D01*
X154709737Y-110908497D01*
X154740500Y-110753842D01*
X154740500Y-110596158D01*
X154740500Y-110596155D01*
X154740499Y-110596153D01*
X154709738Y-110441510D01*
X154709737Y-110441503D01*
X154649394Y-110295821D01*
X154611396Y-110238953D01*
X154590520Y-110172276D01*
X154590500Y-110170064D01*
X154590500Y-108572757D01*
X154610185Y-108505718D01*
X154662989Y-108459963D01*
X154732147Y-108450019D01*
X154738692Y-108451140D01*
X154861155Y-108475500D01*
X154861158Y-108475500D01*
X155018844Y-108475500D01*
X155018845Y-108475499D01*
X155173497Y-108444737D01*
X155319179Y-108384394D01*
X155376044Y-108346397D01*
X155442721Y-108325520D01*
X155444935Y-108325500D01*
X162004071Y-108325500D01*
X162088615Y-108308682D01*
X162129744Y-108300501D01*
X162248127Y-108251465D01*
X162354669Y-108180277D01*
X163042931Y-107492013D01*
X163104252Y-107458530D01*
X163106317Y-107458099D01*
X163173497Y-107444737D01*
X163319179Y-107384394D01*
X163450289Y-107296789D01*
X163561789Y-107185289D01*
X163649394Y-107054179D01*
X163709737Y-106908497D01*
X163740500Y-106753842D01*
X163740500Y-106596158D01*
X163740500Y-106596155D01*
X163740499Y-106596153D01*
X163725956Y-106523040D01*
X163709737Y-106441503D01*
X163705775Y-106431937D01*
X163649397Y-106295827D01*
X163649390Y-106295814D01*
X163561789Y-106164711D01*
X163561786Y-106164707D01*
X163450292Y-106053213D01*
X163450288Y-106053210D01*
X163319185Y-105965609D01*
X163319172Y-105965602D01*
X163173501Y-105905264D01*
X163173489Y-105905261D01*
X163018845Y-105874500D01*
X163018842Y-105874500D01*
X162861158Y-105874500D01*
X162861155Y-105874500D01*
X162706510Y-105905261D01*
X162706498Y-105905264D01*
X162560827Y-105965602D01*
X162560814Y-105965609D01*
X162429711Y-106053210D01*
X162429707Y-106053213D01*
X162318213Y-106164707D01*
X162318210Y-106164711D01*
X162230609Y-106295814D01*
X162230602Y-106295827D01*
X162170264Y-106441498D01*
X162170261Y-106441508D01*
X162156920Y-106508579D01*
X162124535Y-106570490D01*
X162122984Y-106572068D01*
X161706873Y-106988181D01*
X161645550Y-107021666D01*
X161619192Y-107024500D01*
X155444935Y-107024500D01*
X155377896Y-107004815D01*
X155376090Y-107003633D01*
X155319179Y-106965606D01*
X155319172Y-106965602D01*
X155173501Y-106905264D01*
X155173489Y-106905261D01*
X155018845Y-106874500D01*
X155018842Y-106874500D01*
X154861158Y-106874500D01*
X154861153Y-106874500D01*
X154738691Y-106898859D01*
X154669099Y-106892632D01*
X154613922Y-106849768D01*
X154590678Y-106783879D01*
X154590500Y-106777242D01*
X154590500Y-95179935D01*
X154610185Y-95112896D01*
X154611366Y-95111090D01*
X154649394Y-95054179D01*
X154709737Y-94908497D01*
X154740500Y-94753842D01*
X154740500Y-94596158D01*
X154740500Y-94596155D01*
X154740499Y-94596153D01*
X154735606Y-94571553D01*
X154709737Y-94441503D01*
X154670242Y-94346153D01*
X154649397Y-94295827D01*
X154649390Y-94295814D01*
X154561789Y-94164711D01*
X154561786Y-94164707D01*
X154450292Y-94053213D01*
X154450288Y-94053210D01*
X154319185Y-93965609D01*
X154319172Y-93965602D01*
X154173501Y-93905264D01*
X154173489Y-93905261D01*
X154018845Y-93874500D01*
X154018842Y-93874500D01*
X153861158Y-93874500D01*
X153861155Y-93874500D01*
X153706510Y-93905261D01*
X153706498Y-93905264D01*
X153560827Y-93965602D01*
X153560814Y-93965609D01*
X153429711Y-94053210D01*
X153429707Y-94053213D01*
X153318213Y-94164707D01*
X153318210Y-94164711D01*
X153230609Y-94295814D01*
X153230602Y-94295827D01*
X153170264Y-94441498D01*
X153170261Y-94441510D01*
X153139500Y-94596153D01*
X126759502Y-94596153D01*
X133544114Y-87811543D01*
X133620775Y-87696811D01*
X133673580Y-87569328D01*
X133682389Y-87525040D01*
X133700500Y-87433996D01*
X133700500Y-87083843D01*
X152343676Y-87083843D01*
X152343676Y-87241536D01*
X152374437Y-87396179D01*
X152374440Y-87396191D01*
X152434778Y-87541862D01*
X152434785Y-87541875D01*
X152522386Y-87672978D01*
X152522389Y-87672982D01*
X152633883Y-87784476D01*
X152633887Y-87784479D01*
X152764990Y-87872080D01*
X152765003Y-87872087D01*
X152850125Y-87907345D01*
X152910679Y-87932427D01*
X153065329Y-87963189D01*
X153065332Y-87963190D01*
X153065334Y-87963190D01*
X153223020Y-87963190D01*
X153223021Y-87963189D01*
X153377673Y-87932427D01*
X153523355Y-87872084D01*
X153544788Y-87857762D01*
X153611464Y-87836884D01*
X153678844Y-87855367D01*
X153725536Y-87907345D01*
X153736714Y-87976314D01*
X153728243Y-88008312D01*
X153725456Y-88015040D01*
X153725453Y-88015051D01*
X153694500Y-88170660D01*
X153694500Y-88329339D01*
X153725453Y-88484948D01*
X153725455Y-88484956D01*
X153786174Y-88631544D01*
X153786175Y-88631546D01*
X153786176Y-88631547D01*
X153828602Y-88695042D01*
X153849480Y-88761718D01*
X153849500Y-88763932D01*
X153849500Y-89814071D01*
X153869855Y-89916398D01*
X153869855Y-89916399D01*
X153874497Y-89939737D01*
X153874498Y-89939741D01*
X153874499Y-89939744D01*
X153923535Y-90058127D01*
X153930176Y-90068066D01*
X153994726Y-90164673D01*
X153994727Y-90164674D01*
X158116619Y-94286565D01*
X158150104Y-94347888D01*
X158150555Y-94350054D01*
X158165453Y-94424950D01*
X158165454Y-94424954D01*
X158226174Y-94571543D01*
X158226179Y-94571553D01*
X158314327Y-94703475D01*
X158314330Y-94703479D01*
X158426520Y-94815669D01*
X158426524Y-94815672D01*
X158558446Y-94903820D01*
X158558450Y-94903822D01*
X158558453Y-94903824D01*
X158705044Y-94964545D01*
X158838339Y-94991059D01*
X158860660Y-94995499D01*
X158860663Y-94995500D01*
X158860665Y-94995500D01*
X159019337Y-94995500D01*
X159019338Y-94995499D01*
X159174956Y-94964545D01*
X159321547Y-94903824D01*
X159453476Y-94815672D01*
X159565672Y-94703476D01*
X159653824Y-94571547D01*
X159714545Y-94424956D01*
X159745500Y-94269335D01*
X159745500Y-94110665D01*
X159745500Y-94110662D01*
X159745499Y-94110660D01*
X159714545Y-93955044D01*
X159653824Y-93808453D01*
X159653822Y-93808450D01*
X159653820Y-93808446D01*
X159565672Y-93676524D01*
X159565669Y-93676520D01*
X159453479Y-93564330D01*
X159453475Y-93564327D01*
X159321553Y-93476179D01*
X159321543Y-93476174D01*
X159174954Y-93415454D01*
X159174950Y-93415453D01*
X159100054Y-93400555D01*
X159038143Y-93368170D01*
X159036565Y-93366619D01*
X155186819Y-89516873D01*
X155153334Y-89455550D01*
X155150500Y-89429192D01*
X155150500Y-88763932D01*
X155170185Y-88696893D01*
X155171366Y-88695089D01*
X155213824Y-88631547D01*
X155274545Y-88484956D01*
X155305500Y-88329335D01*
X155305500Y-88170665D01*
X155305500Y-88170662D01*
X155305499Y-88170660D01*
X155274546Y-88015051D01*
X155274545Y-88015044D01*
X155261951Y-87984641D01*
X155254483Y-87915174D01*
X155285757Y-87852695D01*
X155345846Y-87817042D01*
X155376513Y-87813190D01*
X162836882Y-87813190D01*
X162903921Y-87832875D01*
X162924563Y-87849509D01*
X165337372Y-90262318D01*
X165370857Y-90323641D01*
X165365873Y-90393333D01*
X165337372Y-90437680D01*
X164283727Y-91491325D01*
X164283721Y-91491332D01*
X164235121Y-91564068D01*
X164235122Y-91564069D01*
X164212534Y-91597874D01*
X164163499Y-91716255D01*
X164163497Y-91716261D01*
X164138500Y-91841928D01*
X164138500Y-95588066D01*
X164138904Y-95592171D01*
X164139500Y-95604318D01*
X164139500Y-95753846D01*
X164170261Y-95908489D01*
X164170264Y-95908501D01*
X164230602Y-96054172D01*
X164230609Y-96054185D01*
X164318210Y-96185288D01*
X164318213Y-96185292D01*
X164429707Y-96296786D01*
X164429711Y-96296789D01*
X164560814Y-96384390D01*
X164560827Y-96384397D01*
X164706498Y-96444735D01*
X164706503Y-96444737D01*
X164861153Y-96475499D01*
X164861156Y-96475500D01*
X164861158Y-96475500D01*
X165018844Y-96475500D01*
X165018845Y-96475499D01*
X165173497Y-96444737D01*
X165319179Y-96384394D01*
X165450289Y-96296789D01*
X165561789Y-96185289D01*
X165649394Y-96054179D01*
X165652854Y-96045827D01*
X165707163Y-95914711D01*
X165709737Y-95908497D01*
X165740500Y-95753842D01*
X165740500Y-95596158D01*
X165740500Y-95596155D01*
X165740499Y-95596153D01*
X165709738Y-95441510D01*
X165709737Y-95441503D01*
X165709735Y-95441498D01*
X165649397Y-95295827D01*
X165649390Y-95295814D01*
X165561789Y-95164711D01*
X165561786Y-95164707D01*
X165475819Y-95078740D01*
X165442334Y-95017417D01*
X165439500Y-94991059D01*
X165439500Y-94192858D01*
X165459185Y-94125819D01*
X165511989Y-94080064D01*
X165581147Y-94070120D01*
X165644703Y-94099145D01*
X165657788Y-94112324D01*
X165659896Y-94114792D01*
X165810213Y-94265109D01*
X165982179Y-94390048D01*
X165982181Y-94390049D01*
X165982184Y-94390051D01*
X166171588Y-94486557D01*
X166373757Y-94552246D01*
X166583713Y-94585500D01*
X166583714Y-94585500D01*
X166796286Y-94585500D01*
X166796287Y-94585500D01*
X167006243Y-94552246D01*
X167208412Y-94486557D01*
X167397816Y-94390051D01*
X167503644Y-94313163D01*
X167569786Y-94265109D01*
X167569788Y-94265106D01*
X167569792Y-94265104D01*
X167720104Y-94114792D01*
X167720106Y-94114788D01*
X167720109Y-94114786D01*
X167845048Y-93942820D01*
X167845047Y-93942820D01*
X167845051Y-93942816D01*
X167941557Y-93753412D01*
X168007246Y-93551243D01*
X168040500Y-93341287D01*
X168040500Y-93128713D01*
X168007246Y-92918757D01*
X167941557Y-92716588D01*
X167845051Y-92527184D01*
X167845049Y-92527181D01*
X167845048Y-92527179D01*
X167720109Y-92355213D01*
X167569786Y-92204890D01*
X167397820Y-92079951D01*
X167397115Y-92079591D01*
X167389054Y-92075485D01*
X167338259Y-92027512D01*
X167321463Y-91959692D01*
X167343999Y-91893556D01*
X167389054Y-91854515D01*
X167397816Y-91850051D01*
X167459825Y-91804999D01*
X167569786Y-91725109D01*
X167569788Y-91725106D01*
X167569792Y-91725104D01*
X167720104Y-91574792D01*
X167720106Y-91574788D01*
X167720109Y-91574786D01*
X167845048Y-91402820D01*
X167845047Y-91402820D01*
X167845051Y-91402816D01*
X167941557Y-91213412D01*
X168007246Y-91011243D01*
X168040500Y-90801287D01*
X168040500Y-90588713D01*
X168007246Y-90378757D01*
X167941557Y-90176588D01*
X167845051Y-89987184D01*
X167845049Y-89987181D01*
X167845048Y-89987179D01*
X167720109Y-89815213D01*
X167569786Y-89664890D01*
X167397820Y-89539951D01*
X167397115Y-89539591D01*
X167389054Y-89535485D01*
X167338259Y-89487512D01*
X167321463Y-89419692D01*
X167343999Y-89353556D01*
X167389054Y-89314515D01*
X167397816Y-89310051D01*
X167419789Y-89294086D01*
X167569786Y-89185109D01*
X167569788Y-89185106D01*
X167569792Y-89185104D01*
X167720104Y-89034792D01*
X167720106Y-89034788D01*
X167720109Y-89034786D01*
X167845048Y-88862820D01*
X167845047Y-88862820D01*
X167845051Y-88862816D01*
X167941557Y-88673412D01*
X168007246Y-88471243D01*
X168040500Y-88261287D01*
X168040500Y-88048713D01*
X168007246Y-87838757D01*
X167941557Y-87636588D01*
X167845051Y-87447184D01*
X167845049Y-87447181D01*
X167845048Y-87447179D01*
X167720109Y-87275213D01*
X167606181Y-87161285D01*
X167572696Y-87099962D01*
X167577680Y-87030270D01*
X167619552Y-86974337D01*
X167650529Y-86957422D01*
X167782086Y-86908354D01*
X167782093Y-86908350D01*
X167897187Y-86822190D01*
X167897190Y-86822187D01*
X167983350Y-86707093D01*
X167983354Y-86707086D01*
X168033596Y-86572379D01*
X168033598Y-86572372D01*
X168039999Y-86512844D01*
X168040000Y-86512827D01*
X168040000Y-85865000D01*
X167123012Y-85865000D01*
X167155925Y-85807993D01*
X167190000Y-85680826D01*
X167190000Y-85549174D01*
X167155925Y-85422007D01*
X167123012Y-85365000D01*
X168040000Y-85365000D01*
X168040000Y-84717172D01*
X168039999Y-84717155D01*
X168033598Y-84657627D01*
X168033596Y-84657620D01*
X167983354Y-84522913D01*
X167983350Y-84522906D01*
X167897190Y-84407812D01*
X167897187Y-84407809D01*
X167782093Y-84321649D01*
X167782086Y-84321645D01*
X167647379Y-84271403D01*
X167647372Y-84271401D01*
X167587844Y-84265000D01*
X166940000Y-84265000D01*
X166940000Y-85181988D01*
X166882993Y-85149075D01*
X166755826Y-85115000D01*
X166624174Y-85115000D01*
X166497007Y-85149075D01*
X166440000Y-85181988D01*
X166440000Y-84265000D01*
X165792155Y-84265000D01*
X165732627Y-84271401D01*
X165732620Y-84271403D01*
X165597913Y-84321645D01*
X165597906Y-84321649D01*
X165482812Y-84407809D01*
X165482809Y-84407812D01*
X165396649Y-84522906D01*
X165396645Y-84522913D01*
X165346403Y-84657620D01*
X165346401Y-84657627D01*
X165340000Y-84717155D01*
X165340000Y-85365000D01*
X166256988Y-85365000D01*
X166224075Y-85422007D01*
X166190000Y-85549174D01*
X166190000Y-85680826D01*
X166224075Y-85807993D01*
X166256988Y-85865000D01*
X165340000Y-85865000D01*
X165340000Y-86512844D01*
X165346401Y-86572372D01*
X165346403Y-86572379D01*
X165396645Y-86707086D01*
X165396649Y-86707093D01*
X165482809Y-86822187D01*
X165482812Y-86822190D01*
X165597906Y-86908350D01*
X165597913Y-86908354D01*
X165729470Y-86957422D01*
X165785404Y-86999293D01*
X165809821Y-87064758D01*
X165794969Y-87133031D01*
X165773819Y-87161285D01*
X165659889Y-87275215D01*
X165534951Y-87447179D01*
X165438444Y-87636585D01*
X165372753Y-87838760D01*
X165339500Y-88048713D01*
X165339500Y-88125191D01*
X165319815Y-88192230D01*
X165267011Y-88237985D01*
X165197853Y-88247929D01*
X165134297Y-88218904D01*
X165127819Y-88212872D01*
X163572363Y-86657416D01*
X163572359Y-86657413D01*
X163465817Y-86586225D01*
X163347434Y-86537189D01*
X163347428Y-86537187D01*
X163221761Y-86512190D01*
X163221759Y-86512190D01*
X153649111Y-86512190D01*
X153582072Y-86492505D01*
X153580266Y-86491323D01*
X153523355Y-86453296D01*
X153523348Y-86453292D01*
X153377677Y-86392954D01*
X153377665Y-86392951D01*
X153223021Y-86362190D01*
X153223018Y-86362190D01*
X153065334Y-86362190D01*
X153065331Y-86362190D01*
X152910686Y-86392951D01*
X152910674Y-86392954D01*
X152765003Y-86453292D01*
X152764990Y-86453299D01*
X152633887Y-86540900D01*
X152633883Y-86540903D01*
X152522389Y-86652397D01*
X152522386Y-86652401D01*
X152434785Y-86783504D01*
X152434778Y-86783517D01*
X152374440Y-86929188D01*
X152374437Y-86929200D01*
X152343676Y-87083843D01*
X133700500Y-87083843D01*
X133700500Y-85035316D01*
X133709939Y-84987864D01*
X133738478Y-84918963D01*
X133769737Y-84843497D01*
X133778124Y-84801331D01*
X133800338Y-84689659D01*
X133800338Y-84689658D01*
X133800499Y-84688846D01*
X133800500Y-84688844D01*
X133800500Y-84531155D01*
X133800499Y-84531153D01*
X133798859Y-84522906D01*
X133769737Y-84376503D01*
X133747014Y-84321645D01*
X133709397Y-84230827D01*
X133709390Y-84230814D01*
X133621789Y-84099711D01*
X133621786Y-84099707D01*
X133510292Y-83988213D01*
X133510288Y-83988210D01*
X133379185Y-83900609D01*
X133379172Y-83900602D01*
X133233501Y-83840264D01*
X133233489Y-83840261D01*
X133078845Y-83809500D01*
X133078842Y-83809500D01*
X132921158Y-83809500D01*
X132921155Y-83809500D01*
X132766510Y-83840261D01*
X132766498Y-83840264D01*
X132620827Y-83900602D01*
X132620814Y-83900609D01*
X132489711Y-83988210D01*
X132489707Y-83988213D01*
X132378213Y-84099707D01*
X132378210Y-84099711D01*
X132290609Y-84230814D01*
X132290602Y-84230827D01*
X132230264Y-84376498D01*
X132230261Y-84376510D01*
X132199500Y-84531153D01*
X132199500Y-84688846D01*
X132230261Y-84843489D01*
X132230264Y-84843501D01*
X132290061Y-84987864D01*
X132291687Y-84996040D01*
X132294477Y-85000381D01*
X132299500Y-85035316D01*
X132299500Y-85092297D01*
X132279815Y-85159336D01*
X132227011Y-85205091D01*
X132157853Y-85215035D01*
X132151309Y-85213914D01*
X132078845Y-85199500D01*
X132078842Y-85199500D01*
X131921158Y-85199500D01*
X131921155Y-85199500D01*
X131766510Y-85230261D01*
X131766498Y-85230264D01*
X131620827Y-85290602D01*
X131620820Y-85290606D01*
X131591928Y-85309911D01*
X131563955Y-85328602D01*
X131497279Y-85349480D01*
X131495065Y-85349500D01*
X131435929Y-85349500D01*
X131310261Y-85374497D01*
X131310251Y-85374500D01*
X131261220Y-85394810D01*
X131191881Y-85423530D01*
X131191863Y-85423540D01*
X131085332Y-85494721D01*
X131085325Y-85494727D01*
X125897068Y-90682984D01*
X125835745Y-90716469D01*
X125833579Y-90716920D01*
X125766508Y-90730261D01*
X125766498Y-90730264D01*
X125620827Y-90790602D01*
X125620814Y-90790609D01*
X125489711Y-90878210D01*
X125489707Y-90878213D01*
X125378213Y-90989707D01*
X125378210Y-90989711D01*
X125290609Y-91120814D01*
X125290602Y-91120827D01*
X125230264Y-91266498D01*
X125230261Y-91266510D01*
X125199500Y-91421153D01*
X125199500Y-91578846D01*
X125230261Y-91733489D01*
X125230264Y-91733501D01*
X125290602Y-91879172D01*
X125290609Y-91879185D01*
X125378210Y-92010288D01*
X125378213Y-92010292D01*
X125489707Y-92121786D01*
X125489711Y-92121789D01*
X125556665Y-92166527D01*
X125601470Y-92220139D01*
X125610177Y-92289464D01*
X125580022Y-92352492D01*
X125520579Y-92389211D01*
X125511966Y-92391246D01*
X125441508Y-92405261D01*
X125441498Y-92405264D01*
X125295827Y-92465602D01*
X125295820Y-92465606D01*
X125266928Y-92484911D01*
X125238955Y-92503602D01*
X125172279Y-92524480D01*
X125170065Y-92524500D01*
X120299074Y-92524500D01*
X120232035Y-92504815D01*
X120230229Y-92503633D01*
X120173318Y-92465606D01*
X120173311Y-92465602D01*
X120027640Y-92405264D01*
X120027628Y-92405261D01*
X119872984Y-92374500D01*
X119872981Y-92374500D01*
X119715297Y-92374500D01*
X119715294Y-92374500D01*
X119560649Y-92405261D01*
X119560637Y-92405264D01*
X119414966Y-92465602D01*
X119414953Y-92465609D01*
X119283850Y-92553210D01*
X119283846Y-92553213D01*
X119172352Y-92664707D01*
X119172349Y-92664711D01*
X119084748Y-92795814D01*
X119084741Y-92795827D01*
X119024403Y-92941498D01*
X119024400Y-92941510D01*
X118993639Y-93096153D01*
X117536383Y-93096153D01*
X117558127Y-93083599D01*
X117636212Y-93023682D01*
X117677906Y-92991690D01*
X117743301Y-92941510D01*
X117755776Y-92931938D01*
X117931938Y-92755776D01*
X118083599Y-92558127D01*
X118208164Y-92342373D01*
X118303502Y-92112207D01*
X118367982Y-91871565D01*
X118400500Y-91624565D01*
X118400500Y-91375435D01*
X118367982Y-91128435D01*
X118303502Y-90887793D01*
X118232537Y-90716469D01*
X118208169Y-90657638D01*
X118208162Y-90657623D01*
X118083599Y-90441873D01*
X117931939Y-90244225D01*
X117931933Y-90244218D01*
X117755781Y-90068066D01*
X117755774Y-90068060D01*
X117558126Y-89916400D01*
X117342376Y-89791837D01*
X117342361Y-89791830D01*
X117112207Y-89696498D01*
X116871561Y-89632017D01*
X116624575Y-89599501D01*
X116624570Y-89599500D01*
X116624565Y-89599500D01*
X116375435Y-89599500D01*
X116375429Y-89599500D01*
X116375424Y-89599501D01*
X116128438Y-89632017D01*
X115887792Y-89696498D01*
X115657638Y-89791830D01*
X115657623Y-89791837D01*
X115441873Y-89916400D01*
X115244225Y-90068060D01*
X115244218Y-90068066D01*
X115068066Y-90244218D01*
X115068060Y-90244225D01*
X114916400Y-90441873D01*
X114791837Y-90657623D01*
X114791830Y-90657638D01*
X114696498Y-90887792D01*
X114632017Y-91128438D01*
X114599501Y-91375424D01*
X114599500Y-91375441D01*
X111190500Y-91375441D01*
X111190500Y-85300014D01*
X114600000Y-85300014D01*
X114600000Y-86250000D01*
X115899999Y-86250000D01*
X115874979Y-86310402D01*
X115850000Y-86435981D01*
X115850000Y-86564019D01*
X115874979Y-86689598D01*
X115899999Y-86750000D01*
X114600000Y-86750000D01*
X114600000Y-87699985D01*
X114610493Y-87802689D01*
X114610494Y-87802696D01*
X114665641Y-87969118D01*
X114665643Y-87969123D01*
X114757684Y-88118344D01*
X114881655Y-88242315D01*
X115030876Y-88334356D01*
X115030881Y-88334358D01*
X115197303Y-88389505D01*
X115197310Y-88389506D01*
X115300014Y-88399999D01*
X115300027Y-88400000D01*
X116250000Y-88400000D01*
X116250000Y-87100001D01*
X116310402Y-87125021D01*
X116435981Y-87150000D01*
X116564019Y-87150000D01*
X116689598Y-87125021D01*
X116750000Y-87100001D01*
X116750000Y-88400000D01*
X117699973Y-88400000D01*
X117699985Y-88399999D01*
X117802689Y-88389506D01*
X117802696Y-88389505D01*
X117969118Y-88334358D01*
X117969123Y-88334356D01*
X118118344Y-88242315D01*
X118242315Y-88118344D01*
X118334356Y-87969123D01*
X118334358Y-87969118D01*
X118389505Y-87802696D01*
X118389506Y-87802689D01*
X118399999Y-87699985D01*
X118400000Y-87699972D01*
X118400000Y-86750000D01*
X117100001Y-86750000D01*
X117125021Y-86689598D01*
X117150000Y-86564019D01*
X117150000Y-86435981D01*
X117125021Y-86310402D01*
X117100001Y-86250000D01*
X118400000Y-86250000D01*
X118400000Y-85300027D01*
X118399999Y-85300014D01*
X118389506Y-85197310D01*
X118389505Y-85197303D01*
X118334358Y-85030881D01*
X118334356Y-85030876D01*
X118242315Y-84881655D01*
X118118344Y-84757684D01*
X117969123Y-84665643D01*
X117969118Y-84665641D01*
X117802696Y-84610494D01*
X117802689Y-84610493D01*
X117699985Y-84600000D01*
X116750000Y-84600000D01*
X116750000Y-85899998D01*
X116689598Y-85874979D01*
X116564019Y-85850000D01*
X116435981Y-85850000D01*
X116310402Y-85874979D01*
X116250000Y-85899998D01*
X116250000Y-84600000D01*
X115300014Y-84600000D01*
X115197310Y-84610493D01*
X115197303Y-84610494D01*
X115030881Y-84665641D01*
X115030876Y-84665643D01*
X114881655Y-84757684D01*
X114757684Y-84881655D01*
X114665643Y-85030876D01*
X114665641Y-85030881D01*
X114610494Y-85197303D01*
X114610493Y-85197310D01*
X114600000Y-85300014D01*
X111190500Y-85300014D01*
X111190500Y-79053456D01*
X113335500Y-79053456D01*
X113335500Y-79296543D01*
X113335501Y-79296559D01*
X113367230Y-79537569D01*
X113430149Y-79772386D01*
X113523175Y-79996972D01*
X113523182Y-79996987D01*
X113644730Y-80207516D01*
X113792722Y-80400380D01*
X113792730Y-80400389D01*
X113964611Y-80572270D01*
X113964619Y-80572277D01*
X114157483Y-80720269D01*
X114368012Y-80841817D01*
X114368027Y-80841824D01*
X114484171Y-80889932D01*
X114592612Y-80934850D01*
X114827429Y-80997769D01*
X115068450Y-81029500D01*
X115068457Y-81029500D01*
X115311543Y-81029500D01*
X115311550Y-81029500D01*
X115552571Y-80997769D01*
X115787388Y-80934850D01*
X116011984Y-80841819D01*
X116222516Y-80720269D01*
X116415380Y-80572278D01*
X116415384Y-80572273D01*
X116415389Y-80572270D01*
X116587270Y-80400389D01*
X116587273Y-80400384D01*
X116587278Y-80400380D01*
X116735269Y-80207516D01*
X116856819Y-79996984D01*
X116949850Y-79772388D01*
X117012769Y-79537571D01*
X117044500Y-79296550D01*
X117044500Y-79053450D01*
X117012769Y-78812429D01*
X116949850Y-78577612D01*
X116856819Y-78353016D01*
X116856817Y-78353012D01*
X116735269Y-78142483D01*
X116587277Y-77949619D01*
X116587270Y-77949611D01*
X116415389Y-77777730D01*
X116415380Y-77777722D01*
X116222516Y-77629730D01*
X116011987Y-77508182D01*
X116011972Y-77508175D01*
X115787386Y-77415149D01*
X115552569Y-77352230D01*
X115311559Y-77320501D01*
X115311556Y-77320500D01*
X115311550Y-77320500D01*
X115068450Y-77320500D01*
X115068444Y-77320500D01*
X115068440Y-77320501D01*
X114827430Y-77352230D01*
X114592613Y-77415149D01*
X114368027Y-77508175D01*
X114368012Y-77508182D01*
X114157483Y-77629730D01*
X113964619Y-77777722D01*
X113792722Y-77949619D01*
X113644730Y-78142483D01*
X113523182Y-78353012D01*
X113523175Y-78353027D01*
X113430149Y-78577613D01*
X113367230Y-78812430D01*
X113335501Y-79053440D01*
X113335500Y-79053456D01*
X111190500Y-79053456D01*
X111190500Y-75299500D01*
X111210185Y-75232461D01*
X111262989Y-75186706D01*
X111314500Y-75175500D01*
X118316000Y-75175500D01*
X118383039Y-75195185D01*
G37*
%TD.AperFunction*%
%TD*%
M02*
