%TF.GenerationSoftware,KiCad,Pcbnew,9.0.5*%
%TF.CreationDate,2025-11-10T22:11:02+01:00*%
%TF.ProjectId,BuckPCB,4275636b-5043-4422-9e6b-696361645f70,rev?*%
%TF.SameCoordinates,Original*%
%TF.FileFunction,Soldermask,Bot*%
%TF.FilePolarity,Negative*%
%FSLAX46Y46*%
G04 Gerber Fmt 4.6, Leading zero omitted, Abs format (unit mm)*
G04 Created by KiCad (PCBNEW 9.0.5) date 2025-11-10 22:11:02*
%MOMM*%
%LPD*%
G01*
G04 APERTURE LIST*
G04 Aperture macros list*
%AMRoundRect*
0 Rectangle with rounded corners*
0 $1 Rounding radius*
0 $2 $3 $4 $5 $6 $7 $8 $9 X,Y pos of 4 corners*
0 Add a 4 corners polygon primitive as box body*
4,1,4,$2,$3,$4,$5,$6,$7,$8,$9,$2,$3,0*
0 Add four circle primitives for the rounded corners*
1,1,$1+$1,$2,$3*
1,1,$1+$1,$4,$5*
1,1,$1+$1,$6,$7*
1,1,$1+$1,$8,$9*
0 Add four rect primitives between the rounded corners*
20,1,$1+$1,$2,$3,$4,$5,0*
20,1,$1+$1,$4,$5,$6,$7,0*
20,1,$1+$1,$6,$7,$8,$9,0*
20,1,$1+$1,$8,$9,$2,$3,0*%
%AMFreePoly0*
4,1,6,1.000000,0.000000,0.500000,-0.750000,-0.500000,-0.750000,-0.500000,0.750000,0.500000,0.750000,1.000000,0.000000,1.000000,0.000000,$1*%
%AMFreePoly1*
4,1,6,0.500000,-0.750000,-0.650000,-0.750000,-0.150000,0.000000,-0.650000,0.750000,0.500000,0.750000,0.500000,-0.750000,0.500000,-0.750000,$1*%
G04 Aperture macros list end*
%ADD10R,1.905000X2.000000*%
%ADD11O,1.905000X2.000000*%
%ADD12C,3.200000*%
%ADD13RoundRect,0.250001X-1.149999X1.149999X-1.149999X-1.149999X1.149999X-1.149999X1.149999X1.149999X0*%
%ADD14C,2.800000*%
%ADD15RoundRect,0.250000X-2.000000X-1.400000X2.000000X-1.400000X2.000000X1.400000X-2.000000X1.400000X0*%
%ADD16RoundRect,0.250000X2.000000X1.400000X-2.000000X1.400000X-2.000000X-1.400000X2.000000X-1.400000X0*%
%ADD17RoundRect,0.250001X1.149999X1.149999X-1.149999X1.149999X-1.149999X-1.149999X1.149999X-1.149999X0*%
%ADD18R,1.700000X1.700000*%
%ADD19C,1.700000*%
%ADD20RoundRect,0.250000X1.400000X-2.000000X1.400000X2.000000X-1.400000X2.000000X-1.400000X-2.000000X0*%
%ADD21RoundRect,0.250000X-1.400000X2.000000X-1.400000X-2.000000X1.400000X-2.000000X1.400000X2.000000X0*%
%ADD22C,2.500000*%
%ADD23FreePoly0,0.000000*%
%ADD24FreePoly1,0.000000*%
G04 APERTURE END LIST*
%TO.C,JP5*%
G36*
X123743000Y-147053800D02*
G01*
X126193000Y-147053800D01*
X126193000Y-145553800D01*
X123743000Y-145553800D01*
X123743000Y-147053800D01*
G37*
G36*
X123743000Y-148653800D02*
G01*
X126193000Y-148653800D01*
X126193000Y-147153800D01*
X123743000Y-147153800D01*
X123743000Y-148653800D01*
G37*
G36*
X123743000Y-150303800D02*
G01*
X126193000Y-150303800D01*
X126193000Y-148803800D01*
X123743000Y-148803800D01*
X123743000Y-150303800D01*
G37*
%TO.C,JP6*%
G36*
X123743000Y-141262600D02*
G01*
X126193000Y-141262600D01*
X126193000Y-139762600D01*
X123743000Y-139762600D01*
X123743000Y-141262600D01*
G37*
G36*
X123743000Y-142862600D02*
G01*
X126193000Y-142862600D01*
X126193000Y-141362600D01*
X123743000Y-141362600D01*
X123743000Y-142862600D01*
G37*
G36*
X123743000Y-144512600D02*
G01*
X126193000Y-144512600D01*
X126193000Y-143012600D01*
X123743000Y-143012600D01*
X123743000Y-144512600D01*
G37*
%TD*%
D10*
%TO.C,Q1*%
X166220000Y-98845900D03*
D11*
X168760000Y-98845900D03*
X171300000Y-98845900D03*
%TD*%
D12*
%TO.C,H4*%
X120900000Y-148100000D03*
%TD*%
D10*
%TO.C,Q3*%
X166620000Y-125900000D03*
D11*
X169160000Y-125900000D03*
X171700000Y-125900000D03*
%TD*%
D13*
%TO.C,Vbuck2*%
X190282500Y-135582500D03*
D14*
X190282500Y-140582500D03*
%TD*%
D15*
%TO.C,D10*%
X165000000Y-139200000D03*
D16*
X173800000Y-139200000D03*
%TD*%
D15*
%TO.C,D9*%
X165600000Y-113800000D03*
D16*
X174400000Y-113800000D03*
%TD*%
D17*
%TO.C,POWER_IN1*%
X142050000Y-146332500D03*
D14*
X137050000Y-146332500D03*
%TD*%
D15*
%TO.C,D11*%
X129500000Y-105900000D03*
D16*
X138300000Y-105900000D03*
%TD*%
D12*
%TO.C,H2*%
X193500000Y-64800000D03*
%TD*%
D10*
%TO.C,Q2*%
X166600000Y-120500000D03*
D11*
X169140000Y-120500000D03*
X171680000Y-120500000D03*
%TD*%
D18*
%TO.C,Program_header1*%
X194300000Y-69760000D03*
D19*
X194300000Y-72300000D03*
X194300000Y-74840000D03*
X194300000Y-77380000D03*
%TD*%
D13*
%TO.C,Vbuck1*%
X190502400Y-110473700D03*
D14*
X190502400Y-115473700D03*
%TD*%
D20*
%TO.C,D15*%
X130000000Y-145700000D03*
D21*
X130000000Y-136900000D03*
%TD*%
D22*
%TO.C,L2*%
X170156000Y-106126500D03*
X179556000Y-106126500D03*
%TD*%
D12*
%TO.C,H3*%
X193500000Y-148100000D03*
%TD*%
D15*
%TO.C,D1*%
X129103200Y-78770000D03*
D16*
X137903200Y-78770000D03*
%TD*%
D17*
%TO.C,POWER_IN2*%
X153691600Y-146354800D03*
D14*
X148691600Y-146354800D03*
%TD*%
D12*
%TO.C,H1*%
X121000000Y-64900000D03*
%TD*%
D18*
%TO.C,Mainboardconnect1*%
X194000000Y-81810000D03*
D19*
X194000000Y-84350000D03*
X194000000Y-86890000D03*
X194000000Y-89430000D03*
X194000000Y-91970000D03*
X194000000Y-94510000D03*
X194000000Y-97050000D03*
X194000000Y-99590000D03*
%TD*%
D22*
%TO.C,L3*%
X169550000Y-131832500D03*
X178950000Y-131832500D03*
%TD*%
D10*
%TO.C,Q4*%
X165460000Y-145895000D03*
D11*
X168000000Y-145895000D03*
X170540000Y-145895000D03*
%TD*%
D23*
%TO.C,JP5*%
X124243000Y-146303800D03*
X124243000Y-147903800D03*
X124243000Y-149553800D03*
D24*
X125693000Y-146303800D03*
X125693000Y-147903800D03*
X125693000Y-149553800D03*
%TD*%
D23*
%TO.C,JP6*%
X124243000Y-140512600D03*
X124243000Y-142112600D03*
X124243000Y-143762600D03*
D24*
X125693000Y-140512600D03*
X125693000Y-142112600D03*
X125693000Y-143762600D03*
%TD*%
M02*
