%TF.GenerationSoftware,KiCad,Pcbnew,9.0.5*%
%TF.CreationDate,2025-11-12T17:54:21+01:00*%
%TF.ProjectId,BuckPCB,4275636b-5043-4422-9e6b-696361645f70,rev?*%
%TF.SameCoordinates,Original*%
%TF.FileFunction,Copper,L2,Bot*%
%TF.FilePolarity,Positive*%
%FSLAX46Y46*%
G04 Gerber Fmt 4.6, Leading zero omitted, Abs format (unit mm)*
G04 Created by KiCad (PCBNEW 9.0.5) date 2025-11-12 17:54:21*
%MOMM*%
%LPD*%
G01*
G04 APERTURE LIST*
G04 Aperture macros list*
%AMRoundRect*
0 Rectangle with rounded corners*
0 $1 Rounding radius*
0 $2 $3 $4 $5 $6 $7 $8 $9 X,Y pos of 4 corners*
0 Add a 4 corners polygon primitive as box body*
4,1,4,$2,$3,$4,$5,$6,$7,$8,$9,$2,$3,0*
0 Add four circle primitives for the rounded corners*
1,1,$1+$1,$2,$3*
1,1,$1+$1,$4,$5*
1,1,$1+$1,$6,$7*
1,1,$1+$1,$8,$9*
0 Add four rect primitives between the rounded corners*
20,1,$1+$1,$2,$3,$4,$5,0*
20,1,$1+$1,$4,$5,$6,$7,0*
20,1,$1+$1,$6,$7,$8,$9,0*
20,1,$1+$1,$8,$9,$2,$3,0*%
%AMFreePoly0*
4,1,6,1.000000,0.000000,0.500000,-0.750000,-0.500000,-0.750000,-0.500000,0.750000,0.500000,0.750000,1.000000,0.000000,1.000000,0.000000,$1*%
%AMFreePoly1*
4,1,6,0.500000,-0.750000,-0.650000,-0.750000,-0.150000,0.000000,-0.650000,0.750000,0.500000,0.750000,0.500000,-0.750000,0.500000,-0.750000,$1*%
G04 Aperture macros list end*
%TA.AperFunction,ComponentPad*%
%ADD10R,1.905000X2.000000*%
%TD*%
%TA.AperFunction,ComponentPad*%
%ADD11O,1.905000X2.000000*%
%TD*%
%TA.AperFunction,ComponentPad*%
%ADD12RoundRect,0.250001X-1.149999X1.149999X-1.149999X-1.149999X1.149999X-1.149999X1.149999X1.149999X0*%
%TD*%
%TA.AperFunction,ComponentPad*%
%ADD13C,2.800000*%
%TD*%
%TA.AperFunction,ComponentPad*%
%ADD14RoundRect,0.250000X-2.000000X-1.400000X2.000000X-1.400000X2.000000X1.400000X-2.000000X1.400000X0*%
%TD*%
%TA.AperFunction,ComponentPad*%
%ADD15RoundRect,0.250000X2.000000X1.400000X-2.000000X1.400000X-2.000000X-1.400000X2.000000X-1.400000X0*%
%TD*%
%TA.AperFunction,ComponentPad*%
%ADD16RoundRect,0.250001X1.149999X1.149999X-1.149999X1.149999X-1.149999X-1.149999X1.149999X-1.149999X0*%
%TD*%
%TA.AperFunction,ComponentPad*%
%ADD17R,1.700000X1.700000*%
%TD*%
%TA.AperFunction,ComponentPad*%
%ADD18C,1.700000*%
%TD*%
%TA.AperFunction,ComponentPad*%
%ADD19RoundRect,0.250000X1.400000X-2.000000X1.400000X2.000000X-1.400000X2.000000X-1.400000X-2.000000X0*%
%TD*%
%TA.AperFunction,ComponentPad*%
%ADD20RoundRect,0.250000X-1.400000X2.000000X-1.400000X-2.000000X1.400000X-2.000000X1.400000X2.000000X0*%
%TD*%
%TA.AperFunction,ComponentPad*%
%ADD21C,2.500000*%
%TD*%
%TA.AperFunction,HeatsinkPad*%
%ADD22C,0.600000*%
%TD*%
%TA.AperFunction,SMDPad,CuDef*%
%ADD23FreePoly0,0.000000*%
%TD*%
%TA.AperFunction,SMDPad,CuDef*%
%ADD24FreePoly1,0.000000*%
%TD*%
%TA.AperFunction,ViaPad*%
%ADD25C,0.600000*%
%TD*%
%TA.AperFunction,Conductor*%
%ADD26C,2.000000*%
%TD*%
%TA.AperFunction,Conductor*%
%ADD27C,0.500000*%
%TD*%
%TA.AperFunction,Conductor*%
%ADD28C,0.250000*%
%TD*%
G04 APERTURE END LIST*
D10*
%TO.P,Q1,1,G*%
%TO.N,Net-(Q1-G)*%
X166220000Y-98845900D03*
D11*
%TO.P,Q1,2,D*%
%TO.N,Imeasure*%
X168760000Y-98845900D03*
%TO.P,Q1,3,S*%
%TO.N,Net-(D9-K)*%
X171300000Y-98845900D03*
%TD*%
D10*
%TO.P,Q3,1,G*%
%TO.N,Net-(Q3-G)*%
X166620000Y-125900000D03*
D11*
%TO.P,Q3,2,D*%
%TO.N,Imeasure*%
X169160000Y-125900000D03*
%TO.P,Q3,3,S*%
%TO.N,Net-(D10-K)*%
X171700000Y-125900000D03*
%TD*%
D12*
%TO.P,Vbuck2,1,Pin_1*%
%TO.N,+12V*%
X190282500Y-135582500D03*
D13*
%TO.P,Vbuck2,2,Pin_2*%
%TO.N,GND*%
X190282500Y-140582500D03*
%TD*%
D14*
%TO.P,D10,1,K*%
%TO.N,Net-(D10-K)*%
X165000000Y-139200000D03*
D15*
%TO.P,D10,2,A*%
%TO.N,GND*%
X173800000Y-139200000D03*
%TD*%
D14*
%TO.P,D9,1,K*%
%TO.N,Net-(D9-K)*%
X165600000Y-113800000D03*
D15*
%TO.P,D9,2,A*%
%TO.N,GND*%
X174400000Y-113800000D03*
%TD*%
D16*
%TO.P,POWER_IN1,1,Pin_1*%
%TO.N,GND*%
X142050000Y-146332500D03*
D13*
%TO.P,POWER_IN1,2,Pin_2*%
%TO.N,+BATT*%
X137050000Y-146332500D03*
%TD*%
D14*
%TO.P,D11,1,K*%
%TO.N,Net-(D11-K)*%
X129500000Y-105900000D03*
D15*
%TO.P,D11,2,A*%
%TO.N,GND*%
X138300000Y-105900000D03*
%TD*%
D10*
%TO.P,Q2,1,G*%
%TO.N,Net-(Q2-G)*%
X166600000Y-120500000D03*
D11*
%TO.P,Q2,2,D*%
%TO.N,Net-(D9-K)*%
X169140000Y-120500000D03*
%TO.P,Q2,3,S*%
%TO.N,GND*%
X171680000Y-120500000D03*
%TD*%
D17*
%TO.P,Program_header1,1,Pin_1*%
%TO.N,+3.3V*%
X194300000Y-69760000D03*
D18*
%TO.P,Program_header1,2,Pin_2*%
%TO.N,/TX*%
X194300000Y-72300000D03*
%TO.P,Program_header1,3,Pin_3*%
%TO.N,/RX*%
X194300000Y-74840000D03*
%TO.P,Program_header1,4,Pin_4*%
%TO.N,GND*%
X194300000Y-77380000D03*
%TD*%
D12*
%TO.P,Vbuck1,1,Pin_1*%
%TO.N,Vbuck*%
X190502400Y-110473700D03*
D13*
%TO.P,Vbuck1,2,Pin_2*%
%TO.N,GND*%
X190502400Y-115473700D03*
%TD*%
D19*
%TO.P,D15,1,K*%
%TO.N,+BATT*%
X130000000Y-145700000D03*
D20*
%TO.P,D15,2,A*%
%TO.N,GND*%
X130000000Y-136900000D03*
%TD*%
D21*
%TO.P,L2,1,1*%
%TO.N,Net-(D9-K)*%
X170156000Y-106126500D03*
%TO.P,L2,2,2*%
%TO.N,Vbuck*%
X179556000Y-106126500D03*
%TD*%
D14*
%TO.P,D1,1,K*%
%TO.N,Net-(D1-K)*%
X129103200Y-78770000D03*
D15*
%TO.P,D1,2,A*%
%TO.N,GND*%
X137903200Y-78770000D03*
%TD*%
D16*
%TO.P,POWER_IN2,1,Pin_1*%
%TO.N,GND*%
X153691600Y-146354800D03*
D13*
%TO.P,POWER_IN2,2,Pin_2*%
%TO.N,+BATT*%
X148691600Y-146354800D03*
%TD*%
D22*
%TO.P,U1,39,GND*%
%TO.N,GND*%
X161420000Y-69760000D03*
X161420000Y-71160000D03*
X162120000Y-69060000D03*
X162120000Y-70460000D03*
X162120000Y-71860000D03*
X162795000Y-69760000D03*
X162795000Y-71160000D03*
X163520000Y-69060000D03*
X163520000Y-70460000D03*
X163520000Y-71860000D03*
X164220000Y-69760000D03*
X164220000Y-71160000D03*
%TD*%
D17*
%TO.P,Mainboardconnect1,1,Pin_1*%
%TO.N,Imeasure*%
X194000000Y-81810000D03*
D18*
%TO.P,Mainboardconnect1,2,Pin_2*%
X194000000Y-84350000D03*
%TO.P,Mainboardconnect1,3,Pin_3*%
%TO.N,GND*%
X194000000Y-86890000D03*
%TO.P,Mainboardconnect1,4,Pin_4*%
X194000000Y-89430000D03*
%TO.P,Mainboardconnect1,5,Pin_5*%
%TO.N,SDA*%
X194000000Y-91970000D03*
%TO.P,Mainboardconnect1,6,Pin_6*%
%TO.N,SCL*%
X194000000Y-94510000D03*
%TO.P,Mainboardconnect1,7,Pin_7*%
%TO.N,Net-(JP3-A)*%
X194000000Y-97050000D03*
%TO.P,Mainboardconnect1,8,Pin_8*%
%TO.N,Net-(JP4-A)*%
X194000000Y-99590000D03*
%TD*%
D21*
%TO.P,L3,1,1*%
%TO.N,Net-(D10-K)*%
X169550000Y-131832500D03*
%TO.P,L3,2,2*%
%TO.N,+12V*%
X178950000Y-131832500D03*
%TD*%
D10*
%TO.P,Q4,1,G*%
%TO.N,Net-(Q4-G)*%
X165460000Y-145895000D03*
D11*
%TO.P,Q4,2,D*%
%TO.N,Net-(D10-K)*%
X168000000Y-145895000D03*
%TO.P,Q4,3,S*%
%TO.N,GND*%
X170540000Y-145895000D03*
%TD*%
D23*
%TO.P,JP5,1,A*%
%TO.N,Imeasure*%
X124243000Y-146303800D03*
X124243000Y-147903800D03*
X124243000Y-149553800D03*
D24*
%TO.P,JP5,2,B*%
%TO.N,+BATT*%
X125693000Y-146303800D03*
X125693000Y-147903800D03*
X125693000Y-149553800D03*
%TD*%
D23*
%TO.P,JP6,1,A*%
%TO.N,Imeasure*%
X124243000Y-140512600D03*
X124243000Y-142112600D03*
X124243000Y-143762600D03*
D24*
%TO.P,JP6,2,B*%
%TO.N,+BATT*%
X125693000Y-140512600D03*
X125693000Y-142112600D03*
X125693000Y-143762600D03*
%TD*%
D25*
%TO.N,Imeasure*%
X152650000Y-128732500D03*
X135892400Y-129240500D03*
X151400000Y-127500000D03*
X152910400Y-107396500D03*
X137721200Y-129240500D03*
X136890000Y-74400000D03*
X134724000Y-131577300D03*
X138991200Y-131577300D03*
X134673200Y-129240500D03*
X151400000Y-128700000D03*
X152650000Y-131132500D03*
X142953600Y-139146500D03*
X129200000Y-95400000D03*
X129990000Y-70100000D03*
X128590000Y-72300000D03*
X164490400Y-103200000D03*
X141074000Y-136860500D03*
X128990000Y-73000000D03*
X128215000Y-99415000D03*
X129200000Y-96000000D03*
X163474400Y-127406400D03*
X129200000Y-93600000D03*
X129790000Y-73000000D03*
X129290000Y-72300000D03*
X129990000Y-68700000D03*
X141124800Y-139146500D03*
X135943200Y-131577300D03*
X152650000Y-129932500D03*
X132090000Y-68000000D03*
X152910400Y-104805700D03*
X137608503Y-74374162D03*
X140464400Y-136860500D03*
X141734400Y-139146500D03*
X135282800Y-129240500D03*
X129990000Y-69400000D03*
X135333600Y-131577300D03*
X129990000Y-72300000D03*
X129200000Y-96600000D03*
X143512400Y-136860500D03*
X138381600Y-131577300D03*
X143563200Y-139146500D03*
X129990000Y-70800000D03*
X142293200Y-136860500D03*
X142902800Y-136860500D03*
X135600000Y-100900000D03*
X152650000Y-127532500D03*
X136552800Y-131577300D03*
X129990000Y-68000000D03*
X136502000Y-129240500D03*
X137111600Y-129240500D03*
X152910400Y-106532900D03*
X152910400Y-103942100D03*
X137772000Y-131577300D03*
X141683600Y-136860500D03*
X128800000Y-99415000D03*
X129200000Y-94800000D03*
X130690000Y-68000000D03*
X152910400Y-105669300D03*
X140515200Y-139146500D03*
X137162400Y-131577300D03*
X138940400Y-129240500D03*
X142344000Y-139146500D03*
X131390000Y-68000000D03*
X129200000Y-94200000D03*
X138330800Y-129240500D03*
X130690000Y-68700000D03*
%TO.N,+3.3V*%
X176600000Y-69300000D03*
X153800000Y-64010000D03*
%TO.N,GND*%
X178900000Y-125000000D03*
X128700000Y-114500000D03*
X160000000Y-99900000D03*
X132800000Y-74900000D03*
X143700000Y-95300000D03*
X147700000Y-64400000D03*
X181200000Y-92100000D03*
X159400000Y-82400000D03*
X158700000Y-63300000D03*
X132600000Y-101200000D03*
X174300000Y-62700000D03*
X158600000Y-81900000D03*
X152100000Y-121000000D03*
X166900000Y-91000000D03*
X147000000Y-106200000D03*
X146300000Y-107000000D03*
X182300000Y-101200000D03*
X140477116Y-117715062D03*
X132800000Y-74100000D03*
X134500000Y-86600000D03*
X182300000Y-99700000D03*
X170700000Y-63300000D03*
X138700000Y-91400000D03*
X138600000Y-76300000D03*
X140500000Y-123500000D03*
X143300000Y-117686058D03*
X135200000Y-112300000D03*
X133100000Y-96600000D03*
X153100000Y-62800000D03*
X134000000Y-74900000D03*
X134200000Y-102200000D03*
X140200000Y-69500000D03*
X156800000Y-114600000D03*
X133300000Y-93600000D03*
X135600000Y-102200000D03*
X160000000Y-96700000D03*
X161100000Y-119200000D03*
X140477116Y-120601120D03*
X173700000Y-116300000D03*
X132000000Y-101900000D03*
X135100000Y-106200000D03*
X134900000Y-95900000D03*
X149400000Y-87100000D03*
X134500000Y-81300000D03*
X136100000Y-111600000D03*
X180800000Y-119400000D03*
X134000000Y-93600000D03*
X140000000Y-86600000D03*
X143100000Y-94500000D03*
X145822884Y-121598880D03*
X149400000Y-114900000D03*
X145800000Y-89400000D03*
X152700000Y-87100000D03*
X168000000Y-82200000D03*
X174700000Y-63300000D03*
X134400000Y-68700000D03*
X173200000Y-111200000D03*
X147700000Y-108500000D03*
X136800000Y-71200000D03*
X175800000Y-102000000D03*
X179500000Y-93900000D03*
X167000000Y-89500000D03*
X134500000Y-96600000D03*
X135900000Y-91400000D03*
X166300000Y-83800000D03*
X130500000Y-120613942D03*
X128700000Y-116100000D03*
X150900000Y-84800000D03*
X134500000Y-83100000D03*
X146677116Y-114801120D03*
X181200000Y-90300000D03*
X158000000Y-63300000D03*
X161101120Y-116422884D03*
X175700000Y-88900000D03*
X137300000Y-91400000D03*
X148400000Y-107700000D03*
X149400000Y-118300000D03*
X161400000Y-82200000D03*
X136100000Y-110000000D03*
X134500000Y-112300000D03*
X135800000Y-82200000D03*
X174400000Y-116300000D03*
X161300000Y-89400000D03*
X179600000Y-101200000D03*
X137200000Y-81300000D03*
X132700000Y-98900000D03*
X149400000Y-121000000D03*
X179600000Y-99700000D03*
X159100000Y-62700000D03*
X133455600Y-73364200D03*
X168500000Y-93900000D03*
X134000000Y-74100000D03*
X181500000Y-119400000D03*
X143100000Y-86600000D03*
X136300000Y-76300000D03*
X134900000Y-94500000D03*
X137122884Y-123498880D03*
X132700000Y-100500000D03*
X137100000Y-120600000D03*
X158600000Y-82900000D03*
X150400000Y-111300000D03*
X135100000Y-75500000D03*
X179100000Y-116800000D03*
X134700000Y-67100000D03*
X135600000Y-94500000D03*
X148400000Y-98300000D03*
X176200000Y-125000000D03*
X152100000Y-64500000D03*
X133800000Y-112300000D03*
X133800000Y-96600000D03*
X151300000Y-95300000D03*
X145800000Y-92100000D03*
X134500000Y-109300000D03*
X132700000Y-107600000D03*
X159500000Y-114600000D03*
X156800000Y-111900000D03*
X134000000Y-71900000D03*
X161400000Y-83800000D03*
X182300000Y-98300000D03*
X135800000Y-84000000D03*
X157300000Y-109700000D03*
X175700000Y-89600000D03*
X155900000Y-96600000D03*
X171300000Y-113800000D03*
X146677116Y-117687178D03*
X135200000Y-68700000D03*
X147000000Y-99900000D03*
X140000000Y-81300000D03*
X131200000Y-101400000D03*
X179100000Y-117500000D03*
X173600000Y-93900000D03*
X135100000Y-104600000D03*
X149400000Y-85900000D03*
X171300000Y-113100000D03*
X171100000Y-62700000D03*
X133500000Y-70500000D03*
X130500000Y-123500000D03*
X135400000Y-111600000D03*
X171300000Y-114500000D03*
X166300000Y-82200000D03*
X155500000Y-110100000D03*
X177400000Y-100600000D03*
X155900000Y-98100000D03*
X134600000Y-91400000D03*
X178901120Y-120022884D03*
X136800000Y-69100000D03*
X167000000Y-88800000D03*
X168000000Y-83800000D03*
X132010000Y-99740000D03*
X150900000Y-85900000D03*
X175400000Y-63300000D03*
X131300000Y-100500000D03*
X177400000Y-97900000D03*
X134700000Y-93600000D03*
X132800000Y-75700000D03*
X135800000Y-86600000D03*
X153000000Y-99900000D03*
X137200000Y-83100000D03*
X138600000Y-84000000D03*
X143700000Y-96000000D03*
X163100000Y-82200000D03*
X163100000Y-83800000D03*
X133900000Y-103900000D03*
X182400000Y-116700000D03*
X175300000Y-93900000D03*
X147700000Y-107000000D03*
X158300000Y-78900000D03*
X135400000Y-110000000D03*
X175100000Y-116300000D03*
X131200000Y-98900000D03*
X136100000Y-71300000D03*
X155900000Y-94900000D03*
X134000000Y-72700000D03*
X148400000Y-63700000D03*
X161200000Y-91200000D03*
X134900000Y-102900000D03*
X161200000Y-91900000D03*
X156200000Y-110100000D03*
X157300000Y-63300000D03*
X171800000Y-62700000D03*
X149700000Y-99900000D03*
X136100000Y-67100000D03*
X138600000Y-75500000D03*
X179900000Y-83100000D03*
X166800000Y-93900000D03*
X132800000Y-71900000D03*
X143100000Y-89400000D03*
X130500000Y-101900000D03*
X174600000Y-111200000D03*
X158400000Y-62700000D03*
X133800000Y-109300000D03*
X179100000Y-116100000D03*
X176200000Y-122800000D03*
X140000000Y-83100000D03*
X178000000Y-115600000D03*
X176200000Y-120100000D03*
X152100000Y-63600000D03*
X143100000Y-92100000D03*
X153000000Y-96700000D03*
X147700000Y-63000000D03*
X182400000Y-117400000D03*
X140100000Y-91400000D03*
X173900000Y-111200000D03*
X157000000Y-62700000D03*
X158400000Y-116500000D03*
X134000000Y-75700000D03*
X178000000Y-114900000D03*
X133877116Y-120615062D03*
X132800000Y-72700000D03*
X182400000Y-116000000D03*
X136100000Y-69000000D03*
X150900000Y-87100000D03*
X138600000Y-69500000D03*
X133500000Y-102900000D03*
X139800000Y-75500000D03*
X137200000Y-86600000D03*
X179900000Y-83800000D03*
X136800000Y-69800000D03*
X179600000Y-98300000D03*
X149400000Y-84800000D03*
X158400000Y-119200000D03*
X181200000Y-93900000D03*
X128700000Y-115300000D03*
X159400000Y-78300000D03*
X135100000Y-107600000D03*
X137100000Y-117713942D03*
X155900000Y-99900000D03*
X159000000Y-78900000D03*
X134900000Y-95200000D03*
X133100000Y-102000000D03*
X179500000Y-90300000D03*
X135200000Y-109300000D03*
X133877116Y-123501120D03*
X178900000Y-122800000D03*
X141700000Y-94500000D03*
X159501120Y-111822884D03*
X175200000Y-91600000D03*
X135400000Y-110800000D03*
X139300000Y-71600000D03*
X180100000Y-119400000D03*
X161300000Y-88700000D03*
X135100000Y-66500000D03*
X149700000Y-111300000D03*
X160000000Y-98300000D03*
X157800000Y-82400000D03*
X179600000Y-102600000D03*
X135600000Y-95900000D03*
X137400000Y-76300000D03*
X182300000Y-101900000D03*
X171400000Y-63300000D03*
X179500000Y-92100000D03*
X175800000Y-99300000D03*
X145800000Y-86600000D03*
X135400000Y-67100000D03*
X136800000Y-70500000D03*
X129400000Y-116100000D03*
X129400000Y-115300000D03*
X160000000Y-95000000D03*
X152101120Y-118222884D03*
X178000000Y-114200000D03*
X175000000Y-62700000D03*
X158700000Y-78300000D03*
X143300000Y-114800000D03*
X129400000Y-114500000D03*
X139800000Y-76300000D03*
X182300000Y-102600000D03*
X152100000Y-62800000D03*
X147000000Y-107700000D03*
X139300000Y-70200000D03*
X142400000Y-94500000D03*
X154200000Y-62800000D03*
X138600000Y-82200000D03*
X157300000Y-109000000D03*
X136100000Y-110800000D03*
X135800000Y-66500000D03*
X136300000Y-75500000D03*
X140200000Y-70900000D03*
X132700000Y-106200000D03*
X157700000Y-62700000D03*
X135100000Y-76300000D03*
X138600000Y-86600000D03*
X134000000Y-67100000D03*
X133900000Y-105300000D03*
X134400000Y-66500000D03*
X132700000Y-104600000D03*
X151300000Y-98200000D03*
X133900000Y-106900000D03*
X143700000Y-96700000D03*
X133500000Y-69800000D03*
X166900000Y-91700000D03*
X138600000Y-70900000D03*
X175200000Y-90900000D03*
X140900000Y-70200000D03*
X148400000Y-65100000D03*
X135600000Y-95200000D03*
X140900000Y-71600000D03*
X137400000Y-75500000D03*
%TO.N,+BATT*%
X127457200Y-140157200D03*
X133705600Y-143306800D03*
X133705600Y-145389600D03*
X131267200Y-142189200D03*
X127457200Y-142189200D03*
X129184400Y-141173200D03*
X133705600Y-146507200D03*
X133705600Y-144373600D03*
X129184400Y-142189200D03*
X129184400Y-140157200D03*
X133705600Y-141274800D03*
X127457200Y-146405600D03*
X127457200Y-145288000D03*
X133705600Y-147523200D03*
X127457200Y-144272000D03*
X127457200Y-143205200D03*
X133705600Y-140258800D03*
X127457200Y-141173200D03*
X131267200Y-141173200D03*
X127457200Y-147421600D03*
X133705600Y-142290800D03*
X131267200Y-140157200D03*
%TO.N,Vm*%
X154100000Y-81100000D03*
X155500000Y-82950000D03*
%TO.N,V12*%
X152900000Y-84900000D03*
X156200000Y-84900000D03*
%TO.N,V5*%
X161700000Y-76600000D03*
X160600000Y-75500000D03*
%TO.N,+12V*%
X179000000Y-95900000D03*
X177400000Y-95900000D03*
%TO.N,+5V*%
X146700000Y-113100000D03*
X150500000Y-112800000D03*
X188700000Y-99000000D03*
X154482800Y-107746800D03*
X187800000Y-101900000D03*
X154635200Y-114096800D03*
%TO.N,LO2*%
X150900000Y-79100000D03*
X154300000Y-76800000D03*
X145400000Y-98500000D03*
X145400000Y-101300000D03*
%TO.N,HI2*%
X153900000Y-75400000D03*
X150800000Y-77400000D03*
X144200000Y-99800000D03*
X144400000Y-102200000D03*
%TD*%
D26*
%TO.N,Imeasure*%
X152910400Y-107396500D02*
X152910400Y-115010400D01*
X154000000Y-103200000D02*
X152910400Y-104289600D01*
D27*
X137100000Y-68000000D02*
X132090000Y-68000000D01*
X137608503Y-74374162D02*
X137608503Y-68508503D01*
D26*
X152910400Y-104289600D02*
X152910400Y-107396500D01*
D28*
X135600000Y-99600000D02*
X133600000Y-97600000D01*
X133600000Y-97600000D02*
X130200000Y-97600000D01*
D26*
X167405900Y-103200000D02*
X168760000Y-101845900D01*
X152910400Y-115010400D02*
X154700000Y-116800000D01*
X164490400Y-103200000D02*
X154000000Y-103200000D01*
D28*
X135600000Y-100900000D02*
X135600000Y-99600000D01*
D27*
X137608503Y-68508503D02*
X137100000Y-68000000D01*
D26*
X164490400Y-103200000D02*
X167405900Y-103200000D01*
X154700000Y-116800000D02*
X154700000Y-125482500D01*
X154700000Y-125482500D02*
X152650000Y-127532500D01*
X168760000Y-101845900D02*
X168760000Y-98845900D01*
D28*
X130200000Y-97600000D02*
X129200000Y-96600000D01*
%TO.N,+3.3V*%
X168400000Y-69300000D02*
X163110000Y-64010000D01*
X176600000Y-69300000D02*
X168400000Y-69300000D01*
X163110000Y-64010000D02*
X153800000Y-64010000D01*
%TO.N,Vm*%
X155500000Y-82950000D02*
X155500000Y-82800000D01*
X155500000Y-82800000D02*
X155400000Y-82700000D01*
X155400000Y-82700000D02*
X155400000Y-82400000D01*
X155400000Y-82400000D02*
X154100000Y-81100000D01*
%TO.N,V12*%
X152900000Y-84900000D02*
X156200000Y-84900000D01*
%TO.N,V5*%
X161700000Y-76600000D02*
X160600000Y-75500000D01*
%TO.N,+12V*%
X179000000Y-95900000D02*
X177400000Y-95900000D01*
%TO.N,+5V*%
X188700000Y-99000000D02*
X188600000Y-99100000D01*
X146700000Y-113100000D02*
X147000000Y-112800000D01*
X188600000Y-99100000D02*
X188600000Y-101100000D01*
X147000000Y-112800000D02*
X150500000Y-112800000D01*
X188600000Y-101100000D02*
X187800000Y-101900000D01*
X154635200Y-107899200D02*
X154482800Y-107746800D01*
X154635200Y-114096800D02*
X154635200Y-107899200D01*
%TO.N,LO2*%
X153350000Y-77450000D02*
X154000000Y-76800000D01*
X145400000Y-101300000D02*
X145400000Y-98500000D01*
X154000000Y-76800000D02*
X154300000Y-76800000D01*
X150900000Y-79100000D02*
X152550000Y-77450000D01*
X152550000Y-77450000D02*
X153350000Y-77450000D01*
%TO.N,HI2*%
X144400000Y-102200000D02*
X144200000Y-102000000D01*
X150800000Y-77400000D02*
X152800000Y-75400000D01*
X144200000Y-102000000D02*
X144200000Y-99800000D01*
X152800000Y-75400000D02*
X153900000Y-75400000D01*
%TD*%
%TA.AperFunction,Conductor*%
%TO.N,+BATT*%
G36*
X135937039Y-139605785D02*
G01*
X135982794Y-139658589D01*
X135994000Y-139710100D01*
X135994000Y-141121632D01*
X150711433Y-141125869D01*
X150778466Y-141145573D01*
X150824206Y-141198390D01*
X150835397Y-141250174D01*
X150812501Y-150548605D01*
X150792651Y-150615596D01*
X150739735Y-150661221D01*
X150688501Y-150672300D01*
X131705628Y-150672300D01*
X131704965Y-150672298D01*
X125502537Y-150639154D01*
X125435604Y-150619112D01*
X125390132Y-150566064D01*
X125379200Y-150515156D01*
X125379200Y-149847653D01*
X125398885Y-149780614D01*
X125400026Y-149778870D01*
X125455589Y-149695526D01*
X125493538Y-149603908D01*
X125493643Y-149504217D01*
X125455589Y-149412074D01*
X125400025Y-149328728D01*
X125379217Y-149262029D01*
X125379200Y-149259946D01*
X125379200Y-148197653D01*
X125398885Y-148130614D01*
X125400026Y-148128870D01*
X125455589Y-148045526D01*
X125493538Y-147953908D01*
X125493643Y-147854217D01*
X125455589Y-147762074D01*
X125436351Y-147733217D01*
X128250001Y-147733217D01*
X128259912Y-147801249D01*
X128311215Y-147906191D01*
X128393811Y-147988787D01*
X128498748Y-148040087D01*
X128498751Y-148040088D01*
X128566780Y-148049999D01*
X128999999Y-148049999D01*
X131000000Y-148049999D01*
X131433218Y-148049999D01*
X131501249Y-148040087D01*
X131606191Y-147988784D01*
X131688787Y-147906188D01*
X131724811Y-147832499D01*
X136964213Y-147832499D01*
X136964214Y-147832500D01*
X137135786Y-147832500D01*
X137135786Y-147832499D01*
X137050000Y-147746714D01*
X136964213Y-147832499D01*
X131724811Y-147832499D01*
X131740087Y-147801251D01*
X131740088Y-147801248D01*
X131742379Y-147785527D01*
X131750000Y-147733219D01*
X131750000Y-146700000D01*
X131000000Y-146700000D01*
X131000000Y-148049999D01*
X128999999Y-148049999D01*
X129000000Y-148049998D01*
X129000000Y-146700000D01*
X128250001Y-146700000D01*
X128250001Y-147733217D01*
X125436351Y-147733217D01*
X125400025Y-147678728D01*
X125379217Y-147612029D01*
X125379200Y-147609946D01*
X125379200Y-146597653D01*
X125398885Y-146530614D01*
X125400026Y-146528870D01*
X125404541Y-146522098D01*
X125455589Y-146445526D01*
X125493538Y-146353908D01*
X125493643Y-146254217D01*
X125489120Y-146243267D01*
X125479929Y-146221009D01*
X129400000Y-146221009D01*
X129400000Y-146378991D01*
X129440889Y-146531591D01*
X129519881Y-146668408D01*
X129631592Y-146780119D01*
X129768409Y-146859111D01*
X129921009Y-146900000D01*
X130078991Y-146900000D01*
X130231591Y-146859111D01*
X130368408Y-146780119D01*
X130480119Y-146668408D01*
X130559111Y-146531591D01*
X130589471Y-146418286D01*
X135550000Y-146418286D01*
X135635786Y-146332500D01*
X135635786Y-146332499D01*
X135571768Y-146268481D01*
X136400000Y-146268481D01*
X136400000Y-146396519D01*
X136424979Y-146522098D01*
X136473978Y-146640390D01*
X136545112Y-146746851D01*
X136635649Y-146837388D01*
X136742110Y-146908522D01*
X136860402Y-146957521D01*
X136985981Y-146982500D01*
X137114019Y-146982500D01*
X137239598Y-146957521D01*
X137357890Y-146908522D01*
X137464351Y-146837388D01*
X137554888Y-146746851D01*
X137626022Y-146640390D01*
X137675021Y-146522098D01*
X137700000Y-146396519D01*
X137700000Y-146332499D01*
X138464214Y-146332499D01*
X138464214Y-146332500D01*
X138549999Y-146418286D01*
X138550000Y-146418285D01*
X138550000Y-146246714D01*
X138549999Y-146246713D01*
X138464214Y-146332499D01*
X137700000Y-146332499D01*
X137700000Y-146268481D01*
X137675021Y-146142902D01*
X137626022Y-146024610D01*
X137554888Y-145918149D01*
X137464351Y-145827612D01*
X137357890Y-145756478D01*
X137239598Y-145707479D01*
X137114019Y-145682500D01*
X136985981Y-145682500D01*
X136860402Y-145707479D01*
X136742110Y-145756478D01*
X136635649Y-145827612D01*
X136545112Y-145918149D01*
X136473978Y-146024610D01*
X136424979Y-146142902D01*
X136400000Y-146268481D01*
X135571768Y-146268481D01*
X135550000Y-146246713D01*
X135550000Y-146418286D01*
X130589471Y-146418286D01*
X130600000Y-146378991D01*
X130600000Y-146221009D01*
X130559111Y-146068409D01*
X130480119Y-145931592D01*
X130368408Y-145819881D01*
X130231591Y-145740889D01*
X130078991Y-145700000D01*
X129921009Y-145700000D01*
X129768409Y-145740889D01*
X129631592Y-145819881D01*
X129519881Y-145931592D01*
X129440889Y-146068409D01*
X129400000Y-146221009D01*
X125479929Y-146221009D01*
X125478820Y-146218324D01*
X125478818Y-146218321D01*
X125455589Y-146162074D01*
X125397543Y-146075005D01*
X125395337Y-146071115D01*
X125388344Y-146041285D01*
X125379217Y-146012029D01*
X125379200Y-146009946D01*
X125379200Y-145134636D01*
X140399500Y-145134636D01*
X140399500Y-147530363D01*
X140399501Y-147530382D01*
X140405908Y-147589981D01*
X140456202Y-147724827D01*
X140456203Y-147724828D01*
X140456204Y-147724830D01*
X140542454Y-147840046D01*
X140657670Y-147926296D01*
X140657671Y-147926296D01*
X140657672Y-147926297D01*
X140792518Y-147976591D01*
X140792517Y-147976591D01*
X140799445Y-147977335D01*
X140852128Y-147983000D01*
X140852137Y-147983000D01*
X143247863Y-147983000D01*
X143247872Y-147983000D01*
X143307482Y-147976591D01*
X143442330Y-147926296D01*
X143537838Y-147854799D01*
X148605813Y-147854799D01*
X148605814Y-147854800D01*
X148777386Y-147854800D01*
X148777386Y-147854799D01*
X148691600Y-147769014D01*
X148605813Y-147854799D01*
X143537838Y-147854799D01*
X143557546Y-147840046D01*
X143643796Y-147724830D01*
X143694091Y-147589982D01*
X143700500Y-147530372D01*
X143700500Y-146440586D01*
X147191600Y-146440586D01*
X147277386Y-146354800D01*
X147277386Y-146354799D01*
X147213368Y-146290781D01*
X148041600Y-146290781D01*
X148041600Y-146418819D01*
X148066579Y-146544398D01*
X148115578Y-146662690D01*
X148186712Y-146769151D01*
X148277249Y-146859688D01*
X148383710Y-146930822D01*
X148502002Y-146979821D01*
X148627581Y-147004800D01*
X148755619Y-147004800D01*
X148881198Y-146979821D01*
X148999490Y-146930822D01*
X149105951Y-146859688D01*
X149196488Y-146769151D01*
X149267622Y-146662690D01*
X149316621Y-146544398D01*
X149341600Y-146418819D01*
X149341600Y-146354799D01*
X150105814Y-146354799D01*
X150105814Y-146354800D01*
X150191599Y-146440586D01*
X150191600Y-146440585D01*
X150191600Y-146269014D01*
X150191599Y-146269013D01*
X150105814Y-146354799D01*
X149341600Y-146354799D01*
X149341600Y-146290781D01*
X149316621Y-146165202D01*
X149267622Y-146046910D01*
X149196488Y-145940449D01*
X149105951Y-145849912D01*
X148999490Y-145778778D01*
X148881198Y-145729779D01*
X148755619Y-145704800D01*
X148627581Y-145704800D01*
X148502002Y-145729779D01*
X148383710Y-145778778D01*
X148277249Y-145849912D01*
X148186712Y-145940449D01*
X148115578Y-146046910D01*
X148066579Y-146165202D01*
X148041600Y-146290781D01*
X147213368Y-146290781D01*
X147191600Y-146269013D01*
X147191600Y-146440586D01*
X143700500Y-146440586D01*
X143700500Y-145134628D01*
X143694091Y-145075018D01*
X143643796Y-144940170D01*
X143579889Y-144854800D01*
X148605813Y-144854800D01*
X148691600Y-144940586D01*
X148777386Y-144854800D01*
X148605813Y-144854800D01*
X143579889Y-144854800D01*
X143557546Y-144824954D01*
X143442330Y-144738704D01*
X143442328Y-144738703D01*
X143442327Y-144738702D01*
X143307481Y-144688408D01*
X143307482Y-144688408D01*
X143247882Y-144682001D01*
X143247880Y-144682000D01*
X143247872Y-144682000D01*
X140852128Y-144682000D01*
X140852120Y-144682000D01*
X140852117Y-144682001D01*
X140792518Y-144688408D01*
X140657672Y-144738702D01*
X140657670Y-144738704D01*
X140542454Y-144824954D01*
X140456204Y-144940170D01*
X140456202Y-144940172D01*
X140405908Y-145075018D01*
X140399501Y-145134617D01*
X140399500Y-145134636D01*
X125379200Y-145134636D01*
X125379200Y-144832500D01*
X136964213Y-144832500D01*
X137050000Y-144918286D01*
X137135786Y-144832500D01*
X136964213Y-144832500D01*
X125379200Y-144832500D01*
X125379200Y-144056453D01*
X125398885Y-143989414D01*
X125400026Y-143987670D01*
X125455589Y-143904326D01*
X125493538Y-143812708D01*
X125493643Y-143713017D01*
X125474548Y-143666780D01*
X128250000Y-143666780D01*
X128250000Y-144700000D01*
X129000000Y-144700000D01*
X131000000Y-144700000D01*
X131749999Y-144700000D01*
X131749999Y-143666782D01*
X131740087Y-143598750D01*
X131688784Y-143493808D01*
X131606188Y-143411212D01*
X131501251Y-143359912D01*
X131501248Y-143359911D01*
X131433220Y-143350000D01*
X131000000Y-143350000D01*
X131000000Y-144700000D01*
X129000000Y-144700000D01*
X129000000Y-143350000D01*
X128566787Y-143350000D01*
X128498751Y-143359912D01*
X128393808Y-143411215D01*
X128311212Y-143493811D01*
X128259912Y-143598748D01*
X128259911Y-143598751D01*
X128250000Y-143666780D01*
X125474548Y-143666780D01*
X125455589Y-143620874D01*
X125396712Y-143532559D01*
X125393889Y-143527287D01*
X125387915Y-143498710D01*
X125379217Y-143470829D01*
X125379200Y-143468746D01*
X125379200Y-142406453D01*
X125398885Y-142339414D01*
X125400026Y-142337670D01*
X125455589Y-142254326D01*
X125493538Y-142162708D01*
X125493643Y-142063017D01*
X125455589Y-141970874D01*
X125400025Y-141887528D01*
X125379217Y-141820829D01*
X125379200Y-141818746D01*
X125379200Y-140806453D01*
X125398885Y-140739414D01*
X125400026Y-140737670D01*
X125455589Y-140654326D01*
X125493538Y-140562708D01*
X125493643Y-140463017D01*
X125455589Y-140370874D01*
X125400025Y-140287528D01*
X125379217Y-140220829D01*
X125379200Y-140218746D01*
X125379200Y-139710100D01*
X125398885Y-139643061D01*
X125451689Y-139597306D01*
X125503200Y-139586100D01*
X135870000Y-139586100D01*
X135937039Y-139605785D01*
G37*
%TD.AperFunction*%
%TD*%
%TA.AperFunction,Conductor*%
%TO.N,Imeasure*%
G36*
X132377536Y-62292985D02*
G01*
X132423291Y-62345789D01*
X132434497Y-62397390D01*
X132433382Y-63930784D01*
X132433382Y-63930785D01*
X132433345Y-63980941D01*
X132432811Y-64715114D01*
X132430785Y-67498039D01*
X132442299Y-67605687D01*
X132453505Y-67657289D01*
X132487671Y-67760002D01*
X132487673Y-67760006D01*
X132565455Y-67881037D01*
X132565464Y-67881048D01*
X132598731Y-67919441D01*
X132627756Y-67982997D01*
X132617812Y-68052155D01*
X132598673Y-68081913D01*
X132530232Y-68160782D01*
X132470368Y-68291615D01*
X132470366Y-68291620D01*
X132450633Y-68358645D01*
X132450633Y-68358646D01*
X132430055Y-68501043D01*
X132430054Y-68501047D01*
X132429473Y-69299928D01*
X132428662Y-70413793D01*
X132426084Y-70425198D01*
X132427114Y-70433235D01*
X132416651Y-70466943D01*
X132350292Y-70606528D01*
X131755476Y-71857696D01*
X131718903Y-71963491D01*
X131706893Y-72016727D01*
X131694500Y-72127973D01*
X131694500Y-76125045D01*
X131674815Y-76192084D01*
X131622011Y-76237839D01*
X131608023Y-76243231D01*
X131551924Y-76261041D01*
X131551910Y-76261048D01*
X131429462Y-76336575D01*
X131429455Y-76336580D01*
X131375816Y-76381348D01*
X131279605Y-76488314D01*
X131250476Y-76549093D01*
X131203750Y-76601040D01*
X131138655Y-76619500D01*
X127053198Y-76619500D01*
X127053181Y-76619501D01*
X126950403Y-76630000D01*
X126950400Y-76630001D01*
X126783868Y-76685185D01*
X126783863Y-76685187D01*
X126634542Y-76777289D01*
X126510489Y-76901342D01*
X126418387Y-77050663D01*
X126418385Y-77050668D01*
X126390549Y-77134670D01*
X126363201Y-77217203D01*
X126363201Y-77217204D01*
X126363200Y-77217204D01*
X126352700Y-77319983D01*
X126352700Y-79830384D01*
X126352694Y-79830401D01*
X126352700Y-79830419D01*
X126342806Y-79864077D01*
X126333015Y-79897423D01*
X126333001Y-79897434D01*
X126332996Y-79897453D01*
X126304846Y-79921830D01*
X126280211Y-79943178D01*
X126280190Y-79943184D01*
X126280180Y-79943193D01*
X126246312Y-79953127D01*
X126226377Y-79955987D01*
X126209691Y-79958381D01*
X126209670Y-79958382D01*
X126200927Y-79959638D01*
X126062863Y-80000131D01*
X126062859Y-80000133D01*
X125941801Y-80077882D01*
X125941792Y-80077888D01*
X125888982Y-80123620D01*
X125794729Y-80232327D01*
X125794729Y-80232328D01*
X125734919Y-80363187D01*
X125734917Y-80363191D01*
X125734917Y-80363193D01*
X125715214Y-80430216D01*
X125715210Y-80430237D01*
X125694693Y-80572630D01*
X125694692Y-80572636D01*
X125694557Y-81021000D01*
X125694542Y-81070940D01*
X125694542Y-81070941D01*
X125693979Y-82920941D01*
X125693400Y-84820999D01*
X125693385Y-84870940D01*
X125693385Y-84870941D01*
X125693018Y-86075828D01*
X125693018Y-86075835D01*
X125704554Y-86183358D01*
X125704555Y-86183364D01*
X125715760Y-86234907D01*
X125749903Y-86337517D01*
X125771797Y-86371585D01*
X125827689Y-86458556D01*
X125868324Y-86505452D01*
X125868885Y-86506189D01*
X125873445Y-86511363D01*
X125982182Y-86605585D01*
X125982186Y-86605587D01*
X125982188Y-86605588D01*
X126113053Y-86665352D01*
X126113060Y-86665355D01*
X126180100Y-86685040D01*
X126196003Y-86687326D01*
X126322517Y-86705517D01*
X127995065Y-86705519D01*
X128062103Y-86725204D01*
X128107857Y-86778008D01*
X128119062Y-86830053D01*
X128093355Y-92804232D01*
X128105641Y-92917196D01*
X128105641Y-92917200D01*
X128117783Y-92971250D01*
X128117784Y-92971253D01*
X128154992Y-93078616D01*
X128234927Y-93198248D01*
X128281617Y-93250226D01*
X128381736Y-93333899D01*
X128392020Y-93342493D01*
X128523944Y-93399918D01*
X128591324Y-93418403D01*
X128734078Y-93436335D01*
X128734078Y-93436334D01*
X128734080Y-93436335D01*
X128734081Y-93436335D01*
X128825558Y-93421511D01*
X128876106Y-93413321D01*
X128942783Y-93392444D01*
X128942796Y-93392440D01*
X129021572Y-93354748D01*
X129022314Y-93354405D01*
X129022430Y-93354387D01*
X129026955Y-93352370D01*
X129071548Y-93333899D01*
X129102672Y-93321007D01*
X129125920Y-93313955D01*
X129158968Y-93307381D01*
X129183154Y-93305000D01*
X129216842Y-93305000D01*
X129241027Y-93307381D01*
X129274079Y-93313956D01*
X129297325Y-93321006D01*
X129328458Y-93333902D01*
X129349890Y-93345359D01*
X129377898Y-93364074D01*
X129396685Y-93379492D01*
X129420502Y-93403308D01*
X129435925Y-93422100D01*
X129454638Y-93450106D01*
X129466098Y-93471546D01*
X129478990Y-93502671D01*
X129486045Y-93525927D01*
X129492617Y-93558961D01*
X129495000Y-93583156D01*
X129495000Y-93616840D01*
X129492617Y-93641032D01*
X129483253Y-93688107D01*
X129478574Y-93705163D01*
X129476828Y-93710110D01*
X129469351Y-93735575D01*
X129456910Y-93788226D01*
X129451773Y-93932014D01*
X129458339Y-93993101D01*
X129458340Y-93993108D01*
X129459241Y-94001483D01*
X129459243Y-94001506D01*
X129468138Y-94036352D01*
X129468510Y-94037992D01*
X129468499Y-94038151D01*
X129469192Y-94041201D01*
X129492617Y-94158961D01*
X129495000Y-94183153D01*
X129495000Y-94216840D01*
X129492617Y-94241032D01*
X129483253Y-94288107D01*
X129478574Y-94305163D01*
X129476828Y-94310110D01*
X129469351Y-94335575D01*
X129456910Y-94388226D01*
X129451773Y-94532014D01*
X129458339Y-94593101D01*
X129458340Y-94593108D01*
X129459241Y-94601483D01*
X129459243Y-94601506D01*
X129468138Y-94636352D01*
X129468510Y-94637992D01*
X129468499Y-94638151D01*
X129469192Y-94641201D01*
X129492617Y-94758961D01*
X129495000Y-94783153D01*
X129495000Y-94816840D01*
X129492617Y-94841032D01*
X129483253Y-94888107D01*
X129478574Y-94905163D01*
X129476828Y-94910110D01*
X129469351Y-94935575D01*
X129456910Y-94988226D01*
X129451773Y-95132014D01*
X129458339Y-95193101D01*
X129458340Y-95193108D01*
X129459241Y-95201483D01*
X129459243Y-95201506D01*
X129468138Y-95236352D01*
X129468510Y-95237992D01*
X129468499Y-95238151D01*
X129469192Y-95241201D01*
X129492617Y-95358961D01*
X129495000Y-95383153D01*
X129495000Y-95416839D01*
X129492617Y-95441032D01*
X129484429Y-95482192D01*
X129481934Y-95492436D01*
X129479761Y-95499949D01*
X129479094Y-95501286D01*
X129478626Y-95503876D01*
X129476850Y-95510022D01*
X129476808Y-95510087D01*
X129476711Y-95510499D01*
X129474191Y-95519087D01*
X129474182Y-95519119D01*
X129464818Y-95550997D01*
X129463191Y-95561638D01*
X129456910Y-95588220D01*
X129455618Y-95624357D01*
X129454432Y-95637593D01*
X129454115Y-95639788D01*
X129453558Y-95642882D01*
X129453521Y-95643912D01*
X129453519Y-95643928D01*
X129453467Y-95645428D01*
X129453465Y-95645475D01*
X129451642Y-95696598D01*
X129451655Y-95696762D01*
X129451108Y-95712254D01*
X129451082Y-95712875D01*
X129451161Y-95713599D01*
X129451798Y-95731301D01*
X129451772Y-95732008D01*
X129458846Y-95797810D01*
X129461631Y-95810581D01*
X129466527Y-95855940D01*
X129468718Y-95864506D01*
X129470863Y-95870947D01*
X129470862Y-95870947D01*
X129478945Y-95895213D01*
X129482919Y-95910215D01*
X129484415Y-95917740D01*
X129484418Y-95917755D01*
X129484443Y-95917879D01*
X129492617Y-95958967D01*
X129495000Y-95983161D01*
X129495000Y-96016840D01*
X129492617Y-96041032D01*
X129483253Y-96088107D01*
X129478574Y-96105163D01*
X129476828Y-96110110D01*
X129469351Y-96135575D01*
X129456910Y-96188226D01*
X129451773Y-96332014D01*
X129458339Y-96393101D01*
X129458340Y-96393108D01*
X129459241Y-96401483D01*
X129459243Y-96401506D01*
X129468138Y-96436352D01*
X129468510Y-96437992D01*
X129468499Y-96438151D01*
X129469192Y-96441201D01*
X129492617Y-96558961D01*
X129495000Y-96583153D01*
X129495000Y-96616839D01*
X129492617Y-96641033D01*
X129485977Y-96674411D01*
X129479350Y-96696621D01*
X129478544Y-96698616D01*
X129477001Y-96702539D01*
X129476959Y-96702647D01*
X129474115Y-96710066D01*
X129473719Y-96711101D01*
X129461440Y-96767547D01*
X129454021Y-96781133D01*
X129451317Y-96796373D01*
X129437620Y-96811169D01*
X129427955Y-96828870D01*
X129413692Y-96837018D01*
X129403854Y-96847647D01*
X129371635Y-96861047D01*
X129371286Y-96861247D01*
X129370774Y-96861379D01*
X129290173Y-96881953D01*
X129288594Y-96882606D01*
X129282747Y-96884117D01*
X129281919Y-96884089D01*
X129275930Y-96885675D01*
X129265638Y-96887722D01*
X129241029Y-96892617D01*
X129216841Y-96895000D01*
X129183159Y-96895000D01*
X129158970Y-96892617D01*
X129125924Y-96886044D01*
X129102667Y-96878988D01*
X129071547Y-96866098D01*
X129056105Y-96857855D01*
X129055867Y-96858259D01*
X129052917Y-96856516D01*
X129052903Y-96856507D01*
X128999631Y-96828870D01*
X128953956Y-96805174D01*
X128903234Y-96785613D01*
X128795437Y-96757214D01*
X128795438Y-96757214D01*
X128651560Y-96756595D01*
X128651559Y-96756595D01*
X128651558Y-96756595D01*
X128582357Y-96766241D01*
X128582350Y-96766242D01*
X128582349Y-96766242D01*
X128444135Y-96806182D01*
X128444131Y-96806183D01*
X128322764Y-96883444D01*
X128322759Y-96883449D01*
X128269759Y-96928975D01*
X128175073Y-97037301D01*
X128175071Y-97037305D01*
X128114740Y-97167918D01*
X128114737Y-97167925D01*
X128094766Y-97234871D01*
X128094766Y-97234876D01*
X128073677Y-97377201D01*
X128073676Y-97377204D01*
X128068970Y-98470939D01*
X128068970Y-98470941D01*
X128068887Y-98489914D01*
X128069036Y-98504569D01*
X128069210Y-98511630D01*
X128069776Y-98526151D01*
X128069776Y-98526152D01*
X128097812Y-98667266D01*
X128097816Y-98667280D01*
X128120688Y-98732160D01*
X128120996Y-98733060D01*
X128121042Y-98733167D01*
X128138683Y-98766909D01*
X128187708Y-98860680D01*
X128287592Y-98964240D01*
X128342760Y-99007115D01*
X128342763Y-99007117D01*
X128342772Y-99007122D01*
X128342778Y-99007126D01*
X128467779Y-99078342D01*
X128567136Y-99101842D01*
X128607794Y-99111459D01*
X128669779Y-99117019D01*
X128669779Y-99117018D01*
X128678146Y-99117769D01*
X128678148Y-99117769D01*
X128706371Y-99120301D01*
X128711192Y-99120000D01*
X128721157Y-99120000D01*
X128816842Y-99120000D01*
X128841027Y-99122381D01*
X128874079Y-99128956D01*
X128897325Y-99136006D01*
X128928458Y-99148902D01*
X128949890Y-99160359D01*
X128977898Y-99179074D01*
X128996685Y-99194492D01*
X129020502Y-99218308D01*
X129035925Y-99237100D01*
X129054638Y-99265106D01*
X129066098Y-99286546D01*
X129078990Y-99317671D01*
X129086045Y-99340927D01*
X129092617Y-99373961D01*
X129095000Y-99398156D01*
X129095000Y-99431839D01*
X129092616Y-99456035D01*
X129086043Y-99489073D01*
X129078988Y-99512329D01*
X129066098Y-99543449D01*
X129054639Y-99564888D01*
X129035920Y-99592903D01*
X129020499Y-99611693D01*
X128996693Y-99635499D01*
X128977903Y-99650920D01*
X128949885Y-99669641D01*
X128928446Y-99681100D01*
X128897328Y-99693989D01*
X128874071Y-99701045D01*
X128857340Y-99704373D01*
X128841031Y-99707617D01*
X128816841Y-99710000D01*
X128691525Y-99710000D01*
X128666645Y-99712619D01*
X128638841Y-99712499D01*
X128569630Y-99722147D01*
X128569629Y-99722147D01*
X128431411Y-99762088D01*
X128431409Y-99762089D01*
X128417504Y-99770940D01*
X128417505Y-99770941D01*
X128310045Y-99839349D01*
X128310039Y-99839354D01*
X128257039Y-99884880D01*
X128162353Y-99993207D01*
X128102019Y-100123824D01*
X128082616Y-100188868D01*
X128082147Y-100190351D01*
X128082046Y-100190775D01*
X128060957Y-100333105D01*
X128060956Y-100333108D01*
X128058643Y-100870940D01*
X128058643Y-100870941D01*
X128053049Y-102170941D01*
X128046787Y-103626034D01*
X128026814Y-103692988D01*
X127973814Y-103738515D01*
X127922788Y-103749500D01*
X127449998Y-103749500D01*
X127449980Y-103749501D01*
X127347203Y-103760000D01*
X127347200Y-103760001D01*
X127180668Y-103815185D01*
X127180663Y-103815187D01*
X127031342Y-103907289D01*
X126907289Y-104031342D01*
X126815187Y-104180663D01*
X126815185Y-104180668D01*
X126795310Y-104240648D01*
X126760001Y-104347203D01*
X126760001Y-104347204D01*
X126760000Y-104347204D01*
X126749500Y-104449983D01*
X126749500Y-107350001D01*
X126749501Y-107350018D01*
X126760000Y-107452796D01*
X126760001Y-107452799D01*
X126780051Y-107513305D01*
X126815186Y-107619334D01*
X126907288Y-107768656D01*
X127031344Y-107892712D01*
X127180666Y-107984814D01*
X127347203Y-108039999D01*
X127449991Y-108050500D01*
X127903213Y-108050499D01*
X127970252Y-108070183D01*
X128016007Y-108122987D01*
X128027212Y-108175033D01*
X128007312Y-112799928D01*
X128006369Y-113018977D01*
X128006369Y-113018978D01*
X128006145Y-113070942D01*
X128001847Y-114069547D01*
X127992409Y-114116465D01*
X127930264Y-114266498D01*
X127930261Y-114266510D01*
X127899500Y-114421153D01*
X127899500Y-114578846D01*
X127930261Y-114733489D01*
X127930264Y-114733501D01*
X127979574Y-114852547D01*
X127987043Y-114922016D01*
X127979575Y-114947450D01*
X127930263Y-115066503D01*
X127930261Y-115066510D01*
X127899500Y-115221153D01*
X127899500Y-115378846D01*
X127930261Y-115533489D01*
X127930264Y-115533501D01*
X127979574Y-115652547D01*
X127987043Y-115722016D01*
X127979575Y-115747450D01*
X127930263Y-115866503D01*
X127930261Y-115866510D01*
X127899500Y-116021153D01*
X127899500Y-116178846D01*
X127930261Y-116333489D01*
X127930264Y-116333501D01*
X127981924Y-116458220D01*
X127991362Y-116506206D01*
X127972884Y-120800455D01*
X127949870Y-126148613D01*
X127953596Y-126184064D01*
X127961372Y-126258031D01*
X127972751Y-126310451D01*
X128007642Y-126414767D01*
X128007645Y-126414773D01*
X128085845Y-126535547D01*
X128131779Y-126588194D01*
X128131780Y-126588195D01*
X128240838Y-126682045D01*
X128240839Y-126682045D01*
X128240843Y-126682048D01*
X128343866Y-126728673D01*
X128371919Y-126741369D01*
X128424532Y-126756622D01*
X128439022Y-126760824D01*
X128439026Y-126760825D01*
X128581510Y-126780815D01*
X152344411Y-126699841D01*
X152397580Y-126696855D01*
X152423515Y-126694022D01*
X152476075Y-126685459D01*
X152610884Y-126635177D01*
X152672207Y-126601692D01*
X152787388Y-126515469D01*
X153893623Y-125409235D01*
X153929788Y-125368973D01*
X153946422Y-125348331D01*
X153978067Y-125304447D01*
X154037838Y-125173570D01*
X154057523Y-125106531D01*
X154057524Y-125106527D01*
X154078000Y-124964111D01*
X154078000Y-117318388D01*
X154075103Y-117264348D01*
X154072269Y-117237990D01*
X154063614Y-117184578D01*
X154013332Y-117049769D01*
X153979847Y-116988446D01*
X153893623Y-116873265D01*
X153893618Y-116873260D01*
X153893613Y-116873254D01*
X152442869Y-115422511D01*
X152430232Y-115407715D01*
X152384153Y-115344292D01*
X152373987Y-115327703D01*
X152338398Y-115257857D01*
X152330951Y-115239880D01*
X152324868Y-115221158D01*
X152306728Y-115165329D01*
X152302190Y-115146427D01*
X152289926Y-115068983D01*
X152288400Y-115049588D01*
X152288400Y-104250409D01*
X152289926Y-104231013D01*
X152297899Y-104180668D01*
X152302190Y-104153573D01*
X152306730Y-104134663D01*
X152330954Y-104060110D01*
X152338394Y-104042148D01*
X152373996Y-103972277D01*
X152384142Y-103955719D01*
X152430239Y-103892272D01*
X152442861Y-103877494D01*
X153587894Y-102732461D01*
X153602672Y-102719839D01*
X153666119Y-102673742D01*
X153682677Y-102663596D01*
X153752548Y-102627994D01*
X153770510Y-102620554D01*
X153845060Y-102596331D01*
X153863976Y-102591789D01*
X153941413Y-102579525D01*
X153960809Y-102578000D01*
X166887514Y-102578000D01*
X166897660Y-102577455D01*
X166941552Y-102575103D01*
X166941560Y-102575102D01*
X166941562Y-102575102D01*
X166941563Y-102575102D01*
X166948556Y-102574349D01*
X166967910Y-102572269D01*
X166967920Y-102572267D01*
X166967923Y-102572267D01*
X166977522Y-102570711D01*
X167021322Y-102563614D01*
X167156131Y-102513332D01*
X167217454Y-102479847D01*
X167332635Y-102393623D01*
X167953623Y-101772635D01*
X167989788Y-101732374D01*
X168006422Y-101711732D01*
X168038067Y-101667848D01*
X168097838Y-101536971D01*
X168117523Y-101469932D01*
X168117524Y-101469928D01*
X168138000Y-101327512D01*
X168138000Y-100374471D01*
X168122297Y-100249453D01*
X168107319Y-100190773D01*
X168107129Y-100190027D01*
X168106673Y-100188868D01*
X168060993Y-100072773D01*
X168060991Y-100072770D01*
X168034734Y-100037695D01*
X168010316Y-99972231D01*
X168010000Y-99963384D01*
X168010000Y-98969900D01*
X168029685Y-98902861D01*
X168082489Y-98857106D01*
X168134000Y-98845900D01*
X168160000Y-98845900D01*
X168160000Y-98924891D01*
X168200889Y-99077491D01*
X168279881Y-99214308D01*
X168391592Y-99326019D01*
X168528409Y-99405011D01*
X168681009Y-99445900D01*
X168838991Y-99445900D01*
X168991591Y-99405011D01*
X169128408Y-99326019D01*
X169240119Y-99214308D01*
X169319111Y-99077491D01*
X169360000Y-98924891D01*
X169360000Y-98845900D01*
X169386000Y-98845900D01*
X169453039Y-98865585D01*
X169498794Y-98918389D01*
X169510000Y-98969900D01*
X169510000Y-99433769D01*
X169504884Y-99451190D01*
X169504786Y-99469350D01*
X169490773Y-99499245D01*
X169490315Y-99500808D01*
X169489950Y-99501374D01*
X169489659Y-99501819D01*
X169481960Y-99513432D01*
X169481610Y-99514196D01*
X169478739Y-99518612D01*
X169477455Y-99519711D01*
X169447633Y-99576231D01*
X169418616Y-99642246D01*
X169418615Y-99642248D01*
X169410394Y-99682813D01*
X169408721Y-99691068D01*
X169408466Y-99690993D01*
X169402471Y-99711413D01*
X169397281Y-99747509D01*
X169396574Y-99750999D01*
X169396572Y-99751000D01*
X169390037Y-99783255D01*
X169390037Y-99783258D01*
X169388948Y-99802285D01*
X169387889Y-99812841D01*
X169382000Y-99853802D01*
X169382000Y-101885096D01*
X169380473Y-101904495D01*
X169368211Y-101981910D01*
X169363670Y-102000825D01*
X169339444Y-102075388D01*
X169332000Y-102093358D01*
X169296410Y-102163205D01*
X169286244Y-102179795D01*
X169240165Y-102243217D01*
X169227528Y-102258012D01*
X167818009Y-103667531D01*
X167803212Y-103680169D01*
X167739798Y-103726241D01*
X167723211Y-103736406D01*
X167653357Y-103772000D01*
X167635386Y-103779444D01*
X167560823Y-103803670D01*
X167541909Y-103808211D01*
X167500640Y-103814747D01*
X167464492Y-103820473D01*
X167445097Y-103822000D01*
X154518386Y-103822000D01*
X154464337Y-103824897D01*
X154464336Y-103824897D01*
X154438003Y-103827729D01*
X154437976Y-103827732D01*
X154384580Y-103836385D01*
X154384578Y-103836385D01*
X154249773Y-103886666D01*
X154188448Y-103920151D01*
X154073266Y-104006376D01*
X154073254Y-104006386D01*
X153716792Y-104362849D01*
X153716755Y-104362888D01*
X153680628Y-104403106D01*
X153680618Y-104403118D01*
X153663976Y-104423769D01*
X153632333Y-104467651D01*
X153572563Y-104598525D01*
X153552876Y-104665570D01*
X153532400Y-104807989D01*
X153532400Y-106879050D01*
X153536340Y-106942044D01*
X153536340Y-106942049D01*
X153540189Y-106972693D01*
X153540191Y-106972702D01*
X153551951Y-107034718D01*
X153607009Y-107167647D01*
X153607011Y-107167650D01*
X153642660Y-107227737D01*
X153645723Y-107231680D01*
X153646831Y-107232913D01*
X153721123Y-107325107D01*
X153747860Y-107389658D01*
X153739132Y-107450361D01*
X153713064Y-107513297D01*
X153713061Y-107513305D01*
X153682300Y-107667953D01*
X153682300Y-107825646D01*
X153713061Y-107980289D01*
X153713064Y-107980301D01*
X153739694Y-108044592D01*
X153741482Y-108061224D01*
X153748162Y-108076560D01*
X153745139Y-108095241D01*
X153747163Y-108114062D01*
X153739590Y-108129536D01*
X153737003Y-108145533D01*
X153717402Y-108174884D01*
X153713475Y-108179258D01*
X153713456Y-108179269D01*
X153682173Y-108214120D01*
X153682167Y-108214127D01*
X153674683Y-108222461D01*
X153674670Y-108222479D01*
X153673851Y-108223392D01*
X153669127Y-108230464D01*
X153668463Y-108231422D01*
X153668072Y-108231736D01*
X153660318Y-108241907D01*
X153632362Y-108274168D01*
X153632360Y-108274171D01*
X153620080Y-108301051D01*
X153610419Y-108318379D01*
X153593987Y-108342988D01*
X153581231Y-108383756D01*
X153576593Y-108396199D01*
X153576140Y-108397239D01*
X153572577Y-108405040D01*
X153572227Y-108406230D01*
X153572221Y-108406245D01*
X153570805Y-108411071D01*
X153570801Y-108411085D01*
X153556336Y-108460324D01*
X153556260Y-108460604D01*
X153552875Y-108472136D01*
X153552529Y-108474536D01*
X153551296Y-108479144D01*
X153551022Y-108480305D01*
X153541266Y-108540590D01*
X153540476Y-108558372D01*
X153532400Y-108614545D01*
X153532400Y-113301163D01*
X153544929Y-113413010D01*
X153544931Y-113413018D01*
X153557070Y-113466518D01*
X153557075Y-113466536D01*
X153594038Y-113572829D01*
X153594044Y-113572841D01*
X153673973Y-113692467D01*
X153720648Y-113744431D01*
X153720657Y-113744440D01*
X153720666Y-113744450D01*
X153720669Y-113744453D01*
X153808641Y-113817974D01*
X153847458Y-113876068D01*
X153850741Y-113937312D01*
X153834700Y-114017953D01*
X153834700Y-114175646D01*
X153865461Y-114330289D01*
X153865464Y-114330301D01*
X153925802Y-114475972D01*
X153925809Y-114475985D01*
X154013410Y-114607088D01*
X154013413Y-114607092D01*
X154073893Y-114667572D01*
X154107378Y-114728895D01*
X154102828Y-114792555D01*
X154103262Y-114792650D01*
X154102605Y-114795666D01*
X154102398Y-114798574D01*
X154101378Y-114801308D01*
X154070795Y-114941899D01*
X154070794Y-114941907D01*
X154065810Y-115011599D01*
X154076074Y-115155110D01*
X154126356Y-115289919D01*
X154146988Y-115327703D01*
X154158693Y-115349141D01*
X154159841Y-115351242D01*
X154246065Y-115466423D01*
X154246069Y-115466427D01*
X154246074Y-115466433D01*
X155167532Y-116387890D01*
X155180169Y-116402686D01*
X155226242Y-116466100D01*
X155236409Y-116482690D01*
X155267267Y-116543253D01*
X155271998Y-116552537D01*
X155279447Y-116570520D01*
X155303668Y-116645067D01*
X155308210Y-116663985D01*
X155320473Y-116741404D01*
X155322000Y-116760803D01*
X155322000Y-125521695D01*
X155320473Y-125541095D01*
X155308210Y-125618511D01*
X155303668Y-125637428D01*
X155279446Y-125711977D01*
X155272000Y-125729954D01*
X155250213Y-125772713D01*
X155250205Y-125772730D01*
X155218485Y-125850276D01*
X155206174Y-125889336D01*
X155206169Y-125889354D01*
X155187698Y-125971052D01*
X155187696Y-125971065D01*
X155188186Y-126114935D01*
X155188186Y-126114936D01*
X155188187Y-126114938D01*
X155188512Y-126117143D01*
X155198366Y-126184064D01*
X155239370Y-126321973D01*
X155239370Y-126321975D01*
X155239372Y-126321978D01*
X155317572Y-126442752D01*
X155363506Y-126495399D01*
X155363507Y-126495400D01*
X155472565Y-126589250D01*
X155472566Y-126589250D01*
X155472570Y-126589253D01*
X155574044Y-126635177D01*
X155603646Y-126648574D01*
X155631226Y-126656570D01*
X155670749Y-126668029D01*
X155670750Y-126668029D01*
X155670753Y-126668030D01*
X155813236Y-126688020D01*
X165042579Y-126656570D01*
X165109684Y-126676026D01*
X165155618Y-126728673D01*
X165167000Y-126780568D01*
X165167000Y-126947869D01*
X165167001Y-126947876D01*
X165173408Y-127007483D01*
X165223702Y-127142328D01*
X165223706Y-127142335D01*
X165309952Y-127257544D01*
X165309955Y-127257547D01*
X165425164Y-127343793D01*
X165425171Y-127343797D01*
X165560017Y-127394091D01*
X165560016Y-127394091D01*
X165566944Y-127394835D01*
X165619627Y-127400500D01*
X167620372Y-127400499D01*
X167679983Y-127394091D01*
X167814831Y-127343796D01*
X167930046Y-127257546D01*
X168016296Y-127142331D01*
X168026872Y-127113974D01*
X168068740Y-127058041D01*
X168134204Y-127033622D01*
X168202477Y-127048472D01*
X168215939Y-127056988D01*
X168398717Y-127189784D01*
X168398728Y-127189791D01*
X168410000Y-127195533D01*
X168410000Y-126024000D01*
X168429685Y-125956961D01*
X168482489Y-125911206D01*
X168534000Y-125900000D01*
X168560000Y-125900000D01*
X168560000Y-125978991D01*
X168600889Y-126131591D01*
X168679881Y-126268408D01*
X168791592Y-126380119D01*
X168928409Y-126459111D01*
X169081009Y-126500000D01*
X169238991Y-126500000D01*
X169391591Y-126459111D01*
X169528408Y-126380119D01*
X169640119Y-126268408D01*
X169719111Y-126131591D01*
X169760000Y-125978991D01*
X169760000Y-125900000D01*
X169786000Y-125900000D01*
X169853039Y-125919685D01*
X169898794Y-125972489D01*
X169910000Y-126024000D01*
X169910000Y-127195533D01*
X169921271Y-127189791D01*
X169921282Y-127189784D01*
X170106236Y-127055407D01*
X170106242Y-127055402D01*
X170267905Y-126893739D01*
X170329371Y-126809137D01*
X170384701Y-126766470D01*
X170454314Y-126760491D01*
X170516109Y-126793096D01*
X170530007Y-126809134D01*
X170591714Y-126894066D01*
X170753434Y-127055786D01*
X170938462Y-127190217D01*
X171070599Y-127257544D01*
X171142244Y-127294049D01*
X171359751Y-127364721D01*
X171359752Y-127364721D01*
X171359755Y-127364722D01*
X171585646Y-127400500D01*
X171585647Y-127400500D01*
X171814353Y-127400500D01*
X171814354Y-127400500D01*
X172040245Y-127364722D01*
X172040248Y-127364721D01*
X172040249Y-127364721D01*
X172257755Y-127294049D01*
X172257755Y-127294048D01*
X172257758Y-127294048D01*
X172461538Y-127190217D01*
X172646566Y-127055786D01*
X172808286Y-126894066D01*
X172942717Y-126709038D01*
X172965763Y-126663806D01*
X173013734Y-126613013D01*
X173081554Y-126596217D01*
X173110776Y-126601008D01*
X173136658Y-126608512D01*
X173136659Y-126608512D01*
X173136662Y-126608513D01*
X173279145Y-126628503D01*
X180998379Y-126602200D01*
X181104126Y-126590647D01*
X181154840Y-126579613D01*
X181154849Y-126579609D01*
X181154853Y-126579609D01*
X181199312Y-126564892D01*
X181255841Y-126546180D01*
X181377138Y-126468793D01*
X181430093Y-126423213D01*
X181524669Y-126314794D01*
X181550821Y-126258031D01*
X181584875Y-126184114D01*
X181604779Y-126117149D01*
X181604781Y-126117141D01*
X181605106Y-126114935D01*
X181625730Y-125974794D01*
X181642511Y-120919888D01*
X181662418Y-120852918D01*
X181715373Y-120807338D01*
X181767145Y-120796305D01*
X182524333Y-120800205D01*
X182572749Y-120800455D01*
X182572749Y-120800454D01*
X182572759Y-120800455D01*
X182681544Y-120789184D01*
X182681558Y-120789181D01*
X182681559Y-120789181D01*
X182712833Y-120782461D01*
X182733684Y-120777982D01*
X182733686Y-120777982D01*
X182733690Y-120777980D01*
X182733693Y-120777980D01*
X182837504Y-120743577D01*
X182958543Y-120665789D01*
X183011347Y-120620034D01*
X183105567Y-120511300D01*
X183165338Y-120380423D01*
X183185023Y-120313384D01*
X183185024Y-120313380D01*
X183205500Y-120170964D01*
X183205500Y-115349141D01*
X188601900Y-115349141D01*
X188601900Y-115598258D01*
X188601901Y-115598275D01*
X188634417Y-115845261D01*
X188698898Y-116085907D01*
X188794230Y-116316061D01*
X188794237Y-116316076D01*
X188918800Y-116531826D01*
X189070460Y-116729474D01*
X189070466Y-116729481D01*
X189246618Y-116905633D01*
X189246625Y-116905639D01*
X189444273Y-117057299D01*
X189660023Y-117181862D01*
X189660038Y-117181869D01*
X189759225Y-117222953D01*
X189890193Y-117277202D01*
X190130835Y-117341682D01*
X190377835Y-117374200D01*
X190377842Y-117374200D01*
X190626958Y-117374200D01*
X190626965Y-117374200D01*
X190873965Y-117341682D01*
X191114607Y-117277202D01*
X191344773Y-117181864D01*
X191560527Y-117057299D01*
X191758176Y-116905638D01*
X191934338Y-116729476D01*
X192085999Y-116531827D01*
X192210564Y-116316073D01*
X192305902Y-116085907D01*
X192370382Y-115845265D01*
X192402900Y-115598265D01*
X192402900Y-115349135D01*
X192370382Y-115102135D01*
X192305902Y-114861493D01*
X192210564Y-114631327D01*
X192196570Y-114607089D01*
X192085999Y-114415573D01*
X191934339Y-114217925D01*
X191934333Y-114217918D01*
X191758181Y-114041766D01*
X191758174Y-114041760D01*
X191560526Y-113890100D01*
X191344776Y-113765537D01*
X191344761Y-113765530D01*
X191114607Y-113670198D01*
X190873961Y-113605717D01*
X190626975Y-113573201D01*
X190626970Y-113573200D01*
X190626965Y-113573200D01*
X190377835Y-113573200D01*
X190377829Y-113573200D01*
X190377824Y-113573201D01*
X190130838Y-113605717D01*
X189890192Y-113670198D01*
X189660038Y-113765530D01*
X189660023Y-113765537D01*
X189444273Y-113890100D01*
X189246625Y-114041760D01*
X189246618Y-114041766D01*
X189070466Y-114217918D01*
X189070460Y-114217925D01*
X188918800Y-114415573D01*
X188794237Y-114631323D01*
X188794230Y-114631338D01*
X188698898Y-114861492D01*
X188634417Y-115102138D01*
X188601901Y-115349124D01*
X188601900Y-115349141D01*
X183205500Y-115349141D01*
X183205500Y-109273684D01*
X188601900Y-109273684D01*
X188601900Y-111673715D01*
X188612400Y-111776495D01*
X188612401Y-111776496D01*
X188667586Y-111943035D01*
X188667587Y-111943037D01*
X188759686Y-112092351D01*
X188759689Y-112092355D01*
X188883744Y-112216410D01*
X188883748Y-112216413D01*
X189033062Y-112308512D01*
X189033064Y-112308513D01*
X189033066Y-112308514D01*
X189199603Y-112363699D01*
X189302392Y-112374200D01*
X189302397Y-112374200D01*
X191702403Y-112374200D01*
X191702408Y-112374200D01*
X191805197Y-112363699D01*
X191971734Y-112308514D01*
X192121055Y-112216411D01*
X192245111Y-112092355D01*
X192337214Y-111943034D01*
X192392399Y-111776497D01*
X192402900Y-111673708D01*
X192402900Y-109273692D01*
X192392399Y-109170903D01*
X192337214Y-109004366D01*
X192245111Y-108855045D01*
X192121055Y-108730989D01*
X192121051Y-108730986D01*
X191971737Y-108638887D01*
X191971735Y-108638886D01*
X191888465Y-108611293D01*
X191805197Y-108583701D01*
X191805195Y-108583700D01*
X191702415Y-108573200D01*
X191702408Y-108573200D01*
X189302392Y-108573200D01*
X189302384Y-108573200D01*
X189199604Y-108583700D01*
X189199603Y-108583701D01*
X189033064Y-108638886D01*
X189033062Y-108638887D01*
X188883748Y-108730986D01*
X188883744Y-108730989D01*
X188759689Y-108855044D01*
X188759686Y-108855048D01*
X188667587Y-109004362D01*
X188667586Y-109004364D01*
X188612401Y-109170903D01*
X188612400Y-109170904D01*
X188601900Y-109273684D01*
X183205500Y-109273684D01*
X183205500Y-101821153D01*
X186999500Y-101821153D01*
X186999500Y-101978846D01*
X187030261Y-102133489D01*
X187030264Y-102133501D01*
X187090602Y-102279172D01*
X187090609Y-102279185D01*
X187178210Y-102410288D01*
X187178213Y-102410292D01*
X187289707Y-102521786D01*
X187289711Y-102521789D01*
X187420814Y-102609390D01*
X187420827Y-102609397D01*
X187551655Y-102663587D01*
X187566503Y-102669737D01*
X187721153Y-102700499D01*
X187721156Y-102700500D01*
X187721158Y-102700500D01*
X187878844Y-102700500D01*
X187878845Y-102700499D01*
X188033497Y-102669737D01*
X188179179Y-102609394D01*
X188310289Y-102521789D01*
X188421789Y-102410289D01*
X188509394Y-102279179D01*
X188569737Y-102133497D01*
X188600500Y-101978842D01*
X188600500Y-101821158D01*
X188600500Y-101821155D01*
X188600499Y-101821153D01*
X188569739Y-101666511D01*
X188569736Y-101666501D01*
X188548971Y-101616369D01*
X188541502Y-101546900D01*
X188572778Y-101484421D01*
X188575791Y-101481296D01*
X188814059Y-101243030D01*
X188852500Y-101150225D01*
X188852500Y-101049775D01*
X188852500Y-99886140D01*
X188872185Y-99819101D01*
X188924989Y-99773346D01*
X188929048Y-99771578D01*
X188933488Y-99769738D01*
X188933497Y-99769737D01*
X189079179Y-99709394D01*
X189210289Y-99621789D01*
X189321789Y-99510289D01*
X189409394Y-99379179D01*
X189469737Y-99233497D01*
X189500500Y-99078842D01*
X189500500Y-98921158D01*
X189500500Y-98921155D01*
X189500499Y-98921153D01*
X189496860Y-98902861D01*
X189469737Y-98766503D01*
X189446419Y-98710208D01*
X189409397Y-98620827D01*
X189409390Y-98620814D01*
X189321789Y-98489711D01*
X189321786Y-98489707D01*
X189210292Y-98378213D01*
X189210288Y-98378210D01*
X189079185Y-98290609D01*
X189079172Y-98290602D01*
X188933501Y-98230264D01*
X188933489Y-98230261D01*
X188778845Y-98199500D01*
X188778842Y-98199500D01*
X188621158Y-98199500D01*
X188621155Y-98199500D01*
X188466510Y-98230261D01*
X188466498Y-98230264D01*
X188320827Y-98290602D01*
X188320814Y-98290609D01*
X188189711Y-98378210D01*
X188189707Y-98378213D01*
X188078213Y-98489707D01*
X188078210Y-98489711D01*
X187990609Y-98620814D01*
X187990602Y-98620827D01*
X187930264Y-98766498D01*
X187930261Y-98766510D01*
X187899500Y-98921153D01*
X187899500Y-99078846D01*
X187930261Y-99233489D01*
X187930264Y-99233501D01*
X187990602Y-99379172D01*
X187990609Y-99379185D01*
X188078210Y-99510288D01*
X188078213Y-99510292D01*
X188189708Y-99621787D01*
X188189711Y-99621789D01*
X188292391Y-99690398D01*
X188337196Y-99744008D01*
X188347500Y-99793499D01*
X188347500Y-100944048D01*
X188338855Y-100973488D01*
X188332332Y-101003475D01*
X188328577Y-101008490D01*
X188327815Y-101011087D01*
X188311181Y-101031729D01*
X188218762Y-101124148D01*
X188157439Y-101157633D01*
X188087747Y-101152649D01*
X188083629Y-101151028D01*
X188081690Y-101150225D01*
X188047155Y-101135920D01*
X188033498Y-101130263D01*
X188033488Y-101130260D01*
X187878845Y-101099500D01*
X187878842Y-101099500D01*
X187721158Y-101099500D01*
X187721155Y-101099500D01*
X187566510Y-101130261D01*
X187566498Y-101130264D01*
X187420827Y-101190602D01*
X187420814Y-101190609D01*
X187289711Y-101278210D01*
X187289707Y-101278213D01*
X187178213Y-101389707D01*
X187178210Y-101389711D01*
X187090609Y-101520814D01*
X187090602Y-101520827D01*
X187030264Y-101666498D01*
X187030261Y-101666510D01*
X186999500Y-101821153D01*
X183205500Y-101821153D01*
X183205500Y-86783713D01*
X192649500Y-86783713D01*
X192649500Y-86996286D01*
X192682753Y-87206239D01*
X192748444Y-87408414D01*
X192844951Y-87597820D01*
X192969890Y-87769786D01*
X193120213Y-87920109D01*
X193292182Y-88045050D01*
X193300946Y-88049516D01*
X193351742Y-88097491D01*
X193368536Y-88165312D01*
X193345998Y-88231447D01*
X193300946Y-88270484D01*
X193292182Y-88274949D01*
X193120213Y-88399890D01*
X192969890Y-88550213D01*
X192844951Y-88722179D01*
X192748444Y-88911585D01*
X192682753Y-89113760D01*
X192649500Y-89323713D01*
X192649500Y-89536286D01*
X192682753Y-89746239D01*
X192748444Y-89948414D01*
X192844951Y-90137820D01*
X192969890Y-90309786D01*
X193120213Y-90460109D01*
X193292182Y-90585050D01*
X193300946Y-90589516D01*
X193351742Y-90637491D01*
X193368536Y-90705312D01*
X193345998Y-90771447D01*
X193300946Y-90810484D01*
X193292182Y-90814949D01*
X193120213Y-90939890D01*
X192969890Y-91090213D01*
X192844951Y-91262179D01*
X192748444Y-91451585D01*
X192682753Y-91653760D01*
X192649500Y-91863713D01*
X192649500Y-92076286D01*
X192682753Y-92286239D01*
X192748444Y-92488414D01*
X192844951Y-92677820D01*
X192969890Y-92849786D01*
X193120213Y-93000109D01*
X193292182Y-93125050D01*
X193300946Y-93129516D01*
X193351742Y-93177491D01*
X193368536Y-93245312D01*
X193345998Y-93311447D01*
X193300946Y-93350484D01*
X193292182Y-93354949D01*
X193120213Y-93479890D01*
X192969890Y-93630213D01*
X192844951Y-93802179D01*
X192748444Y-93991585D01*
X192682753Y-94193760D01*
X192649500Y-94403713D01*
X192649500Y-94616286D01*
X192681264Y-94816840D01*
X192682754Y-94826243D01*
X192718278Y-94935575D01*
X192748444Y-95028414D01*
X192844951Y-95217820D01*
X192969890Y-95389786D01*
X193120213Y-95540109D01*
X193292182Y-95665050D01*
X193300946Y-95669516D01*
X193351742Y-95717491D01*
X193368536Y-95785312D01*
X193345998Y-95851447D01*
X193300946Y-95890484D01*
X193292182Y-95894949D01*
X193120213Y-96019890D01*
X192969890Y-96170213D01*
X192844951Y-96342179D01*
X192748444Y-96531585D01*
X192682753Y-96733760D01*
X192658939Y-96884117D01*
X192649500Y-96943713D01*
X192649500Y-97156287D01*
X192682754Y-97366243D01*
X192686315Y-97377204D01*
X192748444Y-97568414D01*
X192844951Y-97757820D01*
X192969890Y-97929786D01*
X193120213Y-98080109D01*
X193292182Y-98205050D01*
X193300946Y-98209516D01*
X193351742Y-98257491D01*
X193368536Y-98325312D01*
X193345998Y-98391447D01*
X193300946Y-98430484D01*
X193292182Y-98434949D01*
X193120213Y-98559890D01*
X192969890Y-98710213D01*
X192844951Y-98882179D01*
X192748444Y-99071585D01*
X192748443Y-99071587D01*
X192748443Y-99071588D01*
X192746086Y-99078842D01*
X192682753Y-99273760D01*
X192649500Y-99483713D01*
X192649500Y-99696286D01*
X192679370Y-99884881D01*
X192682754Y-99906243D01*
X192711010Y-99993207D01*
X192748444Y-100108414D01*
X192844951Y-100297820D01*
X192969890Y-100469786D01*
X193120213Y-100620109D01*
X193292179Y-100745048D01*
X193292181Y-100745049D01*
X193292184Y-100745051D01*
X193481588Y-100841557D01*
X193683757Y-100907246D01*
X193893713Y-100940500D01*
X193893714Y-100940500D01*
X194106286Y-100940500D01*
X194106287Y-100940500D01*
X194316243Y-100907246D01*
X194518412Y-100841557D01*
X194707816Y-100745051D01*
X194819275Y-100664072D01*
X194879786Y-100620109D01*
X194879788Y-100620106D01*
X194879792Y-100620104D01*
X195030104Y-100469792D01*
X195030106Y-100469788D01*
X195030109Y-100469786D01*
X195155048Y-100297820D01*
X195155047Y-100297820D01*
X195155051Y-100297816D01*
X195251557Y-100108412D01*
X195317246Y-99906243D01*
X195350500Y-99696287D01*
X195350500Y-99483713D01*
X195317246Y-99273757D01*
X195251557Y-99071588D01*
X195155051Y-98882184D01*
X195155049Y-98882181D01*
X195155048Y-98882179D01*
X195030109Y-98710213D01*
X194879786Y-98559890D01*
X194707820Y-98434951D01*
X194707115Y-98434591D01*
X194699054Y-98430485D01*
X194648259Y-98382512D01*
X194631463Y-98314692D01*
X194653999Y-98248556D01*
X194699054Y-98209515D01*
X194707816Y-98205051D01*
X194856011Y-98097382D01*
X194879786Y-98080109D01*
X194879788Y-98080106D01*
X194879792Y-98080104D01*
X195030104Y-97929792D01*
X195030106Y-97929788D01*
X195030109Y-97929786D01*
X195155048Y-97757820D01*
X195155047Y-97757820D01*
X195155051Y-97757816D01*
X195251557Y-97568412D01*
X195317246Y-97366243D01*
X195350500Y-97156287D01*
X195350500Y-96943713D01*
X195317246Y-96733757D01*
X195251557Y-96531588D01*
X195155051Y-96342184D01*
X195155049Y-96342181D01*
X195155048Y-96342179D01*
X195030109Y-96170213D01*
X194879786Y-96019890D01*
X194707820Y-95894951D01*
X194707115Y-95894591D01*
X194699054Y-95890485D01*
X194648259Y-95842512D01*
X194631463Y-95774692D01*
X194653999Y-95708556D01*
X194699054Y-95669515D01*
X194707816Y-95665051D01*
X194850153Y-95561638D01*
X194879786Y-95540109D01*
X194879788Y-95540106D01*
X194879792Y-95540104D01*
X195030104Y-95389792D01*
X195030106Y-95389788D01*
X195030109Y-95389786D01*
X195155048Y-95217820D01*
X195155047Y-95217820D01*
X195155051Y-95217816D01*
X195251557Y-95028412D01*
X195317246Y-94826243D01*
X195350500Y-94616287D01*
X195350500Y-94403713D01*
X195317246Y-94193757D01*
X195251557Y-93991588D01*
X195155051Y-93802184D01*
X195155049Y-93802181D01*
X195155048Y-93802179D01*
X195030109Y-93630213D01*
X194879786Y-93479890D01*
X194707820Y-93354951D01*
X194702754Y-93352370D01*
X194699054Y-93350485D01*
X194648259Y-93302512D01*
X194631463Y-93234692D01*
X194653999Y-93168556D01*
X194699054Y-93129515D01*
X194707816Y-93125051D01*
X194771729Y-93078616D01*
X194879786Y-93000109D01*
X194879788Y-93000106D01*
X194879792Y-93000104D01*
X195030104Y-92849792D01*
X195030106Y-92849788D01*
X195030109Y-92849786D01*
X195155048Y-92677820D01*
X195155047Y-92677820D01*
X195155051Y-92677816D01*
X195251557Y-92488412D01*
X195317246Y-92286243D01*
X195350500Y-92076287D01*
X195350500Y-91863713D01*
X195317246Y-91653757D01*
X195251557Y-91451588D01*
X195155051Y-91262184D01*
X195155049Y-91262181D01*
X195155048Y-91262179D01*
X195030109Y-91090213D01*
X194879786Y-90939890D01*
X194707820Y-90814951D01*
X194707115Y-90814591D01*
X194699054Y-90810485D01*
X194648259Y-90762512D01*
X194631463Y-90694692D01*
X194653999Y-90628556D01*
X194699054Y-90589515D01*
X194707816Y-90585051D01*
X194729789Y-90569086D01*
X194879786Y-90460109D01*
X194879788Y-90460106D01*
X194879792Y-90460104D01*
X195030104Y-90309792D01*
X195030106Y-90309788D01*
X195030109Y-90309786D01*
X195155048Y-90137820D01*
X195155047Y-90137820D01*
X195155051Y-90137816D01*
X195251557Y-89948412D01*
X195317246Y-89746243D01*
X195350500Y-89536287D01*
X195350500Y-89323713D01*
X195317246Y-89113757D01*
X195251557Y-88911588D01*
X195155051Y-88722184D01*
X195155049Y-88722181D01*
X195155048Y-88722179D01*
X195030109Y-88550213D01*
X194879786Y-88399890D01*
X194707820Y-88274951D01*
X194707115Y-88274591D01*
X194699054Y-88270485D01*
X194648259Y-88222512D01*
X194631463Y-88154692D01*
X194653999Y-88088556D01*
X194699054Y-88049515D01*
X194707816Y-88045051D01*
X194729789Y-88029086D01*
X194879786Y-87920109D01*
X194879788Y-87920106D01*
X194879792Y-87920104D01*
X195030104Y-87769792D01*
X195030106Y-87769788D01*
X195030109Y-87769786D01*
X195155048Y-87597820D01*
X195155047Y-87597820D01*
X195155051Y-87597816D01*
X195251557Y-87408412D01*
X195317246Y-87206243D01*
X195350500Y-86996287D01*
X195350500Y-86783713D01*
X195317246Y-86573757D01*
X195251557Y-86371588D01*
X195155051Y-86182184D01*
X195155049Y-86182181D01*
X195155048Y-86182179D01*
X195030109Y-86010213D01*
X194879786Y-85859890D01*
X194707820Y-85734951D01*
X194518414Y-85638444D01*
X194518413Y-85638443D01*
X194518412Y-85638443D01*
X194316243Y-85572754D01*
X194316241Y-85572753D01*
X194172876Y-85550046D01*
X194109742Y-85520116D01*
X194104593Y-85515254D01*
X194000000Y-85410660D01*
X193999999Y-85410660D01*
X193895402Y-85515255D01*
X193834079Y-85548739D01*
X193827121Y-85550046D01*
X193683759Y-85572753D01*
X193481585Y-85638444D01*
X193292179Y-85734951D01*
X193120213Y-85859890D01*
X192969890Y-86010213D01*
X192844951Y-86182179D01*
X192748444Y-86371585D01*
X192682753Y-86573760D01*
X192649500Y-86783713D01*
X183205500Y-86783713D01*
X183205500Y-84243747D01*
X192650000Y-84243747D01*
X192650000Y-84456246D01*
X192675033Y-84614304D01*
X192675034Y-84614305D01*
X192939340Y-84350000D01*
X192873514Y-84284174D01*
X193500000Y-84284174D01*
X193500000Y-84415826D01*
X193534075Y-84542993D01*
X193599901Y-84657007D01*
X193692993Y-84750099D01*
X193807007Y-84815925D01*
X193934174Y-84850000D01*
X194065826Y-84850000D01*
X194192993Y-84815925D01*
X194307007Y-84750099D01*
X194400099Y-84657007D01*
X194465925Y-84542993D01*
X194500000Y-84415826D01*
X194500000Y-84349999D01*
X195060660Y-84349999D01*
X195060660Y-84350000D01*
X195324964Y-84614305D01*
X195324965Y-84614304D01*
X195350000Y-84456245D01*
X195350000Y-84243754D01*
X195324965Y-84085694D01*
X195060660Y-84349999D01*
X194500000Y-84349999D01*
X194500000Y-84284174D01*
X194465925Y-84157007D01*
X194400099Y-84042993D01*
X194307007Y-83949901D01*
X194192993Y-83884075D01*
X194065826Y-83850000D01*
X193934174Y-83850000D01*
X193807007Y-83884075D01*
X193692993Y-83949901D01*
X193599901Y-84042993D01*
X193534075Y-84157007D01*
X193500000Y-84284174D01*
X192873514Y-84284174D01*
X192675034Y-84085694D01*
X192675033Y-84085694D01*
X192650000Y-84243747D01*
X183205500Y-84243747D01*
X183205500Y-82707844D01*
X192650000Y-82707844D01*
X192656401Y-82767372D01*
X192656403Y-82767379D01*
X192706645Y-82902086D01*
X192706649Y-82902093D01*
X192792809Y-83017187D01*
X192792812Y-83017190D01*
X192907906Y-83103350D01*
X192907913Y-83103354D01*
X193042620Y-83153596D01*
X193042619Y-83153596D01*
X193097469Y-83159493D01*
X193396130Y-82860832D01*
X193457453Y-82827347D01*
X193527144Y-82832331D01*
X193571492Y-82860832D01*
X194000000Y-83289340D01*
X194428507Y-82860833D01*
X194489830Y-82827348D01*
X194559522Y-82832332D01*
X194603869Y-82860833D01*
X194902529Y-83159493D01*
X194957375Y-83153598D01*
X195092086Y-83103354D01*
X195092093Y-83103350D01*
X195207187Y-83017190D01*
X195207190Y-83017187D01*
X195293350Y-82902093D01*
X195293354Y-82902086D01*
X195343596Y-82767379D01*
X195343598Y-82767372D01*
X195349999Y-82707844D01*
X195350000Y-82707827D01*
X195350000Y-82560000D01*
X192650000Y-82560000D01*
X192650000Y-82707844D01*
X183205500Y-82707844D01*
X183205500Y-81744174D01*
X193500000Y-81744174D01*
X193500000Y-81875826D01*
X193534075Y-82002993D01*
X193599901Y-82117007D01*
X193692993Y-82210099D01*
X193807007Y-82275925D01*
X193934174Y-82310000D01*
X194065826Y-82310000D01*
X194192993Y-82275925D01*
X194307007Y-82210099D01*
X194400099Y-82117007D01*
X194465925Y-82002993D01*
X194500000Y-81875826D01*
X194500000Y-81744174D01*
X194465925Y-81617007D01*
X194400099Y-81502993D01*
X194307007Y-81409901D01*
X194192993Y-81344075D01*
X194065826Y-81310000D01*
X193934174Y-81310000D01*
X193807007Y-81344075D01*
X193692993Y-81409901D01*
X193599901Y-81502993D01*
X193534075Y-81617007D01*
X193500000Y-81744174D01*
X183205500Y-81744174D01*
X183205500Y-80912155D01*
X192650000Y-80912155D01*
X192650000Y-81060000D01*
X193250000Y-81060000D01*
X194750000Y-81060000D01*
X195350000Y-81060000D01*
X195350000Y-80912172D01*
X195349999Y-80912155D01*
X195343598Y-80852627D01*
X195343596Y-80852620D01*
X195293354Y-80717913D01*
X195293350Y-80717906D01*
X195207190Y-80602812D01*
X195207187Y-80602809D01*
X195092093Y-80516649D01*
X195092086Y-80516645D01*
X194957379Y-80466403D01*
X194957372Y-80466401D01*
X194897844Y-80460000D01*
X194750000Y-80460000D01*
X194750000Y-81060000D01*
X193250000Y-81060000D01*
X193250000Y-80460000D01*
X193102155Y-80460000D01*
X193042627Y-80466401D01*
X193042620Y-80466403D01*
X192907913Y-80516645D01*
X192907906Y-80516649D01*
X192792812Y-80602809D01*
X192792809Y-80602812D01*
X192706649Y-80717906D01*
X192706645Y-80717913D01*
X192656403Y-80852620D01*
X192656401Y-80852627D01*
X192650000Y-80912155D01*
X183205500Y-80912155D01*
X183205500Y-77024987D01*
X183225185Y-76957948D01*
X183277989Y-76912193D01*
X183328606Y-76900990D01*
X192886422Y-76832228D01*
X192953598Y-76851430D01*
X192999732Y-76903903D01*
X193010173Y-76972989D01*
X193005243Y-76994541D01*
X192982753Y-77063761D01*
X192949500Y-77273713D01*
X192949500Y-77486286D01*
X192982753Y-77696239D01*
X193048444Y-77898414D01*
X193144951Y-78087820D01*
X193269890Y-78259786D01*
X193420213Y-78410109D01*
X193592179Y-78535048D01*
X193592181Y-78535049D01*
X193592184Y-78535051D01*
X193781588Y-78631557D01*
X193983757Y-78697246D01*
X194193713Y-78730500D01*
X194193714Y-78730500D01*
X194406286Y-78730500D01*
X194406287Y-78730500D01*
X194616243Y-78697246D01*
X194818412Y-78631557D01*
X195007816Y-78535051D01*
X195029789Y-78519086D01*
X195179786Y-78410109D01*
X195179788Y-78410106D01*
X195179792Y-78410104D01*
X195330104Y-78259792D01*
X195330106Y-78259788D01*
X195330109Y-78259786D01*
X195455048Y-78087820D01*
X195455047Y-78087820D01*
X195455051Y-78087816D01*
X195551557Y-77898412D01*
X195617246Y-77696243D01*
X195650500Y-77486287D01*
X195650500Y-77273713D01*
X195617246Y-77063757D01*
X195588166Y-76974261D01*
X195586172Y-76904422D01*
X195622252Y-76844589D01*
X195684953Y-76813761D01*
X195705198Y-76811948D01*
X195945411Y-76810220D01*
X196012587Y-76829422D01*
X196058721Y-76881895D01*
X196070300Y-76934217D01*
X196070300Y-150548300D01*
X196050615Y-150615339D01*
X195997811Y-150661094D01*
X195946300Y-150672300D01*
X151442003Y-150672300D01*
X151374964Y-150652615D01*
X151329209Y-150599811D01*
X151318003Y-150547997D01*
X151331283Y-145154784D01*
X151791100Y-145154784D01*
X151791100Y-147554815D01*
X151801600Y-147657595D01*
X151801601Y-147657596D01*
X151856786Y-147824135D01*
X151856787Y-147824137D01*
X151948886Y-147973451D01*
X151948889Y-147973455D01*
X152072944Y-148097510D01*
X152072948Y-148097513D01*
X152222262Y-148189612D01*
X152222264Y-148189613D01*
X152222266Y-148189614D01*
X152388803Y-148244799D01*
X152491592Y-148255300D01*
X152491597Y-148255300D01*
X154891603Y-148255300D01*
X154891608Y-148255300D01*
X154994397Y-148244799D01*
X155160934Y-148189614D01*
X155310255Y-148097511D01*
X155425771Y-147981995D01*
X191699500Y-147981995D01*
X191699500Y-148218004D01*
X191699501Y-148218020D01*
X191730306Y-148452010D01*
X191791394Y-148679993D01*
X191881714Y-148898045D01*
X191881719Y-148898056D01*
X191914219Y-148954346D01*
X191999727Y-149102450D01*
X191999729Y-149102453D01*
X191999730Y-149102454D01*
X192143406Y-149289697D01*
X192143412Y-149289704D01*
X192310295Y-149456587D01*
X192310301Y-149456592D01*
X192497550Y-149600273D01*
X192628918Y-149676118D01*
X192701943Y-149718280D01*
X192701948Y-149718282D01*
X192701951Y-149718284D01*
X192920007Y-149808606D01*
X193147986Y-149869693D01*
X193381989Y-149900500D01*
X193381996Y-149900500D01*
X193618004Y-149900500D01*
X193618011Y-149900500D01*
X193852014Y-149869693D01*
X194079993Y-149808606D01*
X194298049Y-149718284D01*
X194502450Y-149600273D01*
X194689699Y-149456592D01*
X194856592Y-149289699D01*
X195000273Y-149102450D01*
X195118284Y-148898049D01*
X195208606Y-148679993D01*
X195269693Y-148452014D01*
X195300500Y-148218011D01*
X195300500Y-147981989D01*
X195269693Y-147747986D01*
X195208606Y-147520007D01*
X195118284Y-147301951D01*
X195118282Y-147301948D01*
X195118280Y-147301943D01*
X195076118Y-147228918D01*
X195000273Y-147097550D01*
X194881588Y-146942876D01*
X194856593Y-146910302D01*
X194856587Y-146910295D01*
X194689704Y-146743412D01*
X194689697Y-146743406D01*
X194502454Y-146599730D01*
X194502453Y-146599729D01*
X194502450Y-146599727D01*
X194420957Y-146552677D01*
X194298056Y-146481719D01*
X194298045Y-146481714D01*
X194079993Y-146391394D01*
X193852010Y-146330306D01*
X193618020Y-146299501D01*
X193618017Y-146299500D01*
X193618011Y-146299500D01*
X193381989Y-146299500D01*
X193381983Y-146299500D01*
X193381979Y-146299501D01*
X193147989Y-146330306D01*
X192920006Y-146391394D01*
X192701954Y-146481714D01*
X192701943Y-146481719D01*
X192497545Y-146599730D01*
X192310302Y-146743406D01*
X192310295Y-146743412D01*
X192143412Y-146910295D01*
X192143406Y-146910302D01*
X191999730Y-147097545D01*
X191881719Y-147301943D01*
X191881714Y-147301954D01*
X191791394Y-147520006D01*
X191730306Y-147747989D01*
X191699501Y-147981979D01*
X191699500Y-147981995D01*
X155425771Y-147981995D01*
X155434311Y-147973455D01*
X155450430Y-147947321D01*
X155471704Y-147912833D01*
X155526412Y-147824137D01*
X155526413Y-147824135D01*
X155526414Y-147824134D01*
X155581599Y-147657597D01*
X155592100Y-147554808D01*
X155592100Y-145154792D01*
X155581599Y-145052003D01*
X155526414Y-144885466D01*
X155522825Y-144879648D01*
X155502771Y-144847135D01*
X164007000Y-144847135D01*
X164007000Y-146942870D01*
X164007001Y-146942876D01*
X164013408Y-147002483D01*
X164063702Y-147137328D01*
X164063706Y-147137335D01*
X164149952Y-147252544D01*
X164149955Y-147252547D01*
X164265164Y-147338793D01*
X164265171Y-147338797D01*
X164400017Y-147389091D01*
X164400016Y-147389091D01*
X164406944Y-147389835D01*
X164459627Y-147395500D01*
X166460372Y-147395499D01*
X166519983Y-147389091D01*
X166654831Y-147338796D01*
X166770046Y-147252546D01*
X166856296Y-147137331D01*
X166866690Y-147109460D01*
X166908560Y-147053527D01*
X166974023Y-147029108D01*
X167042297Y-147043958D01*
X167055746Y-147052465D01*
X167238462Y-147185217D01*
X167370599Y-147252544D01*
X167442244Y-147289049D01*
X167659751Y-147359721D01*
X167659752Y-147359721D01*
X167659755Y-147359722D01*
X167885646Y-147395500D01*
X167885647Y-147395500D01*
X168114353Y-147395500D01*
X168114354Y-147395500D01*
X168340245Y-147359722D01*
X168340248Y-147359721D01*
X168340249Y-147359721D01*
X168557755Y-147289049D01*
X168557755Y-147289048D01*
X168557758Y-147289048D01*
X168761538Y-147185217D01*
X168946566Y-147050786D01*
X169108286Y-146889066D01*
X169169683Y-146804559D01*
X169225012Y-146761896D01*
X169294625Y-146755917D01*
X169356420Y-146788523D01*
X169370314Y-146804556D01*
X169431714Y-146889066D01*
X169593434Y-147050786D01*
X169778462Y-147185217D01*
X169910599Y-147252544D01*
X169982244Y-147289049D01*
X170199751Y-147359721D01*
X170199752Y-147359721D01*
X170199755Y-147359722D01*
X170425646Y-147395500D01*
X170425647Y-147395500D01*
X170654353Y-147395500D01*
X170654354Y-147395500D01*
X170880245Y-147359722D01*
X170880248Y-147359721D01*
X170880249Y-147359721D01*
X171097755Y-147289049D01*
X171097755Y-147289048D01*
X171097758Y-147289048D01*
X171301538Y-147185217D01*
X171486566Y-147050786D01*
X171648286Y-146889066D01*
X171782717Y-146704038D01*
X171886548Y-146500258D01*
X171928032Y-146372582D01*
X171957221Y-146282749D01*
X171957221Y-146282748D01*
X171957222Y-146282745D01*
X171993000Y-146056854D01*
X171993000Y-145733146D01*
X171957222Y-145507255D01*
X171957221Y-145507251D01*
X171957221Y-145507250D01*
X171886549Y-145289744D01*
X171817790Y-145154797D01*
X171782717Y-145085962D01*
X171648286Y-144900934D01*
X171486566Y-144739214D01*
X171301538Y-144604783D01*
X171261809Y-144584540D01*
X171097755Y-144500950D01*
X170880248Y-144430278D01*
X170694812Y-144400908D01*
X170654354Y-144394500D01*
X170425646Y-144394500D01*
X170385188Y-144400908D01*
X170199753Y-144430278D01*
X170199750Y-144430278D01*
X169982244Y-144500950D01*
X169778461Y-144604783D01*
X169712550Y-144652671D01*
X169593434Y-144739214D01*
X169593432Y-144739216D01*
X169593431Y-144739216D01*
X169431715Y-144900932D01*
X169370318Y-144985438D01*
X169314987Y-145028103D01*
X169245374Y-145034082D01*
X169183579Y-145001476D01*
X169169682Y-144985438D01*
X169135110Y-144937854D01*
X169108286Y-144900934D01*
X168946566Y-144739214D01*
X168761538Y-144604783D01*
X168721809Y-144584540D01*
X168557755Y-144500950D01*
X168340248Y-144430278D01*
X168154812Y-144400908D01*
X168114354Y-144394500D01*
X167885646Y-144394500D01*
X167845188Y-144400908D01*
X167659753Y-144430278D01*
X167659750Y-144430278D01*
X167442244Y-144500950D01*
X167238461Y-144604783D01*
X167134194Y-144680538D01*
X167057660Y-144736144D01*
X167055759Y-144737525D01*
X166989952Y-144761005D01*
X166921898Y-144745180D01*
X166873203Y-144695074D01*
X166866690Y-144680538D01*
X166856296Y-144652669D01*
X166856293Y-144652664D01*
X166770047Y-144537455D01*
X166770044Y-144537452D01*
X166654835Y-144451206D01*
X166654828Y-144451202D01*
X166519982Y-144400908D01*
X166519983Y-144400908D01*
X166460383Y-144394501D01*
X166460381Y-144394500D01*
X166460373Y-144394500D01*
X166460364Y-144394500D01*
X164459629Y-144394500D01*
X164459623Y-144394501D01*
X164400016Y-144400908D01*
X164265171Y-144451202D01*
X164265164Y-144451206D01*
X164149955Y-144537452D01*
X164149952Y-144537455D01*
X164063706Y-144652664D01*
X164063702Y-144652671D01*
X164013408Y-144787517D01*
X164007001Y-144847116D01*
X164007000Y-144847135D01*
X155502771Y-144847135D01*
X155434313Y-144736148D01*
X155434310Y-144736144D01*
X155310255Y-144612089D01*
X155310251Y-144612086D01*
X155160937Y-144519987D01*
X155160935Y-144519986D01*
X155077665Y-144492393D01*
X154994397Y-144464801D01*
X154994395Y-144464800D01*
X154891615Y-144454300D01*
X154891608Y-144454300D01*
X152491592Y-144454300D01*
X152491584Y-144454300D01*
X152388804Y-144464800D01*
X152388803Y-144464801D01*
X152222264Y-144519986D01*
X152222262Y-144519987D01*
X152072948Y-144612086D01*
X152072944Y-144612089D01*
X151948889Y-144736144D01*
X151948886Y-144736148D01*
X151856787Y-144885462D01*
X151856786Y-144885464D01*
X151801601Y-145052003D01*
X151801600Y-145052004D01*
X151791100Y-145154784D01*
X151331283Y-145154784D01*
X151340895Y-141251419D01*
X151329491Y-141143396D01*
X151318300Y-141091612D01*
X151284084Y-140988528D01*
X151206331Y-140867466D01*
X151160591Y-140814649D01*
X151051885Y-140720399D01*
X150921024Y-140660591D01*
X150884997Y-140650001D01*
X150856115Y-140641511D01*
X150854537Y-140641016D01*
X150853989Y-140640886D01*
X150711573Y-140620368D01*
X150711574Y-140620368D01*
X136623464Y-140616312D01*
X136556431Y-140596608D01*
X136510691Y-140543791D01*
X136499500Y-140492312D01*
X136499500Y-139710110D01*
X136499500Y-139710100D01*
X136487947Y-139602644D01*
X136476741Y-139551133D01*
X136476637Y-139550822D01*
X136442616Y-139448602D01*
X136442613Y-139448596D01*
X136364828Y-139327562D01*
X136364825Y-139327557D01*
X136346469Y-139306373D01*
X136319076Y-139274759D01*
X136319072Y-139274756D01*
X136319070Y-139274753D01*
X136210336Y-139180533D01*
X136210333Y-139180531D01*
X136210331Y-139180530D01*
X136079465Y-139120764D01*
X136079460Y-139120762D01*
X136079459Y-139120762D01*
X136012420Y-139101077D01*
X136012422Y-139101077D01*
X136012417Y-139101076D01*
X135950347Y-139092152D01*
X135870000Y-139080600D01*
X135869998Y-139080600D01*
X132274325Y-139080600D01*
X132207286Y-139060915D01*
X132161531Y-139008111D01*
X132151036Y-138953166D01*
X132150500Y-138953166D01*
X132150500Y-138950362D01*
X132150486Y-138950289D01*
X132150500Y-138950014D01*
X132150500Y-137749983D01*
X162249500Y-137749983D01*
X162249500Y-140650001D01*
X162249501Y-140650018D01*
X162260000Y-140752796D01*
X162260001Y-140752799D01*
X162315185Y-140919331D01*
X162315186Y-140919334D01*
X162407288Y-141068656D01*
X162531344Y-141192712D01*
X162680666Y-141284814D01*
X162847203Y-141339999D01*
X162949991Y-141350500D01*
X167050008Y-141350499D01*
X167152797Y-141339999D01*
X167319334Y-141284814D01*
X167468656Y-141192712D01*
X167592712Y-141068656D01*
X167684814Y-140919334D01*
X167739999Y-140752797D01*
X167750500Y-140650009D01*
X167750499Y-137749992D01*
X167750498Y-137749983D01*
X171049500Y-137749983D01*
X171049500Y-140650001D01*
X171049501Y-140650018D01*
X171060000Y-140752796D01*
X171060001Y-140752799D01*
X171115185Y-140919331D01*
X171115186Y-140919334D01*
X171207288Y-141068656D01*
X171331344Y-141192712D01*
X171480666Y-141284814D01*
X171647203Y-141339999D01*
X171749991Y-141350500D01*
X175850008Y-141350499D01*
X175952797Y-141339999D01*
X176119334Y-141284814D01*
X176268656Y-141192712D01*
X176392712Y-141068656D01*
X176484814Y-140919334D01*
X176539999Y-140752797D01*
X176550500Y-140650009D01*
X176550500Y-140457941D01*
X188382000Y-140457941D01*
X188382000Y-140707058D01*
X188382001Y-140707075D01*
X188414517Y-140954061D01*
X188478998Y-141194707D01*
X188574330Y-141424861D01*
X188574337Y-141424876D01*
X188698900Y-141640626D01*
X188850560Y-141838274D01*
X188850566Y-141838281D01*
X189026718Y-142014433D01*
X189026725Y-142014439D01*
X189224373Y-142166099D01*
X189440123Y-142290662D01*
X189440138Y-142290669D01*
X189539325Y-142331753D01*
X189670293Y-142386002D01*
X189910935Y-142450482D01*
X190157935Y-142483000D01*
X190157942Y-142483000D01*
X190407058Y-142483000D01*
X190407065Y-142483000D01*
X190654065Y-142450482D01*
X190894707Y-142386002D01*
X191124873Y-142290664D01*
X191340627Y-142166099D01*
X191538276Y-142014438D01*
X191714438Y-141838276D01*
X191866099Y-141640627D01*
X191990664Y-141424873D01*
X192086002Y-141194707D01*
X192150482Y-140954065D01*
X192183000Y-140707065D01*
X192183000Y-140457935D01*
X192150482Y-140210935D01*
X192086002Y-139970293D01*
X192003491Y-139771094D01*
X191990669Y-139740138D01*
X191990662Y-139740123D01*
X191866099Y-139524373D01*
X191714439Y-139326725D01*
X191714433Y-139326718D01*
X191538281Y-139150566D01*
X191538274Y-139150560D01*
X191340626Y-138998900D01*
X191124876Y-138874337D01*
X191124861Y-138874330D01*
X190894707Y-138778998D01*
X190654061Y-138714517D01*
X190407075Y-138682001D01*
X190407070Y-138682000D01*
X190407065Y-138682000D01*
X190157935Y-138682000D01*
X190157929Y-138682000D01*
X190157924Y-138682001D01*
X189910938Y-138714517D01*
X189670292Y-138778998D01*
X189440138Y-138874330D01*
X189440123Y-138874337D01*
X189224373Y-138998900D01*
X189026725Y-139150560D01*
X189026718Y-139150566D01*
X188850566Y-139326718D01*
X188850560Y-139326725D01*
X188698900Y-139524373D01*
X188574337Y-139740123D01*
X188574330Y-139740138D01*
X188478998Y-139970292D01*
X188414517Y-140210938D01*
X188382001Y-140457924D01*
X188382000Y-140457941D01*
X176550500Y-140457941D01*
X176550499Y-139180533D01*
X176550499Y-137749998D01*
X176550498Y-137749981D01*
X176539999Y-137647203D01*
X176539998Y-137647200D01*
X176485587Y-137483000D01*
X176484814Y-137480666D01*
X176392712Y-137331344D01*
X176268656Y-137207288D01*
X176119334Y-137115186D01*
X175952797Y-137060001D01*
X175952795Y-137060000D01*
X175850010Y-137049500D01*
X171749998Y-137049500D01*
X171749981Y-137049501D01*
X171647203Y-137060000D01*
X171647200Y-137060001D01*
X171480668Y-137115185D01*
X171480663Y-137115187D01*
X171331342Y-137207289D01*
X171207289Y-137331342D01*
X171115187Y-137480663D01*
X171115185Y-137480668D01*
X171087349Y-137564670D01*
X171060001Y-137647203D01*
X171060001Y-137647204D01*
X171060000Y-137647204D01*
X171049500Y-137749983D01*
X167750498Y-137749983D01*
X167750176Y-137746834D01*
X167739999Y-137647203D01*
X167739998Y-137647200D01*
X167685587Y-137483000D01*
X167684814Y-137480666D01*
X167592712Y-137331344D01*
X167468656Y-137207288D01*
X167319334Y-137115186D01*
X167152797Y-137060001D01*
X167152795Y-137060000D01*
X167050010Y-137049500D01*
X162949998Y-137049500D01*
X162949981Y-137049501D01*
X162847203Y-137060000D01*
X162847200Y-137060001D01*
X162680668Y-137115185D01*
X162680663Y-137115187D01*
X162531342Y-137207289D01*
X162407289Y-137331342D01*
X162315187Y-137480663D01*
X162315185Y-137480668D01*
X162287349Y-137564670D01*
X162260001Y-137647203D01*
X162260001Y-137647204D01*
X162260000Y-137647204D01*
X162249500Y-137749983D01*
X132150500Y-137749983D01*
X132150500Y-137746834D01*
X132150499Y-134849998D01*
X132150498Y-134849981D01*
X132139999Y-134747203D01*
X132139998Y-134747200D01*
X132084814Y-134580666D01*
X131992712Y-134431344D01*
X131943852Y-134382484D01*
X188382000Y-134382484D01*
X188382000Y-136782515D01*
X188392500Y-136885295D01*
X188392501Y-136885296D01*
X188447686Y-137051835D01*
X188447687Y-137051837D01*
X188539786Y-137201151D01*
X188539789Y-137201155D01*
X188663844Y-137325210D01*
X188663848Y-137325213D01*
X188813162Y-137417312D01*
X188813164Y-137417313D01*
X188813166Y-137417314D01*
X188979703Y-137472499D01*
X189082492Y-137483000D01*
X189082497Y-137483000D01*
X191482503Y-137483000D01*
X191482508Y-137483000D01*
X191585297Y-137472499D01*
X191751834Y-137417314D01*
X191901155Y-137325211D01*
X192025211Y-137201155D01*
X192117314Y-137051834D01*
X192172499Y-136885297D01*
X192183000Y-136782508D01*
X192183000Y-134382492D01*
X192172499Y-134279703D01*
X192117314Y-134113166D01*
X192025211Y-133963845D01*
X191901155Y-133839789D01*
X191901151Y-133839786D01*
X191751837Y-133747687D01*
X191751835Y-133747686D01*
X191668565Y-133720093D01*
X191585297Y-133692501D01*
X191585295Y-133692500D01*
X191482515Y-133682000D01*
X191482508Y-133682000D01*
X189082492Y-133682000D01*
X189082484Y-133682000D01*
X188979704Y-133692500D01*
X188979703Y-133692501D01*
X188813164Y-133747686D01*
X188813162Y-133747687D01*
X188663848Y-133839786D01*
X188663844Y-133839789D01*
X188539789Y-133963844D01*
X188539786Y-133963848D01*
X188447687Y-134113162D01*
X188447686Y-134113164D01*
X188392501Y-134279703D01*
X188392500Y-134279704D01*
X188382000Y-134382484D01*
X131943852Y-134382484D01*
X131868656Y-134307288D01*
X131719334Y-134215186D01*
X131552797Y-134160001D01*
X131552795Y-134160000D01*
X131450010Y-134149500D01*
X128549998Y-134149500D01*
X128549981Y-134149501D01*
X128447203Y-134160000D01*
X128447200Y-134160001D01*
X128280668Y-134215185D01*
X128280663Y-134215187D01*
X128131342Y-134307289D01*
X128007289Y-134431342D01*
X127915187Y-134580663D01*
X127915186Y-134580666D01*
X127860001Y-134747203D01*
X127860001Y-134747204D01*
X127860000Y-134747204D01*
X127849500Y-134849983D01*
X127849500Y-138950018D01*
X127849515Y-138950293D01*
X127849500Y-138950351D01*
X127849501Y-138953164D01*
X127848828Y-138953164D01*
X127833266Y-139018247D01*
X127782858Y-139066628D01*
X127725676Y-139080600D01*
X125503200Y-139080600D01*
X125503191Y-139080600D01*
X125503190Y-139080601D01*
X125395749Y-139092152D01*
X125395737Y-139092154D01*
X125344227Y-139103360D01*
X125241702Y-139137483D01*
X125241696Y-139137486D01*
X125120658Y-139215274D01*
X125106128Y-139227864D01*
X125042571Y-139256886D01*
X125034815Y-139257753D01*
X124962668Y-139263523D01*
X124962656Y-139263526D01*
X124825310Y-139306373D01*
X124825308Y-139306375D01*
X124705595Y-139386184D01*
X124613211Y-139496494D01*
X124555651Y-139628354D01*
X124537570Y-139771090D01*
X124560438Y-139913145D01*
X124560439Y-139913148D01*
X124622399Y-140043001D01*
X124889609Y-140443816D01*
X124910417Y-140510515D01*
X124891862Y-140577876D01*
X124889609Y-140581382D01*
X124622399Y-140982198D01*
X124583182Y-141052605D01*
X124583179Y-141052612D01*
X124542645Y-141190658D01*
X124542645Y-141323213D01*
X124541662Y-141338796D01*
X124537571Y-141371090D01*
X124537571Y-141371091D01*
X124537571Y-141371094D01*
X124546229Y-141424876D01*
X124560438Y-141513145D01*
X124560439Y-141513148D01*
X124622399Y-141643001D01*
X124889609Y-142043816D01*
X124910417Y-142110515D01*
X124891862Y-142177876D01*
X124889609Y-142181382D01*
X124622399Y-142582198D01*
X124583182Y-142652605D01*
X124583179Y-142652612D01*
X124542645Y-142790658D01*
X124542645Y-142934537D01*
X124543390Y-142939719D01*
X124543669Y-142972948D01*
X124537570Y-143021091D01*
X124560438Y-143163145D01*
X124560439Y-143163148D01*
X124622399Y-143293001D01*
X124889609Y-143693816D01*
X124910417Y-143760515D01*
X124891862Y-143827876D01*
X124889609Y-143831382D01*
X124622399Y-144232198D01*
X124583182Y-144302605D01*
X124583179Y-144302612D01*
X124542645Y-144440658D01*
X124542645Y-144584540D01*
X124583182Y-144722594D01*
X124660967Y-144843630D01*
X124660968Y-144843631D01*
X124660969Y-144843632D01*
X124665004Y-144847128D01*
X124775043Y-144942479D01*
X124812816Y-145001257D01*
X124812816Y-145071127D01*
X124775041Y-145129905D01*
X124762624Y-145139364D01*
X124705595Y-145177384D01*
X124613211Y-145287694D01*
X124555651Y-145419554D01*
X124537570Y-145562290D01*
X124560438Y-145704345D01*
X124560439Y-145704348D01*
X124622399Y-145834201D01*
X124889609Y-146235016D01*
X124910417Y-146301715D01*
X124891862Y-146369076D01*
X124889609Y-146372582D01*
X124622399Y-146773398D01*
X124583182Y-146843805D01*
X124583179Y-146843812D01*
X124542645Y-146981858D01*
X124542645Y-147114413D01*
X124541662Y-147129996D01*
X124537571Y-147162290D01*
X124537571Y-147162291D01*
X124537571Y-147162294D01*
X124560438Y-147304346D01*
X124586861Y-147359722D01*
X124622399Y-147434201D01*
X124889609Y-147835016D01*
X124910417Y-147901715D01*
X124891862Y-147969076D01*
X124889609Y-147972582D01*
X124622399Y-148373398D01*
X124583182Y-148443805D01*
X124583179Y-148443812D01*
X124542645Y-148581858D01*
X124542645Y-148725737D01*
X124543390Y-148730919D01*
X124543669Y-148764148D01*
X124537570Y-148812291D01*
X124560438Y-148954345D01*
X124560439Y-148954348D01*
X124622399Y-149084201D01*
X124889609Y-149485016D01*
X124910417Y-149551715D01*
X124891862Y-149619076D01*
X124889609Y-149622582D01*
X124622399Y-150023398D01*
X124583182Y-150093805D01*
X124583179Y-150093812D01*
X124542645Y-150231858D01*
X124542645Y-150231860D01*
X124542645Y-150375740D01*
X124583056Y-150513366D01*
X124583056Y-150583234D01*
X124545282Y-150642012D01*
X124481727Y-150671038D01*
X124464079Y-150672300D01*
X118495300Y-150672300D01*
X118428261Y-150652615D01*
X118382506Y-150599811D01*
X118371300Y-150548300D01*
X118371300Y-147981995D01*
X119099500Y-147981995D01*
X119099500Y-148218004D01*
X119099501Y-148218020D01*
X119130306Y-148452010D01*
X119191394Y-148679993D01*
X119281714Y-148898045D01*
X119281719Y-148898056D01*
X119314219Y-148954346D01*
X119399727Y-149102450D01*
X119399729Y-149102453D01*
X119399730Y-149102454D01*
X119543406Y-149289697D01*
X119543412Y-149289704D01*
X119710295Y-149456587D01*
X119710301Y-149456592D01*
X119897550Y-149600273D01*
X120028918Y-149676118D01*
X120101943Y-149718280D01*
X120101948Y-149718282D01*
X120101951Y-149718284D01*
X120320007Y-149808606D01*
X120547986Y-149869693D01*
X120781989Y-149900500D01*
X120781996Y-149900500D01*
X121018004Y-149900500D01*
X121018011Y-149900500D01*
X121252014Y-149869693D01*
X121479993Y-149808606D01*
X121698049Y-149718284D01*
X121902450Y-149600273D01*
X122089699Y-149456592D01*
X122256592Y-149289699D01*
X122400273Y-149102450D01*
X122518284Y-148898049D01*
X122608606Y-148679993D01*
X122669693Y-148452014D01*
X122700500Y-148218011D01*
X122700500Y-147981989D01*
X122669693Y-147747986D01*
X122608606Y-147520007D01*
X122518284Y-147301951D01*
X122518282Y-147301948D01*
X122518280Y-147301943D01*
X122476118Y-147228918D01*
X122400273Y-147097550D01*
X122281588Y-146942876D01*
X122256593Y-146910302D01*
X122256587Y-146910295D01*
X122089704Y-146743412D01*
X122089697Y-146743406D01*
X121902454Y-146599730D01*
X121902453Y-146599729D01*
X121902450Y-146599727D01*
X121820957Y-146552677D01*
X121698056Y-146481719D01*
X121698045Y-146481714D01*
X121479993Y-146391394D01*
X121252010Y-146330306D01*
X121018020Y-146299501D01*
X121018017Y-146299500D01*
X121018011Y-146299500D01*
X120781989Y-146299500D01*
X120781983Y-146299500D01*
X120781979Y-146299501D01*
X120547989Y-146330306D01*
X120320006Y-146391394D01*
X120101954Y-146481714D01*
X120101943Y-146481719D01*
X119897545Y-146599730D01*
X119710302Y-146743406D01*
X119710295Y-146743412D01*
X119543412Y-146910295D01*
X119543406Y-146910302D01*
X119399730Y-147097545D01*
X119281719Y-147301943D01*
X119281714Y-147301954D01*
X119191394Y-147520006D01*
X119130306Y-147747989D01*
X119099501Y-147981979D01*
X119099500Y-147981995D01*
X118371300Y-147981995D01*
X118371300Y-131717758D01*
X167799500Y-131717758D01*
X167799500Y-131947241D01*
X167824446Y-132136715D01*
X167829452Y-132174738D01*
X167829453Y-132174740D01*
X167888842Y-132396387D01*
X167976650Y-132608376D01*
X167976657Y-132608390D01*
X168091392Y-132807117D01*
X168231081Y-132989161D01*
X168231089Y-132989170D01*
X168393330Y-133151411D01*
X168393338Y-133151418D01*
X168575382Y-133291107D01*
X168575385Y-133291108D01*
X168575388Y-133291111D01*
X168774112Y-133405844D01*
X168774117Y-133405846D01*
X168774123Y-133405849D01*
X168865480Y-133443690D01*
X168986113Y-133493658D01*
X169207762Y-133553048D01*
X169435266Y-133583000D01*
X169435273Y-133583000D01*
X169664727Y-133583000D01*
X169664734Y-133583000D01*
X169892238Y-133553048D01*
X170113887Y-133493658D01*
X170325888Y-133405844D01*
X170524612Y-133291111D01*
X170706661Y-133151419D01*
X170706665Y-133151414D01*
X170706670Y-133151411D01*
X170868911Y-132989170D01*
X170868914Y-132989165D01*
X170868919Y-132989161D01*
X171008611Y-132807112D01*
X171123344Y-132608388D01*
X171211158Y-132396387D01*
X171270548Y-132174738D01*
X171300500Y-131947234D01*
X171300500Y-131717766D01*
X171300499Y-131717758D01*
X177199500Y-131717758D01*
X177199500Y-131947241D01*
X177224446Y-132136715D01*
X177229452Y-132174738D01*
X177229453Y-132174740D01*
X177288842Y-132396387D01*
X177376650Y-132608376D01*
X177376657Y-132608390D01*
X177491392Y-132807117D01*
X177631081Y-132989161D01*
X177631089Y-132989170D01*
X177793330Y-133151411D01*
X177793338Y-133151418D01*
X177975382Y-133291107D01*
X177975385Y-133291108D01*
X177975388Y-133291111D01*
X178174112Y-133405844D01*
X178174117Y-133405846D01*
X178174123Y-133405849D01*
X178265480Y-133443690D01*
X178386113Y-133493658D01*
X178607762Y-133553048D01*
X178835266Y-133583000D01*
X178835273Y-133583000D01*
X179064727Y-133583000D01*
X179064734Y-133583000D01*
X179292238Y-133553048D01*
X179513887Y-133493658D01*
X179725888Y-133405844D01*
X179924612Y-133291111D01*
X180106661Y-133151419D01*
X180106665Y-133151414D01*
X180106670Y-133151411D01*
X180268911Y-132989170D01*
X180268914Y-132989165D01*
X180268919Y-132989161D01*
X180408611Y-132807112D01*
X180523344Y-132608388D01*
X180611158Y-132396387D01*
X180670548Y-132174738D01*
X180700500Y-131947234D01*
X180700500Y-131717766D01*
X180670548Y-131490262D01*
X180611158Y-131268613D01*
X180523344Y-131056612D01*
X180408611Y-130857888D01*
X180408608Y-130857885D01*
X180408607Y-130857882D01*
X180268918Y-130675838D01*
X180268911Y-130675830D01*
X180106670Y-130513589D01*
X180106661Y-130513581D01*
X179924617Y-130373892D01*
X179725890Y-130259157D01*
X179725876Y-130259150D01*
X179513887Y-130171342D01*
X179292238Y-130111952D01*
X179254215Y-130106946D01*
X179064741Y-130082000D01*
X179064734Y-130082000D01*
X178835266Y-130082000D01*
X178835258Y-130082000D01*
X178618715Y-130110509D01*
X178607762Y-130111952D01*
X178514076Y-130137054D01*
X178386112Y-130171342D01*
X178174123Y-130259150D01*
X178174109Y-130259157D01*
X177975382Y-130373892D01*
X177793338Y-130513581D01*
X177631081Y-130675838D01*
X177491392Y-130857882D01*
X177376657Y-131056609D01*
X177376650Y-131056623D01*
X177288842Y-131268612D01*
X177229453Y-131490259D01*
X177229451Y-131490270D01*
X177199500Y-131717758D01*
X171300499Y-131717758D01*
X171270548Y-131490262D01*
X171211158Y-131268613D01*
X171123344Y-131056612D01*
X171008611Y-130857888D01*
X171008608Y-130857885D01*
X171008607Y-130857882D01*
X170868918Y-130675838D01*
X170868911Y-130675830D01*
X170706670Y-130513589D01*
X170706661Y-130513581D01*
X170524617Y-130373892D01*
X170325890Y-130259157D01*
X170325876Y-130259150D01*
X170113887Y-130171342D01*
X169892238Y-130111952D01*
X169854215Y-130106946D01*
X169664741Y-130082000D01*
X169664734Y-130082000D01*
X169435266Y-130082000D01*
X169435258Y-130082000D01*
X169218715Y-130110509D01*
X169207762Y-130111952D01*
X169114076Y-130137054D01*
X168986112Y-130171342D01*
X168774123Y-130259150D01*
X168774109Y-130259157D01*
X168575382Y-130373892D01*
X168393338Y-130513581D01*
X168231081Y-130675838D01*
X168091392Y-130857882D01*
X167976657Y-131056609D01*
X167976650Y-131056623D01*
X167888842Y-131268612D01*
X167829453Y-131490259D01*
X167829451Y-131490270D01*
X167799500Y-131717758D01*
X118371300Y-131717758D01*
X118371300Y-64781995D01*
X119199500Y-64781995D01*
X119199500Y-65018004D01*
X119199501Y-65018020D01*
X119230306Y-65252010D01*
X119291394Y-65479993D01*
X119381714Y-65698045D01*
X119381719Y-65698056D01*
X119452677Y-65820957D01*
X119499727Y-65902450D01*
X119499729Y-65902453D01*
X119499730Y-65902454D01*
X119643406Y-66089697D01*
X119643412Y-66089704D01*
X119810295Y-66256587D01*
X119810301Y-66256592D01*
X119997550Y-66400273D01*
X120128918Y-66476118D01*
X120201943Y-66518280D01*
X120201948Y-66518282D01*
X120201951Y-66518284D01*
X120420007Y-66608606D01*
X120647986Y-66669693D01*
X120881989Y-66700500D01*
X120881996Y-66700500D01*
X121118004Y-66700500D01*
X121118011Y-66700500D01*
X121352014Y-66669693D01*
X121579993Y-66608606D01*
X121798049Y-66518284D01*
X122002450Y-66400273D01*
X122189699Y-66256592D01*
X122356592Y-66089699D01*
X122500273Y-65902450D01*
X122618284Y-65698049D01*
X122708606Y-65479993D01*
X122769693Y-65252014D01*
X122800500Y-65018011D01*
X122800500Y-64781989D01*
X122769693Y-64547986D01*
X122708606Y-64320007D01*
X122618284Y-64101951D01*
X122618282Y-64101948D01*
X122618280Y-64101943D01*
X122576118Y-64028918D01*
X122500273Y-63897550D01*
X122356592Y-63710301D01*
X122356587Y-63710295D01*
X122189704Y-63543412D01*
X122189697Y-63543406D01*
X122002454Y-63399730D01*
X122002453Y-63399729D01*
X122002450Y-63399727D01*
X121920957Y-63352677D01*
X121798056Y-63281719D01*
X121798045Y-63281714D01*
X121579993Y-63191394D01*
X121352010Y-63130306D01*
X121118020Y-63099501D01*
X121118017Y-63099500D01*
X121118011Y-63099500D01*
X120881989Y-63099500D01*
X120881983Y-63099500D01*
X120881979Y-63099501D01*
X120647989Y-63130306D01*
X120420006Y-63191394D01*
X120201954Y-63281714D01*
X120201943Y-63281719D01*
X119997545Y-63399730D01*
X119810302Y-63543406D01*
X119810295Y-63543412D01*
X119643412Y-63710295D01*
X119643406Y-63710302D01*
X119499730Y-63897545D01*
X119381719Y-64101943D01*
X119381714Y-64101954D01*
X119291394Y-64320006D01*
X119230306Y-64547989D01*
X119199501Y-64781979D01*
X119199500Y-64781995D01*
X118371300Y-64781995D01*
X118371300Y-62397300D01*
X118390985Y-62330261D01*
X118443789Y-62284506D01*
X118495300Y-62273300D01*
X132310497Y-62273300D01*
X132377536Y-62292985D01*
G37*
%TD.AperFunction*%
%TA.AperFunction,Conductor*%
G36*
X135663919Y-100594331D02*
G01*
X135739406Y-100639121D01*
X135739402Y-100639126D01*
X135748325Y-100644312D01*
X135777896Y-100664072D01*
X135796683Y-100679490D01*
X135820502Y-100703308D01*
X135835925Y-100722100D01*
X135854638Y-100750106D01*
X135866098Y-100771546D01*
X135878990Y-100802671D01*
X135886045Y-100825926D01*
X135886045Y-100825927D01*
X135892617Y-100858961D01*
X135895000Y-100883156D01*
X135895000Y-100916839D01*
X135892616Y-100941035D01*
X135886043Y-100974073D01*
X135878988Y-100997329D01*
X135866098Y-101028449D01*
X135854639Y-101049888D01*
X135835920Y-101077903D01*
X135820502Y-101096689D01*
X135820499Y-101096693D01*
X135796693Y-101120499D01*
X135777903Y-101135920D01*
X135749885Y-101154641D01*
X135728446Y-101166100D01*
X135697328Y-101178989D01*
X135674071Y-101186045D01*
X135657340Y-101189373D01*
X135641031Y-101192617D01*
X135616841Y-101195000D01*
X135583159Y-101195000D01*
X135558970Y-101192617D01*
X135525924Y-101186044D01*
X135502667Y-101178988D01*
X135471547Y-101166098D01*
X135450107Y-101154638D01*
X135422099Y-101135923D01*
X135403312Y-101120505D01*
X135379495Y-101096689D01*
X135364074Y-101077899D01*
X135345357Y-101049888D01*
X135333901Y-101028455D01*
X135323554Y-101003475D01*
X135321007Y-100997326D01*
X135313954Y-100974073D01*
X135307381Y-100941031D01*
X135305000Y-100916844D01*
X135305000Y-100883153D01*
X135307382Y-100858964D01*
X135307383Y-100858961D01*
X135313956Y-100825914D01*
X135321006Y-100802674D01*
X135333902Y-100771539D01*
X135345351Y-100750119D01*
X135364079Y-100722090D01*
X135379488Y-100703316D01*
X135403314Y-100679489D01*
X135422101Y-100664072D01*
X135422103Y-100664071D01*
X135450391Y-100645168D01*
X135470834Y-100634127D01*
X135472807Y-100633290D01*
X135476864Y-100631523D01*
X135485004Y-100627892D01*
X135533604Y-100596657D01*
X135600642Y-100576972D01*
X135663919Y-100594331D01*
G37*
%TD.AperFunction*%
%TA.AperFunction,Conductor*%
G36*
X137556250Y-73976947D02*
G01*
X137557368Y-73976641D01*
X137589681Y-73986763D01*
X137622179Y-73996305D01*
X137623300Y-73997294D01*
X137624043Y-73997527D01*
X137650297Y-74021115D01*
X137651440Y-74022483D01*
X137652951Y-74024376D01*
X137720230Y-74084810D01*
X137759860Y-74120408D01*
X137760266Y-74120772D01*
X137760265Y-74120772D01*
X137760267Y-74120773D01*
X137760269Y-74120775D01*
X137779911Y-74133899D01*
X137786402Y-74138236D01*
X137805192Y-74153657D01*
X137829007Y-74177472D01*
X137844428Y-74196262D01*
X137863141Y-74224268D01*
X137874601Y-74245708D01*
X137887493Y-74276833D01*
X137894548Y-74300089D01*
X137901120Y-74333123D01*
X137903503Y-74357318D01*
X137903503Y-74391001D01*
X137901119Y-74415197D01*
X137894546Y-74448235D01*
X137887491Y-74471491D01*
X137874601Y-74502611D01*
X137863142Y-74524050D01*
X137844423Y-74552065D01*
X137829002Y-74570855D01*
X137805196Y-74594661D01*
X137786406Y-74610082D01*
X137758388Y-74628803D01*
X137736949Y-74640262D01*
X137705831Y-74653151D01*
X137682574Y-74660207D01*
X137665843Y-74663535D01*
X137649534Y-74666779D01*
X137625344Y-74669162D01*
X137591661Y-74669162D01*
X137567471Y-74666779D01*
X137546374Y-74662582D01*
X137531596Y-74659643D01*
X137514538Y-74654963D01*
X137470304Y-74639358D01*
X137470285Y-74639352D01*
X137444850Y-74631885D01*
X137392212Y-74619446D01*
X137248427Y-74614311D01*
X137248426Y-74614311D01*
X137248425Y-74614311D01*
X137178958Y-74621779D01*
X137178953Y-74621780D01*
X137178952Y-74621780D01*
X137178946Y-74621781D01*
X137039550Y-74657360D01*
X137039539Y-74657364D01*
X136987331Y-74678989D01*
X136964074Y-74686044D01*
X136947234Y-74689393D01*
X136931031Y-74692617D01*
X136906839Y-74695000D01*
X136873159Y-74695000D01*
X136848970Y-74692617D01*
X136815924Y-74686044D01*
X136792667Y-74678988D01*
X136761547Y-74666098D01*
X136740107Y-74654638D01*
X136712099Y-74635923D01*
X136693312Y-74620505D01*
X136669495Y-74596689D01*
X136654074Y-74577899D01*
X136635358Y-74549890D01*
X136623901Y-74528455D01*
X136613196Y-74502611D01*
X136611007Y-74497326D01*
X136603954Y-74474075D01*
X136597381Y-74441031D01*
X136595000Y-74416844D01*
X136595000Y-74383153D01*
X136597382Y-74358964D01*
X136603956Y-74325914D01*
X136611006Y-74302674D01*
X136623902Y-74271539D01*
X136635351Y-74250119D01*
X136654079Y-74222090D01*
X136669488Y-74203316D01*
X136693314Y-74179489D01*
X136712093Y-74164076D01*
X136740111Y-74145356D01*
X136761545Y-74133900D01*
X136792668Y-74121008D01*
X136815918Y-74113955D01*
X136848970Y-74107381D01*
X136873154Y-74105000D01*
X136906849Y-74105000D01*
X136931040Y-74107383D01*
X136984195Y-74117956D01*
X136988622Y-74118775D01*
X136997438Y-74120408D01*
X136999581Y-74120775D01*
X137004006Y-74121533D01*
X137004019Y-74121535D01*
X137004048Y-74121540D01*
X137017412Y-74123644D01*
X137017414Y-74123644D01*
X137017420Y-74123645D01*
X137161300Y-74123644D01*
X137230458Y-74113700D01*
X137368507Y-74073165D01*
X137488100Y-73996305D01*
X137489211Y-73995979D01*
X137489986Y-73995118D01*
X137522639Y-73986164D01*
X137555139Y-73976621D01*
X137556250Y-73976947D01*
G37*
%TD.AperFunction*%
%TD*%
%TA.AperFunction,Conductor*%
%TO.N,GND*%
G36*
X196013339Y-62292985D02*
G01*
X196059094Y-62345789D01*
X196070300Y-62397300D01*
X196070300Y-76180698D01*
X196050615Y-76247737D01*
X195997811Y-76293492D01*
X195947192Y-76304695D01*
X194902740Y-76312209D01*
X194835561Y-76293007D01*
X194789427Y-76240534D01*
X194778986Y-76171448D01*
X194807553Y-76107686D01*
X194845552Y-76077728D01*
X195007816Y-75995051D01*
X195124482Y-75910289D01*
X195179786Y-75870109D01*
X195179788Y-75870106D01*
X195179792Y-75870104D01*
X195330104Y-75719792D01*
X195330106Y-75719788D01*
X195330109Y-75719786D01*
X195455048Y-75547820D01*
X195455047Y-75547820D01*
X195455051Y-75547816D01*
X195551557Y-75358412D01*
X195617246Y-75156243D01*
X195650500Y-74946287D01*
X195650500Y-74733713D01*
X195617246Y-74523757D01*
X195551557Y-74321588D01*
X195455051Y-74132184D01*
X195455049Y-74132181D01*
X195455048Y-74132179D01*
X195330109Y-73960213D01*
X195179786Y-73809890D01*
X195007820Y-73684951D01*
X195007115Y-73684591D01*
X194999054Y-73680485D01*
X194948259Y-73632512D01*
X194931463Y-73564692D01*
X194953999Y-73498556D01*
X194999054Y-73459515D01*
X195007816Y-73455051D01*
X195112246Y-73379179D01*
X195179786Y-73330109D01*
X195179788Y-73330106D01*
X195179792Y-73330104D01*
X195330104Y-73179792D01*
X195330106Y-73179788D01*
X195330109Y-73179786D01*
X195455048Y-73007820D01*
X195455047Y-73007820D01*
X195455051Y-73007816D01*
X195551557Y-72818412D01*
X195617246Y-72616243D01*
X195650500Y-72406287D01*
X195650500Y-72193713D01*
X195617246Y-71983757D01*
X195551557Y-71781588D01*
X195455051Y-71592184D01*
X195455049Y-71592181D01*
X195455048Y-71592179D01*
X195330109Y-71420213D01*
X195216569Y-71306673D01*
X195183084Y-71245350D01*
X195188068Y-71175658D01*
X195229940Y-71119725D01*
X195260915Y-71102810D01*
X195392331Y-71053796D01*
X195507546Y-70967546D01*
X195593796Y-70852331D01*
X195644091Y-70717483D01*
X195650500Y-70657873D01*
X195650499Y-68862128D01*
X195644091Y-68802517D01*
X195641998Y-68796906D01*
X195593797Y-68667671D01*
X195593793Y-68667664D01*
X195507547Y-68552455D01*
X195507544Y-68552452D01*
X195392335Y-68466206D01*
X195392328Y-68466202D01*
X195257482Y-68415908D01*
X195257483Y-68415908D01*
X195197883Y-68409501D01*
X195197881Y-68409500D01*
X195197873Y-68409500D01*
X195197864Y-68409500D01*
X193402129Y-68409500D01*
X193402123Y-68409501D01*
X193342516Y-68415908D01*
X193207671Y-68466202D01*
X193207664Y-68466206D01*
X193092455Y-68552452D01*
X193092452Y-68552455D01*
X193006206Y-68667664D01*
X193006202Y-68667671D01*
X192955908Y-68802517D01*
X192949501Y-68862116D01*
X192949501Y-68862123D01*
X192949500Y-68862135D01*
X192949500Y-70657870D01*
X192949501Y-70657876D01*
X192955908Y-70717483D01*
X193006202Y-70852328D01*
X193006206Y-70852335D01*
X193092452Y-70967544D01*
X193092455Y-70967547D01*
X193207664Y-71053793D01*
X193207671Y-71053797D01*
X193339082Y-71102810D01*
X193395016Y-71144681D01*
X193419433Y-71210145D01*
X193404582Y-71278418D01*
X193383431Y-71306673D01*
X193269889Y-71420215D01*
X193144951Y-71592179D01*
X193048444Y-71781585D01*
X192982753Y-71983760D01*
X192969648Y-72066503D01*
X192949500Y-72193713D01*
X192949500Y-72406287D01*
X192982754Y-72616243D01*
X193003203Y-72679179D01*
X193048444Y-72818414D01*
X193144951Y-73007820D01*
X193269890Y-73179786D01*
X193420213Y-73330109D01*
X193592182Y-73455050D01*
X193600946Y-73459516D01*
X193651742Y-73507491D01*
X193668536Y-73575312D01*
X193645998Y-73641447D01*
X193600946Y-73680484D01*
X193592182Y-73684949D01*
X193420213Y-73809890D01*
X193269890Y-73960213D01*
X193144951Y-74132179D01*
X193048444Y-74321585D01*
X192982753Y-74523760D01*
X192949500Y-74733713D01*
X192949500Y-74946286D01*
X192981356Y-75147421D01*
X192982754Y-75156243D01*
X193036338Y-75321158D01*
X193048444Y-75358414D01*
X193144951Y-75547820D01*
X193269890Y-75719786D01*
X193420213Y-75870109D01*
X193569008Y-75978213D01*
X193592184Y-75995051D01*
X193661292Y-76030263D01*
X193771205Y-76086267D01*
X193822001Y-76134242D01*
X193838796Y-76202063D01*
X193816259Y-76268198D01*
X193761543Y-76311649D01*
X193715802Y-76320749D01*
X182700000Y-76400000D01*
X182700000Y-120170964D01*
X182680315Y-120238003D01*
X182627511Y-120283758D01*
X182575362Y-120294962D01*
X181139110Y-120287566D01*
X181139109Y-120287567D01*
X181120233Y-125973116D01*
X181100326Y-126040089D01*
X181047371Y-126085669D01*
X180996657Y-126096703D01*
X173277423Y-126123006D01*
X173210316Y-126103550D01*
X173164382Y-126050903D01*
X173153000Y-125999007D01*
X173153000Y-125738146D01*
X173117222Y-125512255D01*
X173117221Y-125512251D01*
X173117221Y-125512250D01*
X173046549Y-125294744D01*
X173046548Y-125294742D01*
X172942717Y-125090962D01*
X172808286Y-124905934D01*
X172646566Y-124744214D01*
X172461538Y-124609783D01*
X172257755Y-124505950D01*
X172040248Y-124435278D01*
X171854812Y-124405908D01*
X171814354Y-124399500D01*
X171585646Y-124399500D01*
X171545188Y-124405908D01*
X171359753Y-124435278D01*
X171359750Y-124435278D01*
X171142244Y-124505950D01*
X170938461Y-124609783D01*
X170872550Y-124657671D01*
X170753434Y-124744214D01*
X170753432Y-124744216D01*
X170753431Y-124744216D01*
X170591715Y-124905932D01*
X170530318Y-124990438D01*
X170474987Y-125033103D01*
X170405374Y-125039082D01*
X170343579Y-125006476D01*
X170329682Y-124990438D01*
X170310554Y-124964111D01*
X170268286Y-124905934D01*
X170106566Y-124744214D01*
X169921538Y-124609783D01*
X169717755Y-124505950D01*
X169500248Y-124435278D01*
X169314812Y-124405908D01*
X169274354Y-124399500D01*
X169045646Y-124399500D01*
X169005188Y-124405908D01*
X168819753Y-124435278D01*
X168819750Y-124435278D01*
X168602244Y-124505950D01*
X168398461Y-124609783D01*
X168215759Y-124742525D01*
X168149952Y-124766005D01*
X168081898Y-124750180D01*
X168033203Y-124700074D01*
X168026690Y-124685538D01*
X168016296Y-124657669D01*
X168016293Y-124657664D01*
X167930047Y-124542455D01*
X167930044Y-124542452D01*
X167814835Y-124456206D01*
X167814828Y-124456202D01*
X167679982Y-124405908D01*
X167679983Y-124405908D01*
X167620383Y-124399501D01*
X167620381Y-124399500D01*
X167620373Y-124399500D01*
X167620364Y-124399500D01*
X165619629Y-124399500D01*
X165619623Y-124399501D01*
X165560016Y-124405908D01*
X165425171Y-124456202D01*
X165425164Y-124456206D01*
X165309955Y-124542452D01*
X165309952Y-124542455D01*
X165223706Y-124657664D01*
X165223702Y-124657671D01*
X165173408Y-124792517D01*
X165167001Y-124852116D01*
X165167000Y-124852135D01*
X165167000Y-126027066D01*
X165147315Y-126094105D01*
X165094511Y-126139860D01*
X165043423Y-126151065D01*
X155811514Y-126182523D01*
X155744407Y-126163067D01*
X155698473Y-126110420D01*
X155688294Y-126041295D01*
X155700608Y-126002226D01*
X155708565Y-125986611D01*
X155744895Y-125915310D01*
X155799737Y-125746523D01*
X155827500Y-125571236D01*
X155827500Y-119452135D01*
X165147000Y-119452135D01*
X165147000Y-121547870D01*
X165147001Y-121547876D01*
X165153408Y-121607483D01*
X165203702Y-121742328D01*
X165203706Y-121742335D01*
X165289952Y-121857544D01*
X165289955Y-121857547D01*
X165405164Y-121943793D01*
X165405171Y-121943797D01*
X165540017Y-121994091D01*
X165540016Y-121994091D01*
X165546944Y-121994835D01*
X165599627Y-122000500D01*
X167600372Y-122000499D01*
X167659983Y-121994091D01*
X167794831Y-121943796D01*
X167910046Y-121857546D01*
X167996296Y-121742331D01*
X168006690Y-121714460D01*
X168048560Y-121658527D01*
X168114023Y-121634108D01*
X168182297Y-121648958D01*
X168195746Y-121657465D01*
X168378462Y-121790217D01*
X168510599Y-121857544D01*
X168582244Y-121894049D01*
X168799751Y-121964721D01*
X168799752Y-121964721D01*
X168799755Y-121964722D01*
X169025646Y-122000500D01*
X169025647Y-122000500D01*
X169254353Y-122000500D01*
X169254354Y-122000500D01*
X169480245Y-121964722D01*
X169480248Y-121964721D01*
X169480249Y-121964721D01*
X169697755Y-121894049D01*
X169697755Y-121894048D01*
X169697758Y-121894048D01*
X169901538Y-121790217D01*
X170086566Y-121655786D01*
X170248286Y-121494066D01*
X170309992Y-121409134D01*
X170365319Y-121366470D01*
X170434932Y-121360491D01*
X170496727Y-121393096D01*
X170510626Y-121409135D01*
X170572097Y-121493741D01*
X170572097Y-121493742D01*
X170733757Y-121655402D01*
X170733763Y-121655407D01*
X170918717Y-121789784D01*
X170918728Y-121789791D01*
X170930000Y-121795533D01*
X172430000Y-121795533D01*
X172441271Y-121789791D01*
X172441282Y-121789784D01*
X172626236Y-121655407D01*
X172626242Y-121655402D01*
X172787902Y-121493742D01*
X172922288Y-121308776D01*
X172952236Y-121250000D01*
X172430000Y-121250000D01*
X172430000Y-121795533D01*
X170930000Y-121795533D01*
X170930000Y-120421009D01*
X171080000Y-120421009D01*
X171080000Y-120578991D01*
X171120889Y-120731591D01*
X171199881Y-120868408D01*
X171311592Y-120980119D01*
X171448409Y-121059111D01*
X171601009Y-121100000D01*
X171758991Y-121100000D01*
X171911591Y-121059111D01*
X172048408Y-120980119D01*
X172160119Y-120868408D01*
X172239111Y-120731591D01*
X172280000Y-120578991D01*
X172280000Y-120421009D01*
X172239111Y-120268409D01*
X172160119Y-120131592D01*
X172048408Y-120019881D01*
X171911591Y-119940889D01*
X171758991Y-119900000D01*
X171601009Y-119900000D01*
X171448409Y-119940889D01*
X171311592Y-120019881D01*
X171199881Y-120131592D01*
X171120889Y-120268409D01*
X171080000Y-120421009D01*
X170930000Y-120421009D01*
X170930000Y-119750000D01*
X172430000Y-119750000D01*
X172952236Y-119750000D01*
X172952236Y-119749999D01*
X172922288Y-119691223D01*
X172787902Y-119506257D01*
X172626242Y-119344597D01*
X172626236Y-119344592D01*
X172441283Y-119210215D01*
X172441276Y-119210211D01*
X172430000Y-119204465D01*
X172430000Y-119750000D01*
X170930000Y-119750000D01*
X170930000Y-119204465D01*
X170918723Y-119210211D01*
X170918716Y-119210215D01*
X170733763Y-119344592D01*
X170733757Y-119344597D01*
X170572097Y-119506257D01*
X170510627Y-119590864D01*
X170455297Y-119633529D01*
X170385684Y-119639508D01*
X170323889Y-119606902D01*
X170309991Y-119590864D01*
X170248286Y-119505934D01*
X170086566Y-119344214D01*
X169901538Y-119209783D01*
X169891101Y-119204465D01*
X169697755Y-119105950D01*
X169480248Y-119035278D01*
X169294812Y-119005908D01*
X169254354Y-118999500D01*
X169025646Y-118999500D01*
X168985188Y-119005908D01*
X168799753Y-119035278D01*
X168799750Y-119035278D01*
X168582244Y-119105950D01*
X168378461Y-119209783D01*
X168195759Y-119342525D01*
X168129952Y-119366005D01*
X168061898Y-119350180D01*
X168013203Y-119300074D01*
X168006690Y-119285538D01*
X167996296Y-119257669D01*
X167996293Y-119257664D01*
X167910047Y-119142455D01*
X167910044Y-119142452D01*
X167794835Y-119056206D01*
X167794828Y-119056202D01*
X167659982Y-119005908D01*
X167659983Y-119005908D01*
X167600383Y-118999501D01*
X167600381Y-118999500D01*
X167600373Y-118999500D01*
X167600364Y-118999500D01*
X165599629Y-118999500D01*
X165599623Y-118999501D01*
X165540016Y-119005908D01*
X165405171Y-119056202D01*
X165405164Y-119056206D01*
X165289955Y-119142452D01*
X165289952Y-119142455D01*
X165203706Y-119257664D01*
X165203702Y-119257671D01*
X165153408Y-119392517D01*
X165147001Y-119452116D01*
X165147000Y-119452135D01*
X155827500Y-119452135D01*
X155827500Y-116711264D01*
X155799737Y-116535977D01*
X155744896Y-116367191D01*
X155744896Y-116367190D01*
X155716993Y-116312430D01*
X155664324Y-116209061D01*
X155650996Y-116190716D01*
X155560014Y-116065489D01*
X155560010Y-116065484D01*
X154603507Y-115108981D01*
X154570022Y-115047658D01*
X154575006Y-114977966D01*
X154616878Y-114922033D01*
X154682342Y-114897616D01*
X154691188Y-114897300D01*
X154714044Y-114897300D01*
X154714045Y-114897299D01*
X154868697Y-114866537D01*
X155014379Y-114806194D01*
X155145489Y-114718589D01*
X155256989Y-114607089D01*
X155344594Y-114475979D01*
X155404937Y-114330297D01*
X155435700Y-114175642D01*
X155435700Y-114017958D01*
X155435700Y-114017955D01*
X155435699Y-114017953D01*
X155412336Y-113900500D01*
X155404937Y-113863303D01*
X155382609Y-113809397D01*
X155344597Y-113717627D01*
X155344590Y-113717614D01*
X155256989Y-113586511D01*
X155256986Y-113586507D01*
X155145492Y-113475013D01*
X155145488Y-113475010D01*
X155014385Y-113387409D01*
X155014379Y-113387406D01*
X154964246Y-113366640D01*
X154909843Y-113322798D01*
X154887779Y-113256504D01*
X154887700Y-113252079D01*
X154887700Y-112349983D01*
X162849500Y-112349983D01*
X162849500Y-115250001D01*
X162849501Y-115250018D01*
X162860000Y-115352796D01*
X162860001Y-115352799D01*
X162889960Y-115443207D01*
X162915186Y-115519334D01*
X163007288Y-115668656D01*
X163131344Y-115792712D01*
X163280666Y-115884814D01*
X163447203Y-115939999D01*
X163549991Y-115950500D01*
X167650008Y-115950499D01*
X167752797Y-115939999D01*
X167919334Y-115884814D01*
X168068656Y-115792712D01*
X168192712Y-115668656D01*
X168284814Y-115519334D01*
X168339999Y-115352797D01*
X168350500Y-115250009D01*
X168350500Y-115249986D01*
X171650001Y-115249986D01*
X171660494Y-115352697D01*
X171715641Y-115519119D01*
X171715643Y-115519124D01*
X171807684Y-115668345D01*
X171931654Y-115792315D01*
X172080875Y-115884356D01*
X172080880Y-115884358D01*
X172247302Y-115939505D01*
X172247309Y-115939506D01*
X172350019Y-115949999D01*
X173649999Y-115949999D01*
X175150000Y-115949999D01*
X176449972Y-115949999D01*
X176449986Y-115949998D01*
X176552697Y-115939505D01*
X176719119Y-115884358D01*
X176719124Y-115884356D01*
X176868345Y-115792315D01*
X176992315Y-115668345D01*
X177084356Y-115519124D01*
X177084358Y-115519119D01*
X177139505Y-115352697D01*
X177139506Y-115352690D01*
X177149999Y-115249986D01*
X177150000Y-115249973D01*
X177150000Y-114550000D01*
X175150000Y-114550000D01*
X175150000Y-115949999D01*
X173649999Y-115949999D01*
X173650000Y-115949998D01*
X173650000Y-114550000D01*
X171650001Y-114550000D01*
X171650001Y-115249986D01*
X168350500Y-115249986D01*
X168350499Y-113721789D01*
X168350499Y-113721009D01*
X174400000Y-113721009D01*
X174400000Y-113878991D01*
X174440889Y-114031591D01*
X174519881Y-114168408D01*
X174631592Y-114280119D01*
X174768409Y-114359111D01*
X174921009Y-114400000D01*
X175078991Y-114400000D01*
X175231591Y-114359111D01*
X175368408Y-114280119D01*
X175480119Y-114168408D01*
X175559111Y-114031591D01*
X175600000Y-113878991D01*
X175600000Y-113721009D01*
X175559111Y-113568409D01*
X175480119Y-113431592D01*
X175368408Y-113319881D01*
X175231591Y-113240889D01*
X175078991Y-113200000D01*
X174921009Y-113200000D01*
X174768409Y-113240889D01*
X174631592Y-113319881D01*
X174519881Y-113431592D01*
X174440889Y-113568409D01*
X174400000Y-113721009D01*
X168350499Y-113721009D01*
X168350499Y-112350013D01*
X171650000Y-112350013D01*
X171650000Y-113050000D01*
X173650000Y-113050000D01*
X175150000Y-113050000D01*
X177149999Y-113050000D01*
X177149999Y-112350028D01*
X177149998Y-112350013D01*
X177139505Y-112247302D01*
X177084358Y-112080880D01*
X177084356Y-112080875D01*
X176992315Y-111931654D01*
X176868345Y-111807684D01*
X176719124Y-111715643D01*
X176719119Y-111715641D01*
X176552697Y-111660494D01*
X176552690Y-111660493D01*
X176449986Y-111650000D01*
X175150000Y-111650000D01*
X175150000Y-113050000D01*
X173650000Y-113050000D01*
X173650000Y-111650000D01*
X172350028Y-111650000D01*
X172350012Y-111650001D01*
X172247302Y-111660494D01*
X172080880Y-111715641D01*
X172080875Y-111715643D01*
X171931654Y-111807684D01*
X171807684Y-111931654D01*
X171715643Y-112080875D01*
X171715641Y-112080880D01*
X171660494Y-112247302D01*
X171660493Y-112247309D01*
X171650000Y-112350013D01*
X168350499Y-112350013D01*
X168350499Y-112349998D01*
X168350498Y-112349981D01*
X168339999Y-112247203D01*
X168339998Y-112247200D01*
X168284814Y-112080666D01*
X168192712Y-111931344D01*
X168068656Y-111807288D01*
X167919334Y-111715186D01*
X167752797Y-111660001D01*
X167752795Y-111660000D01*
X167650010Y-111649500D01*
X163549998Y-111649500D01*
X163549981Y-111649501D01*
X163447203Y-111660000D01*
X163447200Y-111660001D01*
X163280668Y-111715185D01*
X163280663Y-111715187D01*
X163131342Y-111807289D01*
X163007289Y-111931342D01*
X162915187Y-112080663D01*
X162915185Y-112080668D01*
X162887349Y-112164670D01*
X162860001Y-112247203D01*
X162860001Y-112247204D01*
X162860000Y-112247204D01*
X162849500Y-112349983D01*
X154887700Y-112349983D01*
X154887700Y-108505286D01*
X154907385Y-108438247D01*
X154942807Y-108402185D01*
X154993089Y-108368589D01*
X155104589Y-108257089D01*
X155192194Y-108125979D01*
X155252537Y-107980297D01*
X155283300Y-107825642D01*
X155283300Y-107667958D01*
X155283300Y-107667955D01*
X155283299Y-107667953D01*
X155273585Y-107619119D01*
X155252537Y-107513303D01*
X155227474Y-107452795D01*
X155192197Y-107367627D01*
X155192190Y-107367614D01*
X155104589Y-107236511D01*
X155104586Y-107236507D01*
X154993092Y-107125013D01*
X154993088Y-107125010D01*
X154861985Y-107037409D01*
X154861972Y-107037402D01*
X154716301Y-106977064D01*
X154716289Y-106977061D01*
X154561645Y-106946300D01*
X154561642Y-106946300D01*
X154403958Y-106946300D01*
X154403955Y-106946300D01*
X154249310Y-106977061D01*
X154249302Y-106977063D01*
X154209351Y-106993611D01*
X154139881Y-107001078D01*
X154077402Y-106969802D01*
X154041751Y-106909713D01*
X154037900Y-106879049D01*
X154037900Y-106011758D01*
X168405500Y-106011758D01*
X168405500Y-106241241D01*
X168423785Y-106380119D01*
X168435452Y-106468738D01*
X168494842Y-106690387D01*
X168582650Y-106902376D01*
X168582657Y-106902390D01*
X168697392Y-107101117D01*
X168837081Y-107283161D01*
X168837089Y-107283170D01*
X168999330Y-107445411D01*
X168999338Y-107445418D01*
X169181382Y-107585107D01*
X169181385Y-107585108D01*
X169181388Y-107585111D01*
X169380112Y-107699844D01*
X169380117Y-107699846D01*
X169380123Y-107699849D01*
X169471480Y-107737690D01*
X169592113Y-107787658D01*
X169813762Y-107847048D01*
X170041266Y-107877000D01*
X170041273Y-107877000D01*
X170270727Y-107877000D01*
X170270734Y-107877000D01*
X170498238Y-107847048D01*
X170719887Y-107787658D01*
X170931888Y-107699844D01*
X171130612Y-107585111D01*
X171312661Y-107445419D01*
X171312665Y-107445414D01*
X171312670Y-107445411D01*
X171474911Y-107283170D01*
X171474914Y-107283165D01*
X171474919Y-107283161D01*
X171614611Y-107101112D01*
X171729344Y-106902388D01*
X171817158Y-106690387D01*
X171876548Y-106468738D01*
X171906500Y-106241234D01*
X171906500Y-106011766D01*
X171906499Y-106011758D01*
X177805500Y-106011758D01*
X177805500Y-106241241D01*
X177823785Y-106380119D01*
X177835452Y-106468738D01*
X177894842Y-106690387D01*
X177982650Y-106902376D01*
X177982657Y-106902390D01*
X178097392Y-107101117D01*
X178237081Y-107283161D01*
X178237089Y-107283170D01*
X178399330Y-107445411D01*
X178399338Y-107445418D01*
X178581382Y-107585107D01*
X178581385Y-107585108D01*
X178581388Y-107585111D01*
X178780112Y-107699844D01*
X178780117Y-107699846D01*
X178780123Y-107699849D01*
X178871480Y-107737690D01*
X178992113Y-107787658D01*
X179213762Y-107847048D01*
X179441266Y-107877000D01*
X179441273Y-107877000D01*
X179670727Y-107877000D01*
X179670734Y-107877000D01*
X179898238Y-107847048D01*
X180119887Y-107787658D01*
X180331888Y-107699844D01*
X180530612Y-107585111D01*
X180712661Y-107445419D01*
X180712665Y-107445414D01*
X180712670Y-107445411D01*
X180874911Y-107283170D01*
X180874914Y-107283165D01*
X180874919Y-107283161D01*
X181014611Y-107101112D01*
X181129344Y-106902388D01*
X181217158Y-106690387D01*
X181276548Y-106468738D01*
X181306500Y-106241234D01*
X181306500Y-106011766D01*
X181276548Y-105784262D01*
X181217158Y-105562613D01*
X181129344Y-105350612D01*
X181014611Y-105151888D01*
X181014608Y-105151885D01*
X181014607Y-105151882D01*
X180874918Y-104969838D01*
X180874911Y-104969830D01*
X180712670Y-104807589D01*
X180712661Y-104807581D01*
X180530617Y-104667892D01*
X180331890Y-104553157D01*
X180331876Y-104553150D01*
X180119887Y-104465342D01*
X179898238Y-104405952D01*
X179860215Y-104400946D01*
X179670741Y-104376000D01*
X179670734Y-104376000D01*
X179441266Y-104376000D01*
X179441258Y-104376000D01*
X179224715Y-104404509D01*
X179213762Y-104405952D01*
X179120076Y-104431054D01*
X178992112Y-104465342D01*
X178780123Y-104553150D01*
X178780109Y-104553157D01*
X178581382Y-104667892D01*
X178399338Y-104807581D01*
X178237081Y-104969838D01*
X178097392Y-105151882D01*
X177982657Y-105350609D01*
X177982650Y-105350623D01*
X177894842Y-105562612D01*
X177835453Y-105784259D01*
X177835451Y-105784270D01*
X177805500Y-106011758D01*
X171906499Y-106011758D01*
X171876548Y-105784262D01*
X171817158Y-105562613D01*
X171729344Y-105350612D01*
X171614611Y-105151888D01*
X171614608Y-105151885D01*
X171614607Y-105151882D01*
X171474918Y-104969838D01*
X171474911Y-104969830D01*
X171312670Y-104807589D01*
X171312661Y-104807581D01*
X171130617Y-104667892D01*
X170931890Y-104553157D01*
X170931876Y-104553150D01*
X170719887Y-104465342D01*
X170498238Y-104405952D01*
X170460215Y-104400946D01*
X170270741Y-104376000D01*
X170270734Y-104376000D01*
X170041266Y-104376000D01*
X170041258Y-104376000D01*
X169824715Y-104404509D01*
X169813762Y-104405952D01*
X169720076Y-104431054D01*
X169592112Y-104465342D01*
X169380123Y-104553150D01*
X169380109Y-104553157D01*
X169181382Y-104667892D01*
X168999338Y-104807581D01*
X168837081Y-104969838D01*
X168697392Y-105151882D01*
X168582657Y-105350609D01*
X168582650Y-105350623D01*
X168494842Y-105562612D01*
X168435453Y-105784259D01*
X168435451Y-105784270D01*
X168405500Y-106011758D01*
X154037900Y-106011758D01*
X154037900Y-104807988D01*
X154057585Y-104740949D01*
X154074219Y-104720307D01*
X154430707Y-104363819D01*
X154492030Y-104330334D01*
X154518388Y-104327500D01*
X167494635Y-104327500D01*
X167494636Y-104327500D01*
X167669923Y-104299737D01*
X167683237Y-104295411D01*
X167758267Y-104271032D01*
X167838705Y-104244897D01*
X167838707Y-104244895D01*
X167838710Y-104244895D01*
X167996839Y-104164324D01*
X168140417Y-104060009D01*
X168265909Y-103934517D01*
X169620009Y-102580417D01*
X169724324Y-102436839D01*
X169804896Y-102278709D01*
X169859737Y-102109923D01*
X169887500Y-101934636D01*
X169887500Y-101757163D01*
X169887500Y-99853810D01*
X169893495Y-99833390D01*
X169894711Y-99812140D01*
X169906040Y-99790669D01*
X169907185Y-99786771D01*
X169911182Y-99780925D01*
X169929682Y-99755462D01*
X169985012Y-99712796D01*
X170054625Y-99706817D01*
X170116420Y-99739423D01*
X170130314Y-99755456D01*
X170191714Y-99839966D01*
X170353434Y-100001686D01*
X170538462Y-100136117D01*
X170645403Y-100190606D01*
X170742244Y-100239949D01*
X170959751Y-100310621D01*
X170959752Y-100310621D01*
X170959755Y-100310622D01*
X171185646Y-100346400D01*
X171185647Y-100346400D01*
X171414353Y-100346400D01*
X171414354Y-100346400D01*
X171640245Y-100310622D01*
X171640248Y-100310621D01*
X171640249Y-100310621D01*
X171857755Y-100239949D01*
X171857755Y-100239948D01*
X171857758Y-100239948D01*
X172061538Y-100136117D01*
X172246566Y-100001686D01*
X172408286Y-99839966D01*
X172542717Y-99654938D01*
X172646548Y-99451158D01*
X172699005Y-99289711D01*
X172717221Y-99233649D01*
X172717221Y-99233648D01*
X172717222Y-99233645D01*
X172753000Y-99007754D01*
X172753000Y-98684046D01*
X172717222Y-98458155D01*
X172717221Y-98458151D01*
X172717221Y-98458150D01*
X172646549Y-98240644D01*
X172585496Y-98120821D01*
X172542717Y-98036862D01*
X172408286Y-97851834D01*
X172246566Y-97690114D01*
X172061538Y-97555683D01*
X171857755Y-97451850D01*
X171640248Y-97381178D01*
X171436906Y-97348972D01*
X171414354Y-97345400D01*
X171185646Y-97345400D01*
X171163094Y-97348972D01*
X170959753Y-97381178D01*
X170959750Y-97381178D01*
X170742244Y-97451850D01*
X170538461Y-97555683D01*
X170472550Y-97603571D01*
X170353434Y-97690114D01*
X170353432Y-97690116D01*
X170353431Y-97690116D01*
X170191715Y-97851832D01*
X170130318Y-97936338D01*
X170074987Y-97979003D01*
X170005374Y-97984982D01*
X169943579Y-97952376D01*
X169929682Y-97936338D01*
X169895157Y-97888819D01*
X169868286Y-97851834D01*
X169706566Y-97690114D01*
X169521538Y-97555683D01*
X169317755Y-97451850D01*
X169100248Y-97381178D01*
X168896906Y-97348972D01*
X168874354Y-97345400D01*
X168645646Y-97345400D01*
X168623094Y-97348972D01*
X168419753Y-97381178D01*
X168419750Y-97381178D01*
X168202244Y-97451850D01*
X167998461Y-97555683D01*
X167815759Y-97688425D01*
X167749952Y-97711905D01*
X167681898Y-97696080D01*
X167633203Y-97645974D01*
X167626690Y-97631438D01*
X167616296Y-97603569D01*
X167616293Y-97603564D01*
X167530047Y-97488355D01*
X167530044Y-97488352D01*
X167414835Y-97402106D01*
X167414828Y-97402102D01*
X167279982Y-97351808D01*
X167279983Y-97351808D01*
X167220383Y-97345401D01*
X167220381Y-97345400D01*
X167220373Y-97345400D01*
X167220364Y-97345400D01*
X165219629Y-97345400D01*
X165219623Y-97345401D01*
X165160016Y-97351808D01*
X165025171Y-97402102D01*
X165025164Y-97402106D01*
X164909955Y-97488352D01*
X164909952Y-97488355D01*
X164823706Y-97603564D01*
X164823702Y-97603571D01*
X164773408Y-97738417D01*
X164767001Y-97798016D01*
X164767000Y-97798035D01*
X164767000Y-99893770D01*
X164767001Y-99893776D01*
X164773408Y-99953383D01*
X164823702Y-100088228D01*
X164823706Y-100088235D01*
X164909952Y-100203444D01*
X164909955Y-100203447D01*
X165025164Y-100289693D01*
X165025171Y-100289697D01*
X165160017Y-100339991D01*
X165160016Y-100339991D01*
X165166944Y-100340735D01*
X165219627Y-100346400D01*
X167220372Y-100346399D01*
X167279983Y-100339991D01*
X167414831Y-100289696D01*
X167434188Y-100275204D01*
X167499652Y-100250787D01*
X167567925Y-100265638D01*
X167617331Y-100315042D01*
X167632500Y-100374471D01*
X167632500Y-101327512D01*
X167612815Y-101394551D01*
X167596181Y-101415193D01*
X166975193Y-102036181D01*
X166913870Y-102069666D01*
X166887512Y-102072500D01*
X164579136Y-102072500D01*
X154088736Y-102072500D01*
X153911264Y-102072500D01*
X153852835Y-102081754D01*
X153735975Y-102100263D01*
X153735972Y-102100263D01*
X153567192Y-102155103D01*
X153409057Y-102235678D01*
X153265489Y-102339985D01*
X153265484Y-102339989D01*
X152050389Y-103555084D01*
X152050385Y-103555089D01*
X151946078Y-103698657D01*
X151865503Y-103856792D01*
X151810663Y-104025572D01*
X151810663Y-104025575D01*
X151782900Y-104200864D01*
X151782900Y-115099135D01*
X151810663Y-115274424D01*
X151810663Y-115274427D01*
X151865503Y-115443207D01*
X151865504Y-115443210D01*
X151904292Y-115519334D01*
X151946078Y-115601342D01*
X152050385Y-115744910D01*
X152050389Y-115744915D01*
X153536181Y-117230707D01*
X153569666Y-117292030D01*
X153572500Y-117318388D01*
X153572500Y-124964111D01*
X153552815Y-125031150D01*
X153536181Y-125051792D01*
X152429946Y-126158026D01*
X152368623Y-126191511D01*
X152342688Y-126194344D01*
X128579787Y-126275318D01*
X128512680Y-126255862D01*
X128466746Y-126203215D01*
X128455365Y-126150788D01*
X128511864Y-113021153D01*
X145899500Y-113021153D01*
X145899500Y-113178846D01*
X145930261Y-113333489D01*
X145930264Y-113333501D01*
X145990602Y-113479172D01*
X145990609Y-113479185D01*
X146078210Y-113610288D01*
X146078213Y-113610292D01*
X146189707Y-113721786D01*
X146189711Y-113721789D01*
X146320814Y-113809390D01*
X146320827Y-113809397D01*
X146466498Y-113869735D01*
X146466503Y-113869737D01*
X146621153Y-113900499D01*
X146621156Y-113900500D01*
X146621158Y-113900500D01*
X146778844Y-113900500D01*
X146778845Y-113900499D01*
X146933497Y-113869737D01*
X147079179Y-113809394D01*
X147210289Y-113721789D01*
X147321789Y-113610289D01*
X147409394Y-113479179D01*
X147411121Y-113475011D01*
X147431777Y-113425141D01*
X147469737Y-113333497D01*
X147500500Y-113178842D01*
X147500500Y-113176500D01*
X147500847Y-113175317D01*
X147501097Y-113172782D01*
X147501577Y-113172829D01*
X147520185Y-113109461D01*
X147572989Y-113063706D01*
X147624500Y-113052500D01*
X149655280Y-113052500D01*
X149722319Y-113072185D01*
X149768074Y-113124989D01*
X149769841Y-113129048D01*
X149790602Y-113179173D01*
X149790609Y-113179185D01*
X149878210Y-113310288D01*
X149878213Y-113310292D01*
X149989707Y-113421786D01*
X149989711Y-113421789D01*
X150120814Y-113509390D01*
X150120827Y-113509397D01*
X150247877Y-113562022D01*
X150266503Y-113569737D01*
X150421153Y-113600499D01*
X150421156Y-113600500D01*
X150421158Y-113600500D01*
X150578844Y-113600500D01*
X150578845Y-113600499D01*
X150733497Y-113569737D01*
X150879179Y-113509394D01*
X151010289Y-113421789D01*
X151121789Y-113310289D01*
X151209394Y-113179179D01*
X151269737Y-113033497D01*
X151300500Y-112878842D01*
X151300500Y-112721158D01*
X151300500Y-112721155D01*
X151300499Y-112721153D01*
X151274353Y-112589711D01*
X151269737Y-112566503D01*
X151253712Y-112527815D01*
X151209397Y-112420827D01*
X151209390Y-112420814D01*
X151121789Y-112289711D01*
X151121786Y-112289707D01*
X151010292Y-112178213D01*
X151010288Y-112178210D01*
X150879185Y-112090609D01*
X150879172Y-112090602D01*
X150733501Y-112030264D01*
X150733489Y-112030261D01*
X150578845Y-111999500D01*
X150578842Y-111999500D01*
X150421158Y-111999500D01*
X150421155Y-111999500D01*
X150266510Y-112030261D01*
X150266498Y-112030264D01*
X150120827Y-112090602D01*
X150120814Y-112090609D01*
X149989711Y-112178210D01*
X149989707Y-112178213D01*
X149878213Y-112289707D01*
X149878210Y-112289711D01*
X149790609Y-112420814D01*
X149790602Y-112420826D01*
X149769841Y-112470952D01*
X149726001Y-112525356D01*
X149659707Y-112547421D01*
X149655280Y-112547500D01*
X147330940Y-112547500D01*
X147263901Y-112527815D01*
X147243258Y-112511180D01*
X147210292Y-112478213D01*
X147210288Y-112478210D01*
X147079185Y-112390609D01*
X147079172Y-112390602D01*
X146933501Y-112330264D01*
X146933489Y-112330261D01*
X146778845Y-112299500D01*
X146778842Y-112299500D01*
X146621158Y-112299500D01*
X146621155Y-112299500D01*
X146466510Y-112330261D01*
X146466498Y-112330264D01*
X146320827Y-112390602D01*
X146320814Y-112390609D01*
X146189711Y-112478210D01*
X146189707Y-112478213D01*
X146078213Y-112589707D01*
X146078210Y-112589711D01*
X145990609Y-112720814D01*
X145990602Y-112720827D01*
X145930264Y-112866498D01*
X145930261Y-112866510D01*
X145899500Y-113021153D01*
X128511864Y-113021153D01*
X128530925Y-108591490D01*
X128532722Y-108173965D01*
X128552695Y-108107011D01*
X128605695Y-108061484D01*
X128656717Y-108050499D01*
X131550008Y-108050499D01*
X131652797Y-108039999D01*
X131819334Y-107984814D01*
X131968656Y-107892712D01*
X132092712Y-107768656D01*
X132184814Y-107619334D01*
X132239999Y-107452797D01*
X132250500Y-107350009D01*
X132250500Y-107349986D01*
X135550001Y-107349986D01*
X135560494Y-107452697D01*
X135615641Y-107619119D01*
X135615643Y-107619124D01*
X135707684Y-107768345D01*
X135831654Y-107892315D01*
X135980875Y-107984356D01*
X135980880Y-107984358D01*
X136147302Y-108039505D01*
X136147309Y-108039506D01*
X136250019Y-108049999D01*
X137549999Y-108049999D01*
X139050000Y-108049999D01*
X140349972Y-108049999D01*
X140349986Y-108049998D01*
X140452697Y-108039505D01*
X140619119Y-107984358D01*
X140619124Y-107984356D01*
X140768345Y-107892315D01*
X140892315Y-107768345D01*
X140984356Y-107619124D01*
X140984358Y-107619119D01*
X141039505Y-107452697D01*
X141039506Y-107452690D01*
X141049999Y-107349986D01*
X141050000Y-107349973D01*
X141050000Y-106650000D01*
X139050000Y-106650000D01*
X139050000Y-108049999D01*
X137549999Y-108049999D01*
X137550000Y-108049998D01*
X137550000Y-106650000D01*
X135550001Y-106650000D01*
X135550001Y-107349986D01*
X132250500Y-107349986D01*
X132250499Y-105821009D01*
X138300000Y-105821009D01*
X138300000Y-105978991D01*
X138340889Y-106131591D01*
X138419881Y-106268408D01*
X138531592Y-106380119D01*
X138668409Y-106459111D01*
X138821009Y-106500000D01*
X138978991Y-106500000D01*
X139131591Y-106459111D01*
X139268408Y-106380119D01*
X139380119Y-106268408D01*
X139459111Y-106131591D01*
X139500000Y-105978991D01*
X139500000Y-105821009D01*
X139459111Y-105668409D01*
X139380119Y-105531592D01*
X139268408Y-105419881D01*
X139131591Y-105340889D01*
X138978991Y-105300000D01*
X138821009Y-105300000D01*
X138668409Y-105340889D01*
X138531592Y-105419881D01*
X138419881Y-105531592D01*
X138340889Y-105668409D01*
X138300000Y-105821009D01*
X132250499Y-105821009D01*
X132250499Y-104450013D01*
X135550000Y-104450013D01*
X135550000Y-105150000D01*
X137550000Y-105150000D01*
X139050000Y-105150000D01*
X141049999Y-105150000D01*
X141049999Y-104450028D01*
X141049998Y-104450013D01*
X141039505Y-104347302D01*
X140984358Y-104180880D01*
X140984356Y-104180875D01*
X140892315Y-104031654D01*
X140768345Y-103907684D01*
X140619124Y-103815643D01*
X140619119Y-103815641D01*
X140452697Y-103760494D01*
X140452690Y-103760493D01*
X140349986Y-103750000D01*
X139050000Y-103750000D01*
X139050000Y-105150000D01*
X137550000Y-105150000D01*
X137550000Y-103750000D01*
X136250028Y-103750000D01*
X136250012Y-103750001D01*
X136147302Y-103760494D01*
X135980880Y-103815641D01*
X135980875Y-103815643D01*
X135831654Y-103907684D01*
X135707684Y-104031654D01*
X135615643Y-104180875D01*
X135615641Y-104180880D01*
X135560494Y-104347302D01*
X135560493Y-104347309D01*
X135550000Y-104450013D01*
X132250499Y-104450013D01*
X132250499Y-104449998D01*
X132250498Y-104449981D01*
X132239999Y-104347203D01*
X132239998Y-104347200D01*
X132206097Y-104244895D01*
X132184814Y-104180666D01*
X132092712Y-104031344D01*
X131968656Y-103907288D01*
X131819334Y-103815186D01*
X131652797Y-103760001D01*
X131652795Y-103760000D01*
X131550016Y-103749500D01*
X128676295Y-103749500D01*
X128609256Y-103729815D01*
X128563501Y-103677011D01*
X128552296Y-103624968D01*
X128566452Y-100335281D01*
X128586424Y-100268333D01*
X128639424Y-100222806D01*
X128708625Y-100213160D01*
X128714626Y-100214200D01*
X128721158Y-100215500D01*
X128721159Y-100215500D01*
X128878844Y-100215500D01*
X128878845Y-100215499D01*
X129033497Y-100184737D01*
X129179179Y-100124394D01*
X129310289Y-100036789D01*
X129421789Y-99925289D01*
X129509394Y-99794179D01*
X129512463Y-99786771D01*
X129525431Y-99755461D01*
X129569737Y-99648497D01*
X129600500Y-99493842D01*
X129600500Y-99336158D01*
X129600500Y-99336155D01*
X129600499Y-99336153D01*
X129588868Y-99277680D01*
X129569737Y-99181503D01*
X129568374Y-99178213D01*
X129509397Y-99035827D01*
X129509390Y-99035814D01*
X129421789Y-98904711D01*
X129421786Y-98904707D01*
X129310292Y-98793213D01*
X129310288Y-98793210D01*
X129179185Y-98705609D01*
X129179172Y-98705602D01*
X129033501Y-98645264D01*
X129033489Y-98645261D01*
X128878845Y-98614500D01*
X128878842Y-98614500D01*
X128721158Y-98614500D01*
X128721157Y-98614500D01*
X128715095Y-98615097D01*
X128714941Y-98613540D01*
X128652956Y-98607980D01*
X128597788Y-98565105D01*
X128574558Y-98499210D01*
X128574383Y-98492102D01*
X128579172Y-97379378D01*
X128599144Y-97312428D01*
X128652144Y-97266901D01*
X128721345Y-97257255D01*
X128772061Y-97276814D01*
X128820814Y-97309390D01*
X128820827Y-97309397D01*
X128966498Y-97369735D01*
X128966503Y-97369737D01*
X129121153Y-97400499D01*
X129121156Y-97400500D01*
X129121158Y-97400500D01*
X129278844Y-97400500D01*
X129278845Y-97400499D01*
X129433497Y-97369737D01*
X129483628Y-97348971D01*
X129553096Y-97341502D01*
X129615576Y-97372776D01*
X129618762Y-97375851D01*
X130056970Y-97814059D01*
X130149775Y-97852500D01*
X130250225Y-97852500D01*
X133444049Y-97852500D01*
X133511088Y-97872185D01*
X133531730Y-97888819D01*
X135311181Y-99668270D01*
X135344666Y-99729593D01*
X135347500Y-99755951D01*
X135347500Y-100055279D01*
X135327815Y-100122318D01*
X135275011Y-100168073D01*
X135270954Y-100169840D01*
X135220820Y-100190606D01*
X135220814Y-100190609D01*
X135089711Y-100278210D01*
X135089707Y-100278213D01*
X134978213Y-100389707D01*
X134978210Y-100389711D01*
X134890609Y-100520814D01*
X134890602Y-100520827D01*
X134830264Y-100666498D01*
X134830261Y-100666510D01*
X134799500Y-100821153D01*
X134799500Y-100978846D01*
X134830261Y-101133489D01*
X134830264Y-101133501D01*
X134890602Y-101279172D01*
X134890609Y-101279185D01*
X134978210Y-101410288D01*
X134978213Y-101410292D01*
X135089707Y-101521786D01*
X135089711Y-101521789D01*
X135220814Y-101609390D01*
X135220827Y-101609397D01*
X135358695Y-101666503D01*
X135366503Y-101669737D01*
X135521153Y-101700499D01*
X135521156Y-101700500D01*
X135521158Y-101700500D01*
X135678844Y-101700500D01*
X135678845Y-101700499D01*
X135833497Y-101669737D01*
X135979179Y-101609394D01*
X136110289Y-101521789D01*
X136221789Y-101410289D01*
X136309394Y-101279179D01*
X136369737Y-101133497D01*
X136400500Y-100978842D01*
X136400500Y-100821158D01*
X136400500Y-100821155D01*
X136400499Y-100821153D01*
X136372066Y-100678211D01*
X136369737Y-100666503D01*
X136331420Y-100573997D01*
X136309397Y-100520827D01*
X136309390Y-100520814D01*
X136221789Y-100389711D01*
X136221786Y-100389707D01*
X136110292Y-100278213D01*
X136110288Y-100278210D01*
X135979185Y-100190609D01*
X135979179Y-100190606D01*
X135929046Y-100169840D01*
X135874643Y-100125998D01*
X135852579Y-100059704D01*
X135852500Y-100055279D01*
X135852500Y-99721153D01*
X143399500Y-99721153D01*
X143399500Y-99878846D01*
X143430261Y-100033489D01*
X143430264Y-100033501D01*
X143490602Y-100179172D01*
X143490609Y-100179185D01*
X143578210Y-100310288D01*
X143578213Y-100310292D01*
X143689710Y-100421789D01*
X143761552Y-100469792D01*
X143820821Y-100509394D01*
X143870953Y-100530159D01*
X143925355Y-100573997D01*
X143947421Y-100640291D01*
X143947500Y-100644719D01*
X143947500Y-101473318D01*
X143927815Y-101540357D01*
X143892400Y-101576414D01*
X143889712Y-101578210D01*
X143889704Y-101578217D01*
X143778213Y-101689707D01*
X143778210Y-101689711D01*
X143690609Y-101820814D01*
X143690602Y-101820827D01*
X143630264Y-101966498D01*
X143630261Y-101966510D01*
X143599500Y-102121153D01*
X143599500Y-102278846D01*
X143630261Y-102433489D01*
X143630264Y-102433501D01*
X143690602Y-102579172D01*
X143690609Y-102579185D01*
X143778210Y-102710288D01*
X143778213Y-102710292D01*
X143889707Y-102821786D01*
X143889711Y-102821789D01*
X144020814Y-102909390D01*
X144020827Y-102909397D01*
X144166498Y-102969735D01*
X144166503Y-102969737D01*
X144321153Y-103000499D01*
X144321156Y-103000500D01*
X144321158Y-103000500D01*
X144478844Y-103000500D01*
X144478845Y-103000499D01*
X144633497Y-102969737D01*
X144779179Y-102909394D01*
X144910289Y-102821789D01*
X145021789Y-102710289D01*
X145109394Y-102579179D01*
X145169737Y-102433497D01*
X145200500Y-102278842D01*
X145200500Y-102224500D01*
X145220185Y-102157461D01*
X145272989Y-102111706D01*
X145324500Y-102100500D01*
X145478844Y-102100500D01*
X145478845Y-102100499D01*
X145633497Y-102069737D01*
X145779179Y-102009394D01*
X145910289Y-101921789D01*
X146021789Y-101810289D01*
X146109394Y-101679179D01*
X146169737Y-101533497D01*
X146200500Y-101378842D01*
X146200500Y-101221158D01*
X146200500Y-101221155D01*
X146200499Y-101221153D01*
X146182420Y-101130263D01*
X146169737Y-101066503D01*
X146140123Y-100995007D01*
X146109397Y-100920827D01*
X146109390Y-100920814D01*
X146021789Y-100789711D01*
X146021786Y-100789707D01*
X145910292Y-100678213D01*
X145910288Y-100678210D01*
X145779185Y-100590609D01*
X145779179Y-100590606D01*
X145729046Y-100569840D01*
X145674643Y-100525998D01*
X145652579Y-100459704D01*
X145652500Y-100455279D01*
X145652500Y-99344719D01*
X145672185Y-99277680D01*
X145724989Y-99231925D01*
X145728998Y-99230178D01*
X145779179Y-99209394D01*
X145910289Y-99121789D01*
X146021789Y-99010289D01*
X146109394Y-98879179D01*
X146169737Y-98733497D01*
X146200500Y-98578842D01*
X146200500Y-98421158D01*
X146200500Y-98421155D01*
X146200499Y-98421153D01*
X146180378Y-98320000D01*
X146169737Y-98266503D01*
X146141984Y-98199500D01*
X146109397Y-98120827D01*
X146109390Y-98120814D01*
X146021789Y-97989711D01*
X146021786Y-97989707D01*
X145910292Y-97878213D01*
X145910288Y-97878210D01*
X145779185Y-97790609D01*
X145779172Y-97790602D01*
X145633501Y-97730264D01*
X145633489Y-97730261D01*
X145478845Y-97699500D01*
X145478842Y-97699500D01*
X145321158Y-97699500D01*
X145321155Y-97699500D01*
X145166510Y-97730261D01*
X145166498Y-97730264D01*
X145020827Y-97790602D01*
X145020814Y-97790609D01*
X144889711Y-97878210D01*
X144889707Y-97878213D01*
X144778213Y-97989707D01*
X144778210Y-97989711D01*
X144690609Y-98120814D01*
X144690602Y-98120827D01*
X144630264Y-98266498D01*
X144630261Y-98266510D01*
X144599500Y-98421153D01*
X144599500Y-98578846D01*
X144630261Y-98733489D01*
X144630264Y-98733501D01*
X144690602Y-98879172D01*
X144690610Y-98879187D01*
X144701476Y-98895448D01*
X144722355Y-98962125D01*
X144703871Y-99029505D01*
X144651893Y-99076196D01*
X144582923Y-99087373D01*
X144550923Y-99078901D01*
X144433501Y-99030264D01*
X144433489Y-99030261D01*
X144278845Y-98999500D01*
X144278842Y-98999500D01*
X144121158Y-98999500D01*
X144121155Y-98999500D01*
X143966510Y-99030261D01*
X143966498Y-99030264D01*
X143820827Y-99090602D01*
X143820814Y-99090609D01*
X143689711Y-99178210D01*
X143689707Y-99178213D01*
X143578213Y-99289707D01*
X143578210Y-99289711D01*
X143490609Y-99420814D01*
X143490602Y-99420827D01*
X143430264Y-99566498D01*
X143430261Y-99566510D01*
X143399500Y-99721153D01*
X135852500Y-99721153D01*
X135852500Y-99549776D01*
X135852499Y-99549773D01*
X135836144Y-99510289D01*
X135814059Y-99456970D01*
X135743030Y-99385941D01*
X133743030Y-97385941D01*
X133731531Y-97381178D01*
X133650226Y-97347500D01*
X133650225Y-97347500D01*
X130355951Y-97347500D01*
X130288912Y-97327815D01*
X130268270Y-97311181D01*
X129975851Y-97018762D01*
X129942366Y-96957439D01*
X129947350Y-96887747D01*
X129948961Y-96883653D01*
X129969737Y-96833497D01*
X130000500Y-96678842D01*
X130000500Y-96521158D01*
X130000500Y-96521155D01*
X130000499Y-96521153D01*
X129978447Y-96410292D01*
X129969737Y-96366503D01*
X129961845Y-96347452D01*
X129954377Y-96277984D01*
X129961846Y-96252547D01*
X129969737Y-96233497D01*
X130000500Y-96078842D01*
X130000500Y-95921158D01*
X130000500Y-95921155D01*
X129984863Y-95842548D01*
X129980607Y-95821153D01*
X176599500Y-95821153D01*
X176599500Y-95978846D01*
X176630261Y-96133489D01*
X176630264Y-96133501D01*
X176690602Y-96279172D01*
X176690609Y-96279185D01*
X176778210Y-96410288D01*
X176778213Y-96410292D01*
X176889707Y-96521786D01*
X176889711Y-96521789D01*
X177020814Y-96609390D01*
X177020827Y-96609397D01*
X177166498Y-96669735D01*
X177166503Y-96669737D01*
X177321153Y-96700499D01*
X177321156Y-96700500D01*
X177321158Y-96700500D01*
X177478844Y-96700500D01*
X177478845Y-96700499D01*
X177633497Y-96669737D01*
X177779179Y-96609394D01*
X177910289Y-96521789D01*
X178021789Y-96410289D01*
X178096898Y-96297881D01*
X178150510Y-96253076D01*
X178219835Y-96244369D01*
X178282863Y-96274523D01*
X178303102Y-96297881D01*
X178378210Y-96410288D01*
X178378213Y-96410292D01*
X178489707Y-96521786D01*
X178489711Y-96521789D01*
X178620814Y-96609390D01*
X178620827Y-96609397D01*
X178766498Y-96669735D01*
X178766503Y-96669737D01*
X178921153Y-96700499D01*
X178921156Y-96700500D01*
X178921158Y-96700500D01*
X179078844Y-96700500D01*
X179078845Y-96700499D01*
X179233497Y-96669737D01*
X179379179Y-96609394D01*
X179510289Y-96521789D01*
X179621789Y-96410289D01*
X179709394Y-96279179D01*
X179769737Y-96133497D01*
X179800500Y-95978842D01*
X179800500Y-95821158D01*
X179800500Y-95821155D01*
X179800499Y-95821153D01*
X179789628Y-95766503D01*
X179769737Y-95666503D01*
X179756062Y-95633489D01*
X179709397Y-95520827D01*
X179709390Y-95520814D01*
X179621789Y-95389711D01*
X179621786Y-95389707D01*
X179510292Y-95278213D01*
X179510288Y-95278210D01*
X179379185Y-95190609D01*
X179379172Y-95190602D01*
X179233501Y-95130264D01*
X179233489Y-95130261D01*
X179078845Y-95099500D01*
X179078842Y-95099500D01*
X178921158Y-95099500D01*
X178921155Y-95099500D01*
X178766510Y-95130261D01*
X178766498Y-95130264D01*
X178620827Y-95190602D01*
X178620814Y-95190609D01*
X178489711Y-95278210D01*
X178489707Y-95278213D01*
X178378213Y-95389707D01*
X178378210Y-95389711D01*
X178303102Y-95502118D01*
X178249490Y-95546923D01*
X178180165Y-95555630D01*
X178117137Y-95525475D01*
X178096898Y-95502118D01*
X178021789Y-95389711D01*
X178021786Y-95389707D01*
X177910292Y-95278213D01*
X177910288Y-95278210D01*
X177779185Y-95190609D01*
X177779172Y-95190602D01*
X177633501Y-95130264D01*
X177633489Y-95130261D01*
X177478845Y-95099500D01*
X177478842Y-95099500D01*
X177321158Y-95099500D01*
X177321155Y-95099500D01*
X177166510Y-95130261D01*
X177166498Y-95130264D01*
X177020827Y-95190602D01*
X177020814Y-95190609D01*
X176889711Y-95278210D01*
X176889707Y-95278213D01*
X176778213Y-95389707D01*
X176778210Y-95389711D01*
X176690609Y-95520814D01*
X176690602Y-95520827D01*
X176630264Y-95666498D01*
X176630261Y-95666510D01*
X176599500Y-95821153D01*
X129980607Y-95821153D01*
X129969737Y-95766503D01*
X129958461Y-95739280D01*
X129956271Y-95730715D01*
X129957204Y-95704282D01*
X129954377Y-95677984D01*
X129958646Y-95663442D01*
X129958737Y-95660889D01*
X129959880Y-95659240D01*
X129961846Y-95652547D01*
X129969737Y-95633497D01*
X130000500Y-95478842D01*
X130000500Y-95321158D01*
X130000500Y-95321155D01*
X130000499Y-95321153D01*
X129974531Y-95190606D01*
X129969737Y-95166503D01*
X129961845Y-95147452D01*
X129954377Y-95077984D01*
X129961846Y-95052547D01*
X129969737Y-95033497D01*
X130000500Y-94878842D01*
X130000500Y-94721158D01*
X130000500Y-94721155D01*
X130000499Y-94721153D01*
X129969737Y-94566503D01*
X129961845Y-94547452D01*
X129954377Y-94477984D01*
X129961846Y-94452547D01*
X129969737Y-94433497D01*
X130000500Y-94278842D01*
X130000500Y-94121158D01*
X130000500Y-94121155D01*
X130000499Y-94121153D01*
X129969737Y-93966503D01*
X129961845Y-93947452D01*
X129954377Y-93877984D01*
X129961846Y-93852547D01*
X129969737Y-93833497D01*
X130000500Y-93678842D01*
X130000500Y-93521158D01*
X130000500Y-93521155D01*
X130000499Y-93521153D01*
X129969738Y-93366510D01*
X129969737Y-93366503D01*
X129964951Y-93354949D01*
X129909397Y-93220827D01*
X129909390Y-93220814D01*
X129821789Y-93089711D01*
X129821786Y-93089707D01*
X129710292Y-92978213D01*
X129710288Y-92978210D01*
X129579185Y-92890609D01*
X129579172Y-92890602D01*
X129433501Y-92830264D01*
X129433489Y-92830261D01*
X129278845Y-92799500D01*
X129278842Y-92799500D01*
X129121158Y-92799500D01*
X129121155Y-92799500D01*
X128966510Y-92830261D01*
X128966498Y-92830264D01*
X128820827Y-92890602D01*
X128820816Y-92890608D01*
X128791738Y-92910038D01*
X128725061Y-92930915D01*
X128657681Y-92912430D01*
X128610991Y-92860451D01*
X128598850Y-92806405D01*
X128627278Y-86200023D01*
X128627277Y-86200022D01*
X128627278Y-86200022D01*
X126322518Y-86200017D01*
X126255478Y-86180332D01*
X126209724Y-86127528D01*
X126198518Y-86075982D01*
X126198900Y-84821153D01*
X152099500Y-84821153D01*
X152099500Y-84978846D01*
X152130261Y-85133489D01*
X152130264Y-85133501D01*
X152190602Y-85279172D01*
X152190609Y-85279185D01*
X152278210Y-85410288D01*
X152278213Y-85410292D01*
X152389707Y-85521786D01*
X152389711Y-85521789D01*
X152520814Y-85609390D01*
X152520827Y-85609397D01*
X152660489Y-85667246D01*
X152666503Y-85669737D01*
X152821153Y-85700499D01*
X152821156Y-85700500D01*
X152821158Y-85700500D01*
X152978844Y-85700500D01*
X152978845Y-85700499D01*
X153133497Y-85669737D01*
X153279179Y-85609394D01*
X153410289Y-85521789D01*
X153521789Y-85410289D01*
X153609394Y-85279179D01*
X153609395Y-85279176D01*
X153609397Y-85279173D01*
X153630159Y-85229048D01*
X153673999Y-85174644D01*
X153740293Y-85152579D01*
X153744720Y-85152500D01*
X155355280Y-85152500D01*
X155422319Y-85172185D01*
X155468074Y-85224989D01*
X155469841Y-85229048D01*
X155490602Y-85279173D01*
X155490609Y-85279185D01*
X155578210Y-85410288D01*
X155578213Y-85410292D01*
X155689707Y-85521786D01*
X155689711Y-85521789D01*
X155820814Y-85609390D01*
X155820827Y-85609397D01*
X155960489Y-85667246D01*
X155966503Y-85669737D01*
X156121153Y-85700499D01*
X156121156Y-85700500D01*
X156121158Y-85700500D01*
X156278844Y-85700500D01*
X156278845Y-85700499D01*
X156433497Y-85669737D01*
X156579179Y-85609394D01*
X156710289Y-85521789D01*
X156821789Y-85410289D01*
X156909394Y-85279179D01*
X156969737Y-85133497D01*
X157000500Y-84978842D01*
X157000500Y-84821158D01*
X157000500Y-84821155D01*
X157000499Y-84821153D01*
X156969738Y-84666510D01*
X156969737Y-84666503D01*
X156953712Y-84627815D01*
X156909397Y-84520827D01*
X156909390Y-84520814D01*
X156821789Y-84389711D01*
X156821786Y-84389707D01*
X156710292Y-84278213D01*
X156710288Y-84278210D01*
X156579185Y-84190609D01*
X156579172Y-84190602D01*
X156433501Y-84130264D01*
X156433489Y-84130261D01*
X156278845Y-84099500D01*
X156278842Y-84099500D01*
X156121158Y-84099500D01*
X156121155Y-84099500D01*
X155966510Y-84130261D01*
X155966498Y-84130264D01*
X155820827Y-84190602D01*
X155820814Y-84190609D01*
X155689711Y-84278210D01*
X155689707Y-84278213D01*
X155578213Y-84389707D01*
X155578210Y-84389711D01*
X155490609Y-84520814D01*
X155490602Y-84520826D01*
X155469841Y-84570952D01*
X155426001Y-84625356D01*
X155359707Y-84647421D01*
X155355280Y-84647500D01*
X153744720Y-84647500D01*
X153677681Y-84627815D01*
X153631926Y-84575011D01*
X153630159Y-84570952D01*
X153609397Y-84520826D01*
X153609390Y-84520814D01*
X153521789Y-84389711D01*
X153521786Y-84389707D01*
X153410292Y-84278213D01*
X153410288Y-84278210D01*
X153279185Y-84190609D01*
X153279172Y-84190602D01*
X153133501Y-84130264D01*
X153133489Y-84130261D01*
X152978845Y-84099500D01*
X152978842Y-84099500D01*
X152821158Y-84099500D01*
X152821155Y-84099500D01*
X152666510Y-84130261D01*
X152666498Y-84130264D01*
X152520827Y-84190602D01*
X152520814Y-84190609D01*
X152389711Y-84278210D01*
X152389707Y-84278213D01*
X152278213Y-84389707D01*
X152278210Y-84389711D01*
X152190609Y-84520814D01*
X152190602Y-84520827D01*
X152130264Y-84666498D01*
X152130261Y-84666510D01*
X152099500Y-84821153D01*
X126198900Y-84821153D01*
X126200057Y-81021153D01*
X153299500Y-81021153D01*
X153299500Y-81178846D01*
X153330261Y-81333489D01*
X153330264Y-81333501D01*
X153390602Y-81479172D01*
X153390609Y-81479185D01*
X153478210Y-81610288D01*
X153478213Y-81610292D01*
X153589707Y-81721786D01*
X153589711Y-81721789D01*
X153720814Y-81809390D01*
X153720827Y-81809397D01*
X153816371Y-81848972D01*
X153866503Y-81869737D01*
X154021153Y-81900499D01*
X154021156Y-81900500D01*
X154021158Y-81900500D01*
X154178844Y-81900500D01*
X154178845Y-81900499D01*
X154333497Y-81869737D01*
X154383628Y-81848971D01*
X154453096Y-81841502D01*
X154515576Y-81872776D01*
X154518762Y-81875851D01*
X154892735Y-82249824D01*
X154926220Y-82311147D01*
X154921236Y-82380839D01*
X154892738Y-82425184D01*
X154878208Y-82439714D01*
X154790609Y-82570814D01*
X154790602Y-82570827D01*
X154730264Y-82716498D01*
X154730261Y-82716510D01*
X154699500Y-82871153D01*
X154699500Y-83028846D01*
X154730261Y-83183489D01*
X154730264Y-83183501D01*
X154790602Y-83329172D01*
X154790609Y-83329185D01*
X154878210Y-83460288D01*
X154878213Y-83460292D01*
X154989707Y-83571786D01*
X154989711Y-83571789D01*
X155120814Y-83659390D01*
X155120827Y-83659397D01*
X155266498Y-83719735D01*
X155266503Y-83719737D01*
X155421153Y-83750499D01*
X155421156Y-83750500D01*
X155421158Y-83750500D01*
X155578844Y-83750500D01*
X155578845Y-83750499D01*
X155733497Y-83719737D01*
X155879179Y-83659394D01*
X156010289Y-83571789D01*
X156121789Y-83460289D01*
X156209394Y-83329179D01*
X156269737Y-83183497D01*
X156300500Y-83028842D01*
X156300500Y-82871158D01*
X156300500Y-82871155D01*
X156300499Y-82871153D01*
X156269737Y-82716503D01*
X156266162Y-82707872D01*
X156209397Y-82570827D01*
X156209390Y-82570814D01*
X156121789Y-82439711D01*
X156121786Y-82439707D01*
X156010292Y-82328213D01*
X156010288Y-82328210D01*
X155879185Y-82240609D01*
X155879172Y-82240602D01*
X155733501Y-82180264D01*
X155733489Y-82180261D01*
X155578845Y-82149500D01*
X155578842Y-82149500D01*
X155557951Y-82149500D01*
X155490912Y-82129815D01*
X155470270Y-82113181D01*
X154875851Y-81518762D01*
X154842366Y-81457439D01*
X154847350Y-81387747D01*
X154848961Y-81383653D01*
X154869737Y-81333497D01*
X154900500Y-81178842D01*
X154900500Y-81021158D01*
X154900500Y-81021155D01*
X154900499Y-81021153D01*
X154869737Y-80866503D01*
X154864895Y-80854814D01*
X154809397Y-80720827D01*
X154809390Y-80720814D01*
X154721789Y-80589711D01*
X154721786Y-80589707D01*
X154610292Y-80478213D01*
X154610288Y-80478210D01*
X154479185Y-80390609D01*
X154479172Y-80390602D01*
X154333501Y-80330264D01*
X154333489Y-80330261D01*
X154178845Y-80299500D01*
X154178842Y-80299500D01*
X154021158Y-80299500D01*
X154021155Y-80299500D01*
X153866510Y-80330261D01*
X153866498Y-80330264D01*
X153720827Y-80390602D01*
X153720814Y-80390609D01*
X153589711Y-80478210D01*
X153589707Y-80478213D01*
X153478213Y-80589707D01*
X153478210Y-80589711D01*
X153390609Y-80720814D01*
X153390602Y-80720827D01*
X153330264Y-80866498D01*
X153330261Y-80866510D01*
X153299500Y-81021153D01*
X126200057Y-81021153D01*
X126200193Y-80572786D01*
X126219898Y-80505754D01*
X126272716Y-80460015D01*
X126341877Y-80450093D01*
X126405424Y-80479137D01*
X126429732Y-80507729D01*
X126510488Y-80638656D01*
X126634544Y-80762712D01*
X126783866Y-80854814D01*
X126950403Y-80909999D01*
X127053191Y-80920500D01*
X131153208Y-80920499D01*
X131255997Y-80909999D01*
X131422534Y-80854814D01*
X131571856Y-80762712D01*
X131695912Y-80638656D01*
X131788014Y-80489334D01*
X131843199Y-80322797D01*
X131853700Y-80220009D01*
X131853700Y-80219986D01*
X135153201Y-80219986D01*
X135163694Y-80322697D01*
X135218841Y-80489119D01*
X135218843Y-80489124D01*
X135310884Y-80638345D01*
X135434854Y-80762315D01*
X135584075Y-80854356D01*
X135584080Y-80854358D01*
X135750502Y-80909505D01*
X135750509Y-80909506D01*
X135853219Y-80919999D01*
X137153199Y-80919999D01*
X138653200Y-80919999D01*
X139953172Y-80919999D01*
X139953186Y-80919998D01*
X140055897Y-80909505D01*
X140092551Y-80897360D01*
X140222319Y-80854358D01*
X140222324Y-80854356D01*
X140371545Y-80762315D01*
X140495515Y-80638345D01*
X140587556Y-80489124D01*
X140587558Y-80489119D01*
X140642705Y-80322697D01*
X140642706Y-80322690D01*
X140653199Y-80219986D01*
X140653200Y-80219973D01*
X140653200Y-79520000D01*
X138653200Y-79520000D01*
X138653200Y-80919999D01*
X137153199Y-80919999D01*
X137153200Y-80919998D01*
X137153200Y-79520000D01*
X135153201Y-79520000D01*
X135153201Y-80219986D01*
X131853700Y-80219986D01*
X131853699Y-78746900D01*
X131853699Y-78691009D01*
X137903200Y-78691009D01*
X137903200Y-78848991D01*
X137944089Y-79001591D01*
X138023081Y-79138408D01*
X138134792Y-79250119D01*
X138271609Y-79329111D01*
X138424209Y-79370000D01*
X138582191Y-79370000D01*
X138734791Y-79329111D01*
X138871608Y-79250119D01*
X138983319Y-79138408D01*
X139062311Y-79001591D01*
X139103200Y-78848991D01*
X139103200Y-78691009D01*
X139062311Y-78538409D01*
X138983319Y-78401592D01*
X138871608Y-78289881D01*
X138734791Y-78210889D01*
X138582191Y-78170000D01*
X138424209Y-78170000D01*
X138271609Y-78210889D01*
X138134792Y-78289881D01*
X138023081Y-78401592D01*
X137944089Y-78538409D01*
X137903200Y-78691009D01*
X131853699Y-78691009D01*
X131853699Y-77320013D01*
X135153200Y-77320013D01*
X135153200Y-78020000D01*
X137153200Y-78020000D01*
X138653200Y-78020000D01*
X140653199Y-78020000D01*
X140653199Y-77321153D01*
X149999500Y-77321153D01*
X149999500Y-77478846D01*
X150030261Y-77633489D01*
X150030264Y-77633501D01*
X150090602Y-77779172D01*
X150090609Y-77779185D01*
X150178210Y-77910288D01*
X150178213Y-77910292D01*
X150289707Y-78021786D01*
X150289711Y-78021789D01*
X150420814Y-78109390D01*
X150420827Y-78109397D01*
X150533698Y-78156149D01*
X150588102Y-78199989D01*
X150610167Y-78266283D01*
X150592888Y-78333983D01*
X150541751Y-78381594D01*
X150533702Y-78385270D01*
X150520823Y-78390604D01*
X150520814Y-78390609D01*
X150389711Y-78478210D01*
X150389707Y-78478213D01*
X150278213Y-78589707D01*
X150278210Y-78589711D01*
X150190609Y-78720814D01*
X150190602Y-78720827D01*
X150130264Y-78866498D01*
X150130261Y-78866510D01*
X150099500Y-79021153D01*
X150099500Y-79178846D01*
X150130261Y-79333489D01*
X150130264Y-79333501D01*
X150190602Y-79479172D01*
X150190609Y-79479185D01*
X150278210Y-79610288D01*
X150278213Y-79610292D01*
X150389707Y-79721786D01*
X150389711Y-79721789D01*
X150520814Y-79809390D01*
X150520827Y-79809397D01*
X150666498Y-79869735D01*
X150666503Y-79869737D01*
X150821153Y-79900499D01*
X150821156Y-79900500D01*
X150821158Y-79900500D01*
X150978844Y-79900500D01*
X150978845Y-79900499D01*
X151133497Y-79869737D01*
X151279179Y-79809394D01*
X151410289Y-79721789D01*
X151521789Y-79610289D01*
X151609394Y-79479179D01*
X151669737Y-79333497D01*
X151700500Y-79178842D01*
X151700500Y-79021158D01*
X151700500Y-79021155D01*
X151700499Y-79021153D01*
X151669739Y-78866511D01*
X151669736Y-78866501D01*
X151648971Y-78816369D01*
X151641502Y-78746900D01*
X151672778Y-78684421D01*
X151675822Y-78681266D01*
X152618270Y-77738819D01*
X152679593Y-77705334D01*
X152705951Y-77702500D01*
X153400223Y-77702500D01*
X153400225Y-77702500D01*
X153493030Y-77664059D01*
X153685136Y-77471951D01*
X153746457Y-77438468D01*
X153816149Y-77443452D01*
X153841707Y-77456532D01*
X153920814Y-77509390D01*
X153920827Y-77509397D01*
X154066498Y-77569735D01*
X154066503Y-77569737D01*
X154221153Y-77600499D01*
X154221156Y-77600500D01*
X154221158Y-77600500D01*
X154378844Y-77600500D01*
X154378845Y-77600499D01*
X154533497Y-77569737D01*
X154679179Y-77509394D01*
X154810289Y-77421789D01*
X154921789Y-77310289D01*
X155009394Y-77179179D01*
X155069737Y-77033497D01*
X155100500Y-76878842D01*
X155100500Y-76721158D01*
X155100500Y-76721155D01*
X155100499Y-76721153D01*
X155094422Y-76690602D01*
X155069737Y-76566503D01*
X155050955Y-76521158D01*
X155009397Y-76420827D01*
X155009390Y-76420814D01*
X154921789Y-76289711D01*
X154921786Y-76289707D01*
X154810292Y-76178213D01*
X154810288Y-76178210D01*
X154679185Y-76090609D01*
X154679175Y-76090604D01*
X154601133Y-76058278D01*
X154546730Y-76014437D01*
X154524665Y-75948143D01*
X154541944Y-75880443D01*
X154545462Y-75874859D01*
X154609394Y-75779179D01*
X154669737Y-75633497D01*
X154700500Y-75478842D01*
X154700500Y-75421153D01*
X159799500Y-75421153D01*
X159799500Y-75578846D01*
X159830261Y-75733489D01*
X159830264Y-75733501D01*
X159890602Y-75879172D01*
X159890609Y-75879185D01*
X159978210Y-76010288D01*
X159978213Y-76010292D01*
X160089707Y-76121786D01*
X160089711Y-76121789D01*
X160220814Y-76209390D01*
X160220827Y-76209397D01*
X160323334Y-76251856D01*
X160366503Y-76269737D01*
X160485927Y-76293492D01*
X160521153Y-76300499D01*
X160521156Y-76300500D01*
X160521158Y-76300500D01*
X160678844Y-76300500D01*
X160772275Y-76281915D01*
X160841867Y-76288142D01*
X160897044Y-76331005D01*
X160920289Y-76396894D01*
X160918085Y-76427722D01*
X160899500Y-76521158D01*
X160899500Y-76678846D01*
X160930261Y-76833489D01*
X160930264Y-76833501D01*
X160990602Y-76979172D01*
X160990609Y-76979185D01*
X161078210Y-77110288D01*
X161078213Y-77110292D01*
X161189707Y-77221786D01*
X161189711Y-77221789D01*
X161320814Y-77309390D01*
X161320827Y-77309397D01*
X161466498Y-77369735D01*
X161466503Y-77369737D01*
X161621153Y-77400499D01*
X161621156Y-77400500D01*
X161621158Y-77400500D01*
X161778844Y-77400500D01*
X161778845Y-77400499D01*
X161933497Y-77369737D01*
X162053542Y-77320013D01*
X162079172Y-77309397D01*
X162079172Y-77309396D01*
X162079179Y-77309394D01*
X162210289Y-77221789D01*
X162321789Y-77110289D01*
X162409394Y-76979179D01*
X162409431Y-76979091D01*
X162441634Y-76901344D01*
X162469737Y-76833497D01*
X162500500Y-76678842D01*
X162500500Y-76521158D01*
X162500500Y-76521155D01*
X162500499Y-76521153D01*
X162480543Y-76420827D01*
X162469737Y-76366503D01*
X162469735Y-76366498D01*
X162409397Y-76220827D01*
X162409390Y-76220814D01*
X162321789Y-76089711D01*
X162321786Y-76089707D01*
X162210292Y-75978213D01*
X162210288Y-75978210D01*
X162079185Y-75890609D01*
X162079172Y-75890602D01*
X161933501Y-75830264D01*
X161933489Y-75830261D01*
X161778845Y-75799500D01*
X161778842Y-75799500D01*
X161621158Y-75799500D01*
X161527722Y-75818085D01*
X161458131Y-75811856D01*
X161402954Y-75768993D01*
X161379710Y-75703103D01*
X161381915Y-75672275D01*
X161400500Y-75578844D01*
X161400500Y-75421155D01*
X161400499Y-75421153D01*
X161388019Y-75358412D01*
X161369737Y-75266503D01*
X161342398Y-75200500D01*
X161309397Y-75120827D01*
X161309390Y-75120814D01*
X161221789Y-74989711D01*
X161221786Y-74989707D01*
X161110292Y-74878213D01*
X161110288Y-74878210D01*
X160979185Y-74790609D01*
X160979172Y-74790602D01*
X160833501Y-74730264D01*
X160833489Y-74730261D01*
X160678845Y-74699500D01*
X160678842Y-74699500D01*
X160521158Y-74699500D01*
X160521155Y-74699500D01*
X160366510Y-74730261D01*
X160366498Y-74730264D01*
X160220827Y-74790602D01*
X160220814Y-74790609D01*
X160089711Y-74878210D01*
X160089707Y-74878213D01*
X159978213Y-74989707D01*
X159978210Y-74989711D01*
X159890609Y-75120814D01*
X159890602Y-75120827D01*
X159830264Y-75266498D01*
X159830261Y-75266510D01*
X159799500Y-75421153D01*
X154700500Y-75421153D01*
X154700500Y-75321158D01*
X154700500Y-75321155D01*
X154700499Y-75321153D01*
X154676499Y-75200499D01*
X154669737Y-75166503D01*
X154660373Y-75143897D01*
X154609397Y-75020827D01*
X154609390Y-75020814D01*
X154521789Y-74889711D01*
X154521786Y-74889707D01*
X154410292Y-74778213D01*
X154410288Y-74778210D01*
X154279185Y-74690609D01*
X154279172Y-74690602D01*
X154133501Y-74630264D01*
X154133489Y-74630261D01*
X153978845Y-74599500D01*
X153978842Y-74599500D01*
X153821158Y-74599500D01*
X153821155Y-74599500D01*
X153666510Y-74630261D01*
X153666498Y-74630264D01*
X153520827Y-74690602D01*
X153520814Y-74690609D01*
X153389711Y-74778210D01*
X153389707Y-74778213D01*
X153278213Y-74889707D01*
X153278210Y-74889711D01*
X153190609Y-75020814D01*
X153190602Y-75020826D01*
X153169841Y-75070952D01*
X153126001Y-75125356D01*
X153059707Y-75147421D01*
X153055280Y-75147500D01*
X152749773Y-75147500D01*
X152656969Y-75185941D01*
X152656968Y-75185942D01*
X151218762Y-76624147D01*
X151157439Y-76657632D01*
X151087747Y-76652648D01*
X151083631Y-76651028D01*
X151033498Y-76630263D01*
X151033488Y-76630260D01*
X150878845Y-76599500D01*
X150878842Y-76599500D01*
X150721158Y-76599500D01*
X150721155Y-76599500D01*
X150566510Y-76630261D01*
X150566498Y-76630264D01*
X150420827Y-76690602D01*
X150420814Y-76690609D01*
X150289711Y-76778210D01*
X150289707Y-76778213D01*
X150178213Y-76889707D01*
X150178210Y-76889711D01*
X150090609Y-77020814D01*
X150090602Y-77020827D01*
X150030264Y-77166498D01*
X150030261Y-77166510D01*
X149999500Y-77321153D01*
X140653199Y-77321153D01*
X140653199Y-77320023D01*
X140653198Y-77320018D01*
X140642705Y-77217302D01*
X140587558Y-77050880D01*
X140587556Y-77050875D01*
X140495515Y-76901654D01*
X140371545Y-76777684D01*
X140222324Y-76685643D01*
X140222319Y-76685641D01*
X140055897Y-76630494D01*
X140055890Y-76630493D01*
X139953186Y-76620000D01*
X138653200Y-76620000D01*
X138653200Y-78020000D01*
X137153200Y-78020000D01*
X137153200Y-76620000D01*
X135853228Y-76620000D01*
X135853212Y-76620001D01*
X135750502Y-76630494D01*
X135584080Y-76685641D01*
X135584075Y-76685643D01*
X135434854Y-76777684D01*
X135310884Y-76901654D01*
X135218843Y-77050875D01*
X135218841Y-77050880D01*
X135163694Y-77217302D01*
X135163693Y-77217309D01*
X135153200Y-77320013D01*
X131853699Y-77320013D01*
X131853699Y-77319998D01*
X131853698Y-77319981D01*
X131843199Y-77217203D01*
X131843198Y-77217200D01*
X131826401Y-77166510D01*
X131788014Y-77050666D01*
X131697238Y-76903494D01*
X131678799Y-76836104D01*
X131699722Y-76769441D01*
X131753364Y-76724671D01*
X131802778Y-76714400D01*
X132200000Y-76714400D01*
X132200000Y-72127975D01*
X132212011Y-72074735D01*
X132934060Y-70555940D01*
X132935555Y-68501409D01*
X132955288Y-68434385D01*
X133008126Y-68388668D01*
X133059555Y-68377500D01*
X136892273Y-68377500D01*
X136959312Y-68397185D01*
X136979954Y-68413819D01*
X137194684Y-68628549D01*
X137228169Y-68689872D01*
X137231003Y-68716230D01*
X137231003Y-73500552D01*
X137211318Y-73567591D01*
X137158514Y-73613346D01*
X137089356Y-73623290D01*
X137082812Y-73622169D01*
X136968846Y-73599500D01*
X136968842Y-73599500D01*
X136811158Y-73599500D01*
X136811155Y-73599500D01*
X136656510Y-73630261D01*
X136656498Y-73630264D01*
X136510827Y-73690602D01*
X136510814Y-73690609D01*
X136379711Y-73778210D01*
X136379707Y-73778213D01*
X136268213Y-73889707D01*
X136268210Y-73889711D01*
X136180609Y-74020814D01*
X136180602Y-74020827D01*
X136120264Y-74166498D01*
X136120261Y-74166510D01*
X136089500Y-74321153D01*
X136089500Y-74478846D01*
X136120261Y-74633489D01*
X136120264Y-74633501D01*
X136180602Y-74779172D01*
X136180609Y-74779185D01*
X136268210Y-74910288D01*
X136268213Y-74910292D01*
X136379707Y-75021786D01*
X136379711Y-75021789D01*
X136510814Y-75109390D01*
X136510827Y-75109397D01*
X136623925Y-75156243D01*
X136656503Y-75169737D01*
X136811153Y-75200499D01*
X136811156Y-75200500D01*
X136811158Y-75200500D01*
X136968844Y-75200500D01*
X136968845Y-75200499D01*
X137123497Y-75169737D01*
X137232990Y-75124383D01*
X137302457Y-75116915D01*
X137327889Y-75124382D01*
X137375006Y-75143899D01*
X137504902Y-75169737D01*
X137529656Y-75174661D01*
X137529659Y-75174662D01*
X137529661Y-75174662D01*
X137687347Y-75174662D01*
X137687348Y-75174661D01*
X137842000Y-75143899D01*
X137987682Y-75083556D01*
X138118792Y-74995951D01*
X138230292Y-74884451D01*
X138317897Y-74753341D01*
X138378240Y-74607659D01*
X138409003Y-74453004D01*
X138409003Y-74295320D01*
X138409003Y-74295317D01*
X138409002Y-74295315D01*
X138383381Y-74166510D01*
X138378240Y-74140665D01*
X138328602Y-74020827D01*
X138317900Y-73994989D01*
X138317893Y-73994976D01*
X138230292Y-73863873D01*
X138230289Y-73863869D01*
X138118795Y-73752375D01*
X138118791Y-73752372D01*
X138041112Y-73700468D01*
X137996307Y-73646855D01*
X137986003Y-73597366D01*
X137986003Y-68458806D01*
X137986002Y-68458802D01*
X137968069Y-68391871D01*
X137968069Y-68391870D01*
X137960277Y-68362794D01*
X137960277Y-68362793D01*
X137952891Y-68350000D01*
X137910578Y-68276713D01*
X137331790Y-67697925D01*
X137245710Y-67648226D01*
X137149699Y-67622500D01*
X137149698Y-67622500D01*
X133060285Y-67622500D01*
X132993246Y-67602815D01*
X132947491Y-67550011D01*
X132936285Y-67498410D01*
X132938882Y-63931153D01*
X152999500Y-63931153D01*
X152999500Y-64088846D01*
X153030261Y-64243489D01*
X153030264Y-64243501D01*
X153090602Y-64389172D01*
X153090609Y-64389185D01*
X153178210Y-64520288D01*
X153178213Y-64520292D01*
X153289707Y-64631786D01*
X153289711Y-64631789D01*
X153420814Y-64719390D01*
X153420827Y-64719397D01*
X153566498Y-64779735D01*
X153566503Y-64779737D01*
X153721153Y-64810499D01*
X153721156Y-64810500D01*
X153721158Y-64810500D01*
X153878844Y-64810500D01*
X153878845Y-64810499D01*
X154033497Y-64779737D01*
X154179179Y-64719394D01*
X154310289Y-64631789D01*
X154421789Y-64520289D01*
X154509394Y-64389179D01*
X154509395Y-64389176D01*
X154509397Y-64389173D01*
X154530159Y-64339048D01*
X154573999Y-64284644D01*
X154640293Y-64262579D01*
X154644720Y-64262500D01*
X162954049Y-64262500D01*
X163021088Y-64282185D01*
X163041730Y-64298819D01*
X168185941Y-69443030D01*
X168256970Y-69514059D01*
X168349775Y-69552500D01*
X175755280Y-69552500D01*
X175822319Y-69572185D01*
X175868074Y-69624989D01*
X175869841Y-69629048D01*
X175890602Y-69679173D01*
X175890609Y-69679185D01*
X175978210Y-69810288D01*
X175978213Y-69810292D01*
X176089707Y-69921786D01*
X176089711Y-69921789D01*
X176220814Y-70009390D01*
X176220827Y-70009397D01*
X176366498Y-70069735D01*
X176366503Y-70069737D01*
X176521153Y-70100499D01*
X176521156Y-70100500D01*
X176521158Y-70100500D01*
X176678844Y-70100500D01*
X176678845Y-70100499D01*
X176833497Y-70069737D01*
X176979179Y-70009394D01*
X177110289Y-69921789D01*
X177221789Y-69810289D01*
X177309394Y-69679179D01*
X177369737Y-69533497D01*
X177400500Y-69378842D01*
X177400500Y-69221158D01*
X177400500Y-69221155D01*
X177400499Y-69221153D01*
X177369738Y-69066510D01*
X177369737Y-69066503D01*
X177353712Y-69027815D01*
X177309397Y-68920827D01*
X177309390Y-68920814D01*
X177221789Y-68789711D01*
X177221786Y-68789707D01*
X177110292Y-68678213D01*
X177110288Y-68678210D01*
X176979185Y-68590609D01*
X176979172Y-68590602D01*
X176833501Y-68530264D01*
X176833489Y-68530261D01*
X176678845Y-68499500D01*
X176678842Y-68499500D01*
X176521158Y-68499500D01*
X176521155Y-68499500D01*
X176366510Y-68530261D01*
X176366498Y-68530264D01*
X176220827Y-68590602D01*
X176220814Y-68590609D01*
X176089711Y-68678210D01*
X176089707Y-68678213D01*
X175978213Y-68789707D01*
X175978210Y-68789711D01*
X175890609Y-68920814D01*
X175890602Y-68920826D01*
X175869841Y-68970952D01*
X175826001Y-69025356D01*
X175759707Y-69047421D01*
X175755280Y-69047500D01*
X168555951Y-69047500D01*
X168488912Y-69027815D01*
X168468270Y-69011181D01*
X164139084Y-64681995D01*
X191699500Y-64681995D01*
X191699500Y-64918004D01*
X191699501Y-64918020D01*
X191730306Y-65152010D01*
X191791394Y-65379993D01*
X191881714Y-65598045D01*
X191881719Y-65598056D01*
X191952677Y-65720957D01*
X191999727Y-65802450D01*
X191999729Y-65802453D01*
X191999730Y-65802454D01*
X192143406Y-65989697D01*
X192143412Y-65989704D01*
X192310295Y-66156587D01*
X192310301Y-66156592D01*
X192497550Y-66300273D01*
X192628918Y-66376118D01*
X192701943Y-66418280D01*
X192701948Y-66418282D01*
X192701951Y-66418284D01*
X192920007Y-66508606D01*
X193147986Y-66569693D01*
X193381989Y-66600500D01*
X193381996Y-66600500D01*
X193618004Y-66600500D01*
X193618011Y-66600500D01*
X193852014Y-66569693D01*
X194079993Y-66508606D01*
X194298049Y-66418284D01*
X194502450Y-66300273D01*
X194689699Y-66156592D01*
X194856592Y-65989699D01*
X195000273Y-65802450D01*
X195118284Y-65598049D01*
X195208606Y-65379993D01*
X195269693Y-65152014D01*
X195300500Y-64918011D01*
X195300500Y-64681989D01*
X195269693Y-64447986D01*
X195208606Y-64220007D01*
X195118284Y-64001951D01*
X195118282Y-64001948D01*
X195118280Y-64001943D01*
X195073842Y-63924976D01*
X195000273Y-63797550D01*
X194872342Y-63630827D01*
X194856593Y-63610302D01*
X194856587Y-63610295D01*
X194689704Y-63443412D01*
X194689697Y-63443406D01*
X194502454Y-63299730D01*
X194502453Y-63299729D01*
X194502450Y-63299727D01*
X194399457Y-63240264D01*
X194298056Y-63181719D01*
X194298045Y-63181714D01*
X194079993Y-63091394D01*
X193852010Y-63030306D01*
X193618020Y-62999501D01*
X193618017Y-62999500D01*
X193618011Y-62999500D01*
X193381989Y-62999500D01*
X193381983Y-62999500D01*
X193381979Y-62999501D01*
X193147989Y-63030306D01*
X192920006Y-63091394D01*
X192701954Y-63181714D01*
X192701943Y-63181719D01*
X192497545Y-63299730D01*
X192310302Y-63443406D01*
X192310295Y-63443412D01*
X192143412Y-63610295D01*
X192143406Y-63610302D01*
X191999730Y-63797545D01*
X191881719Y-64001943D01*
X191881714Y-64001954D01*
X191791394Y-64220006D01*
X191730306Y-64447989D01*
X191699501Y-64681979D01*
X191699500Y-64681995D01*
X164139084Y-64681995D01*
X163253030Y-63795941D01*
X163160226Y-63757500D01*
X163160225Y-63757500D01*
X154644720Y-63757500D01*
X154577681Y-63737815D01*
X154531926Y-63685011D01*
X154530159Y-63680952D01*
X154509397Y-63630826D01*
X154509390Y-63630814D01*
X154421789Y-63499711D01*
X154421786Y-63499707D01*
X154310292Y-63388213D01*
X154310288Y-63388210D01*
X154179185Y-63300609D01*
X154179172Y-63300602D01*
X154033501Y-63240264D01*
X154033489Y-63240261D01*
X153878845Y-63209500D01*
X153878842Y-63209500D01*
X153721158Y-63209500D01*
X153721155Y-63209500D01*
X153566510Y-63240261D01*
X153566498Y-63240264D01*
X153420827Y-63300602D01*
X153420814Y-63300609D01*
X153289711Y-63388210D01*
X153289707Y-63388213D01*
X153178213Y-63499707D01*
X153178210Y-63499711D01*
X153090609Y-63630814D01*
X153090602Y-63630827D01*
X153030264Y-63776498D01*
X153030261Y-63776510D01*
X152999500Y-63931153D01*
X132938882Y-63931153D01*
X132938886Y-63924976D01*
X132939998Y-62397210D01*
X132959731Y-62330185D01*
X133012569Y-62284468D01*
X133063998Y-62273300D01*
X195946300Y-62273300D01*
X196013339Y-62292985D01*
G37*
%TD.AperFunction*%
%TD*%
M02*
