M48
; DRILL file {KiCad 9.0.5} date 2025-11-10T22:11:16+0100
; FORMAT={-:-/ absolute / inch / decimal}
; #@! TF.CreationDate,2025-11-10T22:11:16+01:00
; #@! TF.GenerationSoftware,Kicad,Pcbnew,9.0.5
; #@! TF.FileFunction,Plated,1,2,PTH
FMAT,2
INCH
; #@! TA.AperFunction,Plated,PTH,ViaDrill
T1C0.0118
; #@! TA.AperFunction,Plated,PTH,ComponentDrill
T2C0.0197
; #@! TA.AperFunction,Plated,PTH,ComponentDrill
T3C0.0394
; #@! TA.AperFunction,Plated,PTH,ComponentDrill
T4C0.0472
; #@! TA.AperFunction,Plated,PTH,ComponentDrill
T5C0.0512
; #@! TA.AperFunction,Plated,PTH,ComponentDrill
T6C0.0591
%
G90
G05
T1
X5.018Y-5.518
X5.018Y-5.558
X5.018Y-5.598
X5.018Y-5.638
X5.018Y-5.68
X5.018Y-5.72
X5.018Y-5.764
X5.018Y-5.804
X5.0478Y-3.914
X5.0626Y-2.8465
X5.0669Y-4.5079
X5.0669Y-4.5394
X5.0669Y-4.5709
X5.0709Y-3.914
X5.0783Y-2.874
X5.086Y-5.518
X5.086Y-5.558
X5.086Y-5.598
X5.0866Y-3.685
X5.0866Y-3.7087
X5.0866Y-3.7323
X5.0866Y-3.7559
X5.0866Y-3.7795
X5.0866Y-3.8031
X5.0902Y-2.8465
X5.0945Y-4.5079
X5.0945Y-4.5394
X5.0945Y-4.5709
X5.1098Y-2.874
X5.1177Y-2.6772
X5.1177Y-2.7047
X5.1177Y-2.7323
X5.1177Y-2.7598
X5.1177Y-2.7874
X5.1177Y-2.8465
X5.1378Y-4.0118
X5.1378Y-4.7486
X5.1378Y-4.8622
X5.1453Y-2.6772
X5.1453Y-2.7047
X5.1654Y-3.8937
X5.1654Y-3.9921
X5.168Y-5.518
X5.168Y-5.558
X5.168Y-5.598
X5.1693Y-3.9567
X5.1728Y-2.6772
X5.1969Y-4.0118
X5.1972Y-3.9268
X5.2004Y-2.6772
X5.2205Y-3.9843
X5.2244Y-3.8937
X5.2244Y-3.9567
X5.2244Y-4.1181
X5.2244Y-4.1811
X5.2244Y-4.2362
X5.2283Y-2.8307
X5.2283Y-2.8622
X5.2283Y-2.9173
X5.2283Y-2.9488
X5.2283Y-2.9803
X5.2402Y-3.8031
X5.2402Y-4.0157
X5.248Y-3.685
X5.2542Y-2.8884
X5.2559Y-2.748
X5.2559Y-2.7756
X5.2559Y-4.0512
X5.264Y-5.522
X5.264Y-5.562
X5.264Y-5.602
X5.264Y-5.642
X5.264Y-5.684
X5.264Y-5.724
X5.264Y-5.768
X5.264Y-5.808
X5.2677Y-3.8031
X5.2677Y-4.3031
X5.2677Y-4.4213
X5.2708Y-4.7486
X5.2708Y-4.8622
X5.2717Y-4.0906
X5.2717Y-4.1457
X5.2717Y-4.2087
X5.2756Y-2.6417
X5.2756Y-2.8307
X5.2756Y-2.8622
X5.2756Y-2.9173
X5.2756Y-2.9488
X5.2756Y-2.9803
X5.2756Y-3.685
X5.2835Y-4.0236
X5.2913Y-2.6181
X5.2913Y-2.7047
X5.2953Y-3.2008
X5.2953Y-3.2717
X5.2953Y-3.4094
X5.2953Y-3.8031
X5.2953Y-4.3031
X5.2953Y-4.4213
X5.2992Y-3.5984
X5.3021Y-5.0882
X5.3031Y-2.6417
X5.3031Y-3.685
X5.3041Y-5.1802
X5.311Y-3.7205
X5.311Y-3.748
X5.311Y-3.7756
X5.311Y-4.0512
X5.3189Y-2.6181
X5.3189Y-2.9724
X5.3189Y-3.0039
X5.3189Y-4.1181
X5.3189Y-4.1811
X5.3189Y-4.2362
X5.3228Y-2.7047
X5.3228Y-4.3031
X5.3228Y-4.4213
X5.3261Y-5.0882
X5.3281Y-5.1802
X5.3307Y-2.6417
X5.3307Y-4.3307
X5.3307Y-4.3622
X5.3307Y-4.3937
X5.3386Y-3.7205
X5.3386Y-3.748
X5.3386Y-3.7756
X5.3386Y-3.9724
X5.3386Y-4.0236
X5.3465Y-2.6181
X5.3465Y-3.2362
X5.3465Y-3.3071
X5.3465Y-3.4094
X5.3501Y-5.0882
X5.3504Y-3.5984
X5.3521Y-5.1802
X5.3583Y-2.6417
X5.3583Y-2.7165
X5.3583Y-2.8071
X5.3583Y-4.3307
X5.3583Y-4.3622
X5.3583Y-4.3937
X5.3661Y-2.9724
X5.3661Y-3.0039
X5.3741Y-5.0882
X5.3761Y-5.1802
X5.3858Y-2.7205
X5.3858Y-2.748
X5.3858Y-2.7756
X5.3858Y-2.8031
X5.3894Y-2.9291
X5.3976Y-4.6344
X5.3976Y-4.748
X5.3981Y-5.0882
X5.3985Y-4.8622
X5.4001Y-5.1802
X5.4016Y-3.2008
X5.4016Y-3.2717
X5.4016Y-3.4094
X5.4055Y-3.5984
X5.4094Y-2.9724
X5.4094Y-3.0039
X5.4177Y-2.9281
X5.4221Y-5.0882
X5.4241Y-5.1802
X5.4461Y-5.0882
X5.4481Y-5.1802
X5.4567Y-2.7362
X5.4567Y-2.7913
X5.4567Y-2.9724
X5.4567Y-3.0039
X5.4567Y-3.2362
X5.4567Y-3.3071
X5.4567Y-3.4094
X5.4606Y-3.5984
X5.4701Y-5.0882
X5.4721Y-5.1802
X5.4843Y-2.7638
X5.4843Y-2.8189
X5.5039Y-2.9724
X5.5039Y-3.0039
X5.5118Y-3.2008
X5.5118Y-3.2717
X5.5118Y-3.4094
X5.5157Y-3.5984
X5.5197Y-2.7362
X5.5197Y-2.7913
X5.5301Y-5.3882
X5.5306Y-4.6345
X5.5306Y-4.7481
X5.5315Y-4.8622
X5.5321Y-5.4782
X5.5472Y-2.7638
X5.5472Y-2.8189
X5.5541Y-5.3882
X5.5561Y-5.4782
X5.5781Y-5.3882
X5.5787Y-3.7205
X5.5801Y-5.4782
X5.6021Y-5.3882
X5.6041Y-5.4782
X5.6063Y-3.7205
X5.6261Y-5.3882
X5.6281Y-5.4782
X5.6339Y-3.4094
X5.6339Y-3.5197
X5.6339Y-3.626
X5.6339Y-3.7205
X5.6417Y-4.5197
X5.6417Y-4.6333
X5.6501Y-5.3882
X5.6521Y-5.4782
X5.6575Y-3.752
X5.6575Y-3.7795
X5.6575Y-3.8071
X5.6772Y-3.9291
X5.685Y-4.0236
X5.7244Y-3.878
X5.7244Y-3.9882
X5.7402Y-3.4094
X5.7402Y-3.5197
X5.7402Y-3.626
X5.7411Y-4.7874
X5.7598Y-4.2126
X5.7747Y-4.5197
X5.7747Y-4.6334
X5.7756Y-4.4528
X5.7874Y-3.9331
X5.7874Y-4.1811
X5.7874Y-4.2402
X5.815Y-2.4803
X5.815Y-2.5354
X5.815Y-4.2126
X5.815Y-4.2717
X5.8425Y-2.5079
X5.8425Y-2.563
X5.8425Y-3.8701
X5.8425Y-4.2402
X5.8819Y-3.3386
X5.8819Y-3.3819
X5.8819Y-3.4291
X5.8819Y-4.5236
X5.8819Y-4.6575
X5.8819Y-4.7638
X5.8937Y-3.9331
X5.8937Y-4.3819
X5.9213Y-4.3819
X5.9252Y-4.4409
X5.937Y-3.0472
X5.9409Y-3.1142
X5.9409Y-3.3386
X5.9409Y-3.3819
X5.9409Y-3.4291
X5.9567Y-3.752
X5.9567Y-3.8661
X5.9606Y-5.0197
X5.9606Y-5.0669
X5.9882Y-2.4724
X5.9882Y-2.5039
X5.9882Y-2.5394
X5.9882Y-4.7638
X5.9882Y-4.6544
X6.0098Y-5.021
X6.0098Y-5.0682
X6.0098Y-5.1155
X6.0098Y-5.1627
X6.0118Y-3.4291
X6.0197Y-3.3425
X6.0201Y-4.0922
X6.0201Y-4.1262
X6.0201Y-4.1602
X6.0201Y-4.1942
X6.0201Y-4.2282
X6.0236Y-3.8071
X6.0236Y-3.9331
X6.0276Y-2.4724
X6.0551Y-2.5201
X6.0591Y-2.9685
X6.0669Y-3.1929
X6.0709Y-2.4724
X6.0748Y-3.0236
X6.0945Y-4.3346
X6.122Y-3.2657
X6.122Y-4.3346
X6.1378Y-3.7362
X6.1378Y-3.8031
X6.1378Y-3.8622
X6.1378Y-3.9331
X6.1496Y-3.3425
X6.1496Y-4.3346
X6.1732Y-4.4055
X6.1732Y-4.5118
X6.1811Y-2.4685
X6.1929Y-2.4921
X6.1929Y-4.2913
X6.1929Y-4.3189
X6.2087Y-2.4685
X6.2126Y-3.2441
X6.2205Y-2.4921
X6.2323Y-3.1063
X6.2362Y-2.4685
X6.2362Y-4.5866
X6.2362Y-4.6929
X6.2441Y-3.2244
X6.2441Y-3.2638
X6.248Y-2.4921
X6.248Y-3.0827
X6.2598Y-3.1063
X6.2638Y-2.4685
X6.2756Y-3.0827
X6.2756Y-3.2441
X6.2795Y-4.5118
X6.2796Y-4.4025
X6.2992Y-3.7402
X6.2992Y-3.8071
X6.2992Y-3.8701
X6.2992Y-3.9331
X6.3228Y-2.9724
X6.3425Y-4.6929
X6.3426Y-4.5836
X6.3465Y-3.5906
X6.3465Y-3.6181
X6.3504Y-3.4921
X6.3504Y-3.5197
X6.3543Y-3.2362
X6.3543Y-3.2992
X6.3661Y-3.0157
X6.4213Y-3.2362
X6.4213Y-3.2992
X6.5472Y-3.2362
X6.5472Y-3.2992
X6.5669Y-3.6969
X6.5709Y-3.5827
X6.5709Y-3.6102
X6.5748Y-3.4961
X6.5748Y-3.5236
X6.6142Y-3.2362
X6.6142Y-3.2992
X6.6339Y-3.6969
X6.7205Y-2.4921
X6.7362Y-2.4685
X6.7441Y-4.4528
X6.7441Y-4.4803
X6.7441Y-4.5079
X6.748Y-2.4921
X6.7638Y-2.4685
X6.8189Y-4.378
X6.8346Y-3.6969
X6.8386Y-4.5787
X6.8465Y-4.378
X6.8622Y-2.4685
X6.8661Y-4.5787
X6.874Y-4.378
X6.878Y-2.4921
X6.8898Y-2.4685
X6.8937Y-4.5787
X6.8976Y-3.5787
X6.8976Y-3.6063
X6.9016Y-3.6969
X6.9055Y-2.4921
X6.9173Y-3.5
X6.9173Y-3.5276
X6.9213Y-3.9094
X6.9213Y-4.0157
X6.937Y-4.7283
X6.937Y-4.8346
X6.937Y-4.9213
X6.9528Y-2.7283
X6.9843Y-3.7756
X6.9843Y-3.8543
X6.9843Y-3.9606
X7.0079Y-4.4961
X7.0079Y-4.5236
X7.0079Y-4.5512
X7.0433Y-4.8346
X7.0433Y-4.9213
X7.0434Y-4.7253
X7.0472Y-3.7756
X7.0512Y-4.5709
X7.0512Y-4.5984
X7.0512Y-4.626
X7.0669Y-3.5551
X7.0669Y-3.626
X7.0669Y-3.6969
X7.0709Y-3.8701
X7.0709Y-3.9252
X7.0709Y-3.9843
X7.0709Y-4.0394
X7.0827Y-3.2717
X7.0827Y-3.2992
X7.0906Y-4.7008
X7.1181Y-4.7008
X7.1339Y-3.5551
X7.1339Y-3.626
X7.1339Y-3.6969
X7.1457Y-4.7008
X7.1772Y-3.8701
X7.1772Y-3.9252
X7.1772Y-3.9843
X7.1772Y-4.0118
X7.1772Y-4.0394
X7.1811Y-4.5669
X7.1811Y-4.5945
X7.1811Y-4.622
X7.3937Y-4.0118
X7.4291Y-3.8976
T2
X6.3551Y-2.7465
X6.3551Y-2.8016
X6.3827Y-2.7189
X6.3827Y-2.774
X6.3827Y-2.8291
X6.4093Y-2.7465
X6.4093Y-2.8016
X6.4378Y-2.7189
X6.4378Y-2.774
X6.4378Y-2.8291
X6.4654Y-2.7465
X6.4654Y-2.8016
T3
X7.6378Y-3.2209
X7.6378Y-3.3209
X7.6378Y-3.4209
X7.6378Y-3.5209
X7.6378Y-3.6209
X7.6378Y-3.7209
X7.6378Y-3.8209
X7.6378Y-3.9209
X7.6496Y-2.7465
X7.6496Y-2.8465
X7.6496Y-2.9465
X7.6496Y-3.0465
T4
X5.0592Y-3.1012
X5.0748Y-4.1693
X5.1181Y-5.3661
X5.1181Y-5.7598
X5.4529Y-3.1012
X5.4685Y-4.1693
X6.4724Y-5.4803
X6.4961Y-4.4803
X6.5142Y-5.7439
X6.5441Y-3.8916
X6.5591Y-4.7441
X6.5598Y-4.9567
X6.6142Y-5.7439
X6.6441Y-3.8916
X6.6591Y-4.7441
X6.6598Y-4.9567
X6.7142Y-5.7439
X6.7441Y-3.8916
X6.7591Y-4.7441
X6.7598Y-4.9567
X6.8661Y-5.4803
X6.8898Y-4.4803
T5
X5.3957Y-5.7611
X5.5925Y-5.7611
X5.854Y-5.762
X6.0509Y-5.762
X7.4914Y-5.3379
X7.4914Y-5.5347
X7.5001Y-4.3494
X7.5001Y-4.5462
T6
X6.6752Y-5.1903
X6.6991Y-4.1782
X7.0453Y-5.1903
X7.0691Y-4.1782
M30
